<svg width="69" height="69" viewBox="0 0 69 69" fill="none" xmlns="http://www.w3.org/2000/svg">
<circle cx="34.0589" cy="34.0589" r="34.0589" fill="#5DBFF7"/>
<path d="M26 34.25L44.375 23L47 24.875L43.0625 35.5L34.5312 43L26 41.125V34.25Z" fill="white"/>
<path fill-rule="evenodd" clip-rule="evenodd" d="M31.887 17.5362C32.4536 17.474 32.8817 17.0011 32.8817 16.4375V16.3157C32.8817 15.7059 32.381 15.2107 31.7643 15.2107H28.8581C28.6111 15.2107 28.4113 15.0128 28.4113 14.7685V13.4422C28.4113 13.3249 28.4581 13.2124 28.5419 13.1295C28.6257 13.0466 28.7399 13 28.8581 13H39.1413C39.2596 13 39.3737 13.0466 39.4575 13.1295C39.5413 13.2124 39.5881 13.3249 39.5881 13.4422V14.7685C39.5881 15.0127 39.3883 15.2107 39.1413 15.2107H36.2351C35.6184 15.2107 35.1177 15.7059 35.1177 16.3157V16.4375C35.1177 17.0011 35.5458 17.474 36.1124 17.5362C45.606 18.575 53 26.5459 53 36.2103C53 46.5809 44.4869 55 34 55C23.5131 55 15 46.5812 15 36.2103C15 26.5464 22.3942 18.5754 31.8876 17.5362H31.887ZM46.782 29.378C47.8961 31.4093 48.5288 33.738 48.5288 36.2104C48.5288 44.1407 42.0182 50.5788 33.9988 50.5788C25.9795 50.5788 19.4689 44.1409 19.4689 36.2104C19.4689 28.2804 25.9795 21.8429 33.9988 21.8429C36.499 21.8429 38.854 22.4683 40.9084 23.5703C41.4503 23.8608 42.1299 23.6621 42.4236 23.1259C42.7177 22.5901 42.5164 21.918 41.9745 21.6272C39.6027 20.3553 36.8859 19.6322 33.9988 19.6322C24.7455 19.6322 17.2338 27.0607 17.2338 36.2107C17.2338 45.3612 24.7455 52.7893 33.9988 52.7893C43.2521 52.7893 50.7638 45.3612 50.7638 36.2107C50.7638 33.3561 50.0329 30.6691 48.7463 28.3237C48.4526 27.7879 47.773 27.5888 47.2308 27.8796C46.6889 28.1701 46.4876 28.8421 46.7817 29.3783L46.782 29.378ZM35.4441 33.2185C35.007 33.0109 34.5164 32.8947 33.9988 32.8947C32.148 32.8947 30.6459 34.3801 30.6459 36.2104C30.6459 36.7222 30.7634 37.2073 30.9733 37.6396L29.8555 38.7449C29.4199 39.1761 29.4199 39.8765 29.8555 40.3077C30.2915 40.7388 31.0002 40.7388 31.4362 40.3077L32.5536 39.2023C32.9907 39.4103 33.4813 39.5261 33.9988 39.5261C35.8497 39.5261 37.3518 38.0407 37.3518 36.2104C37.3518 35.699 37.2343 35.2135 37.0244 34.7816L44.8482 27.0448C45.2838 26.6137 45.2838 25.9132 44.8482 25.4821C44.4122 25.051 43.7035 25.051 43.2675 25.4821L35.4441 33.2185ZM33.9988 35.1054C34.6159 35.1054 35.1166 35.6006 35.1166 36.2104C35.1166 36.8206 34.6159 37.3158 33.9988 37.3158C33.3818 37.3158 32.8811 36.8206 32.8811 36.2104C32.8811 35.6006 33.3818 35.1054 33.9988 35.1054Z" fill="#2862B6"/>
</svg>
