<svg width="69" height="69" viewBox="0 0 69 69" fill="none" xmlns="http://www.w3.org/2000/svg">
<rect width="69" height="69" fill="#E5E5E5"/>
<g clip-path="url(#clip0_304_1616)">
<rect width="1400" height="3699" transform="translate(-491 -1272)" fill="white"/>
<circle cx="34.0589" cy="34.0589" r="34.0589" fill="#5DBFF7"/>
<path d="M24.9098 12C22.7593 12 21 13.7599 21 15.9111V52.0889C21 54.2401 22.7593 56 24.9098 56H43.0902C45.2407 56 47 54.2401 47 52.0889V15.9111C47 13.7599 45.2407 12 43.0902 12L24.9098 12ZM31.821 15.7668H36.1803C36.4669 15.7668 36.6991 16.0955 36.6991 16.5004C36.6991 16.9052 36.4669 17.2339 36.1803 17.2339H31.821C31.5344 17.2339 31.3021 16.9052 31.3021 16.5004C31.3021 16.0955 31.5344 15.7668 31.821 15.7668ZM23.1471 20.9959H44.8526V47.0049H23.1471V20.9959ZM33.9998 49.0816C35.3367 49.0816 36.4203 50.1656 36.4203 51.5028C36.4203 52.8401 35.3366 53.9241 33.9998 53.9241C32.6631 53.9241 31.5794 52.8401 31.5794 51.5028C31.5794 50.1655 32.6631 49.0816 33.9998 49.0816Z" fill="#2862B6"/>
<rect x="26" y="30" width="16" height="10" rx="2" fill="white"/>
<circle cx="38" cy="29" r="3" fill="#2862B6"/>
</g>
<defs>
<clipPath id="clip0_304_1616">
<rect width="1400" height="3699" fill="white" transform="translate(-491 -1272)"/>
</clipPath>
</defs>
</svg>
