<svg width="69" height="69" viewBox="0 0 69 69" fill="none" xmlns="http://www.w3.org/2000/svg">
<circle cx="34.0589" cy="34.0589" r="34.0589" fill="#5DBFF7"/>
<path d="M33.8359 15C23.45 15 15 23.45 15 33.8359C15 44.2225 23.45 52.6718 33.8359 52.6718C44.2218 52.6718 52.6718 44.2218 52.6718 33.8359C52.6718 23.45 44.2225 15 33.8359 15ZM33.8359 51.1021C24.3155 51.1021 16.5697 43.3555 16.5697 33.8351C16.5697 24.3148 24.3155 16.5689 33.8359 16.5689C43.3562 16.5689 51.1021 24.314 51.1021 33.8351C51.1021 43.3562 43.357 51.1021 33.8359 51.1021Z" fill="white"/>
<path d="M31.5335 18.0159C28.8739 18.4028 26.4289 19.4484 24.3692 20.9842C23.6577 21.5144 23.6405 22.5153 24.2676 23.1424L31.9948 30.8704C32.622 31.4976 33.1295 31.2867 33.1303 30.4V19.4715C33.1303 18.5848 32.4106 17.8892 31.5332 18.0165L31.5335 18.0159ZM31.6228 27.762C31.5796 27.9795 31.3813 28.0616 31.1971 27.9384C30.3688 27.3822 28.4359 25.889 30.2809 25.1246C32.1253 24.3611 31.8149 26.7833 31.6228 27.762L31.6228 27.762Z" fill="#2862B6"/>
<path d="M19.6061 32.9977H30.5347C31.4211 32.9977 31.6316 32.4897 31.0047 31.8625L23.2768 24.1345C22.6496 23.5074 21.6491 23.5243 21.1182 24.2353C19.5112 26.3888 18.5217 28.8575 18.1509 31.3995C18.0233 32.2777 18.7188 32.9975 19.6055 32.9975L19.6061 32.9977ZM25.2602 30.1486C26.0241 28.3039 27.5181 30.2356 28.074 31.0646C28.1969 31.2488 28.1155 31.4476 27.8974 31.4903C26.9187 31.6827 24.4971 31.9928 25.2603 30.1487L25.2602 30.1486Z" fill="#2862B6"/>
<path d="M35.671 30.8689L43.3989 23.1417C44.0246 22.5142 44.0083 21.513 43.2985 20.9825C41.1446 19.3754 38.6753 18.386 36.1337 18.0152C35.2555 17.8876 34.536 18.5825 34.536 19.4698L34.5352 30.3983C34.5357 31.2847 35.0438 31.4953 35.6706 30.8687L35.671 30.8689ZM37.3855 25.124C39.2305 25.8878 37.2976 27.3812 36.4695 27.9378C36.2853 28.0613 36.087 27.9795 36.0438 27.7614C35.8514 26.7824 35.5411 24.3602 37.3854 25.124L37.3855 25.124Z" fill="#2862B6"/>
<path d="M30.5319 34.4019H19.6033C18.7169 34.4028 18.0208 35.1222 18.1478 35.9993C18.5341 38.6589 19.5802 41.1048 21.116 43.1636C21.646 43.8742 22.6468 43.8926 23.2737 43.2649L31.0017 35.5377C31.6285 34.9105 31.418 34.4024 30.5316 34.4016L30.5319 34.4019ZM28.0705 36.3357C27.5143 37.164 26.0211 39.0963 25.2573 37.2519C24.4929 35.4078 26.9158 35.7179 27.8947 35.91C28.1119 35.9532 28.194 36.1512 28.0705 36.3357L28.0705 36.3357Z" fill="#2862B6"/>
<path d="M37.1343 32.9968H48.0621C48.9491 32.9959 49.6446 32.2765 49.5179 31.3994C49.131 28.7398 48.0855 26.2945 46.5503 24.2352C46.0192 23.5239 45.0195 23.5061 44.392 24.1339L36.6641 31.8611C36.0381 32.4885 36.2483 32.9963 37.1347 32.9971L37.1343 32.9968ZM39.5954 31.0627C40.1516 30.2344 41.6447 28.3021 42.4086 30.1465C43.1732 31.9912 40.7507 31.6805 39.7721 31.4884C39.5542 31.4458 39.4713 31.2475 39.5954 31.0627L39.5954 31.0627Z" fill="#2862B6"/>
<path d="M48.0623 34.4036L37.1345 34.4033C36.248 34.4033 36.0381 34.9114 36.6644 35.5394L44.3916 43.2666C45.019 43.8929 46.0199 43.8759 46.5501 43.1664C48.1575 41.012 49.1461 38.5436 49.5175 36.0017C49.6448 35.1231 48.9505 34.4031 48.0623 34.4034L48.0623 34.4036ZM42.4084 37.253C41.6455 39.0971 40.1512 37.1651 39.5952 36.3371C39.4708 36.1528 39.5535 35.9546 39.7716 35.9105C40.7509 35.7192 43.1731 35.4092 42.4084 37.253H42.4084Z" fill="#2862B6"/>
<path d="M35.6706 36.5315C35.0435 35.9043 34.536 36.1151 34.5352 37.0015V47.9293C34.5354 48.8164 35.2555 49.5119 36.1325 49.3852C38.7921 48.9983 41.2365 47.9524 43.2965 46.4175C44.0077 45.8864 44.0255 44.8865 43.3978 44.259L35.6706 36.5315ZM37.3851 42.2755C35.541 43.0402 35.8514 40.6171 36.0432 39.6384C36.0859 39.4209 36.2844 39.3388 36.4692 39.4618C37.2972 40.0183 39.2299 41.5117 37.3851 42.2756L37.3851 42.2755Z" fill="#2862B6"/>
<path d="M31.9952 36.5316L24.268 44.2588C23.6408 44.8859 23.6577 45.8871 24.3675 46.4171C26.5214 48.0247 28.9904 49.0136 31.5317 49.3856C32.4103 49.5129 33.1297 48.818 33.1297 47.9307L33.13 37.0021C33.1306 36.1154 32.6223 35.9054 31.9948 36.532L31.9952 36.5316ZM30.2806 42.2756C28.4359 41.5127 30.3685 40.0178 31.1966 39.4618C31.3808 39.3389 31.5791 39.4204 31.6223 39.6385C31.8147 40.6178 32.1254 43.04 30.2807 42.2756L30.2806 42.2756Z" fill="#2862B6"/>
</svg>
