<svg width="69" height="69" viewBox="0 0 69 69" fill="none" xmlns="http://www.w3.org/2000/svg">
<circle cx="34.0589" cy="34.0589" r="34.0589" fill="#5DBFF7"/>
<path d="M19 12H42V17H19V12Z" fill="#2862B6"/>
<path d="M24 56H37V49.0004L24 49V56ZM28.0472 54.905C28.0472 53.3409 29.1487 52.0659 30.5 52.0659C31.8513 52.0659 32.9528 53.333 32.9528 54.905V56H28.0472V54.905Z" fill="#2862B6"/>
<path d="M39.4094 47L39 49.6482V52H52V47H39.4094Z" fill="white"/>
<path d="M19 18L23.5972 48H37.4028L42 18H19ZM37.2212 25.3116C37.3326 25.586 37.2074 25.8957 36.9359 26.0082L35.7397 26.5077C35.6772 26.5359 35.6074 26.5499 35.538 26.5499C35.3292 26.5499 35.1345 26.4232 35.0513 26.2191C34.9399 25.9447 35.0651 25.6349 35.3366 25.5225L36.5328 25.0229C36.804 24.9173 37.1098 25.044 37.2212 25.3116ZM33.987 23.855L35.5867 22.2364C35.7884 22.0323 36.1224 22.0323 36.3308 22.2364C36.5325 22.4405 36.5325 22.7784 36.3308 22.9893L34.7311 24.608C34.6267 24.7136 34.4945 24.7628 34.3626 24.7628C34.2304 24.7628 34.0914 24.7136 33.9941 24.608C33.7856 24.3967 33.7856 24.0659 33.987 23.855ZM33.9662 28.1196C33.9662 30.0479 32.4152 31.6241 30.5028 31.6241C28.5903 31.6241 27.0394 30.0547 27.0394 28.1196C27.0394 26.1845 28.5833 24.6151 30.5028 24.6151C32.4085 24.6219 33.9662 26.1841 33.9662 28.1196ZM32.1095 22.8273L32.6032 21.6169C32.7146 21.3425 33.0204 21.2158 33.2916 21.3282C33.5628 21.441 33.688 21.7504 33.5769 22.0248L33.0832 23.2352C32.9996 23.4393 32.8049 23.566 32.5965 23.566C32.527 23.566 32.4643 23.5521 32.3948 23.5239C32.1233 23.4115 31.9981 23.1017 32.1095 22.8273ZM29.9883 20.3223C29.9883 20.0268 30.2249 19.7945 30.5099 19.7945C30.8019 19.7945 31.0385 20.034 31.0385 20.3223V22.6164C31.0385 22.9119 30.8019 23.1442 30.5099 23.1442C30.2179 23.1442 29.9883 22.9048 29.9883 22.6164V20.3223ZM27.7278 21.3286C27.992 21.2159 28.3051 21.3425 28.4162 21.6173L28.9099 22.8277C29.0213 23.1021 28.8962 23.4118 28.6246 23.5243C28.5622 23.5524 28.4924 23.5664 28.4229 23.5664C28.2142 23.5664 28.0195 23.4397 27.9362 23.2356L27.4425 22.0252C27.3314 21.7508 27.4637 21.441 27.7278 21.3286ZM24.6887 22.2221C24.8904 22.018 25.2243 22.018 25.4328 22.2221L27.0324 23.8408C27.2341 24.0449 27.2341 24.3828 27.0324 24.5937C26.928 24.6993 26.7958 24.7486 26.6639 24.7486C26.5317 24.7486 26.3927 24.6993 26.2954 24.5937L24.6957 22.975C24.4802 22.7709 24.4802 22.4334 24.6887 22.2221ZM23.7915 25.3045C23.903 25.0372 24.2087 24.9034 24.4799 25.0158L25.6761 25.5154C25.9473 25.6281 26.0725 25.9375 25.9614 26.2119C25.8779 26.416 25.6832 26.5427 25.4747 26.5427C25.4053 26.5427 25.3425 26.5288 25.273 26.5006L24.0768 26.001C23.8123 25.8815 23.6804 25.5721 23.7915 25.3045ZM22.79 28.6473C22.498 28.6473 22.2684 28.4079 22.2684 28.1196C22.2684 27.8241 22.505 27.5918 22.79 27.5918H25.0572C25.3492 27.5918 25.5858 27.8312 25.5858 28.1196C25.5858 28.415 25.3492 28.6473 25.0572 28.6473H22.79ZM24.2714 31.258C24.0627 31.258 23.868 31.1314 23.7848 30.9272C23.6733 30.6528 23.7985 30.3431 24.0701 30.2307L25.2663 29.7311C25.5304 29.6184 25.8436 29.745 25.9547 30.0198C26.0661 30.2942 25.9409 30.6039 25.6694 30.7163L24.4732 31.2159C24.4104 31.2441 24.3409 31.258 24.2714 31.258ZM27.0186 32.391L25.419 34.0096C25.3146 34.1152 25.1824 34.1645 25.0504 34.1645C24.9182 34.1645 24.7793 34.1152 24.6819 34.0096C24.4802 33.8055 24.4802 33.4676 24.6819 33.2567L26.2816 31.638C26.4833 31.4339 26.8172 31.4339 27.0257 31.638C27.2341 31.8421 27.2271 32.1801 27.0186 32.391ZM28.8965 33.4115L28.4028 34.622C28.3192 34.8261 28.1245 34.9527 27.9161 34.9527C27.8466 34.9527 27.7839 34.9388 27.7144 34.9106C27.4432 34.7979 27.318 34.4885 27.4291 34.2141L27.9228 33.0037C28.0342 32.7292 28.34 32.6026 28.6112 32.715C28.8824 32.8345 29.0076 33.1443 28.8965 33.4115ZM31.0244 35.9237C31.0244 36.2192 30.7878 36.4515 30.5029 36.4515C30.2108 36.4515 29.9742 36.212 29.9742 35.9237V33.6296C29.9742 33.3341 30.2108 33.1018 30.5029 33.1018C30.7949 33.1018 31.0244 33.3412 31.0244 33.6296V35.9237ZM33.2779 34.9174C33.2154 34.9456 33.1456 34.9595 33.0761 34.9595C32.8674 34.9595 32.6727 34.8328 32.5895 34.6287L32.0958 33.4183C31.9843 33.1439 32.1095 32.8342 32.381 32.7217C32.6522 32.609 32.9583 32.7357 33.0694 33.0104L33.5631 34.2208C33.6742 34.4952 33.542 34.805 33.2779 34.9174ZM36.3241 34.0168C36.2197 34.1224 36.0875 34.1716 35.9555 34.1716C35.8233 34.1716 35.6843 34.1224 35.587 34.0168L33.9873 32.3981C33.7856 32.194 33.7856 31.8561 33.9873 31.6452C34.1891 31.4411 34.523 31.4411 34.7314 31.6452L36.3311 33.2638C36.5258 33.4747 36.5258 33.8126 36.3241 34.0168ZM37.2141 30.9415C37.1306 31.1456 36.9359 31.2723 36.7275 31.2723C36.658 31.2723 36.5952 31.2584 36.5258 31.2302L35.3295 30.7306C35.0583 30.6179 34.9331 30.3085 35.0442 30.0341C35.1557 29.7597 35.4614 29.633 35.7326 29.7454L36.9289 30.245C37.2004 30.3574 37.3256 30.6739 37.2141 30.9415ZM38.2157 28.6614H35.9485C35.6565 28.6614 35.4199 28.4219 35.4199 28.1336C35.4199 27.8449 35.6565 27.6058 35.9485 27.6058H38.2157C38.5077 27.6058 38.7373 27.8452 38.7373 28.1336C38.7373 28.4223 38.5007 28.6614 38.2157 28.6614Z" fill="white"/>
<path d="M39.6485 41L39 45H52C51.9718 43.8939 51.027 43.0101 49.8709 43.0101H48.8134V41H39.6485Z" fill="#2862B6"/>
<path d="M39 56H49.9663C51.087 56 52 54.7766 52 53.2629V53H39.0001L39 56Z" fill="#2862B6"/>
<path d="M40.9181 37.3602C40.7359 37.588 40.532 37.8013 40.3059 37.978L40 40H48C47.6431 39.3087 46.9363 38.8382 46.1202 38.8382C44.9325 38.8382 43.8105 38.2942 43.0674 37.3602L41.9964 36L40.9181 37.3602Z" fill="white"/>
</svg>
