<svg width="69" height="69" viewBox="0 0 69 69" fill="none" xmlns="http://www.w3.org/2000/svg">
<circle cx="34.0589" cy="34.0589" r="34.0589" fill="#5DBFF7"/>
<path d="M37.1107 18.3906V16.1906H40.2776V12H29.722V16.1906H32.8889V18.3906C23.3889 19.4381 16 27.4001 16 37.1429C16 47.5667 24.4972 56 35 56C45.5028 56 54 47.5667 54 37.1429C53.9996 27.4524 46.6105 19.4382 37.1102 18.3906H37.1107ZM34.9998 53.9048C25.711 53.9048 18.1109 46.3618 18.1109 37.1429C18.1109 27.924 25.711 20.381 34.9998 20.381C44.2886 20.381 51.8887 27.924 51.8887 37.1429C51.8887 46.3618 44.2886 53.9048 34.9998 53.9048Z" fill="#2862B6"/>
<path d="M35.4742 23C27.4576 23 21 29.2463 21 37C21 44.7539 27.4578 51 35.4742 51C40.8188 51 45.4948 48.1999 48 43.9999L35.4742 36.9998V23Z" fill="#2862B6"/>
<rect x="29" y="12" width="12" height="3" fill="white"/>
</svg>
