<svg width="69" height="69" viewBox="0 0 69 69" fill="none" xmlns="http://www.w3.org/2000/svg">
<circle cx="34.5" cy="34.5" r="29.5" fill="#5DBFF7"/>
<circle cx="34.0589" cy="34.0589" r="34.0589" fill="#5DBFF7"/>
<path fill-rule="evenodd" clip-rule="evenodd" d="M38.0001 29.0799C38.0526 24.7989 43.737 21.4579 44 13C44.3685 21.4055 49.7895 24.4851 50 29.0799C49.9474 37.0677 38.1579 37.0677 38.0002 29.0799H38.0001ZM23 45.3682C23 38.4247 32.1578 33.0477 32.6315 19.4741C33.1579 32.9956 41.8944 37.9552 42.263 45.3682C42.1576 58.2106 23.1576 58.2106 23 45.3682ZM30 45.838C29.2631 41.8704 29.737 37.224 31.3157 33.6738C28.842 38.8946 27.263 42.6013 27.3684 45.7337C27.2629 48.6571 30.6841 48.8139 30 45.8383V45.838ZM23.3685 24.016C23.3685 21.7189 26.4212 19.9439 26.5791 15.4541C26.7371 19.9438 29.6319 21.5622 29.7898 24.016C29.7373 28.2969 23.4214 28.2969 23.3688 24.016H23.3685ZM25.6842 24.1726C25.4737 22.8676 25.6317 21.3535 26.1578 20.1527C25.3157 21.8753 24.7893 23.1286 24.8422 24.1726C24.7896 25.1125 25.9473 25.1646 25.6842 24.1726H25.6842ZM42.3688 29.3934C41.9477 26.9397 42.2108 24.0683 43.2108 21.8235C41.6318 25.0603 40.6846 27.4095 40.7372 29.3413C40.6846 31.1163 42.7898 31.2728 42.3688 29.3934V29.3934Z" fill="#142768"/>
<path fill-rule="evenodd" clip-rule="evenodd" d="M23 45.3682C23 38.4247 32.1578 33.0477 32.6315 19.4741C33.1579 32.9956 41.8944 37.9552 42.263 45.3682C42.1576 58.2106 23.1576 58.2106 23 45.3682ZM30 45.838C29.2631 41.8704 29.737 37.224 31.3157 33.6738C28.842 38.8946 27.263 42.6013 27.3684 45.7337C27.2629 48.6572 30.6841 48.8136 30 45.838ZM23.3685 24.016C23.3685 21.719 26.4212 19.9439 26.5791 15.4541C26.7371 19.9438 29.6319 21.5622 29.7898 24.016C29.7373 28.2969 23.421 28.2969 23.3685 24.016ZM25.6842 24.1727C25.4737 22.8677 25.6317 21.3535 26.1578 20.1527C25.3157 21.8753 24.7893 23.1286 24.8422 24.1727C24.7896 25.1125 25.9473 25.1646 25.6842 24.1727Z" fill="#2862B6"/>
<path fill-rule="evenodd" clip-rule="evenodd" d="M23.3691 24.016C23.3691 21.719 26.4219 19.9439 26.5798 15.4541C26.7378 19.9438 29.6325 21.5622 29.7904 24.016C29.7379 28.2969 23.4217 28.2969 23.3691 24.016ZM25.6849 24.1727C25.4744 22.8677 25.6323 21.3535 26.1585 20.1527C25.3164 21.8753 24.79 23.1286 24.8428 24.1727C24.7903 25.1125 25.948 25.1646 25.6849 24.1727Z" fill="white"/>
</svg>
