<svg width="39" height="39" viewBox="0 0 39 39" fill="none" xmlns="http://www.w3.org/2000/svg">
<rect width="39" height="39" rx="10" fill="#2862B6"/>
<path d="M31.8351 6H9.14164L6.80859 6.90521V8.31124H33.387V6.90521L31.8351 6Z" fill="white"/>
<path d="M29.7513 31.1658C27.7856 32.7844 24.057 33.3602 20.3436 33.3602C18.9558 33.3602 17.5708 33.2795 16.28 33.1433C11.9041 32.6798 10.0214 31.1322 9.22266 30.0222C9.49376 30.9887 10.2262 31.9882 11.8566 32.8972C15.2185 34.7724 22.7191 34.7076 26.7919 33.609C28.8884 33.0429 29.8694 31.8767 30.2956 30.6327C30.1376 30.8194 29.9565 30.997 29.7515 31.1658L29.7513 31.1658Z" fill="white"/>
<path d="M8.81863 23.2202C8.94813 24.2544 9.59459 24.4897 9.59459 24.4897H14.7674C14.7674 24.4897 9.85281 25.7521 9.40006 27.3035C9.26572 27.7645 9.06367 28.1445 9.16093 28.7856C9.16603 28.8178 9.84851 31.9658 16.3366 32.6528C22.1642 33.2687 27.3015 32.5268 29.4242 30.7782C30.1137 30.2099 30.4971 29.5301 30.564 28.7689C30.5664 28.2428 30.5379 27.7506 30.4786 27.3403C30.2209 25.5296 25.0472 24.2995 25.0472 24.2995C25.0472 24.2995 29.5086 24.4282 30.349 24.2987C31.1905 24.1692 31.3846 23.383 31.3846 23.383L32.4644 8.69678H7.67578L8.81863 23.2202ZM28.3226 28.6601C28.2782 28.7216 28.2204 28.7821 28.1627 28.8433C20.0729 24.3199 12.1255 28.4078 11.5367 28.7232C11.4843 28.6617 11.4322 28.5996 11.3948 28.5368C11.2554 28.3473 11.2401 28.0346 11.2401 28.0346C11.2401 26.4931 15.5862 25.4175 19.8636 25.4175C19.8634 25.4175 29.3449 25.8563 28.3228 28.6601L28.3226 28.6601ZM9.50579 10.6227H11.773C12.1613 9.85234 13.0657 10.0028 13.2602 10.5845C13.4539 11.1657 13.319 11.4384 12.6084 11.5676C11.8971 11.6972 11.773 11.008 11.773 11.008H9.50574L9.50579 10.6227Z" fill="white"/>
<rect width="39" height="39" rx="10" fill="#2862B6"/>
<path d="M31.8351 6H9.14164L6.80859 6.90521V8.31124H33.387V6.90521L31.8351 6Z" fill="white"/>
<path d="M29.7513 31.1658C27.7856 32.7844 24.057 33.3602 20.3436 33.3602C18.9558 33.3602 17.5708 33.2795 16.28 33.1433C11.9041 32.6798 10.0214 31.1322 9.22266 30.0222C9.49376 30.9887 10.2262 31.9882 11.8566 32.8972C15.2185 34.7724 22.7191 34.7076 26.7919 33.609C28.8884 33.0429 29.8694 31.8767 30.2956 30.6327C30.1376 30.8194 29.9565 30.997 29.7515 31.1658L29.7513 31.1658Z" fill="white"/>
<path d="M8.81863 23.2202C8.94813 24.2544 9.59459 24.4897 9.59459 24.4897H14.7674C14.7674 24.4897 9.85281 25.7521 9.40006 27.3035C9.26572 27.7645 9.06367 28.1445 9.16093 28.7856C9.16603 28.8178 9.84851 31.9658 16.3366 32.6528C22.1642 33.2687 27.3015 32.5268 29.4242 30.7782C30.1137 30.2099 30.4971 29.5301 30.564 28.7689C30.5664 28.2428 30.5379 27.7506 30.4786 27.3403C30.2209 25.5296 25.0472 24.2995 25.0472 24.2995C25.0472 24.2995 29.5086 24.4282 30.349 24.2987C31.1905 24.1692 31.3846 23.383 31.3846 23.383L32.4644 8.69678H7.67578L8.81863 23.2202ZM28.3226 28.6601C28.2782 28.7216 28.2204 28.7821 28.1627 28.8433C20.0729 24.3199 12.1255 28.4078 11.5367 28.7232C11.4843 28.6617 11.4322 28.5996 11.3948 28.5368C11.2554 28.3473 11.2401 28.0346 11.2401 28.0346C11.2401 26.4931 15.5862 25.4175 19.8636 25.4175C19.8634 25.4175 29.3449 25.8563 28.3228 28.6601L28.3226 28.6601ZM9.50579 10.6227H11.773C12.1613 9.85234 13.0657 10.0028 13.2602 10.5845C13.4539 11.1657 13.319 11.4384 12.6084 11.5676C11.8971 11.6972 11.773 11.008 11.773 11.008H9.50574L9.50579 10.6227Z" fill="white"/>
<rect width="39" height="39" rx="10" fill="#2862B6"/>
<path d="M29.9048 18.1875H13.4361V17.0957H29.2199C29.4015 17.0961 29.5761 17.0259 29.7047 16.9011C29.8334 16.7763 29.9058 16.6067 29.9058 16.4299C29.9058 16.2531 29.8334 16.0836 29.7047 15.9588C29.5761 15.8339 29.4015 15.764 29.2199 15.7642H13.4361V7.06528C13.4361 6.78277 13.3207 6.51175 13.1153 6.31195C12.9098 6.1122 12.6311 6 12.3407 6H10.0956C9.80502 6 9.5263 6.1122 9.32082 6.31195C9.11534 6.5117 9 6.78274 9 7.06528V24.0109C9 24.2934 9.11539 24.5643 9.32082 24.7641C9.52625 24.9638 9.805 25.076 10.0956 25.076H12.2487H12.2485C12.5636 25.076 12.8656 25.1978 13.0883 25.4143C13.3111 25.6309 13.4361 25.9245 13.4361 26.2307V29.7149C13.4361 30.0212 13.3111 30.315 13.0883 30.5314C12.8656 30.7479 12.5636 30.8697 12.2485 30.8697H11.8257V33H24.1079V30.8697H24.0466C23.6772 30.8695 23.329 30.7024 23.1041 30.4174C22.8795 30.1324 22.8038 29.762 22.8997 29.4151L23.8632 25.9309C23.931 25.6856 24.0802 25.4689 24.2874 25.3144C24.4948 25.1598 24.7488 25.076 25.01 25.076C26.598 25.0745 28.1205 24.4604 29.2436 23.3685C30.3664 22.2767 30.9982 20.7965 31 19.2522C31 18.9697 30.8846 18.6988 30.6792 18.4991C30.4738 18.2993 30.195 18.1871 29.9044 18.1871L29.9048 18.1875Z" fill="white"/>
</svg>
