<svg width="69" height="69" viewBox="0 0 69 69" fill="none" xmlns="http://www.w3.org/2000/svg">
<circle cx="34.0589" cy="34.0589" r="34.0589" fill="#5DBFF7"/>
<path d="M23.0168 45.014C21.4059 43.4476 19.1651 42.8983 17.8631 42.7054L15.9451 40.8404L15 41.7594L16.918 43.6243C17.1164 44.8907 17.6819 47.0693 19.2922 48.6357C21.075 50.3692 23.6324 50.8588 24.8312 50.9966L24.8309 53H26.1679V50.996C27.3658 50.8587 29.9232 50.3695 31.7069 48.6351C33.3178 47.0687 33.8827 44.8898 34.0812 43.6237L35.9991 41.7588L35.054 40.8398L33.1361 42.7048C31.8337 42.8977 29.5932 43.4476 27.9823 45.0134C27.102 45.8694 26.535 46.91 26.1682 47.8844V44.4954C27.3661 44.3582 29.9235 43.8689 31.7072 42.1345C33.3181 40.5682 33.883 38.3892 34.0815 37.1232L35.9994 35.2582L35.0543 34.3392L33.1364 36.2042C31.834 36.3972 29.5935 36.947 27.9826 38.5128C27.1023 39.3688 26.5353 40.4094 26.1685 41.3838V37.9948C27.3664 37.8576 29.9238 37.3683 31.7075 35.634C33.3184 34.0676 33.8833 31.8886 34.0818 30.6226L35.9997 28.7576L35.0546 27.8387L33.1367 29.7036C31.8343 29.8966 29.5938 30.4465 27.9829 32.0122C27.1026 32.8682 26.5356 33.9088 26.1688 34.8832V31.4943C27.3667 31.357 29.9241 30.8678 31.7078 29.1334C33.3187 27.567 33.8836 25.3881 34.0821 24.122L36 22.2571L35.0549 21.3381L33.137 23.203C31.8346 23.396 29.5941 23.9459 27.9832 25.5117C27.1029 26.3677 26.5359 27.4082 26.1691 28.3827L26.1679 27H26.0736C26.859 26.0288 28.1733 24.0672 28.1733 21.8C28.1733 19.6219 26.9599 17.7259 26.1679 16.719V14H24.8309V16.719C24.0389 17.7259 22.8255 19.6219 22.8255 21.8C22.8255 24.0672 24.1398 26.0288 24.9252 27H24.8309V28.385C24.4638 27.4106 23.8971 26.3706 23.0168 25.514C21.4059 23.9477 19.165 23.3984 17.863 23.2054L15.9451 21.3405L15 22.2594L16.9179 24.1244C17.1164 25.3907 17.6819 27.5694 19.2922 29.1358C21.075 30.8693 23.6324 31.3588 24.8312 31.4966V34.8856C24.4641 33.9112 23.8974 32.8712 23.0171 32.0146C21.4062 30.4482 19.1654 29.899 17.8633 29.706L15.9454 27.841L15.0003 28.76L16.9182 30.625C17.1167 31.8913 17.6822 34.07 19.2925 35.6363C21.0753 37.3699 23.6327 37.8594 24.8315 37.9972V41.3862C24.4645 40.4118 23.8977 39.3718 23.0174 38.5152C21.4065 36.9488 19.1657 36.3995 17.8636 36.2066L15.9457 34.3416L15.0006 35.2606L16.9185 37.1255C17.117 38.3919 17.6825 40.5705 19.2928 42.1369C21.0756 43.8704 23.633 44.36 24.8318 44.4978V47.8868C24.4639 46.9109 23.8972 45.8709 23.0168 45.014H23.0168Z" fill="white"/>
<path d="M49 20H51V22H49V20Z" fill="#2862B6"/>
<path d="M49 14H51V19H49V14Z" fill="#2862B6"/>
<path d="M47 22H48V23H47V22Z" fill="#2862B6"/>
<path d="M43 18H44V22H43V18Z" fill="#2862B6"/>
<path d="M43 15H44V17H43V15Z" fill="#2862B6"/>
<path d="M50.8182 23H48.2727V24.3043H47V23H43.1818V43.8696H40L47 53L54 43.8696H50.8182V23ZM48.2727 34.7391H47V28.2174H48.2727V34.7391ZM48.2727 26.913H47V25.6087H48.2727V26.913Z" fill="#2862B6"/>
</svg>
