<svg width="69" height="69" viewBox="0 0 69 69" fill="none" xmlns="http://www.w3.org/2000/svg">
<circle cx="34.0589" cy="34.0589" r="34.0589" fill="#5DBFF7"/>
<path d="M21 18.5L14.5 24.5L28 28.5L49 30L53.5 24.5L47.5 18L42 17L35 16H27.5L21 18.5Z" fill="white"/>
<path d="M55.7684 40.1517C55.9666 39.8287 56.0401 39.4615 55.9792 39.1017C55.9182 38.7418 55.7261 38.4068 55.4289 38.1433C55.3834 38.0998 55.3447 38.0517 55.3132 38C54.2492 38.3048 53.1449 38.587 52 38.8462V38.8465C52.3857 39.3942 52.5915 40.019 52.5954 40.6562C52.5929 40.7711 52.5836 40.8857 52.5674 41C53.6564 40.7345 54.729 40.4544 55.7685 40.1517L55.7684 40.1517Z" fill="white"/>
<path d="M55.6121 32C48.6291 34.2167 41.3312 35.3008 34.0005 35.2108C26.6688 35.3035 19.3706 34.2198 12.3871 32.0017C11.9015 33.1684 11.8718 34.4729 12.3035 35.6602C18.333 37.8188 26.0016 39 34.0002 39C42.0197 39 49.7012 37.8086 55.6986 35.6527V35.653C56.1283 34.467 56.0975 33.165 55.6127 32L55.6121 32Z" fill="#2862B6"/>
<path d="M33.9996 34C42.5017 34 50.5413 32.6637 56.7153 30.2445V30.2448C56.902 29.5851 56.9979 28.903 57 28.2174C57 20.9294 46.6824 15 34 15C21.3176 15 11 20.9295 11 28.2174C11.0021 28.9058 11.0987 29.5907 11.2871 30.2524C17.4392 32.6689 25.4824 34 34.0001 34L33.9996 34ZM48.5452 21.8501L49.3666 22.6761V22.6764C49.523 22.8306 49.6113 23.0415 49.6124 23.2618C49.6134 23.4823 49.5268 23.6939 49.3721 23.8499C49.217 24.0054 49.0066 24.0926 48.7873 24.0915C48.5683 24.0905 48.3586 24.0017 48.2052 23.8443L47.3839 23.0183H47.3836C47.068 22.6951 47.0704 22.1761 47.3891 21.8556C47.7078 21.535 48.2238 21.5326 48.5453 21.85L48.5452 21.8501ZM44.9193 19.3718L45.7406 18.5458H45.7409C46.062 18.2266 46.5794 18.2284 46.8988 18.5496C47.2178 18.8704 47.2196 19.3908 46.9022 19.714L46.0809 20.54C45.7595 20.8577 45.2434 20.8553 44.9247 20.5348C44.606 20.2143 44.6036 19.6953 44.9192 19.3717L44.9193 19.3718ZM43.6166 23.5024L44.4379 24.3284C44.5944 24.4829 44.6827 24.6938 44.6837 24.9141C44.6848 25.1347 44.5981 25.3463 44.4434 25.5018C44.2884 25.6578 44.078 25.7449 43.8586 25.7439C43.6396 25.7428 43.4299 25.654 43.2766 25.4967L42.4553 24.6707H42.4549C42.1393 24.3471 42.1417 23.8281 42.4604 23.5075C42.7791 23.187 43.2952 23.1846 43.6166 23.5024L43.6166 23.5024ZM39.9906 19.3718L40.812 18.5458H40.8123C41.1334 18.2266 41.6508 18.2284 41.9702 18.5496C42.2892 18.8704 42.2909 19.3908 41.9736 19.714L41.1523 20.54C40.8308 20.8577 40.3148 20.8553 39.9961 20.5348C39.6774 20.2143 39.675 19.6953 39.9906 19.3717L39.9906 19.3718ZM39.5093 22.6761V22.6764C39.6657 22.8306 39.7541 23.0415 39.7551 23.2618C39.7562 23.4823 39.6695 23.6939 39.5148 23.8499C39.3598 24.0054 39.1494 24.0926 38.93 24.0915C38.711 24.0905 38.5013 24.0017 38.348 23.8443L37.5267 23.0183H37.5263C37.2107 22.6951 37.2131 22.1761 37.5318 21.8556C37.8505 21.535 38.3665 21.5326 38.688 21.85L39.5093 22.6761ZM35.8833 17.7194L36.7047 16.8934H36.705C37.0264 16.5743 37.5435 16.576 37.8629 16.8972C38.1822 17.2184 38.184 17.7384 37.8667 18.0617L37.0453 18.8877H37.045C36.7236 19.2054 36.2075 19.203 35.8888 18.8825C35.5701 18.562 35.5677 18.043 35.8836 17.7197L35.8833 17.7194ZM34.5807 21.8501C34.7347 22.005 34.8213 22.2152 34.8213 22.4344C34.8213 22.6532 34.7347 22.8635 34.5807 23.0184L33.7594 23.8443C33.4379 24.1635 32.9208 24.1621 32.6015 23.8409C32.2821 23.5197 32.2804 22.9993 32.5977 22.6764L33.4194 21.8501C33.5734 21.6952 33.7821 21.6081 34 21.6081C34.218 21.6081 34.4267 21.6952 34.5807 21.8501L34.5807 21.8501ZM30.9547 16.8934H30.955C31.1091 16.7385 31.3177 16.6514 31.5357 16.6514C31.7537 16.6514 31.9624 16.7385 32.1164 16.8934L32.9381 17.7198C33.0941 17.874 33.1828 18.0849 33.1839 18.3051C33.1849 18.5257 33.0983 18.7373 32.9432 18.8932C32.7882 19.0488 32.5778 19.136 32.3588 19.1349C32.1394 19.1339 31.9301 19.045 31.7764 18.8877L30.9551 18.0617C30.801 17.9068 30.7144 17.6966 30.7144 17.4777C30.7144 17.2585 30.801 17.0483 30.9551 16.8934L30.9547 16.8934ZM29.652 23.0183L28.8307 23.8443C28.5093 24.1621 27.9932 24.1596 27.6745 23.8391C27.3558 23.5186 27.3534 22.9997 27.669 22.6764L28.4907 21.85C28.8121 21.5326 29.3282 21.535 29.6469 21.8556C29.9656 22.1761 29.968 22.695 29.652 23.0183ZM26.8477 17.7198C27.0018 17.5649 27.2108 17.4778 27.4284 17.4778C27.6464 17.4778 27.8554 17.5649 28.0094 17.7198L28.8308 18.5458C28.9865 18.7003 29.0742 18.9109 29.0748 19.1308C29.0755 19.351 28.9892 19.5619 28.8345 19.7175C28.6798 19.8731 28.4698 19.9602 28.2511 19.9595C28.0325 19.9588 27.8227 19.8703 27.6691 19.7141L26.8477 18.8881V18.8877C26.6937 18.7328 26.6071 18.523 26.6071 18.3038C26.6071 18.0845 26.6937 17.8747 26.8477 17.7198V17.7198ZM22.7404 18.5458C22.8944 18.3909 23.1035 18.3037 23.3214 18.3037C23.5391 18.3037 23.7481 18.3909 23.9021 18.5458L24.7234 19.3718C24.8792 19.5263 24.9672 19.7372 24.9679 19.9571C24.9686 20.177 24.8819 20.3883 24.7272 20.5438C24.5725 20.6994 24.3625 20.7862 24.1438 20.7855C23.9251 20.7848 23.7158 20.6967 23.5621 20.54L22.7408 19.7141H22.7404C22.5864 19.5592 22.4998 19.3489 22.4998 19.1297C22.4998 18.9109 22.5864 18.7007 22.7404 18.5458ZM21.9191 24.3284L22.7404 23.5024C23.0622 23.1847 23.5783 23.1871 23.897 23.5076C24.2157 23.8281 24.2181 24.3471 23.9021 24.6707L23.0808 25.4967C22.759 25.8144 22.243 25.812 21.9243 25.4915C21.6056 25.171 21.6032 24.652 21.9191 24.3284ZM17.8118 22.6761L18.6331 21.8501H18.6335C18.9549 21.5327 19.4709 21.5351 19.7897 21.8556C20.1084 22.1761 20.1108 22.6951 19.7948 23.0184L18.9735 23.8444C18.6521 24.1621 18.136 24.1597 17.8173 23.8392C17.4986 23.5187 17.4962 22.9997 17.8118 22.6764V22.6761Z" fill="#2862B6"/>
<path d="M41.4822 43.0415C42.6541 43.6874 43.9887 44.0185 45.3433 43.9992C47.6946 43.9992 49.8291 43.0788 50.6547 41.7097V41.7094C50.8762 41.3551 50.9953 40.9512 51 40.539C50.9919 40.0102 50.8011 39.4991 50.4575 39.084C50.4416 39.057 50.4277 39.0286 50.4156 39C47.3706 39.6665 44.2807 40.1315 41.1684 40.3916C41.2523 40.6906 41.2976 40.9982 41.303 41.3078C41.3014 41.7976 41.1985 42.2823 41 42.7341C41.1539 42.8464 41.3149 42.9488 41.4826 43.0415L41.4822 43.0415Z" fill="#2862B6"/>
<path d="M56.7899 41.0528C55.3065 41.6021 53.7474 42.1041 52.1625 42.5548C50.9534 44.5048 48.3848 45.7598 45.5005 45.7598C43.8279 45.7811 42.1811 45.3244 40.7354 44.4373C40.5518 44.322 40.3744 44.1966 40.2039 44.0614C40.0791 44.2144 39.9464 44.3601 39.8068 44.4978C38.1844 45.9342 36.1179 46.6918 34.0001 46.6262C31.9033 46.6882 29.856 45.9468 28.2381 44.5392C28.2109 44.5189 28.1852 44.4968 28.1604 44.4732C28.1539 44.4667 28.1487 44.4591 28.1422 44.4529L28.1322 44.4417C28.0115 44.3221 27.9036 44.1927 27.795 44.0629C27.6306 44.1901 27.4646 44.3163 27.2879 44.4261L27.2882 44.4265C25.836 45.3197 24.181 45.7809 22.4999 45.7598C19.6016 45.7598 17.0507 44.5091 15.8447 42.557C14.2574 42.106 12.6956 41.6028 11.2039 41.0504C11.1592 41.0344 11.1148 41.0163 11.0701 41L11.0705 41.0004C11.0251 41.2208 11.0014 41.4459 11 41.6714C11 46.1763 20.2421 51 34 51C47.7579 51 57 46.1763 57 41.6714C56.9986 41.4459 56.9749 41.2208 56.9295 41.0004C56.8824 41.0174 56.837 41.0359 56.7896 41.0529L56.7899 41.0528Z" fill="#2862B6"/>
<path d="M28.1618 41.0006C28.0563 41.2377 28.0014 41.4884 28 41.7415C28.0061 42.146 28.1435 42.5411 28.3975 42.8842C28.5661 43.123 28.7717 43.3417 29.0091 43.5342C29.0332 43.5494 29.0565 43.5657 29.0787 43.583C30.462 44.5418 32.2109 45.0444 34 44.9969C35.7818 45.0438 37.5243 44.5464 38.9062 43.5957C39.1763 43.394 39.4081 43.1582 39.5932 42.8969C39.8554 42.552 39.9964 42.1514 40 41.7415C39.9978 41.4884 39.944 41.2374 39.8407 41C37.9215 41.112 35.972 41.1771 34 41.1771C32.029 41.1771 30.0799 41.1123 28.1618 41.0006L28.1618 41.0006Z" fill="#2862B6"/>
<path d="M12.6879 38C12.656 38.0509 12.6169 38.0984 12.5714 38.1411C12.274 38.4047 12.0818 38.7399 12.0208 39.1001C11.9598 39.4603 12.0337 39.8275 12.2317 40.1509C13.2741 40.4542 14.3461 40.7348 15.4344 41C15.4207 40.8856 15.4071 40.7708 15.4071 40.6561C15.415 40.0192 15.6194 39.3952 16 38.8452C14.853 38.5879 13.7489 38.3061 12.688 38.0001L12.6879 38Z" fill="white"/>
<path d="M17.587 39.0001C17.5776 39.0139 17.5759 39.03 17.5654 39.0435C17.2093 39.468 17.0108 39.993 17 40.5363C17.001 40.9273 17.1099 41.3112 17.3152 41.6501C18.1196 43.0598 20.2628 43.9993 22.6555 43.9993C24.0155 44.0179 25.3553 43.6849 26.5317 43.035C26.694 42.9432 26.8505 42.8424 27 42.7326C26.6635 41.9931 26.6037 41.166 26.8303 40.3891C23.719 40.1299 20.6307 39.6658 17.5867 39L17.587 39.0001Z" fill="#2862B6"/>
<path d="M58 9L9 61" stroke="white" stroke-width="2"/>
</svg>
