<svg width="69" height="69" viewBox="0 0 69 69" fill="none" xmlns="http://www.w3.org/2000/svg">
<circle cx="34.0589" cy="34.0589" r="34.0589" fill="#5DBFF7"/>
<path d="M44.5245 44.1208C55.8564 41.5696 49.649 29.1703 45.851 19.6308C43.7024 14.2345 47.2109 12.0004 47.2109 12.0004H45.8931C45.8931 12.0004 42.748 15.1159 44.6736 19.9525C48.0786 28.5033 53.6433 40.3229 43.4847 42.6096C33.3793 44.8876 35.6528 44.849 25.5326 42.6119C15.3774 40.3681 20.8935 28.5719 24.258 20.0087C26.1607 15.1682 23.0112 12 23.0112 12H21.6854C21.6854 12 25.1994 14.2734 23.0762 19.6744C19.3222 29.2268 13.1686 41.7242 24.4979 44.2272C35.7871 46.723 29.7881 50.9398 29.8936 52.833L20.97 53.8341L20.2919 55H48.7891L48.1046 53.7612L39.169 52.7796C39.2698 50.8826 33.2514 46.6607 44.5247 44.12L44.5245 44.1208Z" fill="white"/>
<path d="M25.1527 20.0386C22.0822 28.0981 17.0468 39.3113 26.3165 41.4233C35.5533 43.5289 33.4781 43.5337 42.7017 41.3887C51.9733 39.2362 46.8949 28.0495 43.7871 20L25.1527 20.0386Z" fill="#2862B6"/>
<path d="M58 9L9 61" stroke="white" stroke-width="2"/>
</svg>
