<svg width="69" height="69" viewBox="0 0 69 69" fill="none" xmlns="http://www.w3.org/2000/svg">
<circle cx="34.0589" cy="34.0589" r="34.0589" fill="#5DBFF7"/>
<path d="M14.5 34L15 33H24L41.5 31L51.5 33L52 36H56L57.5 37.5L57 44L56.5 45H54.7113H47L16 42L15 41L14.5 34Z" fill="white"/>
<path d="M55.9829 35.51H52.4654V34.1449C52.4654 33.0831 51.6467 32.2196 50.6128 32.1332C50.4944 27.1597 47.6078 22.8727 43.444 20.7547C45.023 19.2831 45.469 17.5093 45.1393 16.6928C44.7565 15.7433 43.0021 15 41.1451 15C40.1791 15 39.2267 15.1881 38.3138 15.5596C37.0369 16.0795 35.2199 17.3801 33.9806 18.7424C34.2389 18.0401 34.5954 17.4312 35.0913 17.04C35.3649 16.8245 35.4119 16.428 35.1974 16.153C34.983 15.8781 34.5875 15.831 34.3148 16.0464C33.1619 16.9554 32.6016 18.5428 32.3372 20.0857C30.9495 19.5962 29.5077 19.3345 28.037 19.3345C22.6072 19.3345 17.8317 22.6293 15.8689 27.7283C15.8154 27.8671 15.8456 28.0195 15.9368 28.1328C15.5124 29.4572 15.2624 30.9147 15.2414 32.2753C14.5135 32.5815 14 33.305 14 34.1461V40.4333C14 41.552 14.905 42.4623 16.0183 42.4623H16.6515C18.2625 47.181 21.7283 53 29.025 53C30.3194 53 31.5893 52.7599 32.8017 52.2862C34.0163 52.7599 35.2866 53 36.581 53C41.9292 53 45.3778 49.8811 47.5203 45.8557H55.9808C57.0941 45.8557 58 44.9455 58 43.8268V37.54C58.0009 36.4204 57.0954 35.5102 55.982 35.5102L55.9829 35.51ZM16.5073 32.1169C16.5481 30.7995 16.8147 29.3429 17.2597 28.1049L17.2672 28.1045C17.3334 28.1001 17.4193 28.0939 17.5417 28.0798C17.6653 28.0657 17.785 28.0591 17.9008 28.0591C19.2264 28.0591 19.749 28.9579 19.9547 29.7122C20.0836 30.184 20.0213 30.4634 19.9621 30.7343C19.888 31.0718 19.7648 31.6358 20.3598 32.117L16.5073 32.1161L16.5073 32.1169ZM38.7859 16.7309C39.548 16.4207 40.3416 16.2634 41.145 16.2634C42.8033 16.2634 43.8557 16.9204 43.9736 17.1671C44.142 17.6024 43.4492 19.9275 40.5509 21.1086C39.5551 21.5135 37.8055 21.796 36.2975 21.796C34.4419 21.796 33.9007 21.3937 33.8591 21.2915C33.7232 20.7249 36.2155 17.7773 38.7859 16.7308V16.7309ZM15.2591 40.4331V34.1458C15.2591 33.7238 15.6002 33.381 16.0203 33.381H17.5962L17.5935 34.4265C17.5931 34.775 17.8733 35.0588 18.2201 35.0601H18.2219C18.5683 35.0601 18.8498 34.7785 18.8507 34.4305L18.8537 33.3814H27.6028L27.5997 34.4525C27.5992 34.801 27.8794 35.0848 28.2263 35.0861H28.228C28.5744 35.0861 28.8559 34.8045 28.8568 34.4565L28.8599 33.3814L37.6094 33.381L37.6063 34.4789C37.6059 34.8275 37.886 35.1112 38.2329 35.1125H38.2346C38.581 35.1125 38.8626 34.831 38.8634 34.4829L38.8665 33.3814H47.6147L47.6121 34.5058C47.6117 34.8543 47.8919 35.1381 48.2396 35.1385H48.2409C48.5873 35.1385 48.8688 34.857 48.8697 34.508L48.8723 33.3806H50.4469C50.8661 33.3806 51.2081 33.7234 51.2081 34.1454V40.4327C51.2081 40.8548 50.8669 41.1985 50.4469 41.1985L16.0203 41.198C15.6007 41.1985 15.2591 40.8557 15.2591 40.4332L15.2591 40.4331ZM56.7451 43.827C56.7451 44.2491 56.404 44.5928 55.983 44.5928L48.1372 44.5924C48.4494 43.8971 48.7274 43.185 48.9738 42.4625H50.448C51.5613 42.4625 52.4663 41.5522 52.4663 40.4336V36.7745H54.076L54.0733 37.7213C54.0729 38.0698 54.3531 38.3536 54.6999 38.3549H54.7017C55.0481 38.3549 55.3296 38.0734 55.3305 37.7253L55.3331 36.7754H55.9838C56.4039 36.7754 56.7459 37.1182 56.7459 37.5411V43.8271L56.7451 43.827Z" fill="#2862B6"/>
</svg>
