<svg width="82" height="82" viewBox="0 0 82 82" fill="none" xmlns="http://www.w3.org/2000/svg">
<rect x="51.9863" y="82" width="60.0282" height="60.0282" rx="30.0141" transform="rotate(-150 51.9863 82)" fill="#5DBFF7"/>
<path d="M40.998 59C45.772 59 50.3503 57.1563 53.7259 53.8743C57.1016 50.5926 58.998 46.1412 58.998 41.5C58.998 36.8588 57.1016 32.4076 53.7259 29.1257C50.3504 25.8437 45.7719 24 40.998 24C36.2242 24 31.6458 25.8437 28.2702 29.1257C24.8945 32.4074 22.998 36.8588 22.998 41.5C23.0033 46.1396 24.9015 50.5881 28.276 53.8687C31.6505 57.1494 36.2255 58.9949 40.998 59ZM40.998 27.0077C44.9513 27.0077 48.7431 28.5346 51.5383 31.2523C54.3336 33.9701 55.9041 37.656 55.9041 41.4997C55.9041 45.3435 54.3336 49.0297 51.5383 51.7472C48.7429 54.4649 44.9516 55.9918 40.998 55.9918C37.0445 55.9918 33.253 54.4649 30.4578 51.7472C27.6625 49.0294 26.092 45.3435 26.092 41.4997C26.0967 37.6577 27.6689 33.9742 30.4634 31.2573C33.2578 28.5405 37.0462 27.012 40.9984 27.0074L40.998 27.0077Z" fill="white"/>
<path d="M33.2414 49.5882C33.4694 49.588 33.6748 49.4547 33.7622 49.2501C33.8496 49.0455 33.8016 48.8099 33.6409 48.6529C31.6918 46.7547 30.5971 44.182 30.5971 41.4998C30.5971 38.8177 31.6917 36.245 33.6409 34.3467C33.8606 34.1331 33.8606 33.7865 33.6409 33.5728C33.4212 33.3592 33.0646 33.3592 32.8449 33.5728C30.685 35.6766 29.4721 38.5273 29.4721 41.4996C29.4721 44.4719 30.685 47.3228 32.8449 49.4265C32.9498 49.5292 33.0925 49.5873 33.2414 49.5878L33.2414 49.5882Z" fill="white"/>
<path d="M48.3555 49.4269C48.4615 49.53 48.6051 49.5878 48.755 49.5883C48.9039 49.5878 49.0466 49.5297 49.1515 49.4269C51.3114 47.3232 52.5242 44.4724 52.5242 41.5001C52.5242 38.5278 51.3114 35.6769 49.1515 33.5733C48.9318 33.3597 48.5752 33.3597 48.3555 33.5733C48.1357 33.7869 48.1357 34.1336 48.3555 34.3472C50.3046 36.2454 51.3993 38.8181 51.3993 41.5003C51.3993 44.1825 50.3047 46.7551 48.3555 48.6534C48.1362 48.8673 48.1362 49.2134 48.3555 49.4273L48.3555 49.4269Z" fill="white"/>
<path d="M40.9787 50.5238H40.9983C41.8022 50.5238 42.545 50.1068 42.9469 49.4301C43.3487 48.7533 43.3487 47.9193 42.9469 47.2426C42.5449 46.5658 41.8021 46.1488 40.9983 46.1488C40.1968 46.1488 39.4557 46.5634 39.0529 47.237C38.6501 47.9108 38.6464 48.7421 39.0431 49.4191C39.4399 50.0963 40.1772 50.5169 40.9787 50.5238Z" fill="white"/>
<path d="M40.2022 45.0551H41.7943C42.0868 45.0556 42.3683 44.945 42.5785 44.7468C42.7884 44.5488 42.9107 44.2787 42.9193 43.9941L43.2482 33.6035C43.2563 33.3081 43.1415 33.022 42.9298 32.8101C42.7181 32.5979 42.4273 32.4778 42.1232 32.4771H39.8732C39.5691 32.4778 39.2784 32.5979 39.0667 32.8101C38.855 33.022 38.7402 33.3081 38.7483 33.6035L39.0772 43.9941C39.0862 44.2785 39.2085 44.5483 39.4185 44.7462C39.6287 44.9445 39.9097 45.0551 40.2022 45.0551Z" fill="white"/>
</svg>
