<svg width="39" height="40" viewBox="0 0 39 40" fill="none" xmlns="http://www.w3.org/2000/svg">
<rect width="39" height="39" rx="10" fill="#2862B6"/>
<path d="M20.1072 8.00049C17.3046 8.00049 14.6258 9.30517 13.0596 11.662C11.4934 13.9768 11.1224 17.4699 12.2766 20.2893C12.6477 21.173 13.1421 22.0989 13.2658 22.9406C13.5543 24.7925 12.9362 25.3817 11.9056 26.7704L7.78386 32.3683C6.50621 34.0519 5.95105 35.5594 5.49772 38.0005C5.41518 38.3794 8.49805 39.0005 9.99822 39.0002L22.3326 39.06C22.4974 39.06 22.6211 38.8917 22.5386 38.7234C21.7968 36.9978 20.478 35.6091 18.8293 34.0098C18.2523 33.4626 18.3759 33.084 18.6644 32.7471L21.3434 29.1277C20.8076 28.7488 20.3954 28.3282 19.9832 27.7387C19.7359 27.4021 20.0244 27.0652 20.3543 27.3598C21.3846 28.3699 22.3737 29.0011 23.7339 29.8009C24.4346 30.2218 25.0527 30.2218 25.506 30.0955C25.9594 29.9272 26.2478 29.4643 26.3304 28.8751C26.3715 28.6648 26.3715 28.5805 26.6189 28.3279C26.9074 28.0333 27.031 27.6124 26.4952 27.4021L25.4649 27.0232C24.8879 26.8129 25.3823 25.3396 26.083 25.5922L26.9896 25.9288C27.443 26.0971 27.6903 25.7185 27.6903 25.3817C27.6903 24.9188 27.6492 24.8345 27.814 24.4558L28.5969 24.5401C28.968 24.5821 29.2976 24.4138 29.4624 24.1612C29.6272 23.9086 29.6683 23.53 29.5861 23.1932L28.7206 20.2892C28.5558 19.7843 28.6795 19.3211 28.8031 18.8582C28.9268 18.3953 29.1742 17.8902 29.1742 17.3433C29.339 14.9445 28.5146 12.9663 27.3195 11.4933C26.1244 10.0204 24.5582 9.05227 23.1569 8.58935C22.9095 8.50506 22.6624 8.42104 22.4562 8.37903C21.7144 8.12644 20.8902 8.00049 20.1072 8.00049Z" fill="white"/>
<path d="M30.8661 28.6228C30.8249 28.6228 30.7424 28.6228 30.7012 28.5807L28.7229 27.6127C28.517 27.5284 28.4344 27.2761 28.5581 27.0655C28.6406 26.8552 28.8877 26.7709 29.0939 26.8972L31.0723 27.8653C31.2782 27.9495 31.3608 28.2019 31.2371 28.4124C31.1545 28.5385 30.9897 28.6228 30.866 28.6228" fill="white"/>
<path d="M31.5662 25.0452L33.8741 25.1294C34.2452 25.1294 34.2452 25.7186 33.8741 25.7186L31.5662 25.8449C31.0717 25.8449 31.0717 25.0452 31.5662 25.0452" fill="white"/>
<path d="M29.2981 30.0119L30.6583 31.9057C30.8642 32.2003 30.4523 32.5369 30.205 32.2846L28.68 30.517C28.3503 30.0961 29.0096 29.549 29.2981 30.0118" fill="white"/>
<path d="M30.3699 25.8449H29.7929C29.587 25.8449 29.4219 25.6766 29.4219 25.466C29.4219 25.2557 29.5867 25.0872 29.7929 25.0872H30.3699C30.5759 25.0872 30.7409 25.2555 30.7409 25.466C30.7407 25.6766 30.5759 25.8449 30.3699 25.8449Z" fill="white"/>
<path d="M32.1852 28.4544L32.6796 28.791C32.9681 29.0013 32.7621 29.5065 32.3911 29.3802L31.8553 29.2119C31.2785 28.9593 31.6907 28.1175 32.1852 28.4544" fill="white"/>
<path d="M28.2674 29.717C28.1437 29.717 28.02 29.675 27.9789 29.5487L27.6078 29.0858C27.4842 28.9175 27.4842 28.6649 27.6904 28.5386C27.8552 28.4123 28.1026 28.4123 28.2262 28.6229L28.5973 29.0858C28.7209 29.2541 28.7209 29.5067 28.5147 29.6329C28.4322 29.717 28.3499 29.717 28.2674 29.717" fill="white"/>
<path d="M30.9475 29.4221L31.3185 29.885C31.5659 30.1796 31.1948 30.5585 30.9063 30.3479L30.4119 30.0113C29.9583 29.6747 30.5353 28.9592 30.9475 29.4221" fill="white"/>
<path d="M31.9773 26.4763L32.5543 26.5606C32.9253 26.6026 32.8839 27.1498 32.5543 27.1918L31.9362 27.2761C31.3592 27.3181 31.4003 26.3923 31.9773 26.4763" fill="white"/>
</svg>
