<svg width="69" height="69" viewBox="0 0 69 69" fill="none" xmlns="http://www.w3.org/2000/svg">
<circle cx="34.0589" cy="34.0589" r="34.0589" fill="#5DBFF7"/>
<path d="M16 28V23L21 19L26 19.5L29.5 23.5L33 26.5V31.5L28.5 35H18L15.5 31.5L16 28Z" fill="white"/>
<path d="M37.999 34.5L40.9394 31.1506L47.294 31.9376L50.9995 35.5L50.4985 40L50.9985 44L47.294 48L34.9985 45L33.7445 40.9604L34.9985 37.5L37.999 34.5Z" fill="white"/>
<path d="M51.3986 39.9237C51.6042 39.2356 51.7069 38.5213 51.7032 37.8039C51.7016 35.4135 50.5461 33.1673 48.592 31.756C46.638 30.3446 44.1197 29.9371 41.8116 30.6591C39.5036 31.3811 37.6822 33.1459 36.908 35.4105C35.3751 35.9331 34.1376 37.0706 33.4999 38.5423C33.0812 39.493 32.9313 40.5379 33.0652 41.5661C33.1994 42.5943 33.6128 43.5672 34.2619 44.3823C34.4697 45.107 35.3841 47.2406 39.0827 48.6082C38.8721 49.3144 38.4404 49.9368 37.8498 50.3862C37.4453 50.6368 36.9518 50.7064 36.4923 50.5776C36.3139 50.5321 36.1244 50.5605 35.9676 50.6561C35.8108 50.7516 35.7001 50.9058 35.6611 51.0838C35.5792 51.4492 35.8062 51.8125 36.1735 51.9043C36.4456 51.9697 36.7249 52.002 37.0047 51.9999C37.5684 52.0008 38.1208 51.8442 38.5979 51.5487C39.4591 50.9223 40.0948 50.0406 40.4127 49.0323C41.3169 49.2964 42.2542 49.4347 43.1973 49.4426C44.2237 49.4685 45.241 49.2478 46.1619 48.7997C47.307 48.7078 48.4053 48.3103 49.3398 47.6506C50.2744 46.9906 51.0097 46.0924 51.468 45.0524C52.2008 43.4143 52.1755 41.542 51.3987 39.9237L51.3986 39.9237ZM50.2071 44.5054C49.6072 45.8642 48.4145 46.8805 46.9655 47.2682C46.0264 46.2843 44.8186 45.5907 43.4882 45.2713C44.0077 43.6021 43.8742 41.8012 43.1141 40.2248C43.0328 40.041 42.8747 39.9009 42.6808 39.8404C42.487 39.7803 42.2764 39.8056 42.1029 39.91C40.5562 40.7462 39.3808 42.1212 38.8056 43.767C37.6596 43.2944 36.4076 43.1295 35.1762 43.2883H35.1623C34.384 42.1557 34.1873 40.7288 34.6307 39.432C35.0739 38.1351 36.1061 37.118 37.4203 36.6823C37.7391 36.6829 38.0202 36.4771 38.1129 36.1764C38.6513 34.2532 40.1035 32.7082 42.0061 32.035C43.9085 31.3616 46.0239 31.6437 47.6774 32.7912C49.3308 33.9388 50.3157 35.8086 50.3178 37.8039C50.3169 38.4682 50.2093 39.1285 49.9993 39.7595C49.9307 39.9558 49.9563 40.1723 50.0686 40.3478C50.7424 41.6434 50.7931 43.1689 50.2071 44.5054L50.2071 44.5054ZM33.5 26.2335C32.8623 24.7618 31.6248 23.6243 30.092 23.1017C29.3177 20.8371 27.4963 19.0723 25.1883 18.3503C22.8802 17.6284 20.3618 18.0359 18.4079 19.4472C16.4538 20.8585 15.2983 23.1047 15.2967 25.4951C15.293 26.2125 15.3957 26.9268 15.6013 27.615C14.8245 29.2332 14.7992 31.1055 15.532 32.7436C15.9903 33.7838 16.7257 34.6819 17.6602 35.3419C18.5947 36.0016 19.693 36.399 20.8381 36.4909C21.759 36.9391 22.7763 37.1598 23.8027 37.1339C24.7458 37.1259 25.6831 36.9876 26.5873 36.7236C26.9052 37.7319 27.5409 38.6136 28.4021 39.24C28.8793 39.5355 29.4316 39.6921 29.9953 39.6912C30.2751 39.6933 30.5544 39.6609 30.8265 39.5956C31.1938 39.5037 31.4208 39.1404 31.3389 38.775C31.2999 38.597 31.1892 38.4429 31.0324 38.3473C30.8757 38.2518 30.6861 38.2234 30.5077 38.2689C30.0482 38.3977 29.5546 38.3281 29.1502 38.0774C28.5596 37.6281 28.1279 37.0056 27.9173 36.2995C31.6163 34.9318 32.5303 32.7982 32.7381 32.0735C33.3909 31.2606 33.8068 30.2871 33.941 29.258C34.0752 28.2292 33.9228 27.1836 33.5001 26.2336L33.5 26.2335ZM31.8376 30.9795H31.8236C30.5923 30.8207 29.3403 30.9856 28.1942 31.4581C27.6191 29.8123 26.4437 28.4374 24.897 27.6012C24.7235 27.4968 24.5129 27.4714 24.319 27.5316C24.1251 27.592 23.9671 27.7322 23.8858 27.9159C23.1257 29.4924 22.9921 31.2933 23.5116 32.9625C22.1813 33.2818 20.9735 33.9754 20.0343 34.9593C18.5998 34.5774 17.4158 33.5779 16.8113 32.2381C16.2067 30.8982 16.2457 29.3609 16.9173 28.0527C17.0407 27.8766 17.0716 27.6531 17.0005 27.4507C16.7905 26.8197 16.6829 26.1594 16.682 25.4951C16.6842 23.4998 17.6691 21.63 19.3225 20.4824C20.9758 19.3348 23.0913 19.0528 24.9937 19.7262C26.8964 20.3994 28.3485 21.9444 28.8869 23.8676C28.9692 24.1369 29.2119 24.3274 29.4964 24.3463C30.8338 24.7606 31.8941 25.775 32.3555 27.0819C32.8168 28.3888 32.6245 29.834 31.8375 30.9794L31.8376 30.9795Z" fill="#2862B6"/>
<path d="M51.3988 39.9238C51.6044 39.2357 51.7071 38.5214 51.7034 37.804C51.7018 35.4136 50.5463 33.1674 48.5922 31.7561C46.6382 30.3447 44.1199 29.9372 41.8118 30.6592C39.5038 31.3812 37.6824 33.146 36.9082 35.4106C35.3753 35.9332 34.1378 37.0707 33.5001 38.5424C33.0814 39.4931 32.9315 40.538 33.0654 41.5662C33.1996 42.5943 33.613 43.5673 34.2621 44.3824C34.4699 45.1071 35.3843 47.2407 39.0829 48.6083C38.8723 49.3145 38.4406 49.9369 37.85 50.3863C37.4455 50.6369 36.952 50.7065 36.4925 50.5777C36.3141 50.5322 36.1246 50.5606 35.9678 50.6562C35.811 50.7517 35.7003 50.9059 35.6613 51.0839C35.5794 51.4493 35.8064 51.8126 36.1737 51.9044C36.4458 51.9698 36.7251 52.0021 37.0049 52C37.5686 52.0009 38.121 51.8443 38.5981 51.5488C39.4593 50.9224 40.095 50.0407 40.4129 49.0324C41.3171 49.2965 42.2544 49.4348 43.1975 49.4427C44.2239 49.4686 45.2412 49.2479 46.1621 48.7998C47.3072 48.7079 48.4055 48.3104 49.34 47.6507C50.2746 46.9907 51.0099 46.0925 51.4682 45.0525C52.201 43.4144 52.1756 41.5421 51.3988 39.9238ZM50.2073 44.5055C49.6074 45.8643 48.4147 46.8806 46.9657 47.2683C46.0266 46.2843 44.8188 45.5908 43.4884 45.2714C44.0079 43.6022 43.8744 41.8013 43.1143 40.2249C43.033 40.0411 42.8749 39.901 42.681 39.8405C42.4872 39.7804 42.2766 39.8057 42.1031 39.9101C40.5564 40.7463 39.381 42.1213 38.8058 43.7671C37.6598 43.2945 36.4078 43.1296 35.1764 43.2884H35.1625C34.3842 42.1558 34.1875 40.7289 34.6309 39.4321C35.0741 38.1352 36.1063 37.1181 37.4205 36.6824C37.7393 36.683 38.0204 36.4772 38.1131 36.1765C38.6515 34.2533 40.1037 32.7083 42.0063 32.0351C43.9087 31.3617 46.0241 31.6438 47.6776 32.7913C49.331 33.9389 50.3159 35.8087 50.318 37.804C50.3171 38.4683 50.2095 39.1286 49.9995 39.7596C49.9309 39.9559 49.9565 40.1723 50.0688 40.3479C50.7426 41.6435 50.7933 43.169 50.2073 44.5055Z" fill="#2862B6"/>
</svg>
