<svg width="69" height="69" viewBox="0 0 69 69" fill="none" xmlns="http://www.w3.org/2000/svg">
<circle cx="34.0589" cy="34.0589" r="34.0589" fill="#5DBFF7"/>
<path d="M37.3462 58C37.7073 58 38 57.7761 38 57.4998C38 57.2236 37.7073 57 37.3462 57H31.6538C31.2927 57 31 57.2236 31 57.4998C31 57.7761 31.2927 58 31.6538 58H37.3462Z" fill="#2862B6"/>
<path d="M39.3205 60H30.6795C30.3042 60 30 60.2236 30 60.4998C30 60.7761 30.3042 61 30.6795 61H39.3205C39.6958 61 40 60.7761 40 60.4998C40 60.2236 39.6958 60 39.3205 60Z" fill="#2862B6"/>
<rect x="34" y="13" width="7" height="14" fill="white"/>
<path d="M45.3347 27.9719C45.3073 25.0079 44.1627 22.1629 42.1287 20.0034V14.4185C42.1274 12.9822 41.5548 11.605 40.5374 10.5892C39.52 9.57341 38.1406 9.00178 36.7014 9H32.2985C30.8594 9.00185 29.4801 9.57344 28.4625 10.5892C27.4451 11.605 26.8725 12.9822 26.8712 14.4185V19.9899C24.8345 22.1479 23.6894 24.9939 23.6653 27.9588L23 59.3091C23 59.4851 23.0701 59.6542 23.1949 59.7788C23.3197 59.9029 23.4885 59.9729 23.6653 59.9729C23.8416 59.9729 24.011 59.9029 24.1353 59.7788C24.2601 59.6542 24.3301 59.4851 24.3301 59.3091L24.9955 27.9458C25.0103 25.8424 25.6645 23.7931 26.8712 22.0691V30.655C26.8712 33.3763 28.3253 35.8906 30.6854 37.251C33.046 38.612 35.954 38.612 38.3146 37.251C40.6747 35.8906 42.1288 33.3763 42.1288 30.655V22.0954C43.3364 23.8241 43.9906 25.8779 44.0045 27.9855L44.6699 59.3358C44.6699 59.5118 44.7399 59.6809 44.8647 59.8055C44.9891 59.9301 45.1584 60 45.3347 60C45.5115 60 45.6803 59.9301 45.8051 59.8055C45.9299 59.6809 46 59.5118 46 59.3358L45.3347 27.9719ZM37.3533 19.4721C37.3533 16.5437 35.664 16.1518 35.664 16.1518C37.1671 16.1518 37.3533 13.084 37.3533 13.084C37.3533 15.488 38.8564 16.1518 38.8564 16.1518C37.3597 16.1453 37.3732 19.4721 37.3732 19.4721H37.3533Z" fill="#2862B6"/>
<path d="M58 9L9 61" stroke="white" stroke-width="2"/>
</svg>
