<svg width="69" height="69" viewBox="0 0 69 69" fill="none" xmlns="http://www.w3.org/2000/svg">
<circle cx="34.0589" cy="34.0589" r="34.0589" fill="#5DBFF7"/>
<path d="M34.5 14C39.5385 17.3901 44.1937 20.4324 52 23.2913C51.9141 34.6738 47.393 45.2569 34.5 55C21.6069 45.2569 17.0858 34.6738 17 23.2913C24.8032 20.4409 29.961 17.4042 34.5 14ZM34.4686 24.9576C34.227 24.9668 34.0811 25.231 34.0308 25.4135C33.7756 27.5849 32.9267 29.684 32.1074 31.7645C31.288 33.845 30.4967 35.9146 30.4967 38.0527C30.4967 38.9749 30.9219 39.9346 31.6229 40.7094C32.3235 41.4841 33.3328 42.0772 34.5005 42.0772C35.6681 42.0772 36.6774 41.4842 37.378 40.7094C38.0786 39.9345 38.5042 38.9748 38.5042 38.0527C38.5042 35.9146 37.7202 33.8439 36.9088 31.7645C36.0979 29.685 35.2569 27.5824 35.0321 25.4135C34.9724 25.0513 34.7 24.9622 34.4686 24.9576ZM34.5154 27.7087C34.9123 29.2394 35.4206 30.7185 35.9696 32.1263C36.7771 34.197 37.5021 36.1666 37.5021 38.0531C37.5021 38.6402 37.1768 39.4251 36.6262 40.034C36.0757 40.6428 35.3335 41.0716 34.4992 41.0716C33.6652 41.0716 32.9227 40.6428 32.3722 40.034C31.8216 39.4255 31.4963 38.6402 31.4963 38.0531C31.4963 36.1666 32.214 34.1959 33.0288 32.1263C33.5828 30.7199 34.1035 29.237 34.5154 27.7087Z" fill="#2862B6"/>
<path d="M34.468 24.9578C34.2264 24.9669 34.0805 25.2311 34.0302 25.4136C33.775 27.585 32.9261 29.6841 32.1068 31.7646C31.2874 33.8451 30.4961 35.9147 30.4961 38.0528C30.4961 38.975 30.9213 39.9347 31.6223 40.7095C32.3229 41.4843 33.3322 42.0773 34.4999 42.0773C35.6675 42.0773 36.6768 41.4843 37.3774 40.7095C38.0781 39.9346 38.5036 38.9749 38.5036 38.0528C38.5036 35.9147 37.7196 33.844 36.9082 31.7646C36.0973 29.6852 35.2564 27.5825 35.0315 25.4136C34.9718 25.0515 34.6994 24.9623 34.468 24.9578Z" fill="white"/>
</svg>
