<svg width="69" height="69" viewBox="0 0 69 69" fill="none" xmlns="http://www.w3.org/2000/svg">
<circle cx="34.0589" cy="34.0589" r="34.0589" fill="#5DBFF7"/>
<path d="M25.1269 11.0313C25.7121 11.1024 26.13 11.5998 25.9629 12.0972L25.1269 16.2184C25.0433 16.6447 24.5418 17 24.0402 17H23.8731C23.2879 16.9289 22.87 16.4316 23.0371 15.9342L23.8731 11.8129C23.9567 11.2445 24.5418 10.8892 25.1269 11.0313Z" fill="white"/>
<path d="M15.0435 17.6433L12.2007 14.3848C11.8662 13.9775 11.9498 13.4345 12.4515 13.1629C12.9532 12.8914 13.6221 12.9593 13.9565 13.3666L16.7993 16.625C17.1338 17.0323 17.0502 17.5754 16.5485 17.8469C16.3813 17.9827 16.1304 17.9827 15.9632 17.9827C15.5452 18.0506 15.2107 17.9148 15.0435 17.6433Z" fill="white"/>
<path d="M10.4011 36.8288C10.2638 37 10.0577 37 9.92034 37C9.64561 37 9.37088 36.8288 9.16484 36.5719C8.89011 36.0582 8.95879 35.3733 9.37088 35.0309L12.5989 32.2055C13.011 31.863 13.5604 31.9486 13.8352 32.4623C14.1099 32.976 14.0412 33.6609 13.6291 34.0034L10.4011 36.8288Z" fill="white"/>
<path d="M6.00919 23.8598C6.08099 23.2835 6.58355 22.8719 7.0861 23.0366L11.2502 23.8598C11.7527 23.9421 12.1117 24.5183 11.9681 25.0945C11.8963 25.5884 11.4655 26 11.0348 26H10.8912L6.72713 25.1768C6.29637 25.0122 5.9374 24.436 6.00919 23.8598Z" fill="white"/>
<path d="M12.1409 29.7256L10.4033 30H10.1427C9.62137 30 9.18697 29.7256 9.01321 29.3139C8.92633 28.8337 9.27385 28.3535 9.88202 28.2849L11.6196 28.0104C12.2278 27.9418 12.836 28.2162 12.9228 28.6965C13.1835 29.1767 12.7491 29.657 12.1409 29.7256Z" fill="white"/>
<path d="M12.3957 19.1122L13.5773 19.7055C13.9944 19.9213 14.1334 20.3528 13.8554 20.6764C13.7163 20.8921 13.3688 21 13.0908 21C12.9518 21 12.7433 20.9461 12.6043 20.8921L11.4227 20.2988C11.0056 20.0831 10.8666 19.6516 11.1446 19.328C11.4227 19.0044 11.9787 18.8965 12.3957 19.1122Z" fill="white"/>
<path d="M21.589 13.6895L21.9849 15.0098C22.0839 15.4719 21.688 15.934 20.995 16H20.698C20.104 16 19.609 15.7359 19.411 15.3399L19.0151 14.0196C18.9161 13.5575 19.312 13.0954 20.005 13.0293C20.698 12.8973 21.391 13.2274 21.589 13.6895Z" fill="white"/>
<path d="M30.522 15.1659C30.9936 15.4424 31.1509 15.9954 30.8364 16.4101L29.8931 17.5853C29.7358 17.8618 29.3428 18 29.0283 18C28.8711 18 28.6353 17.9309 28.478 17.8618C28.0064 17.5853 27.8491 17.0323 28.1636 16.6175L29.1069 15.3733C29.4214 14.9585 30.0503 14.8894 30.522 15.1659Z" fill="white"/>
<path d="M15.4909 38.8143C15.0065 38.4429 14.8451 37.7001 15.168 37.143L16.056 35.5646C16.3789 35.0075 17.0247 34.8218 17.5091 35.1932C17.9935 35.5646 18.1549 36.3074 17.832 36.8645L16.944 38.4429C16.7825 38.8143 16.3789 39 16.056 39C15.8138 39 15.6524 39 15.4909 38.8143Z" fill="white"/>
<path d="M49.9975 29.6962C49.5313 29.6962 49.0652 29.7718 49.0652 29.7718C49.0652 29.7718 48.5213 29.923 48.0551 30.3009C47.4336 30.7544 46.4236 32.1906 45.7243 34.3824L45.2582 35.8941L44.0928 34.7603C43.3935 34.0801 42.3059 33.2486 40.752 32.8706C40.4413 32.7951 40.0528 32.7195 39.6643 32.7195L46.1128 54.0348H56.1354C56.6792 54.0348 57.1454 54.4883 57.1454 55.0174C57.1454 55.5465 56.6792 56 56.1354 56H33.3707C32.8269 56 32.3607 55.5465 32.3607 55.0174C32.3607 54.4883 32.8269 54.0348 33.3707 54.0348H44.0924L37.7215 33.0978C37.4108 33.249 37.1 33.4757 36.9446 33.6269C35.5461 34.7607 34.9246 36.2722 34.6914 37.3306L34.3029 38.9178L33.0599 37.7841C31.1952 36.1212 29.486 35.2897 28.709 35.2142C28.1652 35.1387 27.6213 35.2898 27.6213 35.2898C27.1551 35.441 26.7667 35.6677 26.6113 35.8189C25.4459 36.6503 23.8143 38.9179 23.2706 39.7492L22.0275 41.6389L21.4836 39.4469C19.3082 30.3769 24.6691 21.1549 33.6038 18.2836L33.1376 16.2429C32.9822 15.7138 33.3707 15.1848 33.9146 15.0336C34.4584 14.8824 35.0023 15.2603 35.1577 15.7894L35.6238 17.7546C45.3356 15.7139 55.1245 21.6092 57.4561 31.0572L58 33.3247L55.98 32.1154C52.7944 30.4526 50.6968 29.7724 49.9975 29.6967V29.6962Z" fill="#2862B6"/>
<path d="M14.1045 24.9502C14.829 20.3093 19.1758 17.2928 23.8124 18.1435C24.9715 18.3755 26.0581 18.8396 27 19.4584C22.2185 22.6298 19.0309 28.0441 18.4513 34C15.4085 32.1436 13.5249 28.6628 14.1045 24.9501V24.9502Z" fill="white"/>
<path d="M58 9L9 61" stroke="white" stroke-width="2"/>
</svg>
