<svg width="69" height="69" viewBox="0 0 69 69" fill="none" xmlns="http://www.w3.org/2000/svg">
<circle cx="34.0589" cy="34.0589" r="34.0589" fill="#5DBFF7"/>
<path d="M34 22.5C34 24.4299 35.5693 26 37.5004 26C39.43 26 41 24.4305 41 22.5C41 20.5701 39.4307 19 37.5004 19C35.57 19.0007 34 20.5702 34 22.5Z" fill="white"/>
<path d="M33 16C33 14.8973 32.1032 14 31.0004 14C29.8977 14 29 14.8973 29 16C29 17.1027 29.8973 18 31.0004 18C32.1026 17.9995 33 17.1027 33 16Z" fill="white"/>
<path d="M27.5 22C25.0193 22 23 24.018 23 26.5C23 28.9807 25.0193 31 27.5 31C29.9807 31 32 28.9807 32 26.5C31.9994 24.018 29.9807 22 27.5 22Z" fill="white"/>
<path d="M49 46.5C49 48.9807 51.0193 51 53.5 51C55.9807 51 58 48.9807 58 46.5C58 44.018 55.982 42 53.5 42C51.0186 42 49 44.0186 49 46.5Z" fill="white"/>
<path d="M31.542 51.9295C32.1766 51.8832 32.8203 51.8832 33.4562 51.9295L47.9629 52.9988C49.1399 52.9927 50.1856 52.6225 51.0361 51.9193C49.162 50.9115 47.8856 48.924 47.8856 46.6447C47.8856 43.6327 50.1132 41.1348 53 40.7248V33.0915C53 30.2932 50.7418 28.0156 47.961 28L33.4448 29.009C32.444 30.8983 30.4622 32.1878 28.1877 32.1878C25.6749 32.1878 23.5197 30.6153 22.6489 28.3986L17.039 28C14.2576 28.0157 12 30.2932 12 33.0915V47.9085C12 50.7056 14.257 52.9838 17.0383 53L31.542 51.9295ZM15.7074 43.3528C15.7074 43.3077 15.7446 43.2709 15.7901 43.2715C15.8261 43.2715 15.856 43.2956 15.8674 43.3275L15.8752 43.3516C15.9999 43.7339 16.1365 44.0939 16.2977 44.4305C16.3391 44.5148 16.3816 44.5972 16.423 44.6791C16.4649 44.761 16.5123 44.8399 16.556 44.9182C16.5998 44.9976 16.6495 45.0729 16.6963 45.1493C16.7424 45.2252 16.7957 45.298 16.8449 45.3703C17.2476 45.9495 17.7288 46.4311 18.2556 46.8092C18.3246 46.8531 18.3899 46.9001 18.454 46.9464L18.656 47.0741L18.8621 47.1915L19.0725 47.2986C19.35 47.4401 19.6412 47.5461 19.9319 47.6316C20.2214 47.7213 20.518 47.7743 20.8117 47.8074C21.0856 47.8417 21.3624 47.8435 21.6375 47.829C22.8289 47.6912 24.0227 47.5828 25.2202 47.516C25.8261 47.4787 26.4344 47.4564 27.0414 47.4383C27.6497 47.4299 28.2574 47.4124 28.8668 47.4221C30.0858 47.4305 31.3065 47.4793 32.5328 47.5858C32.8385 47.6153 33.1465 47.64 33.4528 47.6773C33.6068 47.6954 33.7596 47.7098 33.913 47.7309L34.3745 47.7929C34.6819 47.8381 34.9905 47.8844 35.298 47.9398C35.6066 47.9952 35.9159 48.0548 36.2251 48.1313L36.2503 48.1373C36.294 48.1487 36.321 48.1927 36.3096 48.2366C36.3012 48.2722 36.2707 48.2962 36.2377 48.2986L34.423 48.4576C33.8171 48.51 33.2125 48.5653 32.6065 48.6129C31.3965 48.7104 30.1854 48.8134 28.9741 48.9061L25.3405 49.183L24.4314 49.2529L23.5222 49.3179L21.7051 49.4467H21.7045H21.6931C20.8991 49.4449 20.1055 49.286 19.3745 48.9783C18.6428 48.6695 17.9757 48.2119 17.4208 47.6466C16.8665 47.0807 16.4218 46.4052 16.1312 45.6683C15.8393 44.9314 15.6961 44.1403 15.7075 43.3529L15.7074 43.3528Z" fill="#2862B6"/>
<path d="M58 9L9 61" stroke="white" stroke-width="2"/>
</svg>
