<svg width="19" height="11" viewBox="0 0 19 11" fill="none" xmlns="http://www.w3.org/2000/svg">
<path d="M9.49984 2.02384C7.53505 2.02384 5.93711 3.58295 5.93711 5.50022C5.93711 7.4175 7.53494 8.97661 9.49984 8.97661C11.4647 8.97661 13.0626 7.4175 13.0626 5.50022C13.0626 3.58295 11.4647 2.02384 9.49984 2.02384ZM9.49984 7.81747C8.18987 7.81747 7.12504 6.77803 7.12504 5.50022C7.12504 4.222 8.1903 3.18298 9.49984 3.18298C10.8098 3.18298 11.8747 4.22242 11.8747 5.50022C11.8747 6.77844 10.8098 7.81747 9.49984 7.81747ZM18.9152 5.20195C16.9122 1.94469 13.3926 0 9.49984 0C5.60704 0 2.08746 1.94428 0.0844907 5.20195C-0.0281636 5.38502 -0.0281636 5.61498 0.0844907 5.79805C2.08746 9.05531 5.60704 11 9.49984 11C13.3926 11 16.9122 9.05572 18.9152 5.79805C19.0283 5.61498 19.0283 5.38542 18.9152 5.20195ZM9.49984 9.84141C6.14799 9.84141 3.1067 8.22571 1.29352 5.50022C3.10755 2.77474 6.14884 1.15904 9.49984 1.15904C12.8508 1.15904 15.893 2.77474 17.7062 5.50022C15.8929 8.22571 12.8517 9.84141 9.49984 9.84141Z" fill="white"/>
</svg>
