<svg width="69" height="69" viewBox="0 0 69 69" fill="none" xmlns="http://www.w3.org/2000/svg">
<circle cx="34.0589" cy="34.2552" r="34.0589" fill="#5DBFF7"/>
<path d="M50.5512 35.2375L47.7179 30.8934C47.6264 30.7548 47.5809 30.5698 47.5809 30.3851C46.9867 23.361 41.1828 18 34.191 18C30.1237 18 26.4677 19.8484 24 22.7138C24.9139 22.7599 25.7367 22.9449 26.5591 23.2222C28.5699 21.3738 31.2661 20.2185 34.1909 20.2185C40.0859 20.2185 44.8845 24.7011 45.3872 30.6164C45.4328 31.1248 45.5699 31.587 45.8443 32.0489L48.6776 36.4391C48.8603 36.7163 48.7691 36.9474 48.7232 37.0399C48.6776 37.1325 48.5405 37.3636 48.2205 37.3636H46.9865C46.1641 37.3636 45.4784 38.0566 45.4784 38.8886V43.9257C45.4784 44.4802 45.0672 44.8964 44.5186 44.8964H40.7711C39.8572 44.8964 39.0803 45.682 39.0803 46.6062V51.6433L28.478 50.7191V43.3249C27.7927 43.7407 27.0614 44.018 26.2846 44.2491V51.7355C26.2846 52.3363 26.7417 52.7983 27.2899 52.8447L40.0858 54H40.1772C40.4514 54 40.7255 53.9075 40.9085 53.7228C41.1371 53.4916 41.2741 53.2144 41.2741 52.8911L41.2745 47.1603H44.5193C46.2559 47.1603 47.6726 45.7278 47.6726 43.9255V39.5814H48.2209C49.2263 39.5814 50.1858 39.0269 50.6885 38.1024C51.1453 37.2246 51.0997 36.1154 50.5514 35.2373L50.5512 35.2375Z" fill="#2862B6"/>
<path d="M43 31.0002C43 32.1046 42.1046 33 40.9998 33C39.8954 33 39 32.1046 39 31.0002C39 29.8954 39.8954 29 40.9998 29C42.1046 29 43 29.8954 43 31.0002Z" fill="#2862B6"/>
<path d="M34.0001 15C34.5418 15 35 14.5 35 13.909L34.9997 11.091C34.9997 10.5 34.5415 10 33.9999 10C33.4582 10 33 10.5 33 11.091V13.909C33.0003 14.5 33.4585 15 34.0002 15H34.0001Z" fill="white"/>
<path d="M26.5207 16.324C26.7336 16.7585 27.2133 17 27.6926 17C27.9056 17 28.0657 16.9518 28.2786 16.9033C28.9178 16.6137 29.1842 15.9377 28.8646 15.3579L27.4262 12.6539C27.1067 12.0746 26.3609 11.8331 25.7214 12.1227C25.0822 12.4124 24.8158 13.0884 25.1354 13.6681L26.5207 16.324Z" fill="white"/>
<path d="M39.7119 16.9033C39.8696 17 40.0801 17 40.2902 17C40.7633 17 41.2364 16.7585 41.4468 16.324L42.8664 13.6681C43.1818 13.0887 42.9188 12.4127 42.2881 12.1227C41.6045 11.833 40.8685 12.0746 40.5532 12.6539L39.1336 15.3098C38.8182 15.8891 39.0812 16.6136 39.7119 16.9033L39.7119 16.9033Z" fill="white"/>
<path d="M31 33.5C31 28.793 27.207 25 22.5 25C17.793 25 14 28.793 14 33.5C14 38.207 17.793 42 22.5 42C27.207 42 31 38.207 31 33.5ZM21.3575 29.4328C21.3575 28.793 21.8602 28.2903 22.5 28.2903C23.1398 28.2903 23.6425 28.793 23.6425 29.4328V33.9112C23.6425 34.551 23.1398 35.0537 22.5 35.0537C21.8602 35.0537 21.3575 34.551 21.3575 33.9112V29.4328ZM22.5 38.7554C21.7687 38.7554 21.1749 38.1612 21.1749 37.4303C21.1749 36.699 21.7691 36.1052 22.5 36.1052C23.2313 36.1052 23.8251 36.6993 23.8251 37.4303C23.8251 38.1612 23.2309 38.7554 22.5 38.7554Z" fill="white"/>
</svg>
