<svg width="86" height="26" viewBox="0 0 86 26" fill="none" xmlns="http://www.w3.org/2000/svg">
<path d="M4.39345 10.5044L1.89122 2.39066L1.83303 2.39066C1.84273 2.58384 1.85728 2.87362 1.87667 3.25999C1.89607 3.64636 1.91547 4.06171 1.93486 4.50603C1.95426 4.9407 1.96396 5.33673 1.96396 5.69412L1.96396 10.5044L1.00448e-07 10.5044L9.25806e-08 0.159377L2.99686 0.159377L5.45545 8.07029L5.49909 8.07029L8.10316 0.159377L11.1 0.159377L11.1 10.5044L9.04877 10.5044L9.04877 5.60718C9.04877 5.27877 9.05362 4.90206 9.06332 4.47705C9.08271 4.05205 9.09726 3.65119 9.10696 3.27448C9.12636 2.88811 9.1409 2.59833 9.1506 2.40515L9.09241 2.40515L6.41561 10.5044L4.39345 10.5044Z" fill="#5DBFF7"/>
<path d="M19.703 10.5044L13.7239 10.5044L13.7239 0.159377L19.703 0.159377L19.703 1.95599L15.9206 1.95599L15.9206 4.23074L19.4412 4.23074L19.4412 6.02736L15.9206 6.02736L15.9206 8.69331L19.703 8.69331L19.703 10.5044Z" fill="#5DBFF7"/>
<path d="M21.8644 10.5044L21.8644 0.159377L24.0611 0.159377L24.0611 8.69331L28.28 8.69331L28.28 10.5044L21.8644 10.5044Z" fill="#5DBFF7"/>
<path d="M36.4476 10.5044L35.6911 8.04131L31.9087 8.04131L31.1522 10.5044L28.7809 10.5044L32.4469 0.115911L35.1383 0.115911L38.8189 10.5044L36.4476 10.5044ZM34.4109 3.79608C34.3624 3.63187 34.2994 3.4242 34.2218 3.17306C34.1442 2.92192 34.0666 2.66595 33.989 2.40515C33.9114 2.14435 33.8484 1.91736 33.7999 1.72417C33.7514 1.91736 33.6835 2.15884 33.5962 2.44862C33.5186 2.72873 33.4411 2.99919 33.3635 3.25999C33.2956 3.51113 33.2422 3.68983 33.2034 3.79608L32.4615 6.20123L35.1674 6.20123L34.4109 3.79608Z" fill="#5DBFF7"/>
<path d="M49.3433 10.5044L46.5501 10.5044L42.0257 2.68044L41.9675 2.68044C41.9772 2.92192 41.9869 3.16823 41.9966 3.41937C42.0063 3.66085 42.016 3.90716 42.0257 4.1583C42.0451 4.39978 42.0596 4.64609 42.0693 4.89723C42.079 5.13871 42.0887 5.38502 42.0984 5.63616L42.0984 10.5044L40.1345 10.5044L40.1345 0.159377L42.9131 0.159377L47.4229 7.91091L47.4666 7.91091C47.4569 7.66943 47.4472 7.43278 47.4375 7.20096C47.4278 6.95948 47.4181 6.72283 47.4084 6.491C47.4084 6.24952 47.4035 6.01287 47.3939 5.78105C47.3842 5.53957 47.3745 5.29809 47.3648 5.05661L47.3648 0.159377L49.3433 0.159377L49.3433 10.5044Z" fill="#5DBFF7"/>
<path d="M61.3958 5.31741C61.3958 6.11912 61.294 6.8484 61.0903 7.50522C60.8963 8.15239 60.5957 8.71263 60.1883 9.18593C59.7907 9.65923 59.2767 10.0215 58.6463 10.2726C58.0256 10.5237 57.2933 10.6493 56.4495 10.6493C55.6058 10.6493 54.8687 10.5237 54.2383 10.2726C53.6176 10.0118 53.1035 9.64957 52.6962 9.18593C52.2986 8.71263 51.9979 8.14756 51.7942 7.49073C51.6003 6.83391 51.5033 6.10463 51.5033 5.30292C51.5033 4.23074 51.6779 3.29863 52.027 2.50657C52.3858 1.71451 52.929 1.10115 53.6564 0.666487C54.3934 0.222162 55.3294 -4.208e-08 56.4641 -4.2943e-08C57.5891 -4.37986e-08 58.5153 0.222162 59.2427 0.666487C59.9701 1.10115 60.5084 1.71934 60.8575 2.52106C61.2164 3.31312 61.3958 4.24523 61.3958 5.31741ZM53.8164 5.31741C53.8164 6.04185 53.9085 6.66487 54.0928 7.18647C54.2771 7.70807 54.5632 8.10892 54.9511 8.38904C55.3391 8.66916 55.8385 8.80922 56.4495 8.80922C57.08 8.80922 57.5843 8.66916 57.9625 8.38904C58.3505 8.10892 58.6317 7.70807 58.8063 7.18647C58.9906 6.66487 59.0827 6.04185 59.0827 5.31741C59.0827 4.22591 58.879 3.37107 58.4717 2.75288C58.0644 2.13469 57.3952 1.82559 56.4641 1.82559C55.8434 1.82559 55.3391 1.96565 54.9511 2.24577C54.5632 2.52589 54.2771 2.92675 54.0928 3.44835C53.9085 3.96994 53.8164 4.59296 53.8164 5.31741Z" fill="#5DBFF7"/>
<path d="M67.9409 10.5044L65.4386 2.39066L65.3804 2.39066C65.3902 2.58384 65.4047 2.87362 65.4241 3.25999C65.4435 3.64636 65.4629 4.06171 65.4823 4.50603C65.5017 4.9407 65.5114 5.33673 65.5114 5.69412L65.5114 10.5044L63.5474 10.5044L63.5474 0.159377L66.5443 0.159377L69.0029 8.07029L69.0465 8.07029L71.6506 0.159377L74.6474 0.159377L74.6474 10.5044L72.5962 10.5044L72.5962 5.60718C72.5962 5.27877 72.601 4.90206 72.6107 4.47705C72.6301 4.05205 72.6447 3.65119 72.6544 3.27448C72.6738 2.88811 72.6883 2.59833 72.698 2.40515L72.6398 2.40515L69.963 10.5044L67.9409 10.5044Z" fill="#5DBFF7"/>
<path d="M83.6287 10.5044L82.8722 8.04131L79.0898 8.04131L78.3333 10.5044L75.962 10.5044L79.628 0.115911L82.3194 0.115911L86 10.5044L83.6287 10.5044ZM81.592 3.79608C81.5435 3.63187 81.4805 3.4242 81.4029 3.17306C81.3253 2.92192 81.2477 2.66595 81.1701 2.40515C81.0925 2.14435 81.0295 1.91736 80.981 1.72417C80.9325 1.91736 80.8646 2.15884 80.7773 2.44862C80.6997 2.72873 80.6221 2.99919 80.5445 3.25999C80.4767 3.51113 80.4233 3.68983 80.3845 3.79608L79.6426 6.20123L82.3485 6.20123L81.592 3.79608Z" fill="#5DBFF7"/>
<path d="M8.5105 25.8551L6.31377 25.8551L6.31377 21.3925L2.19673 21.3925L2.19673 25.8551L7.94146e-09 25.8551L0 15.5101L2.19673 15.5101L2.19673 19.567L6.31377 19.567L6.31377 15.5101L8.5105 15.5101L8.5105 25.8551Z" fill="#5DBFF7"/>
<path d="M17.1032 25.8551L11.124 25.8551L11.124 15.5101L17.1032 15.5101L17.1032 17.3067L13.3207 17.3067L13.3207 19.5814L16.8413 19.5814L16.8413 21.3781L13.3207 21.3781L13.3207 24.044L17.1032 24.044L17.1032 25.8551Z" fill="#5DBFF7"/>
<path d="M19.2645 25.8551L19.2645 15.5101L21.4613 15.5101L21.4613 24.044L25.6801 24.044L25.6801 25.8551L19.2645 25.8551Z" fill="#5DBFF7"/>
<path d="M30.8072 15.5101C32.1456 15.5101 33.1204 15.7999 33.7314 16.3794C34.3521 16.9493 34.6624 17.7365 34.6624 18.7411C34.6624 19.1951 34.5945 19.6297 34.4588 20.0451C34.323 20.4508 34.0951 20.8178 33.775 21.1462C33.4647 21.465 33.0525 21.7161 32.5384 21.8997C32.0244 22.0832 31.3892 22.1749 30.6327 22.1749L29.6871 22.1749L29.6871 25.8551L27.4903 25.8551L27.4903 15.5101L30.8072 15.5101ZM30.6909 17.3067L29.6871 17.3067L29.6871 20.3783L30.4145 20.3783C30.8315 20.3783 31.1903 20.3252 31.491 20.219C31.7917 20.1127 32.0244 19.9437 32.1893 19.7118C32.3542 19.48 32.4366 19.1806 32.4366 18.8135C32.4366 18.3016 32.296 17.9249 32.0147 17.6834C31.7335 17.4323 31.2922 17.3067 30.6909 17.3067Z" fill="#5DBFF7"/>
<path d="M36.1016 25.8551L36.1016 23.8701L38.1092 23.8701L38.1092 25.8551L36.1016 25.8551Z" fill="#5DBFF7"/>
<path d="M43.2315 15.5101C44.1722 15.5101 44.9481 15.626 45.5591 15.8578C46.1701 16.08 46.626 16.4229 46.9266 16.8865C47.2273 17.3405 47.3776 17.9152 47.3776 18.6107C47.3776 19.084 47.2855 19.4993 47.1012 19.8567C46.9266 20.2045 46.689 20.5039 46.3883 20.755C46.0974 20.9965 45.7822 21.1945 45.4427 21.3491L48.4978 25.8551L46.0537 25.8551L43.5806 21.8852L42.4022 21.8852L42.4022 25.8551L40.2055 25.8551L40.2055 15.5101L43.2315 15.5101ZM43.0714 17.3067L42.4022 17.3067L42.4022 20.103L43.1151 20.103C43.6 20.103 43.9928 20.0499 44.2935 19.9437C44.5941 19.8374 44.8123 19.678 44.9481 19.4655C45.0839 19.2434 45.1518 18.9777 45.1518 18.6686C45.1518 18.3402 45.0742 18.0794 44.919 17.8862C44.7735 17.6834 44.5456 17.5385 44.2353 17.4516C43.9346 17.355 43.5467 17.3067 43.0714 17.3067Z" fill="#5DBFF7"/>
<path d="M58.2617 22.2039C58.2617 22.9187 58.1016 23.5659 57.7816 24.1454C57.4712 24.7153 56.996 25.1693 56.3559 25.5074C55.7255 25.8358 54.9254 26 53.9555 26C52.5783 26 51.5309 25.6523 50.8132 24.9568C50.0955 24.2517 49.7366 23.3244 49.7366 22.1749L49.7366 15.5101L51.9333 15.5101L51.9333 21.8417C51.9333 22.6917 52.1079 23.2906 52.4571 23.6383C52.8062 23.986 53.3251 24.1599 54.0137 24.1599C54.4986 24.1599 54.8914 24.0778 55.1921 23.9136C55.4927 23.7494 55.7109 23.4934 55.8467 23.1457C55.9922 22.798 56.0649 22.3585 56.0649 21.8272L56.0649 15.5101L58.2617 15.5101L58.2617 22.2039Z" fill="#5DBFF7"/>
</svg>
