<svg width="69" height="69" viewBox="0 0 69 69" fill="none" xmlns="http://www.w3.org/2000/svg">
<circle cx="34.0589" cy="34.0589" r="34.0589" fill="#5DBFF7"/>
<path d="M41.9998 31.9996C41.9998 27.0369 38.0568 23 33.2112 23C29.6546 23 26.4472 25.2117 25.0943 28.5475C24.3872 28.1442 23.5938 27.9322 22.7748 27.9322C20.1418 27.9322 18 30.1258 18 32.8217C18 35.5179 20.1422 37.7111 22.7748 37.7111C23.8451 37.7111 24.8696 37.3486 25.7046 36.6825C27.2978 39.3564 30.1343 41 33.2115 41C38.0577 40.9997 42 36.9624 42 31.9996L41.9998 31.9996ZM22.7743 36.9745C20.5377 36.9745 18.7183 35.1111 18.7183 32.8207C18.7183 30.5304 20.538 28.667 22.7743 28.667C23.5083 28.667 24.2176 28.867 24.8422 29.247C24.5641 30.1329 24.4218 31.057 24.4218 31.9992C24.4218 33.3985 24.7417 34.7851 25.3492 36.0287C24.6251 36.6401 23.7207 36.9745 22.7744 36.9745H22.7743ZM33.6546 38.165C33.6546 38.4152 33.4555 38.6184 33.2109 38.6184C32.9662 38.6184 32.7671 38.4152 32.7671 38.165V25.8335C32.7671 25.583 32.9662 25.3791 33.2109 25.3791C33.3297 25.3791 33.441 25.426 33.5247 25.5124C33.6085 25.5982 33.655 25.7125 33.655 25.8335L33.6546 38.165Z" fill="white"/>
<path d="M30.0003 42C28.3459 42 27 43.5698 27 45.4996C27 47.4298 28.3459 49 30.0003 49C31.6544 49 33 47.4298 33 45.4996C33 43.5702 31.6544 42 30.0003 42Z" fill="white"/>
<path d="M19.4161 42.9524C18.4087 41.7118 16.8993 41 15.2749 41C14.0759 41 12.9446 41.3841 12.0032 42.1106C10.898 42.963 10.1992 44.1841 10.0363 45.5488C9.87294 46.9136 10.2648 48.2591 11.1397 49.3367L16.5858 56.0469C17.4603 57.1242 18.7129 57.8054 20.113 57.9646C20.3207 57.9883 20.5285 58 20.7345 58C21.917 58 23.0574 57.6152 23.9988 56.8894C26.2811 55.1306 26.6691 51.8887 24.8638 49.6633L19.4161 42.9524Z" fill="#2862B6"/>
<path d="M53.509 12.0331L33.4852 10.0255C33.3204 10.0086 33.1514 10 32.9823 10C30.4129 10 28.2818 11.9339 28.0253 14.4985C27.8929 15.8262 28.2841 17.1262 29.1276 18.1593C29.9711 19.192 31.1656 19.8342 32.4911 19.9669L52.5149 21.9745C52.68 21.9914 52.8494 22 53.0184 22C55.5882 22 57.719 20.0661 57.9749 17.5015C58.2489 14.7614 56.2456 12.3083 53.509 12.0331H53.509ZM42.051 20.1695L32.5656 19.2188C31.4398 19.106 30.425 18.5607 29.7085 17.6834C28.9921 16.8061 28.6593 15.7015 28.7722 14.5739C28.9905 12.395 30.8003 10.752 32.9825 10.752C33.1258 10.752 33.2694 10.7593 33.4097 10.7735L42.8943 11.7242C42.3069 13.0414 41.9365 14.4366 41.7926 15.879C41.6486 17.3196 41.7358 18.76 42.0508 20.1695L42.051 20.1695Z" fill="#2862B6"/>
<path d="M54.4611 26.6217C53.2954 25.9962 51.9416 25.8361 50.6486 26.1714C49.3554 26.5067 48.2785 27.2974 47.6156 28.3974L37.6579 44.9168C37.2274 45.6298 37 46.439 37 47.2569C37 48.9591 37.9729 50.5384 39.5384 51.3785C40.3053 51.7901 41.1542 52 42.0134 52C42.4599 52 42.9096 51.9432 43.3515 51.8285C44.6448 51.4932 45.7221 50.7025 46.3846 49.6021L51.363 41.3421L56.3425 33.0822C56.7726 32.3675 57 31.559 57 30.7434C57.0004 29.042 56.0271 27.4624 54.4609 26.6216L54.4611 26.6217ZM55.6385 32.705L50.9419 40.4961C49.9812 39.4955 48.8646 38.6503 47.6152 37.9797C46.368 37.3091 45.0277 36.8352 43.6239 36.5665L48.3202 28.7758C48.8761 27.8532 49.7791 27.19 50.8636 26.9089C51.2346 26.8127 51.6112 26.7652 51.9858 26.7652C52.706 26.7652 53.4177 26.9415 54.0606 27.2865C55.3741 27.9915 56.1902 29.3165 56.1902 30.7442C56.1902 31.4276 55.9996 32.1055 55.6386 32.7049L55.6385 32.705Z" fill="white"/>
</svg>
