<svg width="39" height="39" viewBox="0 0 39 39" fill="none" xmlns="http://www.w3.org/2000/svg">
<rect width="39" height="39" rx="10" fill="white"/>
<path d="M25.6882 18.3773C25.7641 18.3773 25.8779 18.3404 25.9539 18.3032L29.5582 15.487C29.7479 15.3389 29.7479 15.0794 29.6341 14.9313C29.4825 14.746 29.2168 14.746 29.0651 14.8571L25.4224 17.6732C25.2327 17.8214 25.2327 18.0809 25.3465 18.229C25.4224 18.3401 25.5741 18.3771 25.6879 18.3771L25.6882 18.3773ZM30.6205 20.6008L26.0296 20.1562C25.802 20.1192 25.6122 20.3043 25.5744 20.5268C25.5365 20.7491 25.726 20.9345 25.9539 20.9714L30.5448 21.416H30.5826C30.8102 21.416 30.9622 21.2679 31 21.0453C31 20.8231 30.8484 20.6008 30.6205 20.6008ZM25.3468 22.8239C25.1951 22.6758 24.9294 22.6758 24.7778 22.8239C24.6261 22.972 24.6261 23.2316 24.7778 23.3797L28.0028 26.6034C28.0788 26.6776 28.1926 26.7145 28.3064 26.7145C28.4202 26.7145 28.4962 26.6776 28.61 26.6034C28.7616 26.4553 28.7616 26.1957 28.61 26.0476L25.3468 22.8239ZM23.0324 4H18.9349C19.1625 9.70634 18.6313 11.5592 18.3278 12.1521C18.2518 12.2263 18.1761 12.3374 18.138 12.4116C17.5309 13.338 17.1136 14.672 15.7098 15.7464C13.7749 17.2285 17.6447 20.1188 20.035 20.1188C22.4253 20.1188 24.1326 18.266 24.3602 15.7464V15.5241C24.8914 13.4119 23.0322 4.00003 23.0322 4.00003L23.0324 4ZM18.6692 20.7859C16.0893 20.7859 14.0026 21.5269 14.0026 22.4164C14.0026 22.4164 13.8888 24.4545 15.1786 26.3442C16.4307 28.1969 16.0133 34.4592 16.0133 34.4592C15.7098 35.1633 20.718 34.978 20.718 34.978C20.718 34.978 21.9322 26.233 23.184 22.861C23.2978 22.7129 23.3737 22.5645 23.3737 22.4164C23.3359 21.49 21.2491 20.7859 18.6691 20.7859H18.6692Z" fill="#2862B6"/>
<path d="M13.0526 35H13.7919C13.7919 35 14.7882 31.5443 14.9811 30.2911C15.1742 29.038 13.8242 26 13.8242 26C12.6991 27.9366 13.0527 34.9999 13.0527 34.9999L13.0526 35Z" fill="#2862B6"/>
</svg>
