<svg width="39" height="39" viewBox="0 0 39 39" fill="none" xmlns="http://www.w3.org/2000/svg">
<rect width="39" height="39" rx="10" fill="white"/>
<path fill-rule="evenodd" clip-rule="evenodd" d="M27.5245 9.13442H23.1259V7.32017C23.1259 7.10678 22.8882 7 22.6503 7H16.3497C16.112 7 15.993 7.10678 15.993 7.32017V9.13442H11.4756C11.2379 9.13442 11 9.34781 11 9.56139V33.573C11 33.7864 11.2377 34 11.4756 34H27.5244C27.7621 34 28 33.7866 28 33.573V9.56139C28 9.348 27.7623 9.13442 27.5244 9.13442H27.5245ZM26.2168 10.7353H12.7832V32.3994H26.2168V10.7353Z" fill="#2862B6"/>
<path fill-rule="evenodd" clip-rule="evenodd" d="M25 22V31H14V27.4904L25 22Z" fill="#2862B6"/>
<path d="M17 18.2174L22.4545 13L20.2727 16.913H23L17 23L19.7273 18.2174H17Z" fill="#2862B6"/>
</svg>
