<svg width="39" height="39" viewBox="0 0 39 39" fill="none" xmlns="http://www.w3.org/2000/svg">
<rect width="39" height="39" rx="10" fill="white"/>
<path d="M29.9048 18.1875H13.4361V17.0957H29.2199C29.4015 17.0961 29.5761 17.0259 29.7047 16.9011C29.8334 16.7763 29.9058 16.6067 29.9058 16.4299C29.9058 16.2531 29.8334 16.0836 29.7047 15.9588C29.5761 15.8339 29.4015 15.764 29.2199 15.7642H13.4361V7.06528C13.4361 6.78277 13.3207 6.51175 13.1153 6.31195C12.9098 6.1122 12.6311 6 12.3407 6H10.0956C9.80502 6 9.5263 6.1122 9.32082 6.31195C9.11534 6.5117 9 6.78274 9 7.06528V24.0109C9 24.2934 9.11539 24.5643 9.32082 24.7641C9.52625 24.9638 9.805 25.076 10.0956 25.076H12.2487H12.2485C12.5636 25.076 12.8656 25.1978 13.0883 25.4143C13.3111 25.6309 13.4361 25.9245 13.4361 26.2307V29.7149C13.4361 30.0212 13.3111 30.315 13.0883 30.5314C12.8656 30.7479 12.5636 30.8697 12.2485 30.8697H11.8257V33H24.1079V30.8697H24.0466C23.6772 30.8695 23.329 30.7024 23.1041 30.4174C22.8795 30.1324 22.8038 29.762 22.8997 29.4151L23.8632 25.9309C23.931 25.6856 24.0802 25.4689 24.2874 25.3144C24.4948 25.1598 24.7488 25.076 25.01 25.076C26.598 25.0745 28.1205 24.4604 29.2436 23.3685C30.3664 22.2767 30.9982 20.7965 31 19.2522C31 18.9697 30.8846 18.6988 30.6792 18.4991C30.4738 18.2993 30.195 18.1871 29.9044 18.1871L29.9048 18.1875Z" fill="#2862B6"/>
</svg>
