<svg width="39" height="40" viewBox="0 0 39 40" fill="none" xmlns="http://www.w3.org/2000/svg">
<rect width="39" height="39" rx="10" fill="white"/>
<path d="M20.1092 8.00024C17.3066 8.00024 14.6278 9.30492 13.0615 11.6617C11.4953 13.9765 11.1243 17.4696 12.2786 20.289C12.6496 21.1728 13.144 22.0986 13.2678 22.9404C13.5563 24.7923 12.9381 25.3815 11.9076 26.7701L7.78582 32.368C6.50816 34.0516 5.953 35.5592 5.49967 38.0002C5.41713 38.3791 8.5 39.0002 10.0002 38.9999L22.3346 39.0598C22.4994 39.0598 22.6231 38.8915 22.5405 38.7232C21.7987 36.9976 20.4799 35.6089 18.8312 34.0096C18.2542 33.4624 18.3779 33.0837 18.6664 32.7469L21.3454 29.1274C20.8095 28.7485 20.3974 28.3279 19.9852 27.7385C19.7378 27.4019 20.0263 27.065 20.3562 27.3596C21.3866 28.3697 22.3757 29.0009 23.7359 29.8007C24.4365 30.2215 25.0547 30.2215 25.508 30.0953C25.9613 29.927 26.2498 29.4641 26.3323 28.8749C26.3735 28.6645 26.3735 28.5803 26.6208 28.3277C26.9093 28.0331 27.033 27.6122 26.4971 27.4018L25.4668 27.023C24.8898 26.8126 25.3843 25.3394 26.0849 25.592L26.9916 25.9286C27.4449 26.0969 27.6923 25.7183 27.6923 25.3814C27.6923 24.9185 27.6511 24.8342 27.8159 24.4556L28.5989 24.5399C28.9699 24.5819 29.2995 24.4136 29.4643 24.161C29.6291 23.9084 29.6703 23.5298 29.588 23.1929L28.7226 20.2889C28.5577 19.784 28.6814 19.3209 28.8051 18.858C28.9288 18.3951 29.1761 17.8899 29.1761 17.343C29.3409 14.9442 28.5166 12.9661 27.3215 11.4931C26.1263 10.0201 24.5602 9.05202 23.1588 8.58911C22.9115 8.50482 22.6644 8.4208 22.4582 8.37879C21.7164 8.1262 20.8921 8.00024 20.1092 8.00024Z" fill="#2862B6"/>
<path d="M30.8661 28.6225C30.8249 28.6225 30.7424 28.6225 30.7012 28.5805L28.7229 27.6125C28.517 27.5282 28.4344 27.2758 28.5581 27.0653C28.6406 26.855 28.8877 26.7707 29.0939 26.897L31.0723 27.865C31.2782 27.9493 31.3608 28.2016 31.2371 28.4122C31.1545 28.5382 30.9897 28.6225 30.866 28.6225" fill="#2862B6"/>
<path d="M31.5671 25.0449L33.8751 25.1292C34.2461 25.1292 34.2461 25.7184 33.8751 25.7184L31.5671 25.8447C31.0727 25.8447 31.0727 25.0449 31.5671 25.0449" fill="#2862B6"/>
<path d="M29.3 30.0116L30.6602 31.9055C30.8662 32.2001 30.4543 32.5367 30.2069 32.2844L28.6819 30.5168C28.3523 30.0959 29.0116 29.5487 29.3001 30.0116" fill="#2862B6"/>
<path d="M30.3709 25.8447H29.7939C29.5879 25.8447 29.4229 25.6764 29.4229 25.4658C29.4229 25.2555 29.5877 25.0869 29.7939 25.0869H30.3709C30.5768 25.0869 30.7419 25.2552 30.7419 25.4658C30.7417 25.6764 30.5768 25.8447 30.3709 25.8447Z" fill="#2862B6"/>
<path d="M32.1852 28.4542L32.6796 28.7908C32.9681 29.0011 32.7621 29.5063 32.3911 29.38L31.8553 29.2117C31.2785 28.9591 31.6907 28.1173 32.1852 28.4542" fill="#2862B6"/>
<path d="M28.2693 29.7167C28.1456 29.7167 28.022 29.6747 27.9808 29.5484L27.6098 29.0855C27.4861 28.9172 27.4861 28.6646 27.6923 28.5383C27.8571 28.412 28.1045 28.412 28.2282 28.6226L28.5992 29.0855C28.7229 29.2538 28.7229 29.5064 28.5167 29.6327C28.4341 29.7167 28.3519 29.7167 28.2693 29.7167" fill="#2862B6"/>
<path d="M30.9485 29.4219L31.3195 29.8848C31.5669 30.1794 31.1958 30.5582 30.9073 30.3477L30.4129 30.0111C29.9593 29.6744 30.5363 28.9589 30.9485 29.4219" fill="#2862B6"/>
<path d="M31.9793 26.4761L32.5562 26.5604C32.9273 26.6024 32.8859 27.1496 32.5562 27.1916L31.9381 27.2759C31.3611 27.3179 31.4023 26.3921 31.9793 26.4761" fill="#2862B6"/>
</svg>
