<svg width="39" height="39" viewBox="0 0 39 39" fill="none" xmlns="http://www.w3.org/2000/svg">
<rect width="39" height="39" rx="10" fill="white"/>
<path d="M19.8227 7.08524C23.5265 7.12747 26.8599 9.41217 28.0538 12.8389C28.9591 15.5041 28.4242 19.0156 26.6134 21.4271C26.0373 22.1885 25.3788 22.95 24.9672 23.754C24.5556 24.5577 24.4321 25.3194 24.8026 26.2079L28.2184 32.0882C29.2885 33.9498 30.5229 35.8111 30.9756 38.265C31.058 38.6459 30.9345 39 30.564 39H14.5966L14.7201 38.6881C15.9959 37.9688 16.819 37.5457 17.8478 36.1073C18.2594 35.5572 18.2594 35.1766 18.5064 35.0071L21.6751 32.6805C21.9221 32.4691 22.1277 32.2151 22.2101 31.8768C22.2926 31.5384 22.1691 31.2423 22.0456 31.0306C22.0045 30.9459 21.8399 30.9459 21.7575 30.8614L22.7041 30.1844C23.1978 29.8036 23.3213 29.0843 23.0332 28.619C22.9508 28.4921 22.7863 28.4498 22.6217 28.3229C22.7452 27.9845 22.7863 27.6036 22.6217 27.3498C22.4982 27.1383 22.2101 26.9267 21.9631 26.8422C21.6751 26.8 21.3459 26.8844 21.0165 27.0536L16.572 29.8458L16.3664 29.3805L16.778 28.5768L18.8355 26.3346C19.0411 26.1232 19.206 25.8271 19.1646 25.4884C19.1646 25.1501 18.959 24.8962 18.7941 24.727C18.6296 24.5578 18.3415 24.4731 18.0945 24.4731C17.724 24.4731 17.3949 24.6845 17.1068 24.9384L15.1725 26.8422L14.9668 27.0536L13.156 27.6037C12.3742 27.8576 11.7568 27.6884 11.3452 27.3923C10.9336 27.0961 10.8101 26.5886 10.8515 25.996C10.8925 25.4885 10.8925 25.5729 10.6869 25.0229C10.5634 24.6845 10.6045 24.3037 10.8104 24.0075C10.8928 23.8805 11.0984 23.8805 11.2219 23.7961C11.0574 23.7538 10.8928 23.7538 10.7693 23.6691C10.6047 23.5422 10.4812 23.4152 10.4402 23.246C10.3577 23.0768 10.3991 22.8651 10.4402 22.6537C10.5636 22.1884 10.6047 21.6806 10.5636 21.2575L9.78188 21.1305C9.41139 21.0883 9.12333 20.8344 9.04119 20.496C8.95877 20.1999 9.0001 19.819 9.16468 19.5229L10.7285 16.8999C11.0166 16.4345 11.0166 15.9692 11.0166 15.4614C11.0166 14.9538 10.9342 14.446 11.0166 13.896C11.4693 11.5268 12.745 9.8345 14.3088 8.73464C15.8316 7.63451 17.6011 7.08472 19.0414 7C19.3292 7.08526 19.5757 7.08524 19.8227 7.08524Z" fill="#2862B6"/>
<path d="M18.1362 25.1925C18.0127 25.1925 17.8071 25.2773 17.6012 25.4887L15.6669 27.3925C15.4612 27.6039 15.3788 27.8156 15.2142 28.1117L13.2388 32.5963C12.9508 33.2309 12.7451 33.6965 12.2511 34.331L10.5 38.9999H13.5L14.3086 38.1808C15.6668 37.3771 16.284 37.1232 17.2717 35.7269C17.4774 35.4308 17.6009 34.8386 18.0948 34.5001L21.2636 32.131C21.6343 31.8348 21.6343 31.5809 21.5108 31.4118C21.3873 31.2426 21.1817 31.1578 20.7701 31.4118L17.1074 33.8231C16.8604 33.9923 16.6548 33.654 16.9017 33.4848L19.1652 31.9619L22.334 29.5927C22.581 29.3813 22.581 29.1274 22.4985 28.9582C22.4575 28.8735 22.3751 28.8312 22.2516 28.789C22.1281 28.789 21.9635 28.789 21.7578 28.916L20.0294 30.1005L18.9182 30.862L16.5312 32.3849C16.2843 32.5541 16.0786 32.2157 16.3256 32.0465L21.0995 28.8312L21.9637 28.2389C22.1694 28.0697 22.2107 27.858 22.0872 27.6889C22.0461 27.6041 21.9637 27.5619 21.8815 27.5197C21.7991 27.5197 21.6346 27.5197 21.4289 27.6466L16.0378 31.0311C15.7908 31.2003 15.5027 31.1581 15.2971 30.9889C15.1325 30.8197 15.0501 30.5236 15.1736 30.2697L16.2848 28.1545L18.3836 25.8275C18.6306 25.5736 18.5482 25.3622 18.4247 25.2353C18.3418 25.1925 18.2597 25.1503 18.1362 25.1925Z" fill="#2862B6"/>
<ellipse rx="0.972736" ry="1" transform="matrix(-1 0 0 1 16.3818 19)" fill="white"/>
<ellipse rx="0.486368" ry="0.5" transform="matrix(-1 0 0 1 13.9499 21.5)" fill="white"/>
<ellipse rx="0.486368" ry="0.5" transform="matrix(-1 0 0 1 12.9771 19.5)" fill="white"/>
<ellipse cx="16.8681" cy="22.5" rx="0.486368" ry="0.5" transform="rotate(180 16.8681 22.5)" fill="white"/>
</svg>
