<svg width="198" height="146" viewBox="0 0 198 146" fill="none" xmlns="http://www.w3.org/2000/svg">
<path d="M9.74219 24.9639H4.51709L4.48877 22.769H9.23242C10.016 22.769 10.7004 22.6369 11.2856 22.3726C11.8709 22.1082 12.3241 21.7306 12.645 21.2397C12.9754 20.7394 13.1406 20.1447 13.1406 19.4556C13.1406 18.7004 12.9943 18.0868 12.7017 17.6147C12.4185 17.1333 11.9795 16.784 11.3848 16.5669C10.7995 16.3403 10.0537 16.2271 9.14746 16.2271H5.12598V34.6069H2.39307V13.9897H9.14746C10.2048 13.9897 11.1488 14.0983 11.9795 14.3154C12.8102 14.5231 13.5135 14.8535 14.0894 15.3066C14.6746 15.7503 15.1183 16.3167 15.4204 17.0059C15.7225 17.695 15.8735 18.521 15.8735 19.4839C15.8735 20.3335 15.6564 21.1029 15.2222 21.792C14.7879 22.4717 14.1838 23.0286 13.4097 23.4629C12.645 23.8971 11.7482 24.1756 10.7192 24.2983L9.74219 24.9639ZM9.61475 34.6069H3.44092L4.98438 32.3838H9.61475C10.4832 32.3838 11.2196 32.2327 11.8237 31.9307C12.4373 31.6286 12.9046 31.2038 13.2256 30.6562C13.5465 30.0993 13.707 29.4432 13.707 28.688C13.707 27.9233 13.5701 27.2625 13.2964 26.7056C13.0226 26.1486 12.5931 25.7191 12.0078 25.417C11.4225 25.1149 10.6673 24.9639 9.74219 24.9639H5.84814L5.87646 22.769H11.2007L11.7812 23.562C12.7725 23.647 13.6126 23.9302 14.3018 24.4116C14.9909 24.8836 15.5148 25.4878 15.8735 26.2241C16.2417 26.9604 16.4258 27.7723 16.4258 28.6597C16.4258 29.9435 16.1426 31.0291 15.5762 31.9165C15.0192 32.7944 14.231 33.4647 13.2114 33.9272C12.1919 34.3804 10.993 34.6069 9.61475 34.6069ZM20.4614 13.9897H27.2866C28.8348 13.9897 30.1423 14.2257 31.209 14.6978C32.2852 15.1698 33.1017 15.8683 33.6587 16.7935C34.2251 17.7091 34.5083 18.8372 34.5083 20.1777C34.5083 21.1217 34.3148 21.9855 33.9277 22.769C33.5501 23.5431 33.0026 24.2039 32.2852 24.7515C31.5771 25.2896 30.7275 25.6908 29.7363 25.9551L28.9717 26.2524H22.5571L22.5288 24.0293H27.3716C28.3534 24.0293 29.1699 23.8594 29.8213 23.5195C30.4727 23.1702 30.9635 22.703 31.2939 22.1177C31.6243 21.5324 31.7896 20.8857 31.7896 20.1777C31.7896 19.3848 31.6338 18.6909 31.3223 18.0962C31.0107 17.5015 30.5199 17.0436 29.8496 16.7227C29.1888 16.3923 28.3345 16.2271 27.2866 16.2271H23.1943V34.6069H20.4614V13.9897ZM32.5117 34.6069L27.499 25.2612L30.3452 25.2471L35.4287 34.437V34.6069H32.5117ZM45.9639 15.8164L39.1387 34.6069H36.3491L44.208 13.9897H46.0063L45.9639 15.8164ZM51.6846 34.6069L44.8452 15.8164L44.8027 13.9897H46.6011L54.4883 34.6069H51.6846ZM51.3306 26.9746V29.2119H39.7476V26.9746H51.3306ZM59.9824 13.9897V34.6069H57.2495V13.9897H59.9824ZM68.6201 23.2646V25.502H59.3877V23.2646H68.6201ZM70.022 13.9897V16.2271H59.3877V13.9897H70.022Z" fill="#142768"/>
<rect x="96.5656" width="101.434" height="45.4426" rx="22.7213" fill="#E69D4A"/>
<g filter="url(#filter0_di_799_846)">
<rect x="193.943" y="43.0083" width="42.1967" height="40.5738" rx="20.2869" transform="rotate(-180 193.943 43.0083)" fill="url(#paint0_linear_799_846)"/>
</g>
<path d="M114.031 24.0098H111.869L111.857 23.1016H113.82C114.145 23.1016 114.428 23.0469 114.67 22.9375C114.912 22.8281 115.1 22.6719 115.232 22.4688C115.369 22.2617 115.438 22.0156 115.438 21.7305C115.438 21.418 115.377 21.1641 115.256 20.9688C115.139 20.7695 114.957 20.625 114.711 20.5352C114.469 20.4414 114.16 20.3945 113.785 20.3945H112.121V28H110.99V19.4688H113.785C114.223 19.4688 114.613 19.5137 114.957 19.6035C115.301 19.6895 115.592 19.8262 115.83 20.0137C116.072 20.1973 116.256 20.4316 116.381 20.7168C116.506 21.002 116.568 21.3438 116.568 21.7422C116.568 22.0938 116.479 22.4121 116.299 22.6973C116.119 22.9785 115.869 23.209 115.549 23.3887C115.232 23.5684 114.861 23.6836 114.436 23.7344L114.031 24.0098ZM113.979 28H111.424L112.062 27.0801H113.979C114.338 27.0801 114.643 27.0176 114.893 26.8926C115.146 26.7676 115.34 26.5918 115.473 26.3652C115.605 26.1348 115.672 25.8633 115.672 25.5508C115.672 25.2344 115.615 24.9609 115.502 24.7305C115.389 24.5 115.211 24.3223 114.969 24.1973C114.727 24.0723 114.414 24.0098 114.031 24.0098H112.42L112.432 23.1016H114.635L114.875 23.4297C115.285 23.4648 115.633 23.582 115.918 23.7812C116.203 23.9766 116.42 24.2266 116.568 24.5312C116.721 24.8359 116.797 25.1719 116.797 25.5391C116.797 26.0703 116.68 26.5195 116.445 26.8867C116.215 27.25 115.889 27.5273 115.467 27.7188C115.045 27.9062 114.549 28 113.979 28ZM119.381 22.9434H121.707C122.332 22.9434 122.859 23.0488 123.289 23.2598C123.719 23.4668 124.045 23.7578 124.268 24.1328C124.49 24.5078 124.602 24.9473 124.602 25.4512C124.602 25.8262 124.539 26.1699 124.414 26.4824C124.289 26.791 124.104 27.0605 123.857 27.291C123.611 27.5176 123.309 27.6934 122.949 27.8184C122.59 27.9395 122.176 28 121.707 28H118.52V19.4688H119.65V27.0801H121.707C122.125 27.0801 122.463 27.0039 122.721 26.8516C122.982 26.6953 123.174 26.4922 123.295 26.2422C123.416 25.9922 123.477 25.7246 123.477 25.4395C123.477 25.1543 123.416 24.8926 123.295 24.6543C123.174 24.416 122.982 24.2266 122.721 24.0859C122.463 23.9414 122.125 23.8691 121.707 23.8691H119.381V22.9434ZM126.764 19.4688V28H125.633V19.4688H126.764ZM130.033 19.4688V28H128.902V19.4688H130.033ZM135.289 19.4688L131.586 24.1621H129.582L129.406 23.2246H130.912L133.889 19.4688H135.289ZM134.152 28L130.947 24.0156L131.58 23.0254L135.535 28H134.152ZM142.045 19.4688V20.3945H138.143V19.4688H142.045ZM143.018 19.4688V28H141.887V19.4688H143.018ZM137.756 19.4688H138.881L138.688 23.6465C138.66 24.248 138.613 24.7852 138.547 25.2578C138.484 25.7266 138.395 26.1348 138.277 26.4824C138.16 26.8262 138.008 27.1113 137.82 27.3379C137.633 27.5605 137.402 27.7266 137.129 27.8359C136.859 27.9453 136.535 28 136.156 28H135.852V27.0801L136.086 27.0625C136.305 27.0469 136.492 26.998 136.648 26.916C136.809 26.8301 136.943 26.7012 137.053 26.5293C137.166 26.3574 137.258 26.1348 137.328 25.8613C137.398 25.5879 137.453 25.2539 137.492 24.8594C137.535 24.4609 137.568 23.9961 137.592 23.4648L137.756 19.4688Z" fill="white"/>
<path d="M3.25684 108.121H5.90479L12.6592 124.929L19.3994 108.121H22.0615L13.6787 128.738H11.6113L3.25684 108.121ZM2.39307 108.121H4.72949L5.11182 120.695V128.738H2.39307V108.121ZM20.5747 108.121H22.9111V128.738H20.1924V120.695L20.5747 108.121ZM40.8096 126.515V128.738H29.8921V126.515H40.8096ZM30.4443 108.121V128.738H27.7114V108.121H30.4443ZM39.3652 116.985V119.208H29.8921V116.985H39.3652ZM40.668 108.121V110.358H29.8921V108.121H40.668ZM46.9268 108.121V128.738H44.1938V108.121H46.9268ZM59.3735 108.121L50.8066 117.735L45.9922 122.734L45.5391 119.817L49.1641 115.824L56.0884 108.121H59.3735ZM56.7397 128.738L49.1074 118.684L50.7358 116.518L59.9966 128.738H56.7397Z" fill="#142768"/>
<rect x="96.5656" y="94.1313" width="101.434" height="45.4426" rx="22.7213" fill="#142768"/>
<g filter="url(#filter1_di_799_846)">
<rect x="193.943" y="137.14" width="42.1967" height="40.5738" rx="20.2869" transform="rotate(-180 193.943 137.14)" fill="url(#paint1_linear_799_846)"/>
</g>
<path d="M114.031 119.01H111.869L111.857 118.102H113.82C114.145 118.102 114.428 118.047 114.67 117.938C114.912 117.828 115.1 117.672 115.232 117.469C115.369 117.262 115.438 117.016 115.438 116.73C115.438 116.418 115.377 116.164 115.256 115.969C115.139 115.77 114.957 115.625 114.711 115.535C114.469 115.441 114.16 115.395 113.785 115.395H112.121V123H110.99V114.469H113.785C114.223 114.469 114.613 114.514 114.957 114.604C115.301 114.689 115.592 114.826 115.83 115.014C116.072 115.197 116.256 115.432 116.381 115.717C116.506 116.002 116.568 116.344 116.568 116.742C116.568 117.094 116.479 117.412 116.299 117.697C116.119 117.979 115.869 118.209 115.549 118.389C115.232 118.568 114.861 118.684 114.436 118.734L114.031 119.01ZM113.979 123H111.424L112.062 122.08H113.979C114.338 122.08 114.643 122.018 114.893 121.893C115.146 121.768 115.34 121.592 115.473 121.365C115.605 121.135 115.672 120.863 115.672 120.551C115.672 120.234 115.615 119.961 115.502 119.73C115.389 119.5 115.211 119.322 114.969 119.197C114.727 119.072 114.414 119.01 114.031 119.01H112.42L112.432 118.102H114.635L114.875 118.43C115.285 118.465 115.633 118.582 115.918 118.781C116.203 118.977 116.42 119.227 116.568 119.531C116.721 119.836 116.797 120.172 116.797 120.539C116.797 121.07 116.68 121.52 116.445 121.887C116.215 122.25 115.889 122.527 115.467 122.719C115.045 122.906 114.549 123 113.979 123ZM119.381 117.943H121.707C122.332 117.943 122.859 118.049 123.289 118.26C123.719 118.467 124.045 118.758 124.268 119.133C124.49 119.508 124.602 119.947 124.602 120.451C124.602 120.826 124.539 121.17 124.414 121.482C124.289 121.791 124.104 122.061 123.857 122.291C123.611 122.518 123.309 122.693 122.949 122.818C122.59 122.939 122.176 123 121.707 123H118.52V114.469H119.65V122.08H121.707C122.125 122.08 122.463 122.004 122.721 121.852C122.982 121.695 123.174 121.492 123.295 121.242C123.416 120.992 123.477 120.725 123.477 120.439C123.477 120.154 123.416 119.893 123.295 119.654C123.174 119.416 122.982 119.227 122.721 119.086C122.463 118.941 122.125 118.869 121.707 118.869H119.381V117.943ZM126.764 114.469V123H125.633V114.469H126.764ZM130.033 114.469V123H128.902V114.469H130.033ZM135.289 114.469L131.586 119.162H129.582L129.406 118.225H130.912L133.889 114.469H135.289ZM134.152 123L130.947 119.016L131.58 118.025L135.535 123H134.152ZM142.045 114.469V115.395H138.143V114.469H142.045ZM143.018 114.469V123H141.887V114.469H143.018ZM137.756 114.469H138.881L138.688 118.646C138.66 119.248 138.613 119.785 138.547 120.258C138.484 120.727 138.395 121.135 138.277 121.482C138.16 121.826 138.008 122.111 137.82 122.338C137.633 122.561 137.402 122.727 137.129 122.836C136.859 122.945 136.535 123 136.156 123H135.852V122.08L136.086 122.062C136.305 122.047 136.492 121.998 136.648 121.916C136.809 121.83 136.943 121.701 137.053 121.529C137.166 121.357 137.258 121.135 137.328 120.861C137.398 120.588 137.453 120.254 137.492 119.859C137.535 119.461 137.568 118.996 137.592 118.465L137.756 114.469Z" fill="white"/>
<defs>
<filter id="filter0_di_799_846" x="147.746" y="2.43457" width="50.1967" height="48.5737" filterUnits="userSpaceOnUse" color-interpolation-filters="sRGB">
<feFlood flood-opacity="0" result="BackgroundImageFix"/>
<feColorMatrix in="SourceAlpha" type="matrix" values="0 0 0 0 0 0 0 0 0 0 0 0 0 0 0 0 0 0 127 0" result="hardAlpha"/>
<feOffset dy="4"/>
<feGaussianBlur stdDeviation="2"/>
<feComposite in2="hardAlpha" operator="out"/>
<feColorMatrix type="matrix" values="0 0 0 0 0 0 0 0 0 0 0 0 0 0 0 0 0 0 0.25 0"/>
<feBlend mode="normal" in2="BackgroundImageFix" result="effect1_dropShadow_799_846"/>
<feBlend mode="normal" in="SourceGraphic" in2="effect1_dropShadow_799_846" result="shape"/>
<feColorMatrix in="SourceAlpha" type="matrix" values="0 0 0 0 0 0 0 0 0 0 0 0 0 0 0 0 0 0 127 0" result="hardAlpha"/>
<feOffset dy="4"/>
<feGaussianBlur stdDeviation="2"/>
<feComposite in2="hardAlpha" operator="arithmetic" k2="-1" k3="1"/>
<feColorMatrix type="matrix" values="0 0 0 0 0 0 0 0 0 0 0 0 0 0 0 0 0 0 0.07 0"/>
<feBlend mode="normal" in2="shape" result="effect2_innerShadow_799_846"/>
</filter>
<filter id="filter1_di_799_846" x="147.746" y="96.5659" width="50.1967" height="48.5737" filterUnits="userSpaceOnUse" color-interpolation-filters="sRGB">
<feFlood flood-opacity="0" result="BackgroundImageFix"/>
<feColorMatrix in="SourceAlpha" type="matrix" values="0 0 0 0 0 0 0 0 0 0 0 0 0 0 0 0 0 0 127 0" result="hardAlpha"/>
<feOffset dy="4"/>
<feGaussianBlur stdDeviation="2"/>
<feComposite in2="hardAlpha" operator="out"/>
<feColorMatrix type="matrix" values="0 0 0 0 0 0 0 0 0 0 0 0 0 0 0 0 0 0 0.25 0"/>
<feBlend mode="normal" in2="BackgroundImageFix" result="effect1_dropShadow_799_846"/>
<feBlend mode="normal" in="SourceGraphic" in2="effect1_dropShadow_799_846" result="shape"/>
<feColorMatrix in="SourceAlpha" type="matrix" values="0 0 0 0 0 0 0 0 0 0 0 0 0 0 0 0 0 0 127 0" result="hardAlpha"/>
<feOffset dy="4"/>
<feGaussianBlur stdDeviation="2"/>
<feComposite in2="hardAlpha" operator="arithmetic" k2="-1" k3="1"/>
<feColorMatrix type="matrix" values="0 0 0 0 0 0 0 0 0 0 0 0 0 0 0 0 0 0 0.07 0"/>
<feBlend mode="normal" in2="shape" result="effect2_innerShadow_799_846"/>
</filter>
<linearGradient id="paint0_linear_799_846" x1="215.041" y1="43.0083" x2="215.041" y2="63.2952" gradientUnits="userSpaceOnUse">
<stop stop-color="#D8D8D8"/>
<stop offset="1" stop-color="white"/>
</linearGradient>
<linearGradient id="paint1_linear_799_846" x1="215.041" y1="137.14" x2="215.041" y2="157.427" gradientUnits="userSpaceOnUse">
<stop stop-color="#D8D8D8"/>
<stop offset="1" stop-color="white"/>
</linearGradient>
</defs>
</svg>
