<svg width="39" height="40" viewBox="0 0 39 40" fill="none" xmlns="http://www.w3.org/2000/svg">
<rect y="0.00170898" width="39" height="39" rx="10" fill="white"/>
<path d="M13.6501 12.0005C14.8385 12.0005 16.4197 12.431 17.6689 13.318C18.9181 14.2051 19.8432 15.5143 19.8432 17.3606C19.8432 20.9339 19.8231 23.3141 19.2169 25.0542C18.6138 26.7867 17.4533 27.9518 14.9706 29.1746C13.3085 29.8623 11.2645 30.2121 9.6428 30.2243C9.52264 30.2208 9.40299 30.2831 9.33553 30.3805C8.9972 30.8783 8.56696 31.2903 8.15149 31.5755C7.74543 31.8544 7.35997 31.9938 7.11558 32C6.99644 31.7545 7.01018 31.3993 7.00178 31.1625C7.00178 30.5241 7.09292 29.7282 7.09292 29.1525C7.09394 29.1186 7.09012 29.0847 7.08146 29.052C5.99902 25.1583 6 22.7203 6 18.4321C6 15.097 9.46095 12 13.6505 12L13.6501 12.0005ZM27.7096 12.0005C28.2359 12.0005 29.5383 11.9923 30.7379 12.1234C31.3376 12.1887 31.914 12.2881 32.3318 12.425C32.7495 12.5616 32.9463 12.746 32.9692 12.8158C33.0823 13.161 32.876 13.7383 32.4797 14.4016C32.0627 15.1514 31.5301 15.8391 31.2159 16.5231C30.4288 18.7091 29.3198 20.4537 28.1192 21.6376C26.9186 22.8213 25.6371 23.4355 24.5444 23.4355C24.2282 23.4355 23.7901 23.1147 23.4289 22.4193C23.0674 21.7241 22.8026 20.7063 22.8026 19.5047C22.8026 15.9485 23.1048 14.0294 23.7931 13.0949C24.1373 12.6276 24.56 12.3766 25.1933 12.2128C26.1034 12.0401 26.9692 12.0019 27.7093 12.0007L27.7096 12.0005ZM23.6682 12.1792C23.4956 12.3238 23.3413 12.4918 23.2016 12.6817C22.3108 13.8914 22.0745 15.9141 22.0745 19.5049C22.0519 20.9297 22.3467 21.8891 22.8373 22.8438C22.3968 23.2887 22.029 24.0449 22.029 24.865C22.028 24.9106 22.0356 24.9562 22.0516 24.9991L23.0863 27.3618H22.3564L21.2434 24.6753C21.1973 24.5641 21.0583 24.5083 20.9361 24.5078H20.1393C20.5776 22.7111 20.5718 20.4685 20.5718 17.361C20.5718 15.2765 19.4822 13.7268 18.0899 12.738C17.9939 12.6697 17.8926 12.6114 17.7938 12.5481C18.7829 12.7325 19.7065 12.924 20.0934 13.0506C20.1958 13.081 20.3119 13.0641 20.4007 13.006C20.8307 12.7248 21.9243 12.4334 23.0875 12.2577C23.278 12.2288 23.4745 12.2033 23.6682 12.1794L23.6682 12.1792Z" fill="#2862B6"/>
</svg>
