<svg width="39" height="40" viewBox="0 0 39 40" fill="none" xmlns="http://www.w3.org/2000/svg">
<rect width="39" height="39" rx="10" fill="white"/>
<path d="M21.8787 3.04208C21.7539 3.04208 21.5876 3.12535 21.5461 3.24988C21.4213 3.58247 21.4213 3.91531 21.5461 4.24792C21.6709 4.58054 21.8787 4.83007 22.1698 4.99636C22.3361 5.07963 22.5024 5.28743 22.5024 5.537C22.5439 5.78657 22.4191 6.03587 22.2528 6.11915C22.0032 6.32695 21.8369 6.61803 21.7539 6.99236V7.20016C21.9617 7.20016 22.2113 7.24167 22.4609 7.28344V7.11714C22.5024 6.95085 22.5856 6.78455 22.7104 6.70128C23.0848 6.4102 23.2511 5.95284 23.2093 5.49546C23.1678 5.03808 22.9182 4.62225 22.5024 4.41414C22.3361 4.33113 22.2531 4.20634 22.1698 4.04005C22.1283 3.87375 22.1283 3.66569 22.1698 3.4994C22.2531 3.33311 22.1698 3.12505 21.962 3.04203H21.8787L21.8787 3.04208ZM18.4273 3.04208C18.3025 3.04208 18.1362 3.12535 18.0947 3.24988C17.9699 3.58247 17.9699 3.91531 18.0532 4.24792C18.178 4.58051 18.3858 4.83007 18.6768 4.99636C18.8431 5.07963 19.0094 5.28743 19.0094 5.537C19.0509 5.78657 18.9261 6.03587 18.7598 6.11915C18.5103 6.32695 18.344 6.61803 18.261 6.99236C18.2195 7.15865 18.261 7.32494 18.261 7.44973C18.4688 7.40822 18.7183 7.36645 18.9264 7.32494V7.07537C18.9679 6.90908 19.0512 6.74279 19.176 6.65951C19.5503 6.36843 19.7166 5.91108 19.6748 5.45369C19.6333 4.99632 19.3838 4.58048 18.9679 4.37237C18.8431 4.2891 18.7183 4.16457 18.6768 3.99802C18.6353 3.83172 18.6353 3.62366 18.6768 3.45737C18.7601 3.29108 18.6768 3.08302 18.469 3C18.5105 3.04203 18.4688 3.04203 18.4273 3.04203L18.4273 3.04208ZM20.1737 3.04208C20.049 3.04208 19.8827 3.12535 19.8412 3.24988C19.7164 3.58247 19.7164 3.91531 19.7996 4.24792C19.9244 4.58051 20.1322 4.83007 20.4233 4.99636C20.5896 5.07963 20.7559 5.28743 20.7559 5.537C20.7974 5.78657 20.6726 6.03587 20.5063 6.11915C20.2568 6.32695 20.0905 6.61803 20.0074 6.99236V7.20016C20.2153 7.20016 20.4648 7.15865 20.7144 7.15865V7.07537C20.7559 6.90908 20.8392 6.74279 20.964 6.65951C21.3383 6.36843 21.5046 5.91108 21.4628 5.45369C21.4213 4.99632 21.1717 4.58048 20.7559 4.37237C20.6311 4.2891 20.5063 4.16457 20.4648 3.99802C20.4233 3.83172 20.4233 3.62366 20.4648 3.45737C20.5481 3.29108 20.4648 3.08302 20.2985 3C20.2152 3.04203 20.1737 3.04203 20.1737 3.04203L20.1737 3.04208Z" fill="#2862B6"/>
<path d="M22.8353 18.8023H23.7085C23.8333 18.8023 23.958 18.9271 23.958 19.0519C23.958 19.1766 23.8333 19.3014 23.7085 19.3014H22.8768C22.752 19.3014 22.6272 19.1766 22.6272 19.0519C22.6272 18.8856 22.7105 18.8023 22.8353 18.8023H22.8353ZM22.8353 17.5965H24.8313C24.9561 17.5965 25.0809 17.7213 25.0809 17.846C25.0809 17.9708 24.9561 18.0956 24.8313 18.0956H22.8768C22.752 18.0956 22.6272 17.9708 22.6272 17.846C22.6272 17.7213 22.7105 17.5965 22.8353 17.5965H22.8353ZM22.8768 16.4321H23.7085C23.8333 16.4321 23.9581 16.5569 23.9581 16.6817C23.9581 16.8065 23.8333 16.9313 23.7085 16.9313H22.8768C22.752 16.9313 22.6272 16.8065 22.6272 16.6817C22.6272 16.5152 22.7105 16.4321 22.8768 16.4321ZM22.8353 15.2261H24.8313C24.9561 15.2261 25.0809 15.3508 25.0809 15.4756C25.0809 15.6004 24.9561 15.7252 24.8313 15.7252H22.8768C22.752 15.7252 22.6272 15.6004 22.6272 15.4756C22.5857 15.3508 22.7105 15.2261 22.8353 15.2261H22.8353ZM22.8768 14.0617H23.7085C23.8333 14.0617 23.9581 14.1865 23.9581 14.3113C23.9581 14.4361 23.8333 14.5609 23.7085 14.5609H22.8768C22.752 14.5609 22.6272 14.4361 22.6272 14.3113C22.6272 14.145 22.7105 14.0617 22.8768 14.0617ZM22.8353 12.8559H24.8313C24.9561 12.8559 25.0809 12.9807 25.0809 13.1055C25.0809 13.2303 24.9561 13.3551 24.8313 13.3551H22.8768C22.752 13.3551 22.6272 13.2303 22.6272 13.1055C22.6272 12.9807 22.7105 12.8559 22.8353 12.8559H22.8353ZM20.2986 11.3173C21.047 11.3173 21.7125 11.941 21.7125 12.7312V21.6717C22.2531 22.1291 22.6272 22.7113 22.6272 23.4182C22.6272 24.0419 22.3777 24.624 21.9618 25.0817C21.5459 25.4975 20.9223 25.7471 20.2983 25.7471C19.6747 25.7471 19.0925 25.4975 18.6349 25.0817C18.219 24.6658 17.9694 24.0421 17.9694 23.4182C17.9694 22.7113 18.3438 22.1291 18.8842 21.6717L18.8847 12.7312C18.8847 11.941 19.5501 11.3173 20.2986 11.3173H20.2986ZM20.756 7.94918C17.0135 7.99068 13.6452 10.2363 12.4389 13.6044C11.5242 16.2241 12.0646 19.6756 13.8943 22.0458C14.4764 22.7942 15.1419 23.5426 15.516 24.3329C15.9319 25.1228 16.1814 25.9131 15.6823 26.7448L12.2726 32.5246C11.1913 34.3543 9.94398 36.1838 9.48659 38.5957C9.40331 38.97 9.5281 39.1363 9.90245 39.1363H26.9515C27.1178 39.1363 27.2426 38.97 27.1593 38.8037C26.4109 37.0988 25.1633 35.6849 23.4168 34.1465C22.9595 33.7306 22.8347 32.8574 23.1673 32.192L24.9552 28.1168C24.3316 27.909 23.7909 27.5762 23.2088 27.1188C22.9177 26.8692 23.084 26.4534 23.4999 26.6614C24.7889 27.3684 26.0365 27.701 27.4919 28.1168C28.2818 28.3664 28.9058 28.2001 29.3216 27.909C29.7375 27.6179 29.8623 27.1191 29.8205 26.5366C29.779 26.0378 29.779 26.1208 29.9868 25.5802C30.1116 25.2476 30.0701 24.8732 29.862 24.5821C29.7787 24.4573 29.5709 24.4573 29.4462 24.3743C29.6125 24.3328 29.7787 24.3328 29.9035 24.2495C30.0698 24.1247 30.1946 23.9999 30.2361 23.8337C30.3194 23.6674 30.2776 23.4593 30.2361 23.2515C30.1113 22.7941 30.0698 22.295 30.1113 21.8791L30.9013 21.7544C31.2756 21.7128 31.5667 21.4633 31.6497 21.1307C31.733 20.8396 31.6912 20.4653 31.5249 20.1742L29.9447 17.596C29.6536 17.1387 29.6536 16.6813 29.6536 16.1822C29.6536 15.6833 29.7369 15.1841 29.6536 14.6435C29.1963 12.3149 27.8657 10.6515 26.327 9.57045C24.7884 8.48914 23.0004 7.94875 21.545 7.86548C21.2547 7.94902 21.0051 7.94902 20.7556 7.94902L20.756 7.94918Z" fill="#2862B6"/>
<path d="M20.298 14.3525C19.9236 14.3525 19.591 14.6851 19.591 15.0595V21.9209C19.0504 22.212 18.6763 22.7526 18.6763 23.3763C18.6763 24.2911 19.4247 24.998 20.298 24.998C21.2127 24.998 21.9197 24.2496 21.9197 23.3763C21.9197 22.7526 21.5453 22.1705 21.0049 21.9209V15.0595C21.0049 14.6854 20.6723 14.3525 20.298 14.3525Z" fill="#2862B6"/>
</svg>
