<svg width="69" height="69" viewBox="0 0 69 69" fill="none" xmlns="http://www.w3.org/2000/svg">
<circle cx="34.0589" cy="34.0589" r="34.0589" fill="#5DBFF7"/>
<path d="M37 18C37 19.6566 35.657 21 34 21C32.343 21 31 19.6567 31 18C31 16.3431 32.343 15 34 15C35.657 15 37 16.343 37 18Z" fill="white"/>
<path d="M24.9608 38.5195C25.2263 40.1548 24.1159 41.6956 22.4805 41.9608C20.8455 42.2263 19.3047 41.1159 19.0392 39.4805C18.7737 37.8455 19.8841 36.3047 21.5195 36.0392C23.1548 35.7737 24.6956 36.8841 24.9608 38.5195Z" fill="white"/>
<path d="M45.8399 42.7544C44.4659 42.7032 43.1256 43.1997 42.1004 44.1391L34.2253 38.024V31.2165C37.2268 31.2165 40.1608 30.7549 40.1608 29.8966C40.1608 29.8966 40.1608 22 34.0002 22C27.8396 22 27.8396 29.8966 27.8396 29.8966C27.8396 30.7548 30.7737 31.2165 33.7751 31.2165V38.024L25.9 44.1713C24.8748 43.2319 23.5345 42.7358 22.1606 42.7867C16 42.7545 16 50.6649 16 50.6649C16 52.4233 28.3165 52.4233 28.3165 50.6649C28.2867 49.5462 28.1049 48.4369 27.7763 47.3697C27.4696 46.3051 26.9397 45.3222 26.2237 44.4897L34 38.4301L41.7763 44.4991C41.0612 45.3287 40.5313 46.3084 40.2237 47.3698C39.896 48.4341 39.7143 49.5402 39.6835 50.6557C39.6835 52.4465 52 52.4465 52 50.665C52 50.665 52 42.7546 45.8394 42.7546L45.8399 42.7544Z" fill="#2862B6"/>
<path d="M47.1478 36.229C48.678 36.8628 49.4047 38.6175 48.771 40.1478C48.1369 41.678 46.3825 42.4047 44.8523 41.771C43.3218 41.1369 42.5951 39.3825 43.2292 37.8522C43.8629 36.322 45.6173 35.5953 47.1478 36.229Z" fill="white"/>
</svg>
