<svg width="69" height="69" viewBox="0 0 69 69" fill="none" xmlns="http://www.w3.org/2000/svg">
<circle cx="34.0589" cy="34.0589" r="34.0589" fill="#5DBFF7"/>
<circle cx="23.5" cy="27.5" r="3.5" fill="white"/>
<path d="M34.4708 36.9672C34.4749 35.8176 34.825 34.6952 35.4771 33.7421C36.1288 32.7894 37.0531 32.0488 38.1325 31.615L40.5835 26.6449V26.6108C40.6953 26.4287 40.8362 26.2655 41 26.1272C39.4217 24.4756 37.5113 23.1667 35.3909 22.2841C33.2709 21.4015 30.9871 20.9651 28.6863 21.0022C20.0244 21.0022 13 27.0458 13 34.5011C13 41.9565 20.0195 48 28.6863 48C29.1766 48 29.6666 47.9808 30.1569 47.942L34.853 38.311C34.6154 37.9009 34.4841 37.4392 34.4707 36.9671L34.4708 36.9672ZM19.2055 38.4805C18.4256 38.4805 17.6775 38.1746 17.1259 37.6306C16.5744 37.0866 16.2646 36.3487 16.2646 35.5794C16.2646 34.8101 16.5744 34.0722 17.1259 33.5282C17.6774 32.9842 18.4256 32.6783 19.2055 32.6783C19.9858 32.6783 20.7336 32.9842 21.2856 33.5282C21.8371 34.0722 22.1469 34.8101 22.1469 35.5794C22.1469 36.3487 21.8371 37.0866 21.2856 37.6306C20.7337 38.1746 19.9858 38.4805 19.2055 38.4805ZM19.9947 27.5147C19.9947 26.7451 20.3049 26.0075 20.8564 25.4632C21.4079 24.9192 22.1561 24.6136 22.9361 24.6136C23.716 24.6136 24.4642 24.9192 25.0157 25.4632C25.5673 26.0075 25.8774 26.7451 25.8774 27.5147C25.8774 28.284 25.5673 29.0219 25.0157 29.5659C24.4642 30.1099 23.716 30.4155 22.9361 30.4155C22.1561 30.4155 21.408 30.1099 20.8564 29.5659C20.3049 29.0219 19.9947 28.284 19.9947 27.5147ZM27.1565 44.5915C26.3765 44.5915 25.6284 44.2859 25.0768 43.7419C24.5253 43.1979 24.2155 42.46 24.2155 41.6907C24.2155 40.9214 24.5253 40.1835 25.0768 39.6395C25.6284 39.0952 26.3766 38.7896 27.1565 38.7896C27.9368 38.7896 28.6846 39.0952 29.2365 39.6395C29.788 40.1835 30.0978 40.9214 30.0978 41.6907C30.0978 42.46 29.788 43.1979 29.2365 43.7419C28.6846 44.2859 27.9368 44.5915 27.1565 44.5915ZM29.6075 27.0986V27.0989C29.6075 26.3293 29.9176 25.5917 30.4692 25.0477C31.0207 24.5034 31.7689 24.1978 32.5488 24.1978C33.3287 24.1978 34.0769 24.5034 34.6285 25.0477C35.18 25.5917 35.4898 26.3293 35.4898 27.0989C35.4898 27.8682 35.18 28.6061 34.6285 29.1501C34.0769 29.6941 33.3287 29.9997 32.5488 29.9997C31.7654 30.0051 31.0121 29.7015 30.4565 29.1569C29.9006 28.6125 29.588 27.8716 29.588 27.0989L29.6075 27.0986Z" fill="#2862B6"/>
<path d="M51.8764 17.0003C51.8764 17.0003 51.6377 20.1295 47.7975 21.0211C44.7843 21.7093 44.8944 24.5726 45.0781 25.7719C46.8571 26.004 48.4579 27.1069 49.4602 28.7916C49.497 28.8592 49.5246 28.9323 49.5566 29C57.9488 23.6442 51.8764 17 51.8764 17L51.8764 17.0003Z" fill="white"/>
<path d="M44.2578 26.0059C43.9474 25.9798 43.6357 26.0402 43.3567 26.1799C43.0781 26.3196 42.8426 26.5336 42.6763 26.7984L32.1576 48.7623C31.5386 49.8271 32.8684 50.9987 33.9712 50.9987C34.3949 51.019 34.7943 50.7993 35.0061 50.4297L48.7987 30.3765C49.8577 28.5389 46.5014 26.0061 44.2574 26.0061L44.2578 26.0059Z" fill="#2862B6"/>
</svg>
