<svg width="69" height="69" viewBox="0 0 69 69" fill="none" xmlns="http://www.w3.org/2000/svg">
<circle cx="34.0589" cy="34.0589" r="34.0589" fill="#5DBFF7"/>
<path d="M33.0001 52C34.3448 51.9981 35.6531 51.511 36.7332 50.611C37.8133 49.711 38.6079 48.4451 39 47H27C27.3921 48.4452 28.1867 49.711 29.2668 50.611C30.3469 51.511 31.6552 51.9981 32.9999 52H33.0001Z" fill="#2862B6"/>
<path d="M44.9121 42H19.0886C18.535 42.0008 18.0042 42.2239 17.6128 42.6206C17.2211 43.017 17.0008 43.5547 17 44.1154V46.4231C17 46.7418 17.255 47 17.5696 47H46.4304C46.5815 47 46.7263 46.9393 46.8332 46.831C46.9401 46.7228 47 46.5761 47 46.4231V44.1154C46.9992 43.5547 46.7789 43.0171 46.3872 42.6206C45.9958 42.2239 45.465 42.0008 44.9114 42H44.9121Z" fill="#2862B6"/>
<path d="M44.3725 39.556C37.9616 39.256 32.8351 33.7394 32.8351 26.9999C32.8343 25.2731 33.1767 23.5649 33.8405 21.9822C34.5046 20.3996 35.4755 18.9767 36.6931 17.8024C36.3566 17.6447 36.0123 17.5063 35.6614 17.3878V16.2873C35.6614 15.113 35.0589 14.0276 34.0809 13.4403C33.1028 12.8532 31.8978 12.8532 30.9198 13.4403C29.9417 14.0276 29.3393 15.1129 29.3393 16.2873V17.3878C25.2426 18.7801 22.2731 22.785 22.2731 27.5027V33.8947C22.2741 35.1311 22.0207 36.3533 21.5293 37.479L20 41H45L44.3725 39.556ZM30.4549 17.0809V16.2873C30.4549 15.5273 30.8449 14.8251 31.4776 14.4453C32.1104 14.0652 32.8903 14.0652 33.523 14.4453C34.1558 14.8251 34.5457 15.5273 34.5457 16.2873V17.0823C33.196 16.7967 31.8046 16.7967 30.4549 17.0823V17.0809Z" fill="#2862B6"/>
<path d="M46 16C39.9349 16 35 20.7105 35 26.5C35 32.2895 39.9348 37 46 37C52.0652 37 57 32.2895 57 26.5C57 20.7105 52.0652 16 46 16V16ZM48.0508 32.9069C48.0505 33.2371 47.9129 33.5539 47.6681 33.7873C47.4236 34.0209 47.0917 34.1523 46.7458 34.1526H45.2543C44.9083 34.1523 44.5764 34.0209 44.3319 33.7873C44.0872 33.5539 43.9495 33.2371 43.9492 32.9069V31.4832C43.9495 31.1529 44.0872 30.8361 44.3319 30.6028C44.5764 30.3691 44.9083 30.2377 45.2543 30.2374H46.7458C47.0917 30.2377 47.4236 30.3691 47.6681 30.6028C47.9128 30.8361 48.0505 31.1529 48.0508 31.4832V32.9069ZM49.0821 22.2774L48.1416 28.1146H48.1419C48.0958 28.4095 47.94 28.6785 47.703 28.8725C47.4659 29.0665 47.1639 29.1725 46.8518 29.1712H45.1483C44.8361 29.1725 44.5341 29.0665 44.2971 28.8725C44.06 28.6785 43.9042 28.4095 43.8582 28.1146L42.9177 22.2774H42.918C42.7789 21.4188 43.04 20.545 43.6325 19.8853C44.2249 19.2258 45.0897 18.8462 46.0001 18.8462C46.9104 18.8462 47.7752 19.2258 48.3676 19.8853C48.9602 20.545 49.2212 21.4188 49.0821 22.2774H49.0821Z" fill="white"/>
</svg>
