<svg width="69" height="69" viewBox="0 0 69 69" fill="none" xmlns="http://www.w3.org/2000/svg">
<circle cx="34.0589" cy="34.0589" r="34.0589" fill="#5DBFF7"/>
<rect x="26" y="27" width="6" height="14" fill="white"/>
<rect x="36" y="27" width="6" height="14" fill="white"/>
<path d="M18.9259 49.2955C18.9259 49.6845 19.241 50 19.6296 50C20.0182 50 20.3333 49.6845 20.3333 49.2955V47.1818H33V19H14.7037C14.3151 19 14 19.3155 14 19.7045V46.4773C14 46.6641 14.0741 46.8434 14.2061 46.9755C14.338 47.1076 14.5171 47.1818 14.7037 47.1818H18.9259V49.2955ZM29.4815 30.9773C29.4815 30.5882 29.7966 30.2727 30.1852 30.2727C30.5738 30.2727 30.8889 30.5882 30.8889 30.9773V35.9091C30.8889 36.2982 30.5738 36.6136 30.1852 36.6136C29.7966 36.6136 29.4815 36.2982 29.4815 35.9091V30.9773Z" fill="#2862B6"/>
<path d="M53.2963 19H35V47.1818H47.6667V49.2955C47.6667 49.6845 47.9818 50 48.3704 50C48.759 50 49.0741 49.6845 49.0741 49.2955V47.1818H53.2963C53.4829 47.1818 53.662 47.1076 53.7939 46.9755C53.9259 46.8434 54 46.6641 54 46.4773V19.7045C54 19.5177 53.9259 19.3384 53.7939 19.2063C53.662 19.0742 53.4829 19 53.2963 19ZM38.5185 35.9091C38.5185 36.2982 38.2034 36.6136 37.8148 36.6136C37.4262 36.6136 37.1111 36.2982 37.1111 35.9091V30.9773C37.1111 30.5882 37.4262 30.2727 37.8148 30.2727C38.2034 30.2727 38.5185 30.5882 38.5185 30.9773V35.9091Z" fill="#2862B6"/>
</svg>
