<svg width="69" height="69" viewBox="0 0 69 69" fill="none" xmlns="http://www.w3.org/2000/svg">
<circle cx="34.0589" cy="34.0589" r="34.0589" fill="#5DBFF7"/>
<path d="M42.4589 42.4984C42.4417 42.518 42.421 42.5345 42.3988 42.5479L38.9992 44.2588L38.9988 44.2592C38.8071 44.3578 38.5949 44.4088 38.3791 44.4077C37.9882 44.4004 37.6118 44.2565 37.3154 44.0005C37.0764 43.8144 36.897 43.5618 36.7994 43.2744C36.7019 42.9869 36.6908 42.6768 36.7673 42.3829L37.8146 38.7131C37.8241 38.677 37.841 38.6436 37.8639 38.6141L44.0603 31.115L39.9971 16.2599C39.8777 15.822 39.5901 15.4498 39.1973 15.2249C38.8045 15 38.3386 14.9409 37.9021 15.0606L22 19.4622L30.8449 52L46.747 47.5984C47.1807 47.4786 47.5498 47.1916 47.7739 46.8001C47.9977 46.4083 48.0585 45.9439 47.9422 45.5076L45.9628 38.256L42.4589 42.4984ZM28.2018 29.0021H28.1249C28.0783 29.0028 28.0324 28.9894 27.9934 28.9637C27.9283 28.9295 27.8809 28.8697 27.8618 28.7987L26.2166 22.7464C26.1948 22.6758 26.2032 22.599 26.2396 22.5345C26.2759 22.4701 26.3371 22.4232 26.4086 22.4052L37.5509 19.3296C37.6958 19.2912 37.845 19.3771 37.8852 19.5222L39.5303 25.5745C39.5487 25.6451 39.5387 25.7199 39.5028 25.7836C39.468 25.847 39.4083 25.8926 39.3383 25.9099L28.2018 29.0021Z" fill="white"/>
<path d="M16.6952 21.0669C16.1014 21.2139 15.5961 21.5838 15.2939 22.0914C14.9921 22.5992 14.919 23.2019 15.092 23.7616L23.0843 51.3923C23.24 51.9561 23.6288 52.4358 24.1625 52.7219C24.6959 53.0083 25.3284 53.0767 25.9163 52.9121L30 51.8343L20.779 20L16.6952 21.0669Z" fill="white"/>
<path d="M28 23.4L36.8235 21L38 24.6L28.9628 27L28 23.4Z" fill="#2862B6"/>
<path d="M40 37.9102L53.4277 21L57 24.0898L43.5723 41L40 37.9102Z" fill="#2862B6"/>
<path d="M38.4603 42.7002C38.7854 43.0017 39.2587 43.0838 39.6676 42.91L43 41.2474L39.0519 38L38.0256 41.5656C37.9313 41.996 38.1019 42.4411 38.4603 42.7002Z" fill="#2862B6"/>
</svg>
