<svg width="69" height="69" viewBox="0 0 69 69" fill="none" xmlns="http://www.w3.org/2000/svg">
<circle cx="34.0589" cy="34.0589" r="34.0589" fill="#5DBFF7"/>
<path fill-rule="evenodd" clip-rule="evenodd" d="M34.9474 34.2757L41.8463 27.3764C42.4307 28.0882 42.9051 28.873 43.2701 29.7493C43.7264 30.899 44 32.1585 44 33.4908C44 34.823 43.7264 36.0827 43.2701 37.2322C42.7954 38.3822 42.1021 39.4043 41.2623 40.2623C40.4047 41.1018 39.3825 41.7955 38.2325 42.2698C37.0826 42.7261 35.8234 43 34.4911 43C33.1589 43 31.8992 42.7261 30.7493 42.2698C29.5997 41.7954 28.5776 41.1018 27.7196 40.2623C26.8801 39.4044 26.1864 38.3822 25.7121 37.2322C25.2558 36.0826 25 34.823 25 33.4908C25 32.1585 25.2558 30.8989 25.7121 29.7493C26.1865 28.5994 26.8801 27.5773 27.7196 26.7193C28.5775 25.8798 29.5997 25.1861 30.7493 24.7118C31.8993 24.2555 33.1588 24 34.4911 24C35.8234 24 37.0827 24.2555 38.2325 24.7118C39.2182 25.1134 40.1127 25.679 40.8791 26.3726L33.9617 33.29C33.8705 33.3811 33.8155 33.4727 33.7793 33.6004C33.7428 33.7281 33.7428 33.8374 33.7793 33.9652C33.8155 34.0932 33.8705 34.1844 33.9617 34.2756C34.0529 34.3668 34.1441 34.4214 34.2718 34.458C34.3999 34.4945 34.5092 34.4945 34.6369 34.458C34.7647 34.4214 34.8562 34.3668 34.9474 34.2756L34.9474 34.2757Z" fill="white"/>
<path fill-rule="evenodd" clip-rule="evenodd" d="M42.2042 15.4991C44.5524 16.4746 46.6478 17.8656 48.4001 19.6179C50.1524 21.3701 51.5433 23.4655 52.5188 25.8137C53.4761 28.1619 54 30.7453 54 33.509C54 36.2726 53.4761 38.856 52.5188 41.2042C51.5433 43.5524 50.1524 45.6478 48.4001 47.4001C46.6478 49.1524 44.5524 50.5432 42.2042 51.5188C40.0727 52.3858 37.7242 52.9098 35.2496 53H35.0691H34.9606H34.509C31.7454 53 29.1619 52.4761 26.8137 51.5188C24.5557 50.5974 22.5507 49.2608 20.8345 47.6168C20.7983 47.5806 20.7442 47.5448 20.6902 47.4904C20.654 47.4363 20.5996 47.4001 20.5817 47.346C18.8476 45.6117 17.4567 43.5345 16.4991 41.2043C15.5418 38.8561 15 36.2727 15 33.509C15 30.7453 15.5418 28.1619 16.4991 25.8137C17.4746 23.4655 18.8656 21.3702 20.6179 19.6179C22.3702 17.8656 24.4655 16.4747 26.8137 15.4991C29.1619 14.5418 31.7453 14 34.509 14C34.6536 14 34.8159 14.0179 34.9606 14.0179C34.9967 14.0179 35.0329 14 35.0691 14C35.1231 14 35.1955 14.0179 35.2496 14.0179C37.7242 14.1082 40.0727 14.6321 42.2043 15.4991L42.2042 15.4991ZM41.3372 49.4053C43.0351 48.7009 44.5886 47.7433 45.9434 46.5511L43.9383 44.5642C43.7939 44.4196 43.7033 44.257 43.6493 44.0403C43.5952 43.8415 43.5952 43.661 43.6493 43.4623C43.7034 43.2456 43.7939 43.083 43.9383 42.9384C44.0829 42.794 44.2455 42.7034 44.4622 42.6494C44.6609 42.5953 44.8414 42.5953 45.0402 42.6494C45.2569 42.7035 45.4195 42.794 45.5641 42.9384L47.551 44.9435C48.7432 43.5887 49.7007 42.0352 50.4052 40.3373C51.1096 38.585 51.5612 36.6702 51.6876 34.6651H48.9963C48.7793 34.6651 48.5988 34.611 48.4183 34.5025C48.2374 34.3944 48.111 34.2679 48.0025 34.0871C47.8943 33.9066 47.8582 33.7258 47.8582 33.5091C47.8582 33.2924 47.8943 33.1116 48.0025 32.9311C48.111 32.7503 48.2374 32.6239 48.4183 32.5157C48.5988 32.4072 48.7793 32.371 48.9963 32.371H51.6876C51.5612 30.348 51.1096 28.4332 50.4052 26.6809C49.7187 25.0192 48.7793 23.5018 47.6416 22.1832L45.5642 24.2603C45.4195 24.405 45.2569 24.4953 45.0403 24.5493C44.8415 24.6038 44.661 24.6038 44.4623 24.5493C44.2456 24.4953 44.083 24.405 43.9383 24.2603C43.794 24.116 43.7034 23.9534 43.6493 23.7364C43.5953 23.538 43.5953 23.3572 43.6493 23.1584C43.7034 22.9417 43.794 22.7792 43.9383 22.6348L46.0337 20.5391C44.661 19.329 43.0713 18.3356 41.3373 17.6129C39.7477 16.9626 38.0315 16.5471 36.2251 16.3846V19.0218C36.2251 19.2388 36.171 19.4193 36.0625 19.5998C35.954 19.7807 35.8276 19.9071 35.6471 20.0156C35.4663 20.1238 35.2858 20.1782 35.0691 20.1782C34.8521 20.1782 34.6716 20.1238 34.4911 20.0156C34.3103 19.9071 34.1839 19.7807 34.0754 19.5998C33.9672 19.4193 33.931 19.2388 33.931 19.0218V16.3123C31.691 16.3847 29.5956 16.8362 27.6808 17.613C26.0008 18.3174 24.4656 19.275 23.1108 20.4311L25.1338 22.4541C25.2785 22.5987 25.3687 22.7613 25.4228 22.978C25.4772 23.1767 25.4772 23.3572 25.4228 23.556C25.3687 23.7727 25.2785 23.9353 25.1338 24.0799C24.9895 24.2243 24.8269 24.3148 24.6099 24.3689C24.4115 24.423 24.2307 24.423 24.0319 24.3689C23.8152 24.3148 23.6526 24.2243 23.508 24.0799L21.485 22.0566C20.2928 23.4117 19.3173 24.9649 18.6128 26.681C17.9084 28.4332 17.4568 30.3481 17.3304 32.3711H20.0217C20.2387 32.3711 20.4193 32.4073 20.5998 32.5158C20.7806 32.6239 20.907 32.7504 21.0155 32.9312C21.1237 33.1117 21.1781 33.2925 21.1781 33.5092C21.1781 33.7259 21.1237 33.9067 21.0155 34.0872C20.907 34.268 20.7806 34.3944 20.5998 34.5026C20.4193 34.6111 20.2387 34.6652 20.0217 34.6652H17.3304C17.4568 36.6703 17.9084 38.5852 18.6128 40.3374C19.3355 42.0714 20.3289 43.6429 21.5391 45.0159L23.4539 43.1011C23.5986 42.9567 23.7612 42.8662 23.9778 42.8121C24.1766 42.758 24.3571 42.758 24.5558 42.8121C24.7725 42.8662 24.9351 42.9567 25.0798 43.1011C25.2241 43.2457 25.3147 43.4083 25.3688 43.625C25.4228 43.8237 25.4228 44.0043 25.3688 44.203C25.3147 44.4197 25.2241 44.5823 25.0798 44.7269L23.1649 46.6418C24.5017 47.7796 26.0191 48.7189 27.6808 49.4054C29.5956 50.1821 31.691 50.6337 33.931 50.706V47.9965C33.931 47.7795 33.9672 47.599 34.0754 47.4185C34.1839 47.2377 34.3103 47.1113 34.4911 47.0028C34.6716 46.8946 34.8521 46.8584 35.0691 46.8584C35.2858 46.8584 35.4663 46.8946 35.6471 47.0028C35.8276 47.1113 35.954 47.2377 36.0625 47.4185C36.171 47.599 36.2251 47.7795 36.2251 47.9965V50.6338C38.0315 50.4712 39.7476 50.0558 41.3373 49.4054L41.3372 49.4053Z" fill="#2862B6"/>
</svg>
