<svg width="69" height="69" viewBox="0 0 69 69" fill="none" xmlns="http://www.w3.org/2000/svg">
<circle cx="34.0589" cy="34.0589" r="34.0589" fill="#5DBFF7"/>
<rect x="39" y="26" width="10" height="13" fill="white"/>
<rect x="19" y="26" width="10" height="13" fill="white"/>
<path fill-rule="evenodd" clip-rule="evenodd" d="M16.7328 35.2855C17.2457 37.4278 17.83 39.911 17.8585 44.281C17.887 46.8066 18.7563 49.3178 20.1527 51.1766C21.4351 52.8792 23.1451 54 25.0259 54C25.1542 54 25.2541 54 25.3395 53.9857H25.3539C27.0638 53.9006 28.4032 53.106 29.3152 51.815C30.27 50.4671 30.7829 48.5802 30.7829 46.4093C30.7829 46.1398 30.7685 45.8986 30.7685 45.6715C30.7256 45.019 30.683 44.3235 30.6402 43.6143C30.4121 40.2941 30.1842 36.7472 31.0107 30.4759C31.2529 28.7309 31.2388 26.8295 30.9963 24.9991C30.7113 22.7007 30.0559 20.5298 29.087 18.8699C28.1607 17.295 26.964 16.2309 25.5248 16.0324C25.2112 15.9897 24.8835 15.9897 24.5559 16.0324C21.9196 16.373 20.0247 17.7918 18.6994 19.7782C17.0323 22.2894 16.2484 25.6946 16.0347 29.043C15.8779 31.668 16.2769 33.3417 16.7328 35.2855ZM39.3177 42.1811C40.0444 41.1453 41.0846 40.5068 42.2388 40.5068C42.3955 40.5068 42.5664 40.5211 42.7517 40.5352C43.7065 40.6346 44.7179 41.0176 45.5018 41.6987C46.2998 42.3939 46.8556 43.387 46.8697 44.6639C46.8697 44.82 46.8553 44.9902 46.8412 45.1606C46.6703 46.6504 46.0717 48.2395 45.2452 49.4311C44.4187 50.5946 43.3643 51.3889 42.2387 51.3889C41.0845 51.3889 40.0443 50.7504 39.3177 49.7146C38.6195 48.7499 38.192 47.4162 38.192 45.9548C38.192 44.4934 38.6195 43.1602 39.3177 42.1811ZM35.9977 30.4757C36.8241 36.7467 36.596 40.2935 36.3682 43.6141C36.3253 44.3236 36.2827 45.0188 36.2399 45.6713C36.2399 45.8984 36.2255 46.1396 36.2255 46.4091C36.2255 48.5798 36.7384 50.4669 37.6788 51.8148C38.6052 53.1058 39.9445 53.9004 41.6545 53.9855H41.6689C41.7402 53.9998 41.8541 53.9998 41.9824 53.9998C43.8492 53.9998 45.5732 52.8789 46.8557 51.1764C48.252 49.3176 49.1214 46.8065 49.1499 44.2808C49.1783 39.9109 49.7626 37.428 50.2756 35.2853C50.7315 33.3416 51.1305 31.6673 50.9596 29.0426C50.7603 25.6941 49.9763 22.2892 48.3093 19.7778C46.984 17.7913 45.089 16.3725 42.4528 16.032C42.1251 15.9893 41.7975 15.9893 41.4839 16.032C40.0447 16.2305 38.8335 17.2946 37.9217 18.8695C36.9527 20.5294 36.2972 22.7003 35.998 24.9987C35.7699 26.8291 35.7554 28.7304 35.9977 30.4757ZM39.3321 36.1936C39.1612 35.8957 39.2608 35.5267 39.5602 35.3566C40.3439 34.9026 41.769 34.8315 43.1653 35.016C44.5761 35.2145 46.0009 35.6828 46.7276 36.307C46.9842 36.5341 46.9983 36.9171 46.7845 37.1723C46.5564 37.4278 46.1718 37.4562 45.9155 37.229C45.3741 36.7607 44.2055 36.3921 43.0085 36.2359C41.84 36.0658 40.7143 36.1082 40.173 36.4204C39.8738 36.5906 39.503 36.4917 39.3321 36.1936ZM45.9152 33.3418C45.3738 32.8735 44.2053 32.5048 43.0083 32.3344C41.8398 32.1782 40.7141 32.2066 40.1727 32.5329C39.8735 32.689 39.503 32.5896 39.3321 32.3057C39.1612 32.0078 39.2608 31.6389 39.5602 31.4687C40.3439 31.0147 41.769 30.9437 43.1653 31.1282C44.5761 31.3267 46.0009 31.795 46.7276 32.4191C46.9842 32.6463 46.9983 33.0293 46.7845 33.2845C46.5564 33.54 46.1716 33.5546 45.9152 33.3418ZM46.7843 29.3975C46.5562 29.6387 46.1716 29.667 45.9152 29.4542C45.3738 28.9718 44.2053 28.6172 43.0083 28.4468C41.8398 28.2907 40.7141 28.319 40.1727 28.6312C39.8735 28.8014 39.503 28.7023 39.3321 28.4041C39.1612 28.1202 39.2608 27.7516 39.5602 27.5812C40.3439 27.1271 41.769 27.0421 43.1653 27.2406C44.5761 27.4251 46.0009 27.8931 46.7276 28.5316C46.9842 28.7444 46.998 29.1422 46.7843 29.3975ZM40.315 42.89C39.7736 43.6563 39.4316 44.7488 39.4316 45.9547C39.4316 47.1606 39.7736 48.239 40.315 49.0193C40.828 49.7288 41.4977 50.1685 42.2387 50.1685C42.9228 50.1685 43.6351 49.5868 44.2337 48.7214C44.9462 47.7 45.4732 46.3236 45.6159 45.0327C45.6303 44.9192 45.6303 44.7915 45.6303 44.6637C45.6303 43.7841 45.2598 43.1029 44.704 42.6206C44.1197 42.1239 43.3502 41.826 42.6236 41.7552C42.4953 41.7409 42.367 41.7409 42.2389 41.7409C41.4979 41.7409 40.828 42.1808 40.315 42.89ZM22.3038 42.6205C21.748 43.1029 21.3634 43.784 21.3775 44.6637C21.3775 44.7914 21.3775 44.9191 21.3919 45.0326C21.5343 46.3236 22.0472 47.6999 22.7741 48.7214C23.3725 49.5867 24.085 50.1685 24.7691 50.1685C25.5101 50.1685 26.1798 49.7285 26.6927 49.0192C27.2342 48.239 27.5762 47.1605 27.5762 45.9546C27.5762 44.7487 27.2342 43.6562 26.6927 42.89C26.1798 42.1805 25.5101 41.7407 24.7691 41.7407C24.6408 41.7407 24.4984 41.7407 24.3845 41.755C23.6578 41.8261 22.8881 42.1241 22.3038 42.6205ZM20.1379 44.6637C20.1379 43.3867 20.6937 42.3936 21.5058 41.6984C22.2753 41.0173 23.3012 40.6343 24.2559 40.5349C24.4412 40.5206 24.6121 40.5066 24.7689 40.5066C25.923 40.5066 26.9632 41.1451 27.6899 42.1808C28.3881 43.1599 28.8014 44.4936 28.8014 45.955C28.8014 47.4164 28.3883 48.75 27.6899 49.7148C26.9632 50.7506 25.923 51.389 24.7689 51.389C23.6432 51.389 22.5889 50.5945 21.7624 49.4312C20.9359 48.2394 20.3232 46.6505 20.1664 45.1607C20.152 44.9906 20.1379 44.8198 20.1379 44.6637ZM21.0927 37.2294C20.8361 37.4565 20.4515 37.4279 20.2236 37.1727C19.9955 36.9172 20.0243 36.5342 20.2806 36.3073C21.0073 35.6831 22.4321 35.2148 23.8429 35.0163C25.2251 34.8319 26.6641 34.9029 27.448 35.3569C27.7471 35.5271 27.847 35.896 27.6761 36.1939C27.5052 36.4918 27.1347 36.5912 26.8355 36.421C26.2941 36.1088 25.154 36.0664 23.9999 36.2366C22.8029 36.3927 21.6344 36.7613 21.0927 37.2294ZM21.0927 33.3418C20.8361 33.5546 20.4515 33.5403 20.2236 33.2851C19.9955 33.0296 20.0243 32.6466 20.2806 32.4197C21.0073 31.7956 22.4321 31.313 23.8429 31.1288C25.2251 30.9443 26.6641 31.0153 27.448 31.4693C27.7471 31.6395 27.847 32.0084 27.6761 32.3063C27.5052 32.5902 27.1347 32.6893 26.8355 32.5335C26.2941 32.2072 25.154 32.1788 23.9999 32.3349C22.8029 32.5051 21.6344 32.8735 21.0927 33.3418ZM21.0927 29.4542C20.8361 29.6671 20.4515 29.6387 20.2236 29.3975C19.9955 29.142 20.0243 28.745 20.2806 28.5322C21.0073 27.8937 22.4321 27.4254 23.8429 27.2412C25.2251 27.0427 26.6641 27.1277 27.448 27.5818C27.7471 27.7519 27.847 28.1208 27.6761 28.4047C27.5052 28.7026 27.1347 28.802 26.8355 28.6318C26.2941 28.3196 25.154 28.2913 23.9999 28.4474C22.8029 28.6175 21.6344 28.9718 21.0927 29.4542Z" fill="#2862B6"/>
<path fill-rule="evenodd" clip-rule="evenodd" d="M39.2594 41.7374C39.9793 40.6627 41.0099 40.0003 42.1533 40.0003C42.3086 40.0003 42.4779 40.0151 42.6614 40.0297C43.6073 40.1328 44.6093 40.5302 45.3859 41.2368C46.1765 41.9581 46.7271 42.9885 46.7411 44.3134C46.7411 44.4754 46.7268 44.6519 46.7129 44.8287C46.5436 46.3744 45.9505 48.0233 45.1317 49.2596C44.3129 50.4667 43.2684 51.2909 42.1532 51.2909C41.0098 51.2909 39.9793 50.6284 39.2594 49.5538C38.5677 48.5528 38.1441 47.1691 38.1441 45.6528C38.1441 44.1365 38.5677 42.7532 39.2594 41.7374ZM20.2582 44.3131C20.2582 42.9883 20.8088 41.9579 21.6133 41.2366C22.3757 40.5299 23.392 40.1325 24.3379 40.0294C24.5214 40.0146 24.6907 40 24.846 40C25.9894 40 27.0199 40.6624 27.7398 41.7371C28.4315 42.7529 28.841 44.1367 28.841 45.6529C28.841 47.1692 28.4318 48.5529 27.7398 49.5539C27.0199 50.6286 25.9894 51.291 24.846 51.291C23.7308 51.291 22.6863 50.4666 21.8675 49.2597C21.0487 48.0231 20.4417 46.3746 20.2864 44.8289C20.2721 44.6523 20.2582 44.4751 20.2582 44.3131Z" fill="white"/>
</svg>
