<svg width="69" height="69" viewBox="0 0 69 69" fill="none" xmlns="http://www.w3.org/2000/svg">
<circle cx="34.0589" cy="34.0589" r="34.0589" fill="#5DBFF7"/>
<path d="M49.8674 45.4918C51.182 43.8354 52.2036 41.9844 52.9054 39.9957C53.6336 37.9387 54 35.776 54 33.5715C54 31.3669 53.6124 29.0987 52.8477 26.9942C52.1093 24.9636 51.0355 23.0806 49.6632 21.4033C47.0651 18.2384 43.5141 15.9812 39.5859 15C39.8844 18.7502 40.6334 21.3982 41.728 22.3632C44.7711 25.048 44.9494 26.1767 45.0174 28.0965C45.0174 28.1705 45.0174 28.2441 45.028 28.318C45.0802 29.6315 44.3418 31.2135 43.0586 32.5586C41.9535 33.7139 39.4971 35.6547 35.4376 35.6547H34.568C30.5089 35.6547 28.0522 33.719 26.947 32.5586C25.6638 31.2135 24.9251 29.6259 24.9776 28.318C24.9776 28.2441 24.9827 28.165 24.9882 28.0965C25.0562 26.1767 25.2345 25.048 28.2776 22.3632C29.3722 21.3982 30.1212 18.7554 30.4197 15C26.4913 15.9809 22.9349 18.2385 20.3368 21.4084C18.9645 23.0858 17.8908 24.9688 17.1523 26.9993C16.3876 29.1039 16 31.314 16 33.5767C16 35.8393 16.3668 37.9439 17.0946 40.0009C17.7965 41.9895 18.8181 43.8354 20.1326 45.497C21.4315 47.1372 22.982 48.5511 24.7314 49.685C26.313 50.7082 28.0259 51.4838 29.8278 51.9952C29.8227 51.8844 29.8121 51.7685 29.8015 51.6574C29.5293 48.2711 28.8114 45.866 27.7167 44.6949C25.6846 42.522 24.6631 40.5124 24.6838 38.7294C24.6838 38.1492 24.9718 37.6007 25.4486 37.2684C25.9254 36.9306 26.533 36.8464 27.0829 37.0417C28.6174 37.5851 31.6868 38.4976 34.9762 38.4976H35.0025H35.0288C38.3233 38.4976 41.3875 37.5851 42.9221 37.0417C43.472 36.8467 44.0796 36.931 44.5564 37.2684C45.0278 37.6006 45.316 38.1492 45.3211 38.7294C45.3368 40.5175 44.3153 42.522 42.2882 44.6949C41.1936 45.866 40.4705 48.2814 40.2035 51.6784C40.1929 51.784 40.1878 51.8948 40.1772 52C41.9792 51.4882 43.6865 50.713 45.2685 49.6899C47.0234 48.5559 48.5685 47.1475 49.8725 45.5018L49.8674 45.4918Z" fill="#2862B6"/>
<path d="M42.1739 43.5275C44.0671 41.5702 45.0165 39.847 44.9998 38.3952C44.9998 38.2158 44.888 38.118 44.8268 38.0744C44.7766 38.0365 44.6313 37.9602 44.447 38.0255C42.7212 38.6182 39.2643 39.6077 35.528 39.6077H35.5H35.4719C31.7416 39.6077 28.2847 38.6129 26.553 38.0255C26.3687 37.9602 26.2293 38.0418 26.1732 38.0744C26.1062 38.118 26.0002 38.2158 26.0002 38.3952C25.9835 39.847 26.9383 41.576 28.8261 43.5275C30.2503 45.0009 31.1381 47.7193 31.4564 51.6121C31.6854 54.4336 31.5288 56.8154 31.5234 56.9185C31.5234 56.9458 31.5179 56.9727 31.5121 57H39.4812C39.4812 56.9727 39.4699 56.9458 39.4699 56.9185C39.4645 56.8206 39.3024 54.4394 39.5369 51.6121C39.8552 47.7249 40.7375 45.0065 42.1672 43.5275H42.1739Z" fill="white"/>
<path d="M37.5117 10H31.498C31.503 10.037 31.5085 10.0795 31.5085 10.1221C31.524 11.8724 31.4775 14.4716 31.1365 16.9271C30.7026 20.0723 29.9329 22.1038 28.7858 23.1379C26.0941 25.5564 26.0682 26.3364 26.0116 27.8795C26.0116 27.9538 26.0116 28.0334 26.0012 28.1074C25.9752 28.797 26.3681 30.0538 27.5562 31.3269C28.4914 32.3239 30.5787 34 34.0711 34H34.9288C38.4163 34 40.5086 32.324 41.4438 31.3269C42.6374 30.0538 43.0248 28.797 42.9988 28.1074C42.9988 28.0278 42.9937 27.9535 42.9883 27.8795C42.9368 26.3307 42.9058 25.5564 40.2191 23.1379C39.072 22.1034 38.3023 20.0723 37.8684 16.9271C37.5275 14.4661 37.481 11.8669 37.4965 10.1221C37.4965 10.0795 37.4965 10.0374 37.507 10H37.5117Z" fill="white"/>
</svg>
