<svg width="69" height="69" viewBox="0 0 69 69" fill="none" xmlns="http://www.w3.org/2000/svg">
<circle cx="34.0589" cy="34.0589" r="34.0589" fill="#5DBFF7"/>
<path d="M27.0812 25H33.3368L31.8232 21.9503C31.6945 21.7125 31.6684 21.4326 31.7511 21.175C31.8342 20.9177 32.0189 20.7046 32.2635 20.5845C32.5077 20.4644 32.791 20.447 33.0485 20.5371C33.3058 20.627 33.5155 20.8164 33.6295 21.0615L35.6472 24.9996H42.9118C42.9438 25.0003 42.974 24.9857 42.9923 24.9599C43.0026 24.9394 43.0026 24.9154 42.9923 24.8952C42.6341 22.3254 41.0369 20.0876 38.7087 18.8949C36.3809 17.7017 33.6123 17.7017 31.2841 18.8949C28.956 20.0877 27.3588 22.3254 27.0005 24.8952C26.9977 24.9196 27.0072 24.9436 27.0258 24.9599C27.0385 24.9794 27.0587 24.9937 27.0812 25Z" fill="white"/>
<path d="M47.8366 12H22.1634C20.5307 12.0061 18.9664 12.6575 17.8121 13.8121C16.6575 14.9664 16.0061 16.5307 16 18.1634V43.8366C16.0061 45.4693 16.6575 47.0336 17.8121 48.1879C18.9664 49.3425 20.5307 49.9939 22.1634 50H47.8366C49.4693 49.9939 51.0336 49.3425 52.1879 48.1879C53.3425 47.0336 53.9939 45.4693 54 43.8366V18.1634C53.9939 16.5307 53.3425 14.9664 52.1879 13.8121C51.0336 12.6575 49.4693 12.0061 47.8366 12ZM25.8194 24.1605C26.2332 21.1804 28.0676 18.5869 30.7396 17.2038C33.4113 15.8209 36.5883 15.8209 39.2599 17.2038C41.9319 18.587 43.7663 21.1805 44.1801 24.1605C44.2547 24.7149 44.0857 25.2744 43.7165 25.6943C43.3467 26.1197 42.8111 26.3644 42.2477 26.3664H27.7519C27.1869 26.3657 26.6493 26.1207 26.2785 25.6943C25.9109 25.2734 25.7435 24.7142 25.8195 24.1605H25.8194ZM46.122 43.0496H23.878C23.366 43.0496 22.951 42.6346 22.951 42.1225C22.951 41.6108 23.366 41.1958 23.878 41.1958H46.122C46.634 41.1958 47.049 41.6108 47.049 42.1225C47.049 42.6346 46.634 43.0496 46.122 43.0496Z" fill="#2862B6"/>
<path d="M26 56L28.8868 51H23.1132L26 56ZM25.5 37V51.5H26.5V37H25.5Z" fill="white"/>
<path d="M35 62L37.8868 57H32.1132L35 62ZM34.5 37V57.5H35.5V37H34.5Z" fill="white"/>
<path d="M43 59L45.8868 54H40.1132L43 59ZM42.5 37V54.5H43.5V37H42.5Z" fill="white"/>
</svg>
