<svg width="39" height="39" viewBox="0 0 39 39" fill="none" xmlns="http://www.w3.org/2000/svg">
<rect width="39" height="39" rx="10" fill="#2862B6"/>
<path d="M30.0571 12.0137C28.8042 10.7162 27.1414 10 25.3663 10C23.5967 10 21.9339 10.7162 20.6813 12.0139L19.9999 12.727L19.3157 12.0137C18.063 10.7162 16.4002 10 14.6307 10C12.8612 10 11.1955 10.7162 9.94272 12.0137C8.69006 13.3173 8 15.0436 8 16.8807C8 18.7207 8.68986 20.447 9.93988 21.7416L19.6999 31.8742C19.7836 31.958 19.8903 32 20.0001 32C20.1098 32 20.2137 31.958 20.2945 31.8742L30.0601 21.7448C31.3071 20.4473 32 18.721 32 16.8809C31.997 15.0439 31.3043 13.3176 30.0573 12.014L30.0571 12.0137ZM27.7737 21.433H22.6209C22.4274 21.433 22.2543 21.2921 22.2168 21.0943L21.98 19.9646L20.3345 26.1954C20.2856 26.3871 20.1183 26.5159 19.9334 26.5159H19.9248C19.7315 26.51 19.567 26.3721 19.5265 26.1772L17.7165 17.915L17.0728 20.9867C17.0353 21.1844 16.8678 21.3253 16.6745 21.3285L12.1856 21.3914C11.9317 21.4184 11.7614 21.2056 11.7614 20.9629C11.7586 20.7289 11.9432 20.5312 12.1713 20.5253L16.331 20.4653L17.3009 15.8233C17.3383 15.6256 17.4944 15.4817 17.7078 15.4847C17.9013 15.4847 18.0687 15.6224 18.1148 15.8204L19.9711 24.2983L21.6194 18.0439C21.6714 17.852 21.8272 17.7143 22.038 17.7293C22.2257 17.7323 22.3902 17.8732 22.4363 18.068L22.9675 20.5705H27.7796C28.0075 20.5671 28.1924 20.7619 28.1924 21.0017C28.1924 21.2415 28.0075 21.4332 27.7737 21.4332L27.7737 21.433Z" fill="white"/>
</svg>
