<svg width="69" height="69" viewBox="0 0 69 69" fill="none" xmlns="http://www.w3.org/2000/svg">
<circle cx="34.0589" cy="34.0589" r="34.0589" fill="#5DBFF7"/>
<rect x="22" y="23" width="24" height="11" fill="white"/>
<path d="M33.9997 18C44.4934 18 53 24.678 53 32.9157C53 34.142 52.8061 35.3317 52.4509 36.4715C51.5822 39.2589 49.7207 41.7401 47.1717 43.6655C47.1325 43.9944 47.1151 44.3311 47.1151 44.6696C47.1151 49.022 50.1091 54 50.1091 54C44.6935 53.5289 38.9178 47.3531 38.9178 47.3531C38.9178 47.3531 38.9297 47.3411 38.9492 47.3227C37.3719 47.6563 35.7123 47.8338 34.0004 47.8338C27.075 47.8338 21.0177 44.9246 17.6969 40.5786C15.9858 38.3386 15 35.7184 15 32.9162C14.9997 24.6784 23.5066 18.0004 34.0003 18.0004L33.9997 18ZM27.8364 38.5696H44.4138V35.0403H27.8364V38.5696ZM24.011 38.5696H26.5615V35.0403H24.011V38.5696ZM24.011 33.7168H26.5615V33.565C26.5612 32.8733 26.7886 32.3935 27.4557 32.3935H30.3404C31.5009 32.3935 32.442 31.3827 32.442 30.1779C32.442 29.9308 32.3928 29.6708 32.3201 29.4492C33.8323 29.4492 35.0488 28.1639 35.0488 26.5942C35.0488 25.0248 33.8228 23.7474 32.3107 23.7474C32.3107 23.7474 29.7136 23.4554 28.8188 26.1935C28.8188 26.1935 28.3719 27.3773 28.6308 29.2661C28.1546 29.2572 28.041 29.2495 27.4733 29.2495C25.5324 29.2495 24.011 30.8007 24.011 32.8434V33.7168L24.011 33.7168Z" fill="#2862B6"/>
<path d="M58 9L9 61" stroke="white" stroke-width="2"/>
</svg>
