<svg width="69" height="69" viewBox="0 0 69 69" fill="none" xmlns="http://www.w3.org/2000/svg">
<circle cx="34.0589" cy="34.0589" r="34.0589" fill="#5DBFF7"/>
<path d="M41 41.5H28.5L36.5 23H45.5L46 30.5L41 41.5Z" fill="white"/>
<path d="M39.7729 17.3906C36.9362 17.3906 34.2782 18.7065 32.5202 20.9438L32.1328 21.4403L31.6024 21.0994C30.7086 20.5311 29.9038 19.8072 29.3438 18.8981C28.3665 17.3251 28.2593 15.4468 28.5216 13.6463C28.7955 11.75 25.935 11.3374 25.6548 13.2274C25.2915 15.7454 25.5297 18.2339 26.8886 20.4352C27.7766 21.8646 29.0104 22.9595 30.4524 23.7969L30.9055 24.0602L30.7862 24.5625C30.6254 25.2505 30.548 25.9445 30.548 26.65V34.0551L29.9461 34.1389C27.1214 34.5399 25.6253 36.5197 24.8866 39.1274C23.3194 38.8283 22.044 38.8224 20.7687 40.1442C19.7257 41.2207 19.547 42.3635 19.6421 43.7809C15.8401 47.352 14.9817 51.3891 17.2228 56.1626C18.0392 57.9092 20.6315 56.6412 19.8329 54.9364C18.2358 51.5208 18.659 49.1164 21.1204 46.3588C23.6291 47.8421 25.3576 47.3218 27.0441 45.1267C29.994 47.0648 32.5804 46.897 35.1254 44.4746C38.9395 46.4543 43.171 46.1372 46.2942 43.0092C47.9628 41.3286 49 39.0138 49 36.4715V26.6498C49 21.5595 44.8463 17.3904 39.7747 17.3904L39.7729 17.3906ZM38.2236 27.7147L43.9807 27.0625C44.6183 27.0029 45.0058 27.7685 44.5589 28.2408L41.2989 31.7043L42.6338 31.7819C43.2893 31.8178 43.5396 32.6673 42.9971 33.0499L32.8661 40.2096C32.2342 40.6465 31.4597 39.8867 31.8887 39.2466L34.5289 35.3409L33.5395 35.3768C32.9613 35.3948 32.61 34.7247 32.9675 34.2524L37.741 28.0017C37.8482 27.8461 38.0212 27.7384 38.2236 27.7147L38.2236 27.7147Z" fill="#2862B6"/>
<path d="M50.2484 17.7773C49.578 18.4538 48.5473 17.4362 49.2177 16.7596L51.7508 14.2219C52.4277 13.5453 53.4519 14.5694 52.7815 15.2456L50.2484 17.7773Z" fill="white"/>
<path d="M47.2093 16.4485C47.0047 17.4044 45.819 17.017 46.0236 16.0548L46.7896 12.5546C46.9993 11.5924 48.185 11.9861 47.9752 12.942L47.2093 16.4485Z" fill="white"/>
<path d="M50.7766 21C49.7411 21 49.7411 19 50.7766 19H54.2234C55.2589 19 55.2589 21 54.2234 21H50.7766Z" fill="white"/>
</svg>
