<svg width="69" height="69" viewBox="0 0 69 69" fill="none" xmlns="http://www.w3.org/2000/svg">
<circle cx="34.0589" cy="34.0589" r="34.0589" fill="#5DBFF7"/>
<circle cx="45" cy="23" r="9" fill="white"/>
<path d="M60 43.1195C60 43.7396 59.4879 44.2425 58.8557 44.2425H50.5274L50.3609 46.2937L56.5026 48.7132C56.796 48.8283 56.9381 49.1558 56.8207 49.4437C56.7309 49.6626 56.5162 49.7958 56.2891 49.7958C56.218 49.7958 56.1462 49.7829 56.0763 49.7555L50.2659 47.4669L50.1565 48.8162C50.1326 49.11 49.8823 49.3332 49.5865 49.3332C49.5718 49.3332 49.5562 49.3328 49.5402 49.3317C49.2257 49.307 48.9902 49.0363 49.0154 48.7273L49.3794 44.2437H27.2803L32.0936 48.0394L43.9141 49.202C44.2287 49.2329 44.4582 49.5079 44.427 49.8169C44.3971 50.1068 44.1488 50.3222 43.8583 50.3222C43.8395 50.3222 43.8199 50.321 43.8004 50.3195L40.0631 49.9521L42.5216 53.9559L48.6764 53.7072C48.9862 53.688 49.2584 53.9351 49.2716 54.245C49.2847 54.5548 49.0393 54.8164 48.7235 54.829L43.1952 55.0518L43.8606 56.136C44.0239 56.4015 43.9369 56.7462 43.6662 56.9064C43.5736 56.9613 43.4723 56.9871 43.3717 56.9871C43.1777 56.9871 42.9881 56.8904 42.8811 56.7153L38.7914 50.0542C38.7455 49.9794 38.724 49.8991 38.7164 49.8177L32.1455 49.1714L28.6102 54.1583C28.5116 54.2969 28.3544 54.3851 28.1823 54.3976L25.8022 54.5676L28.095 58.139C28.263 58.4018 28.1832 58.748 27.9157 58.9133C27.8207 58.9717 27.7154 58.9999 27.6112 58.9999C27.4212 58.9999 27.2352 58.9071 27.1266 58.7378L24.5398 54.7089C24.5294 54.6933 24.529 54.6753 24.5202 54.6588L20.173 54.9694C20.1587 54.9706 20.1451 54.971 20.1307 54.971C19.8333 54.971 19.5827 54.7458 19.5603 54.45C19.5376 54.1406 19.7743 53.8723 20.0896 53.8496L27.826 53.2969L31.0923 48.6892L25.4523 44.2419H19.6534L19.0427 51.2566C19.0167 51.5492 18.7669 51.7705 18.4727 51.7705C18.4567 51.7705 18.44 51.7701 18.4236 51.7681C18.1091 51.7419 17.8756 51.4701 17.9019 51.161L18.0692 49.239L14.1495 51.1411C14.0677 51.1802 13.9815 51.1994 13.8965 51.1994C13.6853 51.1994 13.4829 51.0851 13.3832 50.8865C13.243 50.6084 13.3592 50.2715 13.6422 50.1341L18.1833 47.9312L18.5042 44.2419H10.2965C9.66464 44.2419 9.15215 43.7386 9.15215 43.119C9.15215 42.4989 9.66506 41.996 10.2965 41.996H18.3047V27.4567C16.912 27.2882 15.4108 26.6106 13.9104 26.0176C9.57243 24.3031 9 23.3197 9 22.7913V15.3324C9 14.7123 10.0849 14.2094 10.7168 14.2094C11.349 14.2094 12.4335 14.7127 12.4335 15.3324V22.4927C13.3544 23.262 16.2989 24.8816 18.3047 25.1942V12.7374C18.3047 12.1174 19.3895 11.6145 20.0214 11.6145C20.6533 11.6145 21.7382 12.1178 21.7382 12.7374V30.0322C24.0373 29.8078 25.9241 28.8368 26.6478 28.2571V17.3707C26.6478 16.7506 27.7327 16.2477 28.3646 16.2477C28.9965 16.2477 30.0813 16.7511 30.0813 17.3707V28.5118C30.0813 30.7856 24.3679 32.0084 21.7383 32.2724L21.7379 41.9967H58.8548C59.4875 41.9967 60 42.4991 60 43.1195Z" fill="#2862B6"/>
</svg>
