<svg width="69" height="69" viewBox="0 0 69 69" fill="none" xmlns="http://www.w3.org/2000/svg">
<circle cx="34.0589" cy="34.0589" r="34.0589" fill="#5DBFF7"/>
<path d="M34.133 47.9209C27.7576 49.4577 21.1635 47.2806 18.6633 46C16.4132 49.0735 14.0938 52.7884 13 54.8694C26.3538 61.2047 33.0308 59.2358 41 55.7141C38.7499 50.3355 36.6332 49.3616 34.133 47.9209Z" fill="white"/>
<path d="M57.9742 37.2412C57.8453 36.402 57.2662 35.692 56.4292 35.2403L52.8884 33.1749C53.2101 32.6586 53.2748 32.0132 53.1459 31.432L51.8583 26.9782C51.6651 26.2683 51.7941 25.6872 51.9872 24.9773C52.1804 24.2673 52.5668 23.4926 52.631 22.5889C52.76 21.0398 52.5668 19.6199 52.2447 18.3289C50.8285 13.1653 46.5152 9.93762 42.9744 8.77588C41.4294 8.25962 39.8844 8.06593 38.3393 8.00151C33.7042 7.93708 29.327 9.93805 26.6876 13.7463C24.1771 17.4253 23.5976 22.9119 25.4001 27.3658C25.9796 28.7212 26.623 30.1412 26.9451 31.4321C27.2026 32.7231 27.1383 33.7556 26.3013 34.7885C20.8939 41.437 16.0014 45.8903 13.0398 55.0565C12.9109 55.4438 13.1041 55.8308 13.4904 55.9601C13.8768 56.0894 14.2627 55.8957 14.3917 55.5083C17.2885 46.6652 21.9237 42.4054 27.3956 35.6926C28.5542 34.2727 28.6185 32.5943 28.2968 31.1096C27.9751 29.6249 27.2666 28.1405 26.6875 26.8495C25.0782 22.912 25.5931 17.8132 27.7819 14.6502C30.8719 10.1964 36.8589 8.45363 42.3956 10.2609C45.4857 11.229 49.477 14.2628 50.7 18.7811C51.0217 19.9428 51.1506 21.1694 51.0863 22.5249C51.0221 23.106 50.7646 23.7511 50.5068 24.5903C50.2493 25.3646 50.0562 26.3976 50.3779 27.4305L51.7297 31.8843C51.7939 32.1424 51.7297 32.4005 51.6654 32.4654L50.3779 31.691C49.4766 31.1747 48.3822 31.4973 47.8026 32.2072C47.6737 32.3365 47.6094 32.5298 47.5452 32.7235C46.8371 32.5942 46.0645 32.7879 45.6785 33.3046C45.421 33.5627 45.2921 33.9501 45.2278 34.2726C44.8415 34.3371 44.4555 34.5308 44.1977 34.7889C43.876 35.1115 43.6828 35.5633 43.6828 36.0799C43.6828 36.5317 43.9402 36.9835 44.2623 37.3709C44.1981 37.4353 44.1334 37.4353 44.0692 37.5001C43.6828 37.7583 43.4254 38.2101 43.3611 38.6619C43.2968 39.1781 43.4254 39.6948 43.8117 40.1466L44.3913 40.8565C44.2623 40.7921 44.1981 40.7921 44.0696 40.7272L40.6578 38.92C39.7565 38.4681 39.0484 38.0807 38.3405 37.5645C38.0188 37.3064 37.5682 37.3708 37.3103 37.6938C37.0529 38.0164 37.1171 38.4682 37.4392 38.7267C38.0188 39.1785 38.5979 39.5011 39.1775 39.824L34.8641 45.0521C34.5424 45.5039 34.3492 46.0202 34.2846 46.472C32.3532 44.9874 30.1001 43.8255 26.7526 43.8255C26.3662 43.8255 26.0445 44.1481 26.0445 44.5355C26.0445 44.9229 26.3662 45.2454 26.7526 45.2454C31.0013 45.2454 33.0612 47.0527 35.379 49.3762C37.6963 51.4416 39.3703 53.2489 40.4647 55.3147L40.5289 55.3791C40.5289 55.4435 40.5932 55.4435 40.6578 55.5084L40.7221 55.5728C40.7864 55.5728 40.7863 55.6372 40.851 55.6372C40.9153 55.6372 40.9153 55.6372 40.9799 55.7016H41.0442H41.1084H41.2374C41.3016 55.7016 41.3663 55.7016 41.3663 55.6372H41.4306L41.4948 55.5728C41.5591 55.5728 41.5591 55.5084 41.6237 55.5084C41.688 55.4439 41.688 55.4439 41.688 55.3791C41.688 55.3147 41.7522 55.3147 41.7522 55.2498C41.7522 55.1854 41.8165 55.1206 41.8165 55.1206V55.0561C41.9454 53.1196 42.6535 52.1515 43.1683 51.3771L45.872 47.5045C46.1295 47.1171 46.3869 46.859 46.5801 46.4072C46.7733 46.0198 46.7733 45.5035 46.7733 44.9872C46.7733 44.5998 46.7733 44.2773 46.9022 43.8899L47.8677 45.1161C48.5115 45.9553 49.2195 45.0516 48.7689 44.4705C48.7689 44.4705 46.1937 40.9204 44.9066 39.1776C44.5202 38.7258 45.0355 38.274 45.4214 38.4677L49.9276 42.8569C50.7 43.6313 51.2795 42.5344 50.7646 42.0177L45.4214 36.4026C45.164 36.1445 45.164 36.0152 45.164 35.9508C45.164 35.8864 45.164 35.8215 45.2282 35.7571C45.3572 35.6278 45.5499 35.5634 45.8078 35.7571H45.872L51.9875 40.3401C52.8244 40.9857 53.3393 39.9528 52.7598 39.4365L47.0302 34.789C46.4507 34.3372 47.0302 33.821 47.6098 34.208L53.661 38.1455C54.4979 38.6617 54.9485 37.7581 54.3048 37.3063L49.2191 33.5624C48.5753 33.0462 49.2833 32.5944 49.6697 32.8525L55.7209 36.4026C56.3004 36.7252 56.4932 37.1126 56.5579 37.4355C56.6221 37.7581 56.5579 38.1455 56.1072 38.6617C55.9783 38.791 55.9141 39.0491 55.9141 39.2428C55.9783 39.8239 56.043 39.9527 55.8498 40.3401C55.7209 40.5982 55.6566 40.7275 55.3992 40.8563C55.206 40.9856 54.8196 41.1789 54.5622 41.6307C54.1766 42.2118 54.2409 42.6636 54.112 42.8573C54.0477 43.051 53.9188 43.3091 53.1465 43.6965C53.0822 43.6965 53.0822 43.7609 53.0176 43.7609C52.6959 44.0191 52.3095 44.342 51.9874 44.9227C51.6657 45.5038 51.4079 46.2137 51.2151 47.311C50.6356 49.9575 49.7344 52.4102 48.7045 54.8631C48.5114 55.2505 48.7045 55.6374 49.0909 55.8311C49.4773 55.9604 49.8632 55.8311 50.0564 55.4437C51.1508 52.9265 52.052 50.3445 52.6959 47.5691C52.8891 46.5362 53.0822 45.9555 53.2754 45.6326C53.4686 45.31 53.5971 45.1808 53.855 44.9871C54.7562 44.5353 55.2711 43.9542 55.4643 43.4379C55.6574 42.9216 55.6575 42.5987 55.786 42.4698C55.786 42.4698 55.9149 42.4054 56.2366 42.1473C56.5583 41.9536 56.9447 41.5662 57.2021 40.9855C57.4595 40.4044 57.3953 39.8238 57.331 39.2427C57.7174 38.5327 58.1033 37.8872 57.9748 37.2417L57.9742 37.2412ZM45.2921 45.8906C45.2278 46.0199 45.0346 46.278 44.7772 46.7298L42.0735 50.6025C41.6871 51.1836 41.1722 51.9579 40.7859 53.1198C39.6273 51.5062 38.1464 49.9571 36.4083 48.4079C36.0866 48.1497 35.8288 47.6335 35.7645 47.1817C35.7002 46.6655 35.7645 46.2781 36.0219 45.9556L40.4639 40.4689L43.425 41.9535C44.3263 42.4053 45.1633 42.7279 45.8713 42.6635C45.485 43.4378 45.2918 44.2771 45.3565 45.1163C45.4207 45.6326 45.3565 45.7614 45.2922 45.8907L45.2921 45.8906Z" fill="#2862B6"/>
</svg>
