<svg width="69" height="69" viewBox="0 0 69 69" fill="none" xmlns="http://www.w3.org/2000/svg">
<circle cx="34.0589" cy="34.0589" r="34.0589" fill="#5DBFF7"/>
<path d="M44 9H28L30.5 20.5L22.5 28L14 40L9 43L7.5 46L18 56L25.5 55.5V53.5L22 53L19 49.5L20.5 44.5L36.5 29L38.5 45.5L36.5 53.5L38.5 56H55.5L57.5 54.5L57 53L53 51.5L47 49.5L46 44L47 18.5L44 9Z" fill="white"/>
<path d="M52.8108 50.5809C49.5942 50.1991 48.0129 49.1087 47.6314 48.1819C46.5954 45.892 46.8138 41.8574 47.0861 36.787C47.1952 34.7152 47.304 32.371 47.3587 29.9175C47.4679 24.956 47.9041 21.4667 48.2312 19.4495C48.4491 18.1409 48.3403 16.7779 47.7949 15.524L45.0142 8.54536C44.905 8.2183 44.578 8 44.1965 8H27.186C26.9134 8 26.6954 8.10915 26.5319 8.32707C26.3684 8.54498 26.314 8.81767 26.3684 9.09034C26.4228 9.4174 28.1132 16.6143 29.585 20.2126C27.4587 21.9026 25.9321 23.1565 23.2061 26.2644C20.8071 28.9904 19.3897 31.3346 18.1358 33.4065C16.7184 35.8055 15.4642 37.8226 13.1743 39.8398C12.7381 40.2216 11.9749 40.6574 11.1572 41.0937C9.30356 42.1297 7.17725 43.3291 7.01368 45.1827C6.90453 46.2187 7.4499 47.309 8.59459 48.3449C10.1755 49.7624 11.1571 50.5804 11.9748 51.2889C13.3378 52.434 14.2647 53.1973 16.5 55.4871C17.2633 56.2503 18.2992 56.6865 19.3352 56.6865H24.9508C25.6597 56.6865 26.3139 56.3047 26.6957 55.7053C27.0775 55.1056 27.1319 54.3423 26.8048 53.6882C26.5322 53.0884 25.9324 52.6522 25.2239 52.543C24.2428 52.3795 22.1709 51.6706 22.0073 51.5618C19.7174 49.7082 19.881 48.5631 20.2081 47.4728C20.9714 45.0738 23.8066 42.2386 27.4594 38.6405C28.9315 37.1684 30.5673 35.5326 32.2573 33.7338C33.4568 32.4252 34.5472 31.3348 35.5831 30.3536V30.4628C35.6375 34.0613 36.1284 36.7873 36.6191 39.1863C37.1644 41.9124 37.6003 44.2566 37.2188 47.31C37.1644 47.9098 36.8918 48.7275 36.5647 49.5999C35.9106 51.6171 35.1472 53.9068 36.2376 55.4338C36.8374 56.3062 37.9825 56.7424 39.5091 56.7424C41.581 56.7424 42.8893 56.688 43.98 56.6333C45.7791 56.5789 46.9239 56.5241 50.1409 56.7424C50.9586 56.7968 51.6675 56.7968 52.3764 56.7968C56.4654 56.7968 58.5917 55.9791 58.7009 54.3434C58.9169 52.5982 56.3543 51.0169 52.8107 50.5807L52.8108 50.5809ZM31.0025 32.48C29.3668 34.2792 27.6767 35.9149 26.2593 37.3867C22.4972 41.1487 19.4986 44.1473 18.6265 46.9278C18.1359 48.5087 17.9724 50.4715 20.9707 52.9253C21.407 53.3071 24.0786 54.1248 25.0598 54.2883C25.169 54.2883 25.2777 54.3975 25.3325 54.4518C25.3869 54.6154 25.3325 54.7245 25.3325 54.7789C25.2781 54.8333 25.2233 54.9424 25.0598 54.9424H19.335C18.7353 54.9424 18.1356 54.7245 17.6993 54.2883C15.3551 51.9441 14.4279 51.1261 13.0648 49.9814C12.2472 49.2725 11.2657 48.4548 9.73907 47.0918C9.24847 46.6555 8.64875 46.0014 8.70308 45.4017C8.81223 44.4205 10.5567 43.439 12.0288 42.6213C12.9013 42.1307 13.7189 41.6401 14.3187 41.1491C16.8269 38.9685 18.1899 36.6782 19.6617 34.2796C20.8611 32.2624 22.2241 29.9726 24.514 27.3553C27.1309 24.3566 28.6575 23.1571 30.7294 21.4671L31.22 21.0853C31.5471 20.8126 31.6562 20.4311 31.4379 20.0493C30.2928 17.5959 28.9298 12.0347 28.33 9.69031H37.2714L39.5613 22.4482C39.7792 23.5933 39.3434 24.7381 38.4162 25.4469C36.7816 26.8095 34.2191 29.045 31.0025 32.4799L31.0025 32.48ZM50.3028 54.9426C48.5037 54.8334 47.3041 54.779 46.3229 54.779C45.5053 54.779 44.7963 54.779 43.9787 54.8334C42.8884 54.8878 41.6345 54.9426 39.5626 54.9426C38.9085 54.9969 38.036 54.8334 37.709 54.3972C37.1093 53.5795 37.7634 51.6712 38.3088 50.0903C38.6358 49.1634 38.9085 48.2366 39.0177 47.4734C39.3995 44.1476 38.9085 41.5307 38.3635 38.8046C37.9273 36.5148 37.3823 33.898 37.3823 30.4086V28.6638C38.2548 27.9005 38.9633 27.3008 39.563 26.8102C40.926 25.7198 41.6349 23.9206 41.3078 22.1757L39.0173 9.69044H43.6517L46.2142 16.1237C46.5961 17.0505 46.7048 18.0864 46.5413 19.1224C46.1595 21.2487 45.7236 24.7924 45.6145 29.863C45.5601 32.262 45.451 34.6062 45.3418 36.6781C45.0691 42.0211 44.8512 46.2193 46.0507 48.8908C46.8683 50.69 49.2673 51.8895 52.6479 52.271C55.6466 52.598 57.0097 53.7976 57.064 54.0702C57.0088 54.1793 56.2456 55.3244 50.3029 54.9426L50.3028 54.9426Z" fill="#2862B6"/>
<path d="M43.8197 11.5601C44.0624 11.365 44.3396 11.1849 44.6487 11.1252C44.742 11.4424 44.9364 11.772 45.0353 12.0463C45.385 13.0159 45.8796 13.8677 46.3116 14.7948C46.9245 16.1099 47.2676 17.5447 47.3989 18.9885C47.49 19.9907 47.3725 21.6398 46.0854 21.8315C45.2264 21.9594 44.4685 21.4333 43.8974 20.8287C43.4925 20.4 43.2562 19.9932 43.212 19.3936C43.1731 18.8678 43.2499 18.3276 43.1546 17.8067C43.0348 17.1526 42.7857 16.5267 42.5164 15.9226C42.2172 15.2514 42.1954 14.6807 42.2969 13.9574C42.4408 12.9319 43.0203 12.2027 43.8197 11.5601Z" fill="#2862B6"/>
<path d="M40.0986 42.2131C39.7275 42.3704 39.3119 42.5028 38.8754 42.4949C38.8078 42.1227 38.6037 41.7127 38.5202 41.3865C38.225 40.2332 37.7081 39.1755 37.2915 38.0496C36.7006 36.4524 36.5036 34.7876 36.5996 33.1635C36.6663 32.0361 37.1437 30.2448 38.9503 30.3406C40.1561 30.4045 41.0975 31.1659 41.767 31.9693C42.2417 32.5389 42.4887 33.044 42.4347 33.716C42.3874 34.3054 42.1783 34.883 42.2097 35.4805C42.2491 36.2307 42.4717 36.9806 42.7264 37.7114C43.0093 38.5233 42.9299 39.1581 42.6518 39.9318C42.2575 41.0288 41.321 41.6949 40.0986 42.2131Z" fill="#2862B6"/>
<path d="M22.3848 30.398C22.0709 30.1452 21.7578 29.8414 21.5586 29.4529C21.8548 29.2176 22.1198 28.844 22.3679 28.6163C23.245 27.8115 23.9332 26.8563 24.7289 25.9574C25.8576 24.6822 27.232 23.7222 28.7089 23.0399C29.7341 22.5662 31.5385 22.1409 32.3074 23.7786C32.8205 24.8716 32.594 26.0611 32.2021 27.0306C31.9241 27.718 31.5955 28.1743 30.9777 28.4441C30.4358 28.6808 29.828 28.7693 29.3162 29.0791C28.6736 29.4681 28.1177 30.0186 27.5937 30.5882C27.0117 31.221 26.4147 31.4508 25.6014 31.5711C24.4482 31.7416 23.4188 31.2308 22.3848 30.398Z" fill="#2862B6"/>
</svg>
