<svg width="69" height="69" viewBox="0 0 69 69" fill="none" xmlns="http://www.w3.org/2000/svg">
<circle cx="34.0589" cy="34.0589" r="34.0589" fill="#5DBFF7"/>
<path d="M35 53.5L37 41.5L41.5 39L53 42.5L56 46.5V50.5L53 54.5L46 56L35 53.5Z" fill="white"/>
<path d="M35.0439 30.188C35.2268 30.1972 35.4053 30.1312 35.5383 30.0051C35.671 29.8791 35.746 29.7041 35.746 29.5212C35.746 29.338 35.671 29.1631 35.5383 29.037C35.4053 28.9109 35.2268 28.8449 35.0439 28.8544H32.4719C32.289 28.8449 32.1102 28.9109 31.9775 29.037C31.8448 29.1631 31.7695 29.338 31.7695 29.5212C31.7695 29.7041 31.8448 29.8791 31.9775 30.0051C32.1102 30.1312 32.289 30.1972 32.4719 30.188H35.0439Z" fill="#2862B6"/>
<path d="M31.996 24.4596C31.8163 24.138 31.4096 24.0227 31.0876 24.2018C30.3408 24.6187 29.5761 24.2215 29.5308 24.2018C29.2091 24.0354 28.8132 24.1551 28.6382 24.4723C28.463 24.7892 28.5722 25.1884 28.8843 25.3719C29.3412 25.604 29.8461 25.7259 30.3586 25.7275C30.8416 25.73 31.3169 25.6075 31.7383 25.3719C31.8939 25.2852 32.0082 25.1404 32.0565 24.9692C32.1051 24.7981 32.0831 24.6149 31.9961 24.4596L31.996 24.4596Z" fill="#2862B6"/>
<path d="M35.776 25.3693C36.1976 25.6046 36.673 25.7272 37.156 25.725C37.6681 25.7231 38.173 25.6011 38.63 25.3693C38.7884 25.2845 38.9059 25.1401 38.9564 24.9677C39.0069 24.7956 38.9862 24.6104 38.8986 24.4536C38.8113 24.297 38.6642 24.1821 38.4912 24.1348C38.3181 24.0875 38.1333 24.1116 37.9784 24.2018C37.9714 24.2018 37.1782 24.6231 36.4269 24.2018C36.1062 24.036 35.7116 24.1548 35.536 24.4701C35.36 24.7857 35.4664 25.1836 35.776 25.3693L35.776 25.3693Z" fill="#2862B6"/>
<path d="M54.0826 42.6753C52.6334 41.5532 50.8304 40.8082 48.8725 40.5139C48.8732 40.5114 48.8732 40.5091 48.8725 40.5066C47.2331 38.3595 40.6463 36.192 38.6759 35.5811V33.3584C39.6825 32.5957 40.4496 31.6637 40.8656 30.6591C41.1615 29.9478 41.4114 29.0162 41.6194 28.0255C41.687 28.03 41.7537 28.0325 41.8213 28.0325C42.9342 28.0347 43.9834 27.513 44.6534 26.6246C45.3234 25.7358 45.5361 24.5836 45.2278 23.5141C44.9195 22.4447 44.126 21.5825 43.0857 21.1869C43.2146 20.9088 43.308 20.6157 43.3632 20.3141C43.6859 18.6407 43.1784 15.9432 41.6048 14.2382C40.3645 12.8938 38.7543 12.7543 38.0593 12.7642C37.2747 12.0669 34.6315 10.175 30.0118 11.4071C26.5756 12.3238 24.177 16.0125 23.9251 18.9055C23.8451 19.8301 23.9909 20.6214 24.336 21.2241C23.3216 21.6473 22.5614 22.5183 22.2785 23.5804C21.9959 24.6425 22.2226 25.7758 22.8926 26.6474C23.5622 27.519 24.599 28.0299 25.698 28.0302C25.7646 28.0302 25.8323 28.0302 25.899 28.0232C26.1079 29.0136 26.3578 29.9436 26.6537 30.6568C27.0697 31.6614 27.8372 32.593 28.8434 33.3561V35.5788C26.8722 36.1897 20.2863 38.3572 18.6468 40.5043C17.3738 42.1745 15 48.3875 15 55.8529C15.0006 56.2203 15.2969 56.5182 15.6643 56.5207H46.9037C49.609 56.5207 52.1582 55.7002 54.083 54.2091C56.0587 52.6799 57.1468 50.6314 57.1468 48.4408C57.1468 46.2499 56.0582 44.2046 54.0826 42.6753ZM44.0208 24.4906C44.0199 25.0659 43.7944 25.6178 43.3924 26.0293C42.9901 26.4405 42.4433 26.6784 41.8683 26.692C42.1598 24.9815 42.3376 23.2932 42.423 22.373C42.8828 22.5048 43.2874 22.7829 43.5757 23.1649C43.8637 23.5469 44.0199 24.012 44.0208 24.4906ZM25.2557 19.0212C25.4691 16.5673 27.5673 13.4412 30.3565 12.6979C31.2017 12.4639 32.0737 12.3414 32.9507 12.3334C35.8332 12.3334 37.2326 13.8112 37.3072 13.8874C37.4513 14.0503 37.665 14.1335 37.8816 14.1116C37.9473 14.1046 39.5042 13.9391 40.619 15.1463C41.8326 16.4612 42.3082 18.723 42.0479 20.0639C41.952 20.5592 41.7624 20.9076 41.5268 21.0206C40.7079 21.4109 39.1726 20.4091 37.5206 18.4058C37.2669 18.0975 36.9049 17.8981 36.509 17.8485C36.113 17.799 35.7129 17.9028 35.3913 18.1391C33.9776 19.1793 29.1188 22.4689 25.975 21.0133C25.2005 20.6551 25.2138 19.5004 25.2557 19.0212ZM23.4944 24.4909C23.4953 24.0121 23.6519 23.5463 23.9408 23.1643C24.2295 22.7823 24.6343 22.5045 25.0947 22.373C25.1836 23.2932 25.3614 24.9815 25.6504 26.6921C25.0747 26.6794 24.527 26.4418 24.124 26.0303C23.7211 25.6191 23.495 25.0669 23.4944 24.4909ZM31.3849 34.7217C31.5522 34.7843 31.7374 34.7773 31.8993 34.7023C32.0616 34.6274 32.1867 34.4905 32.2473 34.3226C32.3076 34.1546 32.2984 33.9695 32.2216 33.8085C32.1444 33.6472 32.0063 33.5237 31.8374 33.4652C29.9427 32.7826 28.4662 31.5378 27.8908 30.1445C27.0906 28.2276 26.6382 24.3947 26.4575 22.574C26.8874 22.6686 27.3263 22.7159 27.7664 22.7147C31.0239 22.7147 34.5846 20.3961 36.1877 19.2143C36.2833 19.1441 36.4176 19.1612 36.4925 19.2533C38.4999 21.6859 40.0063 22.4115 41.0776 22.4372C40.9068 24.195 40.4473 28.1781 39.6309 30.1445C39.0486 31.5378 37.5718 32.7825 35.6771 33.4652C35.5085 33.5237 35.3703 33.6472 35.2932 33.8085C35.2163 33.9695 35.2068 34.1546 35.2674 34.3226C35.3278 34.4905 35.4532 34.6274 35.6151 34.7023C35.7771 34.7773 35.9625 34.7843 36.1298 34.7217C36.5426 34.5731 36.9452 34.3978 37.3352 34.1971V36.0766C37.3155 37.3416 36.629 38.5019 35.53 39.1287C34.4313 39.7555 33.0831 39.7555 31.9842 39.1287C30.8852 38.5019 30.1991 37.3417 30.1791 36.0766V34.1971C30.569 34.3981 30.9721 34.5731 31.3849 34.7217ZM16.5622 51.8635H21.541L21.0965 55.1852H16.3384C16.3606 54.0408 16.4406 52.9295 16.5622 51.8635ZM46.9033 55.1878C41.993 55.1878 37.9975 52.1649 37.9975 48.446C37.9975 46.892 38.7195 45.3723 40.03 44.1676C40.1678 44.0412 40.2459 43.8628 40.2459 43.6761V40.3153C40.2437 40.2293 40.2935 40.1502 40.3719 40.1153C40.4031 40.0997 40.437 40.0915 40.4716 40.0912C40.5212 40.0918 40.5694 40.1093 40.6076 40.141L43.0195 42.0579C43.1907 42.1945 43.4183 42.2383 43.6279 42.1751C44.6906 41.8585 45.7944 41.6991 46.9032 41.7023C51.8144 41.7023 55.8098 44.7252 55.8098 48.4434C55.8101 52.1613 51.8145 55.1878 46.9033 55.1878Z" fill="#2862B6"/>
<path d="M47.2528 33.4159H48.0253L46.7327 35.0162C46.5711 35.2163 46.5387 35.4916 46.6498 35.724C46.7609 35.9561 46.9956 36.1038 47.2528 36.1035H49.4215C49.6067 36.1171 49.7892 36.053 49.9255 35.9263C50.0614 35.7999 50.1388 35.6224 50.1388 35.4366C50.1388 35.2509 50.0614 35.0734 49.9255 34.947C49.7892 34.8203 49.6067 34.7562 49.4215 34.7698H48.6499L49.9417 33.1695C50.1027 32.9691 50.1347 32.6941 50.0236 32.4623C49.9128 32.2305 49.6784 32.0829 49.4216 32.0829H47.2528C47.0703 32.0737 46.8915 32.1397 46.7588 32.2658C46.626 32.3918 46.5508 32.5668 46.5508 32.7497C46.5508 32.9329 46.626 33.1079 46.7588 33.2339C46.8915 33.36 47.0703 33.426 47.2528 33.4165L47.2528 33.4159Z" fill="white"/>
<path d="M50.4907 21.4731H51.2633L49.9706 23.0735C49.809 23.2739 49.7766 23.5492 49.8878 23.7813C49.9989 24.0134 50.2336 24.161 50.4908 24.1607H52.6592C52.8446 24.1744 53.0272 24.1102 53.1631 23.9838C53.2993 23.8572 53.3765 23.68 53.3765 23.4939C53.3765 23.3081 53.2993 23.131 53.1631 23.0043C53.0272 22.8779 52.8446 22.8138 52.6592 22.8271H51.8866L53.1793 21.2267C53.3412 21.0267 53.3736 20.7514 53.2625 20.519C53.1513 20.2868 52.9167 20.1392 52.6591 20.1395H50.4907C50.3056 20.1258 50.123 20.19 49.9868 20.3167C49.8509 20.4431 49.7734 20.6206 49.7734 20.8063C49.7734 20.9921 49.8509 21.1696 49.9868 21.2959C50.123 21.4226 50.3056 21.4868 50.4907 21.4731Z" fill="white"/>
<path d="M18.3047 30.3263C18.3047 30.695 18.6035 30.9944 18.9725 30.9947H19.745L18.4524 32.5951C18.2914 32.7955 18.2593 33.0705 18.3704 33.3026C18.4813 33.5344 18.7153 33.682 18.9725 33.6827H21.1419C21.4912 33.6569 21.7617 33.3661 21.7617 33.0159C21.7617 32.6653 21.4912 32.3744 21.1419 32.349H20.369L21.6616 30.7487H21.662C21.8236 30.5483 21.856 30.273 21.7448 30.0409C21.6337 29.8085 21.399 29.6608 21.1418 29.6611H18.9724C18.6048 29.6611 18.306 29.9587 18.3047 30.3264L18.3047 30.3263Z" fill="white"/>
<path d="M16.8168 17.5279H17.5893L16.2967 19.1283C16.1351 19.3284 16.1027 19.6037 16.2138 19.8361C16.325 20.0682 16.5596 20.2159 16.8168 20.2155H18.9862C19.3358 20.1901 19.606 19.899 19.606 19.5487C19.606 19.1985 19.3358 18.9073 18.9862 18.8819H18.2137L19.5063 17.2816C19.6673 17.0812 19.6994 16.8062 19.5882 16.5744C19.4774 16.3423 19.2434 16.1947 18.9862 16.1943H16.8168C16.4675 16.2197 16.197 16.5106 16.197 16.8611C16.197 17.2114 16.4675 17.5022 16.8168 17.5279H16.8168Z" fill="white"/>
<path d="M51.5764 46.734C51.4659 46.7337 51.3573 46.7607 51.2598 46.8131C51.1684 46.4863 50.9728 46.1983 50.7025 45.9929C50.4326 45.7874 50.1031 45.6753 49.7636 45.6741H43.7792C43.3661 45.6744 42.9698 45.8385 42.6773 46.1307C42.3852 46.4231 42.221 46.8194 42.2207 47.2325V49.6572C42.221 50.0703 42.3855 50.4665 42.6776 50.7587C42.9698 51.0508 43.366 51.2153 43.7791 51.2156H49.7636C50.1033 51.2153 50.4339 51.1038 50.7044 50.8984C50.9752 50.693 51.1715 50.405 51.2636 50.0776C51.4706 50.1887 51.7205 50.1827 51.9221 50.062C52.1238 49.9417 52.2473 49.7242 52.2476 49.4892V47.4014C52.2476 47.2239 52.1768 47.0534 52.0507 46.9283C51.925 46.8029 51.7542 46.733 51.5763 46.734L51.5764 46.734ZM43.5559 49.6581V47.2335C43.5566 47.1106 43.6563 47.0112 43.7792 47.0112H45.0416V49.8804H43.7792C43.6563 49.8804 43.5566 49.781 43.5559 49.6582V49.6581ZM49.9821 49.6581H49.9824C49.9824 49.7169 49.9589 49.7734 49.9173 49.8153C49.8754 49.8569 49.8189 49.8804 49.7601 49.8804H46.3817V47.0077H49.7601C49.8189 47.0077 49.8754 47.0312 49.9173 47.0728C49.9589 47.1144 49.9824 47.1709 49.9824 47.23L49.9821 49.6581Z" fill="#2862B6"/>
</svg>
