<svg width="69" height="69" viewBox="0 0 69 69" fill="none" xmlns="http://www.w3.org/2000/svg">
<circle cx="34.0589" cy="34.0589" r="34.0589" fill="#5DBFF7"/>
<path d="M48.5 59H23.5L22.5 52.5L12 38.5V35.5L14.5 33.5L17.5 35L20.5 38L23.5 40V15L26.5 13L29.5 15L30 11.5L32.5 10L35.5 11L36 14.5L39 13L42 14.5L42.5 19.5L45.5 18.5L47.5 19.5L48.5 22V59Z" fill="white"/>
<path d="M29.2032 41.1745C29.2032 40.6345 29.6409 40.1967 30.181 40.1967C30.721 40.1967 31.1587 40.6345 31.1587 41.1745C31.1587 41.7145 30.721 42.1523 30.181 42.1523C29.6409 42.1523 29.2032 41.7145 29.2032 41.1745ZM27.075 22.2139C27.075 21.6986 26.6571 21.2807 26.1418 21.2807C25.6264 21.2807 25.2085 21.6986 25.2085 22.2139C25.2085 22.7292 25.6265 23.1472 26.1418 23.1472C26.6571 23.1468 27.075 22.7292 27.075 22.2139ZM28.5408 50.1247C27.8745 50.1247 27.3344 50.6647 27.3344 51.331C27.3344 51.9974 27.8744 52.5374 28.5408 52.5374C29.2071 52.5374 29.7471 51.9974 29.7471 51.331C29.7471 50.6651 29.2071 50.1247 28.5408 50.1247ZM24.1102 44.8069C23.3903 44.8069 22.8064 45.3906 22.8064 46.1106C22.8064 46.8305 23.3902 47.4143 24.1102 47.4143C24.8301 47.4143 25.4139 46.8305 25.4139 46.1106C25.4139 45.3903 24.8301 44.8069 24.1102 44.8069ZM34.0602 54.4461C33.5202 54.4461 33.0824 54.8839 33.0824 55.4239C33.0824 55.9639 33.5202 56.4017 34.0602 56.4017C34.6003 56.4017 35.038 55.9639 35.038 55.4239C35.038 54.8839 34.6003 54.4461 34.0602 54.4461ZM37.4362 43.0552C36.7163 43.0552 36.1325 43.639 36.1325 44.3589C36.1325 45.0788 36.7163 45.6626 37.4362 45.6626C38.1562 45.6626 38.74 45.0789 38.74 44.3589C38.74 43.639 38.1562 43.0552 37.4362 43.0552ZM36.0154 49.1473C35.4753 49.1473 35.0376 49.585 35.0376 50.1251C35.0376 50.6651 35.4753 51.1028 36.0154 51.1028C36.5554 51.1028 36.9931 50.6651 36.9931 50.1251C36.9931 49.585 36.5554 49.1473 36.0154 49.1473ZM45.3249 17.6713C44.473 17.6713 43.6835 17.9443 43.0396 18.4079V16.3612C43.0396 14.1915 41.3347 12.3748 39.2384 12.3116C38.3637 12.2854 37.5278 12.5425 36.833 13.0437C36.8292 10.8771 35.1254 9.06457 33.0318 9.00177C31.9593 8.9702 30.9488 9.36192 30.1814 10.107C29.4136 10.852 28.991 11.8511 28.991 12.9208V13.0437C28.2962 12.5424 27.455 12.285 26.5856 12.3116C24.4898 12.3747 22.7844 14.1915 22.7844 16.3611V38.811L17.7716 33.8842C16.2325 32.3713 13.7275 32.371 12.1879 33.8838C10.7698 35.2769 10.6001 37.5264 11.7936 39.1165L22.0629 52.7983L22.7167 58.4355C22.765 58.8523 23.1187 59.1592 23.5282 59.1592C23.5598 59.1592 23.5918 59.1577 23.6237 59.1539C24.0413 59.1052 24.3444 58.7496 24.3432 58.3389C24.3432 58.3085 24.3455 58.2781 24.3421 58.2473L23.6629 52.3902C23.6461 52.2464 23.5914 52.1095 23.5047 51.9935L13.1029 38.1335C12.3997 37.1965 12.4993 35.8707 13.3352 35.0496C14.2427 34.1582 15.719 34.1589 16.6264 35.0496L23.03 41.344C23.2647 41.5745 23.6142 41.6422 23.9195 41.5156C24.2234 41.3878 24.4212 41.0908 24.4212 40.761L24.4215 16.3601C24.4215 15.0655 25.4149 13.9824 26.6361 13.9459C27.2594 13.9276 27.8511 14.1562 28.2984 14.5901C28.7456 15.0244 28.992 15.6066 28.992 16.23V25.1405C28.7867 24.7359 28.3714 24.456 27.8865 24.456C27.1993 24.456 26.6422 25.0132 26.6422 25.7003C26.6422 26.3876 27.1994 26.9447 27.8865 26.9447C28.3714 26.9447 28.7867 26.6648 28.992 26.2601V37.0406C28.992 37.4921 29.3579 37.8583 29.8097 37.8583C30.2615 37.8583 30.6274 37.4921 30.6274 37.0406L30.6277 12.9201C30.6277 12.2967 30.8742 11.7141 31.3218 11.2798C31.769 10.8455 32.3445 10.6104 32.9841 10.6359C34.2049 10.6724 35.1986 11.7551 35.1986 13.0501V38.1199C35.1986 38.5714 35.5649 38.9376 36.0163 38.9376C36.4677 38.9376 36.8339 38.5714 36.8339 38.1199V16.2298C36.8339 15.6065 37.0804 15.0242 37.5276 14.5895C37.9752 14.1552 38.5643 13.924 39.1903 13.9457C40.4111 13.9826 41.4048 15.0653 41.4048 16.3599V38.1195C41.4048 38.5709 41.7711 38.9372 42.2225 38.9372C42.6739 38.9372 43.0401 38.5709 43.0401 38.1195L43.0405 21.59C43.0405 20.3301 44.0654 19.3047 45.3258 19.3047C46.5861 19.3047 47.6111 20.33 47.6111 21.59V58.2611L47.6115 58.2637C47.613 58.714 47.9785 59.0787 48.4291 59.0787C48.8806 59.0787 49.2468 58.7125 49.2468 58.2611L49.2464 21.59C49.2464 19.4283 47.4879 17.6694 45.3255 17.6694L45.3249 17.6713ZM31.1583 45.5139C30.471 45.5139 29.9139 46.071 29.9139 46.7582C29.9139 47.4454 30.4711 48.0025 31.1583 48.0025C31.8455 48.0025 32.4026 47.4454 32.4026 46.7582C32.4022 46.071 31.8451 45.5139 31.1583 45.5139Z" fill="#2862B6"/>
<path d="M38.8117 35.3408C39.3518 35.3408 39.7895 34.903 39.7895 34.363C39.7895 33.8229 39.3518 33.3852 38.8117 33.3852C38.2717 33.3852 37.8339 33.8229 37.8339 34.363C37.8339 34.903 38.2717 35.3408 38.8117 35.3408Z" fill="#2862B6"/>
<path d="M42.8509 54.2568C42.3356 54.2568 41.9176 53.8389 41.9176 53.3236C41.9176 52.8083 42.3356 52.3907 42.8509 52.3903C43.3662 52.3903 43.7842 52.8082 43.7842 53.3236C43.7842 53.8389 43.3662 54.2568 42.8509 54.2568Z" fill="#2862B6"/>
<path d="M44.9551 45.4124C44.9551 45.9525 44.5173 46.3902 43.9773 46.3902C43.4373 46.3902 42.9995 45.9525 42.9995 45.4124C42.9995 44.8724 43.4373 44.4347 43.9773 44.4347C44.5173 44.4347 44.9551 44.8724 44.9551 45.4124Z" fill="#2862B6"/>
</svg>
