<svg width="69" height="69" viewBox="0 0 69 69" fill="none" xmlns="http://www.w3.org/2000/svg">
<circle cx="34.0589" cy="34.0589" r="34.0589" fill="#5DBFF7"/>
<path d="M30.5818 21.4334C30.2927 21.1599 29.8364 21.1722 29.5626 21.461C29.5626 21.461 29.2154 21.7885 28.5253 21.8879C28.1452 21.9358 27.8691 22.2721 27.8964 22.6543C27.9237 23.0361 28.2447 23.33 28.6275 23.3235C28.6624 23.3238 28.6969 23.3211 28.7311 23.3156C29.9253 23.1444 30.5426 22.524 30.6089 22.4543H30.6086C30.7409 22.3155 30.8126 22.1299 30.8075 21.9382C30.8024 21.7468 30.7214 21.5649 30.5819 21.4334L30.5818 21.4334Z" fill="#2862B6"/>
<path d="M37.6639 23.3128C37.6984 23.3182 37.7332 23.3206 37.7681 23.3203C38.1509 23.3264 38.4715 23.0325 38.4985 22.6507C38.5255 22.2689 38.2494 21.9326 37.8696 21.8847C37.1795 21.789 36.835 21.4609 36.8323 21.4578V21.4582C36.5578 21.169 36.1015 21.1574 35.8124 21.4318C35.5236 21.706 35.512 22.1626 35.7861 22.4514C35.8531 22.5221 36.4704 23.1425 37.6639 23.3127L37.6639 23.3128Z" fill="#2862B6"/>
<path d="M32.1414 28.0835C32.1769 27.8575 32.3643 27.1206 33.2755 27.1206C34.1867 27.1206 34.3734 27.8548 34.4096 28.0824C34.4643 28.4758 34.8273 28.7503 35.2207 28.6956C35.6141 28.6409 35.8882 28.2776 35.8335 27.8845C35.732 27.1189 35.0679 25.6833 33.2755 25.6833C31.4832 25.6833 30.8197 27.1237 30.7175 27.8845C30.6642 28.2786 30.9397 28.6419 31.3338 28.697C31.3656 28.7011 31.3974 28.7031 31.4295 28.7035C31.7891 28.7052 32.094 28.4399 32.1415 28.0834L32.1414 28.0835Z" fill="#2862B6"/>
<path d="M59.1599 49.7661C59.0232 49.5976 58.8178 49.4998 58.6007 49.4998H57.1529C56.1155 48.4447 54.9954 47.474 53.8032 46.5973C53.1692 46.129 52.5116 45.6939 51.8327 45.2937C51.1255 42.8648 50.2287 40.7621 49.463 39.762C48.6017 38.6354 46.3899 37.3694 42.8861 36.0029C41.0506 35.2871 39.3174 34.7232 38.4838 34.4621V32.0647C39.5673 31.2437 40.3979 30.2405 40.8419 29.1591C41.1604 28.3934 41.4294 27.3906 41.6533 26.3242C41.7261 26.329 41.7979 26.3318 41.8707 26.3318C43.0686 26.3338 44.198 25.7726 44.9192 24.8159C45.6404 23.8592 45.8694 22.6192 45.5375 21.4679C45.2057 20.3167 44.3514 19.3887 43.2317 18.9629C43.3705 18.6635 43.471 18.3476 43.5304 18.0229C43.877 16.2217 43.3315 13.318 41.6375 11.4826C40.2977 10.0355 38.575 9.88539 37.821 9.89598C36.9822 9.14846 34.1371 7.11206 29.1642 8.43822C25.4643 9.42496 22.8833 13.3957 22.6123 16.5098C22.5261 17.5051 22.683 18.3569 23.0545 19.0056C21.9625 19.4612 21.1442 20.3988 20.8397 21.542C20.5355 22.6853 20.7796 23.9053 21.5008 24.8434C22.2216 25.7817 23.3376 26.3317 24.5206 26.332C24.5924 26.332 24.6652 26.332 24.737 26.3245C24.9619 27.3906 25.2309 28.3917 25.5484 29.1593C25.9972 30.2407 26.8233 31.2436 27.9064 32.065L27.9068 34.462C27.0752 34.7232 25.3429 35.2871 23.5045 36.0028C20.0007 37.3704 17.7882 38.6357 16.9286 39.762C15.56 41.5575 13 48.2454 13 56.2812C13.0007 56.6784 13.3227 57 13.7198 57H52.3846C52.8061 56.9986 53.2172 56.8701 53.5641 56.6312C53.911 56.3919 54.178 56.0536 54.3291 55.6601L54.6459 54.8248C55.7476 54.7127 56.7849 54.254 57.609 53.5143C58.4327 52.7746 59.0004 51.7926 59.2301 50.7094L59.3019 50.3639C59.3463 50.1533 59.2939 49.9342 59.1599 49.7661ZM44.2446 22.522C44.2435 23.1413 44.0008 23.7353 43.5681 24.1784C43.1351 24.621 42.5465 24.877 41.9275 24.8917C42.2406 23.0504 42.4327 21.2331 42.5246 20.2425C43.0195 20.3844 43.455 20.6838 43.7654 21.095C44.0754 21.5062 44.2435 22.0069 44.2446 22.522ZM22.1489 22.522C22.1499 22.0065 22.3184 21.5055 22.6291 21.0943C22.9398 20.6831 23.376 20.3841 23.8715 20.2425C23.9672 21.2331 24.1586 23.0504 24.4697 24.8917C23.85 24.878 23.2604 24.6224 22.8267 24.1794C22.3929 23.7368 22.1496 23.142 22.1489 22.522ZM24.0449 16.6341C24.2745 13.9927 26.5332 10.6277 29.5355 9.82756C30.4468 9.57531 31.3863 9.44372 32.3318 9.43551C35.4346 9.43551 36.941 11.0263 37.0213 11.1083C37.1758 11.2822 37.4041 11.3718 37.6358 11.3496C37.7056 11.3421 39.3824 11.164 40.5825 12.4635C41.8889 13.8789 42.4009 16.3135 42.1196 17.7569C42.017 18.2901 41.8133 18.6651 41.5597 18.7868C40.6782 19.2068 39.0256 18.1285 37.2472 15.9721C36.9741 15.6388 36.5834 15.4235 36.1558 15.3701C35.7286 15.3165 35.2969 15.4293 34.9503 15.6849C33.4324 16.8047 28.2022 20.3458 24.8186 18.7789C23.985 18.3933 23.9997 17.15 24.0449 16.6341ZM30.6426 33.534C31.0145 33.6625 31.4205 33.4687 31.5538 33.0986C31.6871 32.7284 31.4981 32.3199 31.1296 32.1818C29.0901 31.447 27.5007 30.1071 26.8767 28.6072C26.0201 26.5438 25.5283 22.418 25.3338 20.458C25.7966 20.5599 26.269 20.6108 26.7427 20.6095C30.2492 20.6095 34.0822 18.1137 35.8078 16.8415C35.9107 16.766 36.0552 16.7844 36.1359 16.8836C38.2967 19.5031 39.9183 20.2831 41.0715 20.3108C40.8876 22.203 40.392 26.4905 39.5142 28.6072C38.8921 30.1071 37.3025 31.4469 35.2622 32.1818C34.8886 32.3168 34.6952 32.7287 34.8298 33.1023C34.9648 33.4756 35.3767 33.669 35.7503 33.5344C36.1947 33.3744 36.628 33.1857 37.0478 32.9697V34.9928C37.0266 36.3545 36.2876 37.6035 35.1047 38.2782C33.922 38.9529 32.4707 38.9529 31.2878 38.2782C30.1048 37.6035 29.3662 36.3546 29.3447 34.9928V32.9697C29.7644 33.1861 30.1982 33.3741 30.6426 33.534ZM19.5702 55.5641H14.4443C14.4692 54.3322 14.5554 53.1359 14.6863 51.9885H20.0457L19.5702 55.5641ZM21.0212 55.5641L22.0739 47.6944C22.1265 47.3007 21.8504 46.939 21.457 46.8861C21.0635 46.8331 20.7016 47.1093 20.6486 47.503L20.2398 50.5491H14.8804C15.632 45.6107 17.1698 41.8161 18.0714 40.6344C19.3576 38.95 25.0578 36.8742 27.9923 35.9402C28.2907 37.5774 29.3421 38.9788 30.8306 39.7228C32.3192 40.4669 34.0712 40.4669 35.5598 39.7228C37.0483 38.9787 38.0996 37.5773 38.3981 35.9402C41.3352 36.8743 47.0316 38.95 48.3181 40.6344C48.7573 41.2086 49.4091 42.5321 50.036 44.3736C48.568 43.7362 47.1707 43.4166 45.8547 43.4166C43.4536 43.4166 40.7824 44.4874 37.9055 46.5997C36.7133 47.4765 35.5932 48.4468 34.5559 49.5023H33.1107C32.895 49.504 32.691 49.6021 32.5549 49.7696C32.4186 49.9371 32.3642 50.1565 32.4063 50.3684L32.4791 50.714C32.7084 51.7972 33.2758 52.7792 34.0996 53.5188C34.9233 54.2585 35.961 54.7175 37.0623 54.8293L37.3425 55.5683L21.0212 55.5641ZM54.1419 53.4097C53.8442 53.4107 53.578 53.595 53.472 53.8728L52.9887 55.1477C52.893 55.3962 52.6548 55.5603 52.3885 55.5613H39.3229C39.0566 55.5599 38.8184 55.3959 38.7227 55.1477L38.2442 53.8728C38.1379 53.595 37.872 53.4111 37.5743 53.4097C36.8035 53.4066 36.0522 53.1684 35.4209 52.7268C34.7893 52.2848 34.308 51.6607 34.0411 50.9378H57.6802C57.4129 51.6614 56.9307 52.2862 56.2983 52.7282C55.666 53.1701 54.9134 53.408 54.1419 53.4097Z" fill="#2862B6"/>
<path d="M58 9L9 61" stroke="white" stroke-width="2"/>
</svg>
