<svg width="69" height="69" viewBox="0 0 69 69" fill="none" xmlns="http://www.w3.org/2000/svg">
<circle cx="34.0589" cy="34.0589" r="34.0589" fill="#5DBFF7"/>
<circle cx="34" cy="34" r="9" fill="white"/>
<path d="M34.2526 37.3363C35.284 37.3363 36.2733 36.9265 37.0029 36.1973C37.7322 35.4676 38.142 34.4783 38.142 33.447C38.142 32.4156 37.7322 31.4263 37.0029 30.6966C36.2733 29.9674 35.284 29.5576 34.2526 29.5576C33.2213 29.5576 32.2319 29.9674 31.5023 30.6966C30.7731 31.4263 30.3633 32.4156 30.3633 33.447C30.3633 34.4783 30.7731 35.4676 31.5023 36.1973C32.232 36.9265 33.2213 37.3363 34.2526 37.3363ZM34.2526 31.5023C34.7683 31.5023 35.2632 31.7072 35.6278 32.0718C35.9924 32.4364 36.1973 32.9313 36.1973 33.447C36.1973 33.9626 35.9924 34.4575 35.6278 34.8221C35.2632 35.1867 34.7683 35.3916 34.2526 35.3916C33.7369 35.3916 33.2421 35.1867 32.8775 34.8221C32.5128 34.4575 32.308 33.9626 32.308 33.447C32.308 32.9313 32.5128 32.4364 32.8775 32.0718C33.2421 31.7072 33.7369 31.5023 34.2526 31.5023Z" fill="#2862B6"/>
<path d="M11.8893 29.4699L8 31.6676L8.97234 33.4469L26.6488 23.3928C31.3577 20.6902 37.1475 20.6902 41.8562 23.3928L59.5327 33.4469L60.505 31.6676L56.8492 29.5576L57.1314 29.0519H57.131C58.0273 27.4558 58.2778 25.5767 57.8311 23.8013L57.4327 22.1092L55.488 22.5954L55.8965 24.2969L55.896 24.2973C56.2103 25.567 56.0293 26.9087 55.3908 28.0503L55.0991 28.5756L51.4237 26.4851H51.4233C52.1065 25.014 52.2711 23.3554 51.8904 21.7788L51.4819 20.0967L49.5372 20.5829L49.9457 22.2749V22.2745C50.2079 23.3549 50.1124 24.4913 49.6731 25.5128L45.7838 23.2764C46.2105 21.9746 46.2578 20.5782 45.9201 19.2507L45.5116 17.5586L43.5669 18.0448L43.9754 19.7463C44.1942 20.575 44.1942 21.4462 43.9754 22.2744L42.8086 21.6133C41.8779 21.0915 40.9013 20.6553 39.8916 20.3106C40.198 19.1273 40.198 17.8859 39.8916 16.7029L39.4931 15.0209L37.5484 15.507L37.9569 17.1991H37.9565C38.1705 18.0378 38.1705 18.9172 37.9565 19.7563C36.6264 19.4577 35.2652 19.3175 33.9022 19.3383C34.2326 18.1476 34.2525 16.8922 33.9604 15.6921L33.6396 14L31.6949 14.4862L32.1034 16.1783C32.3691 17.2947 32.2562 18.468 31.7822 19.5133C30.5637 19.6891 29.367 19.9956 28.2141 20.427C28.3435 19.5259 28.2974 18.6078 28.0778 17.7241L27.6693 16.032L25.7247 16.5181L26.1331 18.2197V18.2201C26.401 19.3218 26.2946 20.4813 25.8319 21.5161L25.647 21.6133L22.1466 23.6066C22.404 22.5101 22.404 21.3685 22.1466 20.2716L21.7481 18.5795L19.8034 19.0657L20.231 20.8063C20.5461 22.076 20.3651 23.4182 19.7253 24.5593L19.3268 25.279L15.2917 27.5249L15.4957 27.0483V27.0487C16.3929 25.4457 16.6468 23.5618 16.2058 21.7786L15.7778 20.106L13.8331 20.5922L14.2416 22.2843C14.5563 23.554 14.3757 24.8962 13.7359 26.0373L11.8893 29.4699Z" fill="#2862B6"/>
<path d="M29.388 47.9054L28.0267 45.6104C27.8548 45.3049 27.5314 45.1152 27.1807 45.1147C26.8261 45.1191 26.5018 45.3166 26.3347 45.63L25.0221 48.0317L23.3982 45.5327H23.3987C23.2133 45.2658 22.9068 45.1087 22.5817 45.1147C22.2592 45.1282 21.9597 45.2849 21.7648 45.5427L19.995 48.1389L18.5561 45.6109V45.6104C18.395 45.3222 18.0986 45.1355 17.7687 45.1147C17.4422 45.0956 17.128 45.2415 16.9326 45.5036L14.0156 49.393L15.5714 50.5598L17.5937 47.8568L19.0718 50.453C19.2345 50.7438 19.5358 50.9314 19.8687 50.9487C20.206 50.9626 20.5264 50.8007 20.7148 50.5207L22.5818 47.8373L24.3124 50.5017C24.4908 50.7799 24.7986 50.9484 25.1293 50.9488C25.4736 50.934 25.7844 50.7378 25.9458 50.4335L27.1903 48.1095L28.5225 50.4527V50.4531C28.6922 50.7674 29.0208 50.9636 29.3785 50.9636C29.7357 50.9636 30.0643 50.7674 30.234 50.4531L32.1787 46.5638L30.4481 45.6887L29.388 47.9054Z" fill="#2862B6"/>
<path d="M18.5393 37.783C18.3604 37.5048 18.0531 37.3364 17.7223 37.3359C17.3985 37.3438 17.0964 37.5018 16.9054 37.764L15.1356 40.3601L13.6967 37.8321V37.8316C13.5357 37.5434 13.2392 37.3568 12.9093 37.3359C12.5829 37.3168 12.2686 37.4627 12.0733 37.7249L9.15625 41.6142L10.712 42.781L12.7343 40.078L14.2124 42.6742C14.3752 42.965 14.6764 43.1526 15.0094 43.1699C15.3466 43.1838 15.667 43.0219 15.8554 42.7419L17.7224 40.0585L19.453 42.7229C19.6314 43.0012 19.9392 43.1696 20.27 43.17C20.6142 43.1553 20.925 42.9591 21.0865 42.6548L23.0311 39.0086L27.6692 41.5075C31.7644 43.7239 36.7011 43.7239 40.7952 41.5075L44.4901 39.5629L46.289 42.723C46.4552 43.0121 46.7582 43.1961 47.092 43.21C47.4254 43.2239 47.7427 43.0655 47.9324 42.7907L49.8089 40.0586L51.5396 42.723C51.718 43.0013 52.0257 43.1697 52.3565 43.1701C52.7008 43.1554 53.0115 42.9592 53.173 42.6549L54.4175 40.3308L55.7497 42.674V42.6744C55.9194 42.9887 56.248 43.1849 56.6057 43.1849C56.9629 43.1849 57.2915 42.9887 57.4612 42.6744L59.4059 38.7851L57.6753 37.91L56.6152 40.1268L55.254 37.8319C55.0803 37.5232 54.7526 37.3331 54.3984 37.3362C54.0433 37.3405 53.7191 37.538 53.5524 37.8514L52.2492 40.2531L50.6254 37.7542H50.6258C50.4404 37.4872 50.134 37.3301 49.8089 37.3362C49.4855 37.3357 49.1829 37.4959 49.0019 37.7642L47.2322 40.3604L46.2598 38.5906L54.2038 34.3028V34.3023C54.5181 34.1326 54.7143 33.804 54.7143 33.4468C54.7143 33.0895 54.5181 32.7609 54.2038 32.5912L40.8145 25.3859C36.7198 23.1695 31.7827 23.1695 27.6885 25.3859L14.3381 32.5912C14.0234 32.7609 13.8276 33.0895 13.8276 33.4468C13.8276 33.804 14.0234 34.1326 14.3381 34.3023L21.3389 38.0849L20.1621 40.2531L18.5393 37.783ZM42.6532 28.585L51.6568 33.4466L42.6532 38.3083C43.5192 36.8346 43.9754 35.1561 43.9754 33.4466C43.9754 31.7372 43.5191 30.0587 42.6532 28.585ZM34.252 25.668C36.3151 25.668 38.2937 26.4875 39.7522 27.9465C41.2111 29.405 42.0307 31.3835 42.0307 33.4466C42.0307 35.5098 41.2111 37.4883 39.7522 38.9468C38.2937 40.4058 36.3151 41.2253 34.252 41.2253C32.1889 41.2253 30.2103 40.4058 28.7518 38.9468C27.2929 37.4883 26.4733 35.5098 26.4733 33.4466C26.4733 31.3835 27.2929 29.405 28.7518 27.9465C30.2103 26.4875 32.1889 25.668 34.252 25.668ZM16.8478 33.4466L25.8514 28.585C24.9854 30.0587 24.5292 31.7372 24.5292 33.4466C24.5292 35.1561 24.9854 36.8346 25.8514 38.3083L16.8478 33.4466Z" fill="#2862B6"/>
<path d="M50.9075 50.4535C51.0794 50.759 51.4028 50.9487 51.7535 50.9492C52.109 50.9374 52.4298 50.7321 52.5895 50.4144L54.5342 46.525L52.8036 45.6499L51.7535 47.9059L50.3923 45.6109C50.2286 45.2923 49.8944 45.0987 49.5367 45.1152C49.1816 45.1196 48.8574 45.3171 48.6907 45.6305L47.3875 48.0322L45.7637 45.5332H45.7641C45.5788 45.2663 45.2723 45.1091 44.9472 45.1152C44.6238 45.1148 44.3212 45.275 44.1402 45.5432L42.3705 48.1394L40.9315 45.6113V45.6109C40.77 45.3227 40.4736 45.136 40.1437 45.1152C39.8172 45.0961 39.5034 45.2419 39.3076 45.5041L36.3906 49.3935L37.9464 50.5603L39.9687 47.8573L41.4468 50.4535C41.61 50.7443 41.9108 50.9318 42.2442 50.9492C42.581 50.9631 42.9014 50.8012 43.0902 50.5212L44.9472 47.8378L46.6778 50.5022C46.8562 50.7804 47.164 50.9489 47.4948 50.9493C47.839 50.9345 48.1498 50.7383 48.3113 50.434L49.5558 48.11L50.9075 50.4535Z" fill="#2862B6"/>
</svg>
