<svg width="69" height="69" viewBox="0 0 69 69" fill="none" xmlns="http://www.w3.org/2000/svg">
<circle cx="34.0589" cy="34.0589" r="34.0589" fill="#5DBFF7"/>
<circle cx="35.5" cy="34.5" r="6.5" fill="white"/>
<path d="M27.3906 34.17C27.3906 36.2332 28.2102 38.2117 29.6691 39.6702C31.1276 41.1292 33.1062 41.9487 35.1693 41.9487C37.2324 41.9487 39.211 41.1292 40.6695 39.6702C42.1285 38.2117 42.948 36.2332 42.948 34.17C42.948 32.1069 42.1285 30.1283 40.6695 28.6698C39.211 27.2109 37.2324 26.3914 35.1693 26.3914C33.1062 26.3914 31.1276 27.2109 29.6691 28.6698C28.2102 30.1283 27.3906 32.1069 27.3906 34.17ZM39.1464 29.9113C39.5566 30.3076 39.91 30.7595 40.1965 31.253C40.1413 31.2578 40.0862 31.2578 40.0311 31.253C39.7094 31.2483 39.4108 31.0846 39.2337 30.8159C39.0566 30.5477 39.024 30.2086 39.1464 29.9113L39.1464 29.9113ZM35.1694 28.336C35.9738 28.3339 36.7691 28.5031 37.503 28.8317C37.2491 29.2728 37.1154 29.772 37.1141 30.2807C37.1189 31.2053 37.5612 32.073 38.3069 32.6191C39.0526 33.1656 40.0137 33.3262 40.8966 33.0518C40.9665 33.4204 41.0026 33.795 41.0034 34.17C41.0034 35.7175 40.3888 37.2011 39.2949 38.2955C38.2006 39.3893 36.7169 40.004 35.1694 40.004C33.6219 40.004 32.1383 39.3893 31.0439 38.2955C29.9501 37.2011 29.3354 35.7175 29.3354 34.17C29.3354 32.6225 29.9501 31.1388 31.0439 30.0445C32.1382 28.9506 33.6219 28.336 35.1694 28.336L35.1694 28.336Z" fill="#2862B6"/>
<path d="M34.1953 5H36.14V24.4467H34.1953V5Z" fill="#2862B6"/>
<path d="M34.1953 43.8933H36.14V63.34H34.1953V43.8933Z" fill="#2862B6"/>
<path d="M44.8945 33.1978H64.3412V35.1424H44.8945V33.1978Z" fill="#2862B6"/>
<path d="M6 33.1978H25.4467V35.1424H6V33.1978Z" fill="#2862B6"/>
<path d="M41.3594 26.6113L55.1099 12.8608L56.485 14.236L42.7345 27.9865L41.3594 26.6113Z" fill="#2862B6"/>
<path d="M13.8516 54.1035L27.6021 40.353L28.9772 41.7282L15.2267 55.4787L13.8516 54.1035Z" fill="#2862B6"/>
<path d="M41.3594 41.7309L42.7345 40.3557L56.485 54.1062L55.1099 55.4814L41.3594 41.7309Z" fill="#2862B6"/>
<path d="M13.8555 14.2333L15.2306 12.8582L28.9811 26.6086L27.606 27.9838L13.8555 14.2333Z" fill="#2862B6"/>
<path d="M38.168 24.8757L44.384 10.614L46.1668 11.391L39.9507 25.6527L38.168 24.8757Z" fill="#2862B6"/>
<path d="M24.1719 56.9604L30.3879 42.6987L32.1707 43.4757L25.9546 57.7374L24.1719 56.9604Z" fill="#2862B6"/>
<path d="M43.6875 38.9429L44.4645 37.1602L58.7262 43.3762L57.9492 45.159L43.6875 38.9429Z" fill="#2862B6"/>
<path d="M11.6172 24.9568L12.3942 23.1741L26.6558 29.3901L25.8788 31.1729L11.6172 24.9568Z" fill="#2862B6"/>
<path d="M43.8594 29.7139L58.3388 24.0249L59.0499 25.835L44.5704 31.524L43.8594 29.7139Z" fill="#2862B6"/>
<path d="M11.2891 42.5088L25.7685 36.8198L26.4795 38.6299L12.0001 44.3189L11.2891 42.5088Z" fill="#2862B6"/>
<path d="M37.9688 43.3811L39.7771 42.6614L45.5334 57.1297L43.7251 57.8494L37.9688 43.3811Z" fill="#2862B6"/>
<path d="M25.0391 10.8896L26.8474 10.1699L32.6037 24.6383L30.7954 25.358L25.0391 10.8896Z" fill="#2862B6"/>
<path d="M35.1709 37.0871C35.9444 37.0871 36.6867 36.7797 37.2335 36.2328C37.7804 35.6859 38.0878 34.9435 38.0878 34.1701C38.0878 33.3967 37.7805 32.6543 37.2335 32.1074C36.6866 31.5606 35.9443 31.2532 35.1709 31.2532C34.3974 31.2532 33.655 31.5605 33.1082 32.1074C32.5613 32.6544 32.2539 33.3967 32.2539 34.1701C32.2539 34.9435 32.5612 35.686 33.1082 36.2328C33.6551 36.7796 34.3974 37.0871 35.1709 37.0871ZM35.1709 33.1977C35.5641 33.1977 35.9188 33.4347 36.069 33.7981C36.2196 34.1614 36.1367 34.5794 35.8584 34.8576C35.5802 35.1359 35.1622 35.2188 34.7988 35.0682C34.4355 34.918 34.1985 34.5633 34.1985 34.1701C34.1985 33.6331 34.6339 33.1977 35.1709 33.1977Z" fill="#2862B6"/>
</svg>
