<svg width="69" height="69" viewBox="0 0 69 69" fill="none" xmlns="http://www.w3.org/2000/svg">
<circle cx="34.0589" cy="34.0589" r="34.0589" fill="#5DBFF7"/>
<circle cx="42.5" cy="23.5" r="10.5" fill="white"/>
<path d="M53 49.8388H29.0343V45.621H38.7501C39.123 45.6216 39.47 45.4296 39.6676 45.1131C39.8651 44.7966 39.8856 44.4005 39.7215 44.0653L36.7766 38.0454H38.439C38.8357 38.0451 39.2002 37.8275 39.3884 37.4784C39.5769 37.1293 39.5589 36.7049 39.3417 36.373L34.8636 29.5278H35.6453C36.0543 29.5278 36.4281 29.2966 36.6109 28.9303C36.7938 28.5644 36.7543 28.1264 36.5088 27.799L28.8183 17.432C28.6144 17.1601 28.2945 17 27.9548 17C27.615 17 27.2948 17.1601 27.0909 17.432L19.3784 27.8036V27.8039C19.1332 28.1313 19.0938 28.5693 19.2766 28.9353C19.4594 29.3012 19.8332 29.5324 20.2422 29.5324H21.0453L16.563 36.3776C16.3458 36.7095 16.3277 37.134 16.5163 37.483C16.7045 37.8321 17.069 38.05 17.4654 38.05H19.1278L16.1874 44.0657C16.0232 44.4009 16.0437 44.797 16.2413 45.1135C16.4389 45.43 16.7859 45.622 17.1591 45.6214H26.8749V49.8392H15V52H52.9997L53 49.8388Z" fill="#2862B6"/>
</svg>
