<svg width="69" height="69" viewBox="0 0 69 69" fill="none" xmlns="http://www.w3.org/2000/svg">
<circle cx="34.0589" cy="34.0589" r="34.0589" fill="#5DBFF7"/>
<path d="M52.9997 46.7969C53.0074 47.5138 52.6857 48.1921 52.1129 48.6546C51.0926 49.4715 48.7616 50.8899 44.9864 50.6741C44.8215 50.6741 44.7196 50.682 44.6331 50.7203C43.5735 51.1058 40.756 52 37.4359 52C35.8662 52 34.3829 51.792 33.025 51.391C32.8209 51.3292 32.6248 51.2445 32.4286 51.1212C32.0204 50.8746 30.5215 50.0574 28.3081 50.0574C27.7979 50.0574 27.2721 50.1035 26.754 50.1885C26.707 50.1963 26.3458 50.2346 25.7886 50.2346C23.6774 50.2346 18.6151 49.6564 17.2493 44.2914C17.2257 44.2143 16.4018 41.4549 17.885 38.9726C18.8817 37.3078 20.6476 36.1978 23.1278 35.666C23.1278 35.666 23.9284 35.427 25.1685 35.427C26.8795 35.427 29.4222 35.8819 31.8085 38.0401C32.0282 38.2406 32.3499 38.3175 32.6246 38.2328C33.2134 38.0555 34.1551 37.8397 35.2617 37.8397C36.9727 37.8397 38.5817 38.3253 40.0416 39.281C40.0573 39.2889 40.1122 39.281 40.1202 39.2349L40.6932 31.3263C40.7089 31.2108 40.6932 31.1029 40.654 30.9949L38.315 26.2236C38.2993 26.185 38.2836 26.1464 38.268 26.1003C38.221 25.9462 38.0482 25.6378 37.899 25.6378C37.8677 25.6378 37.7578 25.6454 37.5773 25.7533C37.3576 25.8844 37.0122 26.0692 36.5963 26.1232C36.4235 26.1464 36.2197 26.1696 35.9763 26.1696C35.2543 26.1696 34.4694 26.0155 33.6453 25.7147C33.5824 25.6915 33.5277 25.6761 33.4884 25.6686C33.4178 25.6607 33.3236 25.6378 33.2137 25.6146C32.8371 25.5374 32.2719 25.4605 32.0129 25.6146C31.4085 25.9616 30.6709 26.1388 29.8387 26.1388C29.2343 26.1388 28.6066 26.0388 28.0572 25.8769C27.5077 25.7071 27.0369 25.4759 26.7465 25.1985C26.3462 24.8286 26.1971 24.3198 26.307 23.7572C26.4561 22.9785 27.0839 22.2079 27.7902 21.9227C28.0256 21.8302 28.3083 21.7147 28.6064 21.5989C27.688 20.7814 26.7696 19.6021 27.4839 18.5613C27.5388 18.4766 27.6174 18.3994 27.7037 18.3455C27.7114 18.3376 28.8732 17.5825 29.6108 16.3488C29.9328 15.8402 30.8275 15 32.2088 15C32.7426 15 33.2997 15.1233 33.8728 15.3699C34.7049 15.5704 39.5238 16.7883 41.2664 18.4302C41.8944 19.0931 43.7859 21.2052 43.9191 22.5618C44.4998 24.3963 45.677 27.4875 46.4542 28.2738C46.5721 28.3893 46.666 28.4972 46.7525 28.6283C47.6786 30.0235 50.7239 34.7334 51.1478 37.0616C51.3517 37.686 52.9371 42.5192 53 46.7976L52.9997 46.7969Z" fill="#2862B6"/>
<path d="M58 9L9 61" stroke="white" stroke-width="2"/>
</svg>
