<svg width="69" height="69" viewBox="0 0 69 69" fill="none" xmlns="http://www.w3.org/2000/svg">
<circle cx="34.0589" cy="34.0589" r="34.0589" fill="#5DBFF7"/>
<circle cx="34" cy="34" r="15" fill="white"/>
<path d="M53.8286 26.3198C54.5998 25.5253 52.6978 22.1318 49.5519 18.7704C46.4063 15.4089 43.2214 13.3654 42.4673 14.1782L38.1648 18.7704C37.4065 19.5786 39.3389 22.9033 42.4501 26.2329C45.5612 29.5621 48.681 31.6333 49.452 30.8251L53.8286 26.3198ZM47.5196 20.9103C45.5613 18.8391 44.2526 16.8187 44.5993 16.4376C44.9459 16.0564 46.8436 17.4386 48.8065 19.5372C50.7694 21.6357 52.0606 23.6701 51.6967 24.0284C51.3327 24.3864 49.4781 22.9996 47.5196 20.9103Z" fill="#2862B6"/>
<path d="M44 28.1747C43.3007 27.5776 42.5788 26.9122 41.8521 26.1786C41.1255 25.4446 40.4899 24.711 39.8814 24L23.8021 40.0889C21.4 38.0834 19.293 37.0442 18.68 37.6685L14.1709 42.2264C13.3988 43.0515 15.3151 46.2646 18.4664 49.4551C21.6177 52.6457 24.8238 54.6147 25.6094 53.8261L30.2003 49.3368C30.8268 48.726 29.8144 46.6021 27.8343 44.1772L44 28.1747ZM28.0479 47.1399C27.671 47.5136 25.7773 46.1783 23.7794 44.1682C21.7813 42.1582 20.478 40.2347 20.8552 39.8565C21.0868 39.6195 21.9269 40.0434 23.0121 40.8911C22.8533 41.046 22.6987 41.2057 22.5579 41.347H22.5577C23.0843 42.1556 23.6782 42.9179 24.3332 43.6258C25.0373 44.2971 25.7968 44.907 26.6038 45.4489L27.058 44.9931C27.8707 46.0597 28.2885 46.9255 28.0479 47.1399H28.0479Z" fill="#2862B6"/>
</svg>
