<svg width="69" height="69" viewBox="0 0 69 69" fill="none" xmlns="http://www.w3.org/2000/svg">
<circle cx="34.0589" cy="34.0589" r="34.0589" fill="#5DBFF7"/>
<path d="M47 22H52C51.3252 21.3602 50.4354 21 49.495 21C48.5543 21 47.6542 21.3699 47 22Z" fill="#2862B6"/>
<path d="M13 23.667V26.3335C13 26.7067 13.264 27 13.5999 27H16V23L13.5999 23.0004C13.264 23.0004 13 23.2937 13 23.667V23.667Z" fill="white"/>
<path d="M56.9996 26.333V23.6665C56.9996 23.2933 56.7692 23 56.476 23H46.3669C46.1256 23.6263 46 24.3067 46 25V27H56.4763C56.7696 27 57 26.7067 57 26.333L56.9996 26.333Z" fill="white"/>
<path d="M46 28H53V36H46V28Z" fill="#2862B6"/>
<path d="M44.092 36.1194V24.9202C44.092 24.0465 44.329 23.1731 44.7807 22.4002C45.0966 21.8516 45.5143 21.381 46 21.0004L18.6932 21C17.7563 21 17 21.7504 17 22.68V49H44.092L44.092 36.1194Z" fill="#2862B6"/>
</svg>
