<svg width="39" height="40" viewBox="0 0 39 40" fill="none" xmlns="http://www.w3.org/2000/svg">
<rect width="39" height="39" rx="10" fill="#2862B6"/>
<path d="M21.8797 3.04208C21.7549 3.04208 21.5886 3.12535 21.5471 3.24988C21.4223 3.58247 21.4223 3.91531 21.5471 4.24792C21.6719 4.58054 21.8797 4.83007 22.1708 4.99636C22.3371 5.07963 22.5034 5.28743 22.5034 5.537C22.5449 5.78657 22.4201 6.03587 22.2538 6.11915C22.0042 6.32695 21.8379 6.61803 21.7549 6.99236V7.20016C21.9627 7.20016 22.2123 7.24167 22.4618 7.28344V7.11714C22.5033 6.95085 22.5866 6.78455 22.7114 6.70128C23.0858 6.4102 23.2521 5.95284 23.2103 5.49546C23.1688 5.03808 22.9192 4.62225 22.5034 4.41414C22.3371 4.33113 22.254 4.20634 22.1708 4.04005C22.1293 3.87375 22.1293 3.66569 22.1708 3.4994C22.254 3.33311 22.1708 3.12505 21.963 3.04203H21.8797L21.8797 3.04208ZM18.4282 3.04208C18.3035 3.04208 18.1372 3.12535 18.0957 3.24988C17.9709 3.58247 17.9709 3.91531 18.0541 4.24792C18.1789 4.58051 18.3867 4.83007 18.6778 4.99636C18.8441 5.07963 19.0104 5.28743 19.0104 5.537C19.0519 5.78657 18.9271 6.03587 18.7608 6.11915C18.5113 6.32695 18.345 6.61803 18.2619 6.99236C18.2204 7.15865 18.2619 7.32494 18.2619 7.44973C18.4697 7.40822 18.7193 7.36645 18.9274 7.32494V7.07537C18.9689 6.90908 19.0522 6.74279 19.1769 6.65951C19.5513 6.36843 19.7176 5.91108 19.6758 5.45369C19.6343 4.99632 19.3847 4.58048 18.9689 4.37237C18.8441 4.2891 18.7193 4.16457 18.6778 3.99802C18.6363 3.83172 18.6363 3.62366 18.6778 3.45737C18.7611 3.29108 18.6778 3.08302 18.47 3C18.5115 3.04203 18.4698 3.04203 18.4282 3.04203L18.4282 3.04208ZM20.1747 3.04208C20.0499 3.04208 19.8836 3.12535 19.8421 3.24988C19.7173 3.58247 19.7173 3.91531 19.8006 4.24792C19.9254 4.58051 20.1332 4.83007 20.4243 4.99636C20.5906 5.07963 20.7569 5.28743 20.7569 5.537C20.7984 5.78657 20.6736 6.03587 20.5073 6.11915C20.2577 6.32695 20.0914 6.61803 20.0084 6.99236V7.20016C20.2162 7.20016 20.4658 7.15865 20.7154 7.15865V7.07537C20.7569 6.90908 20.8401 6.74279 20.9649 6.65951C21.3393 6.36843 21.5056 5.91108 21.4638 5.45369C21.4223 4.99632 21.1727 4.58048 20.7569 4.37237C20.6321 4.2891 20.5073 4.16457 20.4658 3.99802C20.4243 3.83172 20.4243 3.62366 20.4658 3.45737C20.5491 3.29108 20.4658 3.08302 20.2995 3C20.2162 3.04203 20.1747 3.04203 20.1747 3.04203L20.1747 3.04208Z" fill="white"/>
<path d="M22.8343 18.802H23.7075C23.8323 18.802 23.9571 18.9268 23.9571 19.0516C23.9571 19.1764 23.8323 19.3012 23.7075 19.3012H22.8758C22.751 19.3012 22.6262 19.1764 22.6262 19.0516C22.6262 18.8853 22.7095 18.802 22.8343 18.802H22.8343ZM22.8343 17.5962H24.8303C24.9551 17.5962 25.0799 17.721 25.0799 17.8458C25.0799 17.9706 24.9551 18.0954 24.8303 18.0954H22.8758C22.751 18.0954 22.6262 17.9706 22.6262 17.8458C22.6262 17.721 22.7095 17.5962 22.8343 17.5962H22.8343ZM22.8758 16.4319H23.7075C23.8323 16.4319 23.9571 16.5567 23.9571 16.6815C23.9571 16.8063 23.8323 16.931 23.7075 16.931H22.8758C22.751 16.931 22.6262 16.8063 22.6262 16.6815C22.6262 16.5149 22.7095 16.4319 22.8758 16.4319ZM22.8343 15.2258H24.8303C24.9551 15.2258 25.0799 15.3506 25.0799 15.4754C25.0799 15.6002 24.9551 15.725 24.8303 15.725H22.8758C22.751 15.725 22.6262 15.6002 22.6262 15.4754C22.5847 15.3506 22.7095 15.2258 22.8343 15.2258H22.8343ZM22.8758 14.0615H23.7075C23.8323 14.0615 23.9571 14.1863 23.9571 14.3111C23.9571 14.4359 23.8323 14.5606 23.7075 14.5606H22.8758C22.751 14.5606 22.6262 14.4359 22.6262 14.3111C22.6262 14.1448 22.7095 14.0615 22.8758 14.0615ZM22.8343 12.8557H24.8303C24.9551 12.8557 25.0799 12.9805 25.0799 13.1053C25.0799 13.23 24.9551 13.3548 24.8303 13.3548H22.8758C22.751 13.3548 22.6262 13.23 22.6262 13.1053C22.6262 12.9805 22.7095 12.8557 22.8343 12.8557H22.8343ZM20.2976 11.317C21.046 11.317 21.7115 11.9407 21.7115 12.7309V21.6715C22.2521 22.1288 22.6263 22.711 22.6263 23.4179C22.6263 24.0416 22.3767 24.6238 21.9608 25.0814C21.545 25.4973 20.9213 25.7468 20.2973 25.7468C19.6737 25.7468 19.0915 25.4973 18.6339 25.0814C18.218 24.6656 17.9684 24.0419 17.9684 23.4179C17.9684 22.711 18.3428 22.1289 18.8832 21.6715L18.8837 12.7309C18.8837 11.9407 19.5492 11.317 20.2976 11.317H20.2976ZM20.755 7.94893C17.0125 7.99044 13.6442 10.2361 12.438 13.6042C11.5232 16.2239 12.0636 19.6753 13.8933 22.0455C14.4755 22.794 15.1409 23.5424 15.515 24.3327C15.9309 25.1226 16.1805 25.9129 15.6813 26.7446L12.2716 32.5243C11.1903 34.3541 9.943 36.1835 9.48561 38.5954C9.40234 38.9698 9.52712 39.1361 9.90148 39.1361H26.9506C27.1169 39.1361 27.2416 38.9698 27.1584 38.8035C26.4099 37.0985 25.1623 35.6847 23.4159 34.1462C22.9585 33.7304 22.8337 32.8571 23.1663 32.1917L24.9543 28.1166C24.3306 27.9088 23.79 27.576 23.2078 27.1186C22.9167 26.869 23.083 26.4531 23.4989 26.6612C24.788 27.3681 26.0356 27.7007 27.4909 28.1165C28.2809 28.3661 28.9048 28.1998 29.3207 27.9087C29.7365 27.6177 29.8613 27.1188 29.8195 26.5364C29.778 26.0375 29.778 26.1205 29.9858 25.5799C30.1106 25.2473 30.0691 24.873 29.861 24.5819C29.7778 24.4571 29.57 24.4571 29.4452 24.3741C29.6115 24.3326 29.7778 24.3326 29.9026 24.2493C30.0688 24.1245 30.1936 23.9997 30.2351 23.8334C30.3184 23.6671 30.2767 23.4591 30.2351 23.2513C30.1104 22.7939 30.0688 22.2948 30.1104 21.8789L30.9003 21.7541C31.2747 21.7126 31.5657 21.463 31.6487 21.1305C31.732 20.8394 31.6902 20.465 31.5239 20.174L29.9437 17.5958C29.6527 17.1384 29.6527 16.681 29.6527 16.1819C29.6527 15.6831 29.7359 15.1839 29.6527 14.6433C29.1953 12.3147 27.8647 10.6513 26.326 9.57021C24.7874 8.48889 22.9994 7.9485 21.544 7.86523C21.2537 7.94877 21.0041 7.94877 20.7546 7.94877L20.755 7.94893Z" fill="white"/>
<path d="M20.2975 14.3525C19.9231 14.3525 19.5906 14.6851 19.5906 15.0595V21.9209C19.0499 22.212 18.6758 22.7526 18.6758 23.3763C18.6758 24.2911 19.4242 24.998 20.2975 24.998C21.2123 24.998 21.9192 24.2496 21.9192 23.3763C21.9192 22.7526 21.5448 22.1705 21.0044 21.9209V15.0595C21.0044 14.6854 20.6718 14.3525 20.2975 14.3525Z" fill="white"/>
</svg>
