<svg width="69" height="69" viewBox="0 0 69 69" fill="none" xmlns="http://www.w3.org/2000/svg">
<circle cx="34.0589" cy="34.0589" r="34.0589" fill="#5DBFF7"/>
<path fill-rule="evenodd" clip-rule="evenodd" d="M26.2544 51.4709C26.2544 52.3714 29.4945 53.1044 33.4901 53.1044C37.4858 53.1044 40.7259 52.3741 40.7259 51.4709L43.0368 31.9391C43.0507 31.8119 43.0944 31.5058 42.7249 31.7827C41.8676 32.4268 39.7208 32.9463 36.9617 33.1866L37.6341 26.6352C39.818 26.4833 41.7798 26.2087 43.3676 25.8502C44.4792 25.5984 45.4289 25.29 46.171 24.9315L42.6237 54.8981C42.5936 55.1567 41.6925 55.4902 40.2321 55.8191C38.5221 56.2045 36.1579 56.443 33.5004 56.443C30.843 56.443 28.481 56.2049 26.7687 55.8191C25.3083 55.4879 24.4068 55.1567 24.3747 54.8981L20.8282 24.9315C21.5702 25.29 22.52 25.5984 23.6315 25.8502C26.169 26.4218 29.6606 26.778 33.4992 26.778C33.8157 26.778 34.1302 26.7757 34.442 26.7711L33.7697 33.3317H33.4876C31.819 33.3317 30.2499 33.2363 28.8796 33.0662C26.6747 32.7939 24.9949 32.3313 24.2598 31.7822C23.89 31.5031 23.9341 31.8118 23.948 31.9387L24.4494 36.1784L24.4447 36.1788L26.2544 51.4709ZM33.1523 46.6118C32.512 46.7003 32.0641 47.2832 32.1542 47.9118C32.2443 48.5426 32.8382 48.9824 33.4808 48.8939C34.1234 48.8054 34.5691 48.2202 34.479 47.5916C34.3888 46.9635 33.795 46.5233 33.1523 46.6118ZM29.6143 41.2851C28.593 41.4279 27.8811 42.3557 28.0242 43.3587C28.1673 44.3612 29.1148 45.0601 30.1389 44.9196C31.1602 44.7768 31.8721 43.8467 31.729 42.8437C31.5808 41.8434 30.6357 41.1423 29.6143 41.2851ZM30.5064 36.4374C29.8132 36.5327 29.3281 37.1631 29.4271 37.8437C29.5242 38.5265 30.1687 39.0004 30.862 38.9032C31.5553 38.8079 32.0381 38.1775 31.9413 37.4969C31.8419 36.8141 31.1997 36.3402 30.5064 36.4374ZM37.7902 25.0654C39.7846 24.9158 41.5684 24.664 43.0154 24.3374C44.9888 23.8927 46.2577 23.4096 46.4009 22.9854L46.4149 22.8832C46.3688 22.4454 45.079 21.9395 43.0154 21.4747C41.6772 21.1732 40.0503 20.9347 38.2317 20.7805L37.7902 25.0654ZM38.3891 19.2378L38.7102 16.1165C38.8626 14.6104 39.0661 13.4828 39.5331 12.8452C39.8843 12.3644 40.5614 12.1126 41.784 12.1126H47.5128L47.5125 9H41.7836C39.4054 9 37.938 9.69422 36.9584 11.0325C36.0941 12.2167 35.7707 13.7957 35.5625 15.8101L35.2321 19.0632C34.6638 19.045 34.0858 19.0381 33.4989 19.0381C29.6603 19.0381 26.1687 19.3921 23.629 19.9636C20.768 20.61 19 21.6423 19 22.908C19 23.001 19.0093 23.0918 19.0279 23.1803L22.8038 55.0757C22.9195 56.0555 24.2758 56.8496 26.4157 57.3327C28.2441 57.7459 30.7305 58 33.4991 58C36.2676 58 38.754 57.7459 40.5843 57.3331C42.7241 56.85 44.0809 56.0559 44.1962 55.0761L47.9721 23.1807C47.9907 23.0899 48 22.9991 48 22.9084C48 21.6425 46.2296 20.6103 43.3687 19.964C41.9663 19.6484 40.2725 19.3989 38.3892 19.2379L38.3891 19.2378ZM35.0751 20.6123C34.5574 20.599 34.0305 20.5944 33.4989 20.5944C29.7691 20.5944 26.4044 20.9324 23.9825 21.4793C21.9213 21.9418 20.6295 22.4477 20.5853 22.8856L20.5969 22.9877C20.7401 23.4119 22.0067 23.8927 23.9825 24.3397C26.4044 24.8839 29.7691 25.2219 33.499 25.2219C33.8711 25.2219 34.2383 25.2196 34.6035 25.2128L35.0751 20.6123Z" fill="white"/>
<path fill-rule="evenodd" clip-rule="evenodd" d="M26.3919 51.488C26.3919 52.3861 29.6115 53.1171 33.5819 53.1171C37.5523 53.1171 40.7719 52.3887 40.7719 51.488L43.0681 32.0072C43.082 31.8803 43.1254 31.575 42.7583 31.8511C41.9064 32.4935 39.7732 33.0117 37.0315 33.2514L37.6996 26.7171C39.8698 26.5656 41.8191 26.2917 43.3969 25.9341C44.5014 25.683 45.4451 25.3754 46.1825 25.0179L42.6577 54.9062C42.6277 55.1642 41.7324 55.4967 40.2812 55.8248C38.582 56.2092 36.2328 56.4471 33.5921 56.4471C30.9515 56.4471 28.6045 56.2096 26.903 55.8248C25.4518 55.4945 24.556 55.1642 24.5241 54.9062L21 25.0179C21.7373 25.3754 22.6811 25.683 23.7856 25.9341C26.3071 26.5042 29.7766 26.8595 33.5909 26.8595C33.9054 26.8595 34.2179 26.8572 34.5278 26.8527L33.8596 33.3961H33.5794C31.9213 33.3961 30.3621 33.301 29.0005 33.1313C26.8096 32.8597 25.1404 32.3984 24.4099 31.8506C24.0424 31.5722 24.0862 31.8802 24.1001 32.0067L24.5983 36.2354L24.5937 36.2357L26.3919 51.488ZM33.2462 46.6415C32.61 46.7298 32.1648 47.3112 32.2544 47.9381C32.344 48.5673 32.9341 49.0059 33.5726 48.9177C34.2112 48.8294 34.654 48.2457 34.5645 47.6188C34.4749 46.9923 33.8848 46.5533 33.2462 46.6415ZM29.7306 41.3288C28.7157 41.4712 28.0083 42.3966 28.1505 43.3969C28.2928 44.3968 29.2343 45.0938 30.2519 44.9537C31.2667 44.8113 31.9741 43.8837 31.8319 42.8833C31.6847 41.8856 30.7455 41.1863 29.7306 41.3288ZM30.6171 36.4937C29.9282 36.5888 29.4461 37.2175 29.5445 37.8963C29.641 38.5774 30.2815 39.05 30.9704 38.9531C31.6593 38.858 32.139 38.2292 32.0429 37.5504C31.9441 36.8694 31.3059 36.3967 30.6171 36.4937Z" fill="#2862B6"/>
</svg>
