<svg width="82" height="82" viewBox="0 0 82 82" fill="none" xmlns="http://www.w3.org/2000/svg">
<rect x="51.9844" y="82" width="60.0282" height="60.0282" rx="30.0141" transform="rotate(-150 51.9844 82)" fill="#5DBFF7"/>
<path d="M40.9961 59C45.77 59 50.3483 57.1563 53.7239 53.8743C57.0997 50.5926 58.9961 46.1412 58.9961 41.5C58.9961 36.8588 57.0997 32.4076 53.7239 29.1257C50.3484 25.8437 45.7699 24 40.9961 24C36.2223 24 31.6439 25.8437 28.2683 29.1257C24.8925 32.4074 22.9961 36.8588 22.9961 41.5C23.0014 46.1396 24.8995 50.5881 28.274 53.8687C31.6485 57.1494 36.2236 58.9949 40.9961 59ZM40.9961 27.0077C44.9494 27.0077 48.7412 28.5346 51.5363 31.2523C54.3317 33.9701 55.9022 37.656 55.9022 41.4997C55.9022 45.3435 54.3317 49.0297 51.5363 51.7472C48.7409 54.4649 44.9496 55.9918 40.9961 55.9918C37.0426 55.9918 33.251 54.4649 30.4559 51.7472C27.6605 49.0294 26.09 45.3435 26.09 41.4997C26.0948 37.6577 27.667 33.9742 30.4614 31.2573C33.2558 28.5405 37.0442 27.012 40.9965 27.0074L40.9961 27.0077Z" fill="white"/>
<path d="M33.2394 49.5882C33.4674 49.588 33.6728 49.4547 33.7602 49.2501C33.8476 49.0455 33.7997 48.8099 33.639 48.6529C31.6898 46.7547 30.5952 44.182 30.5952 41.4998C30.5952 38.8177 31.6898 36.245 33.639 34.3467C33.8587 34.1331 33.8587 33.7865 33.639 33.5728C33.4192 33.3592 33.0626 33.3592 32.8429 33.5728C30.6831 35.6766 29.4702 38.5273 29.4702 41.4996C29.4702 44.4719 30.6831 47.3228 32.8429 49.4265C32.9479 49.5292 33.0905 49.5873 33.2394 49.5878L33.2394 49.5882Z" fill="white"/>
<path d="M48.3535 49.4269C48.4595 49.53 48.6031 49.5878 48.7531 49.5883C48.902 49.5878 49.0446 49.5297 49.1496 49.4269C51.3094 47.3232 52.5223 44.4724 52.5223 41.5001C52.5223 38.5278 51.3094 35.6769 49.1496 33.5733C48.9298 33.3597 48.5733 33.3597 48.3535 33.5733C48.1338 33.7869 48.1338 34.1336 48.3535 34.3472C50.3027 36.2454 51.3973 38.8181 51.3973 41.5003C51.3973 44.1825 50.3027 46.7551 48.3535 48.6534C48.1343 48.8673 48.1343 49.2134 48.3535 49.4273L48.3535 49.4269Z" fill="white"/>
<path d="M40.9768 50.5238H40.9964C41.8002 50.5238 42.543 50.1068 42.945 49.4301C43.3468 48.7533 43.3468 47.9193 42.945 47.2426C42.543 46.5658 41.8001 46.1488 40.9964 46.1488C40.1948 46.1488 39.4538 46.5634 39.051 47.237C38.6482 47.9108 38.6444 48.7421 39.0412 49.4191C39.4379 50.0963 40.1753 50.5169 40.9768 50.5238Z" fill="white"/>
<path d="M40.2002 45.0551H41.7923C42.0849 45.0556 42.3664 44.945 42.5766 44.7468C42.7865 44.5488 42.9088 44.2787 42.9173 43.9941L43.2463 33.6035C43.2543 33.3081 43.1396 33.022 42.9279 32.8101C42.7162 32.5979 42.4254 32.4778 42.1213 32.4771H39.8713C39.5672 32.4778 39.2764 32.5979 39.0647 32.8101C38.853 33.022 38.7383 33.3081 38.7463 33.6035L39.0753 43.9941C39.0843 44.2785 39.2066 44.5483 39.4165 44.7462C39.6267 44.9445 39.9077 45.0551 40.2002 45.0551Z" fill="white"/>
</svg>
