<svg width="69" height="69" viewBox="0 0 69 69" fill="none" xmlns="http://www.w3.org/2000/svg">
<circle cx="34.0589" cy="34.0589" r="34.0589" fill="#5DBFF7"/>
<path d="M31.7442 55.9001C37.8975 57.0939 43.2244 52.4102 43.2244 46.4404C43.2244 43.318 41.6631 40.4707 39.2752 38.7259V17.6942C39.2752 14.5718 36.7956 12 33.5809 12C30.4585 12 27.8867 14.5715 27.8867 17.6942V38.7259C25.0397 40.8384 23.3865 44.4202 24.2129 48.4611C24.9481 52.1348 27.9786 55.1657 31.7443 55.9002L31.7442 55.9001ZM29.0808 40.4707L29.9072 39.8279V17.7859C29.9072 15.7653 31.5603 14.2041 33.489 14.2041C35.5096 14.2041 37.1627 15.8573 37.1627 17.7859V39.8279L37.9892 40.4707C39.9178 41.8484 41.02 44.1445 41.02 46.5324C41.02 48.553 40.1936 50.4816 38.8159 51.8593C37.3463 53.237 35.5096 54.0634 33.489 54.0634C29.7233 54.0634 26.7844 51.4 26.1415 48.0937C25.6825 45.0628 26.7847 42.1239 29.0808 40.4707Z" fill="white"/>
<path d="M33.5809 51.8589C35.0505 51.8589 36.4279 51.3079 37.4381 50.2977C38.4484 49.2874 38.9994 47.9097 38.9994 46.4404C38.9994 42.7667 35.8769 41.5729 35.0502 40.8381L35.0505 25.3169H32.0196V40.8381C31.3768 41.5729 27.3357 43.0422 28.254 47.5427C28.7133 49.9303 30.8258 51.859 33.5809 51.859L33.5809 51.8589Z" fill="#2862B6"/>
<path d="M46.8979 18.2446H41.663V20.3571H46.8979C47.4489 20.3571 47.9082 19.8978 47.9082 19.3469C47.9998 18.704 47.5408 18.2447 46.8979 18.2447V18.2446Z" fill="white"/>
<path d="M45.8878 24.8574C45.8878 24.3065 45.4285 23.8472 44.8776 23.8472H41.7551V25.9597H44.8776C45.4285 25.8678 45.8878 25.4084 45.8878 24.8575V24.8574Z" fill="white"/>
<path d="M48 30.3682C48 29.8172 47.5406 29.3579 46.9897 29.3579H41.7548V31.4704H46.9897C47.541 31.4704 48 30.9195 48 30.3682V30.3682Z" fill="white"/>
</svg>
