<svg width="69" height="69" viewBox="0 0 69 69" fill="none" xmlns="http://www.w3.org/2000/svg">
<circle cx="34.0589" cy="34.0589" r="34.0589" fill="#5DBFF7"/>
<rect x="21" y="14" width="26" height="16" fill="white"/>
<rect x="21" y="31" width="7" height="11" fill="white"/>
<rect x="23" y="42" width="22" height="12" fill="white"/>
<path d="M44.7794 13H23.22C22.3674 13 21.5493 13.3323 20.9457 13.9242C20.3421 14.5162 20.0019 15.3191 20 16.1571V48.8665C20.0016 49.5984 20.2622 50.3066 20.7365 50.8708C21.2108 51.4349 21.8701 51.8193 22.601 51.9586V54.2759C22.601 54.4679 22.6786 54.6522 22.8168 54.7879C22.9549 54.9237 23.1424 55 23.3378 55H44.6547C44.8501 55 45.0376 54.9237 45.1757 54.7879C45.3139 54.6522 45.3915 54.4679 45.3915 54.2759V51.9586C46.1241 51.8209 46.7846 51.4369 47.2605 50.8728C47.7365 50.3087 47.998 49.5994 48 48.8665V16.1571C47.998 15.3192 47.6579 14.5162 47.0543 13.9243C46.4507 13.3324 45.632 13 44.7794 13ZM43.9172 53.5516H24.0816V52.0238H43.9172V53.5516ZM23.9638 39.6407V33.9996C23.9638 33.5997 24.2937 33.2754 24.7006 33.2754C25.1075 33.2754 25.4374 33.5997 25.4374 33.9996V39.6407C25.4374 40.0406 25.1075 40.3649 24.7006 40.3649C24.2937 40.3649 23.9638 40.0406 23.9638 39.6407ZM46.5261 27.2584H21.4737V16.1572C21.4737 15.7027 21.6579 15.2669 21.9855 14.9462C22.3135 14.6255 22.7575 14.4464 23.22 14.4484H44.7794C45.2419 14.4464 45.686 14.6255 46.0139 14.9462C46.3415 15.2669 46.5257 15.7027 46.5257 16.1572L46.5261 27.2584Z" fill="#2862B6"/>
</svg>
