<svg width="69" height="69" viewBox="0 0 69 69" fill="none" xmlns="http://www.w3.org/2000/svg">
<circle cx="34.0589" cy="34.0589" r="34.0589" fill="#5DBFF7"/>
<path d="M55.6015 32.6212L52.8024 31.1378C52.0246 30.714 51.4597 29.9836 51.2452 29.1242C51.1713 28.8491 51.0907 28.5603 51.0035 28.3053C50.7383 27.4316 50.8736 26.4853 51.3725 25.7208L52.9499 23.1902H52.9502C53.07 22.9823 53.07 22.7266 52.9502 22.519C52.8264 22.3041 52.5939 22.1748 52.3459 22.1831L48.9896 22.3037V22.3041C48.1446 22.3184 47.3307 21.9831 46.7408 21.3779C46.5462 21.19 46.3514 21.0018 46.1501 20.8207C45.4974 20.1982 45.1555 19.3175 45.2172 18.4174L45.3245 15.2828C45.3328 15.0347 45.2039 14.8023 44.9889 14.6784C44.7813 14.5587 44.5254 14.5587 44.3178 14.6784L41.4311 16.4978C40.6769 16.9642 39.7615 17.0935 38.9072 16.8534H38.8534H38.8537C37.9708 16.6433 37.2178 16.0705 36.7793 15.276L35.2354 12.3694C35.123 12.1458 34.8951 12.0035 34.6448 12C34.3949 11.9984 34.165 12.1353 34.0475 12.356L32.5103 15.2623C32.11 16.0344 31.3994 16.5987 30.5569 16.8132L30.0602 16.9409L29.9529 16.9743L29.9526 16.974C29.126 17.2001 28.2425 17.0632 27.5228 16.5983L24.5961 14.7723C24.3869 14.6418 24.1226 14.636 23.9084 14.758C23.6938 14.8799 23.5635 15.1098 23.5689 15.3566L23.6896 18.7733H23.6899C23.7078 19.6849 23.3365 20.5612 22.6694 21.1829L22.5083 21.344C21.8887 21.9751 21.0363 22.3225 20.1522 22.304L16.581 22.1833V22.183C16.3333 22.1747 16.1009 22.304 15.977 22.5189C15.857 22.7265 15.857 22.9822 15.977 23.1901L17.8094 26.1168H17.8097C18.2984 26.916 18.4182 27.8875 18.1386 28.7815C18.1335 28.8305 18.1201 28.8783 18.0982 28.9225C17.882 29.7812 17.3175 30.511 16.5409 30.9364L13.3525 32.6281C13.1353 32.7452 13 32.972 13 33.2187C13 33.4655 13.1353 33.6922 13.3525 33.8093L16.353 35.3867C17.1685 35.8312 17.7546 36.6034 17.9638 37.5079L18.0578 37.8906H18.0581C18.2596 38.6751 18.1284 39.5084 17.6954 40.1929L15.7688 43.2741C15.649 43.4817 15.649 43.7377 15.7688 43.9453C15.8929 44.1602 16.1251 44.2895 16.3731 44.2812L19.7765 44.1605V44.1602C20.627 44.1236 21.4516 44.4563 22.0384 45.0731C22.1794 45.2275 22.3272 45.3886 22.4746 45.5296H22.4749C23.055 46.1337 23.363 46.9484 23.3273 47.7849L23.2066 51.2688C23.1986 51.5168 23.3279 51.7489 23.5428 51.8725C23.7577 51.996 24.0233 51.9912 24.2334 51.8594L26.9924 50.1343C27.7607 49.6663 28.6965 49.5606 29.5501 49.8459C29.8456 49.9331 30.1408 50.0203 30.4429 50.0942C31.33 50.3028 32.0865 50.8788 32.5236 51.6783L34.0675 54.5849C34.185 54.8056 34.4152 54.9425 34.6648 54.9406C34.9122 54.94 35.1392 54.8034 35.2558 54.5849L36.7662 51.7321H36.7659C37.1764 50.9323 37.9093 50.3458 38.7798 50.121L39.5653 49.906L39.565 49.9063C40.4075 49.6631 41.3136 49.7978 42.0488 50.2754L44.7005 51.9333H44.7001C44.9116 52.0658 45.1787 52.0702 45.3943 51.9448C45.6095 51.8193 45.7378 51.585 45.7273 51.336L45.6133 48.087C45.5901 47.2302 45.9346 46.4046 46.5596 45.8181C46.7608 45.6236 46.9623 45.4153 47.1569 45.2074H47.1572C47.795 44.5347 48.6947 44.1742 49.6207 44.2207L52.5741 44.3214C52.826 44.3472 53.067 44.2131 53.1782 43.9858C53.2982 43.7782 53.2982 43.5222 53.1782 43.3146L51.4932 40.6295H51.4935C51.0337 39.8839 50.9188 38.9758 51.178 38.139C51.2585 37.8639 51.3257 37.5818 51.3862 37.3H51.3859C51.5798 36.4441 52.129 35.7119 52.8963 35.2861L55.5814 33.8428C55.7985 33.7257 55.9338 33.4989 55.9338 33.2522C55.9338 33.0054 55.7985 32.7787 55.5814 32.6616L55.6015 32.6212ZM34.6517 46.8521C31.1053 46.8521 27.7042 45.4432 25.1965 42.9357C22.689 40.428 21.2801 37.0269 21.2801 33.4805C21.2801 29.9342 22.689 26.5331 25.1965 24.0253C27.7042 21.5179 31.1053 20.109 34.6517 20.109C38.198 20.109 41.5991 21.5179 44.1069 24.0253C46.6146 26.5331 48.0232 29.9342 48.0232 33.4805C48.0216 37.0262 46.6121 40.4265 44.105 42.9341C41.5976 45.4412 38.1974 46.8505 34.6514 46.8523L34.6517 46.8521Z" fill="white"/>
<path d="M34.6517 21.4512C31.4613 21.4512 28.4018 22.7187 26.146 24.9746C23.8902 27.2305 22.6229 30.29 22.6229 33.4802C22.6229 36.6705 23.8902 39.7301 26.146 41.9858C28.4019 44.2417 31.4614 45.5093 34.6517 45.5093C37.8419 45.5093 40.9016 44.2417 43.1573 41.9858C45.4132 39.73 46.6807 36.6705 46.6807 33.4802C46.6772 30.2911 45.4088 27.2335 43.1535 24.9787C40.8983 22.7238 37.8407 21.4552 34.652 21.4515L34.6517 21.4512Z" fill="#2862B6"/>
<path d="M58 8L9 60" stroke="white" stroke-width="2"/>
</svg>
