<svg width="69" height="69" viewBox="0 0 69 69" fill="none" xmlns="http://www.w3.org/2000/svg">
<circle cx="34.0589" cy="34.0589" r="34.0589" fill="#5DBFF7"/>
<path fill-rule="evenodd" clip-rule="evenodd" d="M36.7227 52.0371C35.1274 52.6804 33.4256 53.0072 31.7092 52.9999C28.0754 52.9999 24.5904 51.5339 22.0196 48.924C19.449 46.3144 18.0033 42.7741 18 39.0821C18 31.5623 31.709 14 31.709 14C35.4891 18.9016 38.9278 24.0653 42 29.454C41.9214 29.5204 41.8491 29.5935 41.784 29.6734C40.9443 30.758 33.5802 40.2887 33.5802 44.9809H33.5799C33.5709 47.6848 34.7175 50.2592 36.7225 52.0373L36.7227 52.0371Z" fill="#2862B6"/>
<path fill-rule="evenodd" clip-rule="evenodd" d="M50 45.3215C50 47.0929 49.3158 48.7917 48.0979 50.0439C46.88 51.2964 45.2281 52 43.5059 52C41.7873 51.9839 40.1433 51.2756 38.9269 50.0268C37.7104 48.7783 37.0187 47.0888 37 45.3215C37 42.8572 40.5946 36.9915 43.5059 33C44.0929 33.8255 44.704 34.725 45.3512 35.6617C47.7233 39.272 50 43.3505 50 45.3216V45.3215Z" fill="white"/>
<path d="M58 8L9 60" stroke="white" stroke-width="2"/>
</svg>
