<svg width="69" height="69" viewBox="0 0 69 69" fill="none" xmlns="http://www.w3.org/2000/svg">
<circle cx="34.0589" cy="34.0589" r="34.0589" fill="#5DBFF7"/>
<path d="M49.3365 32.1517L39.8645 13.0052C38.9691 11.1632 37.1313 10 35.0578 10C33.0316 10 31.1934 11.1634 30.251 13.0052C30.1567 13.1506 22.4757 28.5648 20.7319 32.1517C18.4227 36.9505 18.4227 42.1854 20.7319 46.9357C23.4651 52.5586 28.9316 56 35.0577 56C37.5553 56 40.0058 55.4184 42.2207 54.255C45.9907 52.3163 48.8179 48.9229 50.1848 44.6575C51.5046 40.5375 51.2218 35.9325 49.3367 32.1517H49.3365ZM47.3104 43.6881C46.2266 47.1298 43.9174 49.8925 40.8544 51.4438C39.0636 52.4131 37.0844 52.898 35.0582 52.898C30.11 52.898 25.6804 50.0867 23.4656 45.5302C21.5808 41.7011 21.5808 37.4353 23.4656 33.5576C25.2091 29.9705 32.8905 14.5565 32.9847 14.4111C33.3614 13.6354 34.1628 13.1506 35.0579 13.1506C35.9534 13.1506 36.7544 13.6355 37.1315 14.4594L46.6035 33.6059C48.1116 36.6598 48.3943 40.3436 47.3105 43.6882L47.3104 43.6881Z" fill="white"/>
<path d="M43.023 37.9323C43.3086 38.0253 43.6421 37.8393 43.7371 37.5607L43.9752 36.6317C44.0705 36.353 43.8799 36.0277 43.5942 35.935L41.4516 35.3777L42.0229 33.2873C42.1182 33.0087 41.9276 32.6833 41.642 32.5907L40.6897 32.3583C40.4041 32.2653 40.0706 32.4513 39.9757 32.73L39.2616 35.4243L36.1189 37.1896V33.6126L38.1187 31.6616C38.3569 31.4292 38.3569 31.1042 38.1187 30.8719L37.3568 30.1743C37.1187 29.9419 36.7855 29.9419 36.5474 30.1743L34.9761 31.7072L33.4048 30.1743C33.1666 29.9419 32.8335 29.9419 32.5954 30.1743L31.8813 30.8709C31.6431 31.1033 31.6431 31.4283 31.8813 31.6606L33.8811 33.6116V37.1886L30.7384 35.4233L30.0243 32.729C29.929 32.4503 29.6434 32.2644 29.3103 32.3573L28.358 32.5897C28.0724 32.6827 27.8818 32.9614 27.9771 33.2864L28.5484 35.3767L26.4058 35.934C26.1201 36.027 25.9295 36.3057 26.0248 36.6307L26.2629 37.5597C26.3583 37.8384 26.6439 38.0244 26.977 37.9314L29.7387 37.2347L32.8814 39L29.7387 40.7653L26.977 40.0686C26.6914 39.9756 26.3579 40.1616 26.2629 40.4403L26.0248 41.3693C25.9295 41.648 26.1201 41.9733 26.4058 42.066L28.5484 42.6233L27.9771 44.7136C27.8818 44.9923 28.0724 45.3176 28.358 45.4103L29.3103 45.6426C29.5959 45.7356 29.9294 45.5497 30.0243 45.271L30.7384 42.5767L33.8811 40.8114V44.3884L31.8813 46.3394C31.6431 46.5717 31.6431 46.8968 31.8813 47.1291L32.5954 47.8258C32.8335 48.0581 33.1667 48.0581 33.4048 47.8258L34.9761 46.2928L36.5474 47.8258C36.7855 48.0581 37.1187 48.0581 37.3568 47.8258L38.0709 47.1291C38.309 46.8967 38.309 46.5717 38.0709 46.3394L36.0711 44.3884V40.8114L39.2137 42.5767L39.9278 45.271C40.0231 45.5497 40.3088 45.7356 40.6419 45.6426L41.5941 45.4103C41.8798 45.3173 42.0704 45.0386 41.9751 44.7136L41.4038 42.6233L43.5464 42.066C43.8321 41.973 44.0227 41.6943 43.9274 41.3693L43.6892 40.4403C43.5939 40.1616 43.3083 39.9756 42.9751 40.0686L40.2135 40.7653L37.1187 39.0007L40.2613 37.2353L43.023 37.9323Z" fill="#2862B6"/>
</svg>
