<svg width="69" height="69" viewBox="0 0 69 69" fill="none" xmlns="http://www.w3.org/2000/svg">
<circle cx="34.0589" cy="34.0589" r="34.0589" fill="#5DBFF7"/>
<path d="M16.5 24.5V17L19 14.5L27.5 13H36.5L46 14L50.5 16V23.5L49.5 25.5L43.5 27L32.5 28L20 26.5L16.5 24.5Z" fill="white"/>
<path d="M36.4752 48.4788C35.581 48.4788 35.581 47.1018 36.4752 47.1018C38.1096 47.1018 39.9742 47.1018 42.0024 46.8497C42.8868 46.7433 43.0504 48.1008 42.1659 48.2071C40.061 48.4788 38.1483 48.4788 36.4752 48.4788ZM21.1234 19.7573V25.9439C26.1991 27.1949 31.9858 27.3498 37.1966 27.0878L37.1772 20.8723C31.9573 21.1343 26.228 20.9599 21.1234 19.7573ZM19.7683 25.5655V19.3789C18.7878 19.0783 17.9805 18.7295 17.3553 18.3413V24.0717C17.3553 24.7414 19.2874 25.4106 19.7683 25.5655ZM47.2314 19.3789V25.5655C47.7124 25.4106 49.6445 24.7413 49.6445 24.072V18.3319C49.0294 18.7201 48.2123 19.0688 47.2314 19.3789ZM45.8764 25.9439V19.7476C43.5021 20.3196 40.9642 20.6202 38.5318 20.7852L38.5225 27.0108C40.9832 26.8361 43.4827 26.5354 45.8764 25.9439ZM36.2249 15.1224C38.3011 15.6944 38.3011 17.2653 36.2249 17.8372C34.6773 18.2638 32.332 18.2638 30.7744 17.8372C28.6981 17.2653 28.6981 15.6944 30.7744 15.1224C32.3317 14.6955 34.6773 14.6955 36.2249 15.1224ZM35.8691 16.4313C34.5715 16.0822 32.4278 16.0822 31.1298 16.4313C31.0337 16.4603 30.9763 16.4798 31.1298 16.5283C32.4274 16.8774 34.5711 16.8774 35.8691 16.5283C35.9075 16.5088 36.0133 16.4993 35.8691 16.4313ZM18.6523 26.5742L20.8731 52.3189C24.8722 56.867 41.8101 56.6144 46.1358 52.29L48.3466 26.5747C41.8868 29.2021 25.3811 29.3086 18.6523 26.5742ZM49.7692 25.8369L47.4624 52.6387C47.4237 53.0559 46.7892 53.5407 46.4818 53.7929C41.2139 57.9913 25.2183 58.2048 20.2482 53.6185C20.0079 53.3858 19.5657 52.998 19.537 52.6391L17.2302 25.8373C16.4322 25.3137 16 24.8192 16 23.8492V16.5574C15.9993 12.4461 30.6879 12 33.5044 12C36.2442 12 51 12.4461 51 16.48V23.859C51.0003 24.8388 50.5765 25.3041 49.7692 25.8369ZM21.5742 18.4579C28.1013 19.9705 38.7431 19.9607 45.2506 18.4969C47.9613 17.8859 49.6438 17.1685 49.6438 16.48C49.6438 14.0169 35.3011 13.3676 33.5034 13.3676C31.3984 13.3676 17.5462 14.1432 17.3541 16.4417C17.3835 17.5177 20.8249 18.2835 21.5742 18.4579ZM36.4745 36.1838C35.5804 36.1838 35.5804 34.8068 36.4745 34.8068C37.7341 34.8068 39.1279 34.8068 40.608 34.7005C41.5022 34.6325 41.5983 35.9898 40.7135 36.0579C39.1569 36.1838 37.7434 36.1838 36.4745 36.1838ZM36.4745 33.8951C35.5804 33.8951 35.5804 32.5182 36.4745 32.5182C38.1089 32.5182 39.9735 32.5182 42.0017 32.266C42.8862 32.1596 43.0497 33.5171 42.1653 33.6234C40.0603 33.8951 38.1476 33.8951 36.4745 33.8951ZM36.4745 43.4755C35.5804 43.4755 35.5804 42.0986 36.4745 42.0986C37.859 42.0986 39.2239 42.0986 40.608 41.9922C41.5022 41.9242 41.5983 43.2816 40.7135 43.3496C39.3011 43.456 37.888 43.4755 36.4745 43.4755ZM36.4745 41.1869C35.5804 41.1869 35.5804 39.8099 36.4745 39.8099C38.1089 39.8099 39.9735 39.8099 42.0017 39.5577C42.8862 39.4513 43.0497 40.8088 42.1653 40.9151C40.0603 41.1868 38.1476 41.1869 36.4745 41.1869ZM36.4745 50.7672C35.5804 50.7672 35.5804 49.3903 36.4745 49.3903C37.859 49.3903 39.2239 49.3903 40.608 49.2839C41.5022 49.2159 41.5983 50.5733 40.7135 50.6413C39.3011 50.7477 37.888 50.7672 36.4745 50.7672Z" fill="#2862B6"/>
<path d="M19.537 52.6391V43.0558H47.4537L46.2037 52.6391L43.287 55.5558L34.9537 56.8058L25.787 55.5558L19.537 52.6391Z" fill="#2862B6"/>
<path d="M47.8703 43.0558C47.8703 45.357 41.5277 47.2224 33.7037 47.2224C25.8796 47.2224 19.537 45.357 19.537 43.0558C19.537 40.7546 25.6713 43.0558 33.4953 43.0558C41.3194 43.0558 47.8703 40.7546 47.8703 43.0558Z" fill="#2862B6"/>
</svg>
