<svg width="69" height="69" viewBox="0 0 69 69" fill="none" xmlns="http://www.w3.org/2000/svg">
<circle cx="34.0589" cy="34.0589" r="34.0589" fill="#5DBFF7"/>
<path d="M53.6995 23.9092C54.6178 21.4423 50.7615 18.6099 48.5579 17.2394C48.099 15.5948 46.7217 14.2243 46.5379 14.0417C46.1705 13.6761 45.6196 13.6761 45.2526 14.0417C44.8852 14.4072 44.8852 14.9554 45.2526 15.3207C45.8035 15.8689 47.2726 17.6049 46.8133 18.7013C46.5379 19.4322 44.8852 20.8941 36.6218 20.4374V19.8892C38.7335 19.7066 40.2945 17.6964 40.0191 15.5951C39.7436 12.7626 36.4383 11.118 33.9593 12.6715C33.6838 12.8541 33.2249 12.8541 32.9494 12.6715C30.4704 11.0269 27.165 12.58 26.8896 15.4125C26.6141 17.6053 28.2668 19.6154 30.4704 19.798V20.4377C22.207 20.9859 20.5543 19.4328 20.2789 18.7016C19.8199 17.6053 21.1971 15.8692 21.8396 15.321C22.207 14.9554 22.207 14.4072 21.8396 14.042C21.4723 13.6764 20.9214 13.6764 20.5543 14.042C20.2786 14.2243 18.9013 15.5948 18.4424 17.2394C16.6058 18.3358 12.3825 21.3509 13.3005 23.9092C11.9232 26.102 11.2804 28.7515 13.2086 30.4876C13.025 31.4925 12.7496 33.32 14.0349 34.8732C13.8514 35.604 13.6675 37.066 14.1268 38.345C11.9232 45.2889 16.7897 53.4204 16.9732 53.7861C21.1049 60.1819 27.0726 50.8625 30.4701 43.6445C30.6536 44.01 30.929 44.1927 31.2964 44.1927H35.6116C36.0706 44.1927 36.3461 43.9186 36.438 43.553C39.8353 50.8622 45.8032 60.273 50.0269 53.8771C50.2105 53.5116 55.0769 45.4717 52.8733 38.436C53.3323 37.157 53.1488 35.695 52.9652 34.9642C54.1589 33.5022 53.9751 31.5835 53.7916 30.5786C55.7194 28.7514 55.0769 26.1018 53.6996 23.9091L53.6995 23.9092ZM36.5297 37.705C40.2941 39.4411 46.7213 42.0906 50.4854 40.7201C48.1899 46.0194 41.3036 42.2732 36.5297 38.8929V37.705ZM51.3118 36.1519C51.8627 42.0906 41.9466 38.2532 36.5297 35.7863V34.5073C40.5695 35.7863 47.5476 37.8879 51.3118 36.1519ZM36.5297 25.8277C40.6614 26.2845 49.2924 27.1982 52.4136 25.371C56.1779 32.2235 44.2422 30.3048 36.5297 28.4776V25.8277ZM48.466 19.3405C50.4861 20.8025 52.2303 22.5382 51.9549 23.2694C51.863 23.635 50.3941 25.5536 36.5299 23.9091V22.173C40.2026 22.4471 47.1802 22.7212 48.4662 19.3405H48.466ZM30.3778 34.416V35.695C24.9608 38.1619 15.1362 41.9993 15.6871 36.0606C19.4517 37.8881 26.4295 35.7865 30.3778 34.416ZM14.5861 25.3707C17.7995 27.1979 26.5224 26.2845 30.4699 25.8274V28.4769C22.7574 30.3045 10.7299 32.2232 14.5861 25.3707ZM30.3778 37.7052V38.893C25.6953 42.2737 18.8091 45.9281 16.6055 40.6291C20.2782 42.0907 26.7057 39.3497 30.3778 37.7052ZM18.5336 19.3405C19.9109 22.6297 26.797 22.4471 30.4699 22.2641V24.0002C16.5142 25.5536 15.137 23.7261 15.0449 23.2694C14.7695 22.5386 16.5141 20.8025 18.5338 19.3405H18.5336ZM30.3778 30.3045V32.4973C24.777 34.5074 14.2186 37.3396 14.9528 31.4923C18.901 32.8628 26.2461 31.3097 30.3778 30.3045ZM18.5336 52.7806C18.5336 52.6891 15.5037 47.6642 15.4118 42.3648C18.3498 47.116 24.4095 44.9232 29.1841 41.9081C26.9809 46.9333 21.5636 57.4401 18.5338 52.7804L18.5336 52.7806ZM34.6937 42.274H32.2147L32.3066 19.5238C32.3066 18.61 31.5722 17.9707 30.7458 17.9707C29.5521 17.9707 28.5423 16.8743 28.7258 15.5952C28.9093 14.0421 30.6539 13.2198 31.9392 14.1333C32.8575 14.7729 34.0509 14.7729 35.0611 14.1333C36.3464 13.311 38.091 14.1333 38.2745 15.6864C38.3664 16.9654 37.4482 18.1533 36.2545 17.9707C35.3362 17.8792 34.7853 18.7015 34.8772 19.7067L34.6937 42.274ZM48.466 52.7806C45.4361 57.4403 40.0193 47.0245 37.8157 41.9991C42.5902 45.0142 48.6502 47.207 51.588 42.4558C51.4961 47.664 48.4662 52.6891 48.4662 52.7807L48.466 52.7806ZM36.5297 32.4973V30.396C40.6614 31.4009 48.0064 32.9543 52.0468 31.4923C52.6893 37.3399 42.1307 34.416 36.5297 32.4973Z" fill="#2862B6"/>
<path d="M35.1044 45H30.8956C30.3583 45 30 45.4001 30 46C30 46.5999 30.3583 47 30.8956 47H35.1044C35.6417 47 36 46.5999 36 46C36 45.4001 35.552 45 35.1044 45Z" fill="#2862B6"/>
<path d="M35.1044 48H30.8956C30.3583 48 30 48.4001 30 49C30 49.5999 30.3583 50 30.8956 50H35.1044C35.6417 50 36 49.5999 36 49C36 48.3997 35.552 48 35.1044 48Z" fill="#2862B6"/>
<path d="M35.1044 51H30.8956C30.3583 51 30 51.4001 30 52C30 52.5999 30.3583 53 30.8956 53H35.1044C35.6417 53 36 52.5999 36 52C36 51.3997 35.552 51 35.1044 51Z" fill="#2862B6"/>
<ellipse cx="52.5" cy="41" rx="11.5" ry="12" fill="#2862B6"/>
<path d="M54.3325 37.3359L54.0542 44.6821H52.1719L51.8936 37.3359H54.3325ZM51.8276 46.96C51.8276 46.6328 51.9448 46.3569 52.1792 46.1323C52.4136 45.9077 52.7236 45.7954 53.1094 45.7954C53.4902 45.7954 53.7954 45.9077 54.0249 46.1323C54.2593 46.3569 54.3765 46.6328 54.3765 46.96C54.3765 47.292 54.2593 47.5703 54.0249 47.7949C53.7954 48.0146 53.4902 48.1245 53.1094 48.1245C52.7236 48.1245 52.4136 48.0146 52.1792 47.7949C51.9448 47.5703 51.8276 47.292 51.8276 46.96Z" fill="white"/>
</svg>
