<svg width="39" height="39" viewBox="0 0 39 39" fill="none" xmlns="http://www.w3.org/2000/svg">
<rect width="39" height="39" rx="10" fill="#2862B6"/>
<path d="M13.6501 11.9985C14.8385 11.9985 16.4197 12.429 17.6689 13.3161C18.9181 14.2032 19.8432 15.5123 19.8432 17.3586C19.8432 20.932 19.8231 23.3122 19.2169 25.0522C18.6138 26.7848 17.4533 27.9498 14.9706 29.1727C13.3085 29.8604 11.2645 30.2101 9.6428 30.2223C9.52264 30.2188 9.40299 30.2811 9.33553 30.3786C8.9972 30.8764 8.56696 31.2884 8.15149 31.5736C7.74543 31.8525 7.35997 31.9918 7.11558 31.998C6.99644 31.7525 7.01018 31.3973 7.00178 31.1605C7.00178 30.5222 7.09292 29.7263 7.09292 29.1505C7.09394 29.1166 7.09012 29.0827 7.08146 29.0501C5.99902 25.1564 6 22.7184 6 18.4301C6 15.095 9.46095 11.998 13.6505 11.998L13.6501 11.9985ZM27.7096 11.9985C28.2359 11.9985 29.5383 11.9903 30.7379 12.1214C31.3376 12.1867 31.914 12.2862 32.3318 12.423C32.7495 12.5596 32.9463 12.7441 32.9692 12.8139C33.0823 13.1591 32.876 13.7364 32.4797 14.3997C32.0627 15.1495 31.5301 15.8371 31.2159 16.5211C30.4288 18.7071 29.3198 20.4517 28.1192 21.6356C26.9186 22.8194 25.6371 23.4336 24.5444 23.4336C24.2282 23.4336 23.7901 23.1128 23.4289 22.4173C23.0674 21.7221 22.8026 20.7044 22.8026 19.5027C22.8026 15.9466 23.1048 14.0275 23.7931 13.093C24.1373 12.6256 24.56 12.3746 25.1933 12.2109C26.1034 12.0381 26.9692 12 27.7093 11.9987L27.7096 11.9985ZM23.6682 12.1773C23.4956 12.3218 23.3413 12.4898 23.2016 12.6798C22.3108 13.8894 22.0745 15.9121 22.0745 19.503C22.0519 20.9278 22.3467 21.8871 22.8373 22.8418C22.3968 23.2867 22.029 24.043 22.029 24.8631C22.028 24.9087 22.0356 24.9543 22.0516 24.9972L23.0863 27.3599H22.3564L21.2434 24.6733C21.1973 24.5622 21.0583 24.5063 20.9361 24.5058H20.1393C20.5776 22.7092 20.5718 20.4666 20.5718 17.3591C20.5718 15.2745 19.4822 13.7249 18.0899 12.7361C17.9939 12.6678 17.8926 12.6095 17.7938 12.5461C18.7829 12.7306 19.7065 12.922 20.0934 13.0487C20.1958 13.0791 20.3119 13.0621 20.4007 13.004C20.8307 12.7229 21.9243 12.4315 23.0875 12.2557C23.278 12.2268 23.4745 12.2014 23.6682 12.1775L23.6682 12.1773Z" fill="white"/>
</svg>
