<svg width="69" height="69" viewBox="0 0 69 69" fill="none" xmlns="http://www.w3.org/2000/svg">
<circle cx="34.0589" cy="34.0589" r="34.0589" fill="#5DBFF7"/>
<path d="M56.8618 36.756C57.1365 36.4347 57.1745 35.9811 56.9375 35.6219C56.8618 35.499 54.9754 32.6261 51.3168 29.7342C47.9329 27.0598 42.3307 23.8748 34.8527 23.8748C30.2083 23.8748 26.3979 24.9994 23.4309 26.4359C24.7106 25.4342 26.0281 24.5931 27.3646 23.9128C30.0282 22.571 32.7862 21.8811 35.5731 21.8811C41.9522 21.8811 47.2412 24.5084 50.5587 26.7101C54.1796 29.1199 56.3122 31.5675 56.3311 31.5958C56.6723 31.9927 57.2697 32.0401 57.6677 31.6997C58.0657 31.3595 58.1133 30.7639 57.7718 30.3671C57.677 30.2632 55.4875 27.7306 51.6675 25.1788C48.1226 22.8162 42.4639 20 35.5825 20C32.5021 20 29.4498 20.7466 26.5211 22.2305C24.1988 23.4023 21.9524 25.0374 19.8293 27.0786C16.4266 30.3579 14.5023 33.6088 14.2371 34.0627C14.1234 34.2232 14.0381 34.3557 13.9716 34.4503C13.4407 34.8379 12 36.0193 12 37.4932C12 38.3719 12.4549 39.1564 13.2797 39.6857C13.8767 40.0733 14.6539 40.3093 15.3459 40.3093C16.6825 40.3093 19.2892 40.6211 21.6965 42.7191C24.9571 45.5636 29.63 47 35.592 47C42.2554 47 48.208 43.1159 51.4121 41.0368C55.3838 38.4385 56.8054 36.8224 56.8622 36.7562L56.8618 36.756ZM35.3833 43.8251C30.4449 43.8251 26.426 39.8181 26.426 34.8944C26.426 29.9707 30.4449 25.9637 35.3833 25.9637C40.3217 25.9637 44.3407 29.9707 44.3407 34.8944C44.3407 39.8181 40.3217 43.8251 35.3833 43.8251ZM15.3453 38.41C14.8335 38.41 13.8949 38.0603 13.8949 37.4837C13.8949 37.0111 14.6437 36.2553 15.1839 35.8961C15.2976 35.8206 15.4017 35.7164 15.4682 35.5935C15.487 35.5651 16.9754 33.1458 20.1034 30.7078C22.0086 29.2239 24.7763 27.5607 28.4161 26.5874C26.0369 28.572 24.5205 31.5581 24.5205 34.8849C24.5205 39.2508 27.1272 43.0219 30.8619 44.7319C27.5916 44.1838 24.9377 43.0308 22.9284 41.2826C20.0658 38.7782 16.9474 38.4097 15.3453 38.4097L15.3453 38.41ZM40.6914 44.3353C43.9996 42.4829 46.2364 38.939 46.2364 34.8941C46.2364 31.8888 44.9947 29.1577 43.0042 27.2015C43.2317 27.2865 43.4499 27.362 43.6773 27.4566C45.9332 28.3545 48.0847 29.6112 50.0944 31.1801C52.5494 33.1176 54.1798 35.0738 54.9095 36.0375C54.2175 36.6707 52.8053 37.8615 50.3787 39.4493C47.4877 41.3205 44.2555 43.2863 40.6919 44.335L40.6914 44.3353Z" fill="#2862B6"/>
<path d="M35.5003 28.0001C35.3825 28.0001 35.2747 28.0001 35.1565 28.01C35.8144 28.7562 36.2267 29.7479 36.2267 30.8181C36.2267 33.1649 34.3219 35.0695 31.9752 35.0695C30.8263 35.0695 29.7956 34.6178 29.0295 33.8815C29.0099 34.0877 29 34.2938 29 34.5C29 38.0936 31.9063 41 35.5 41C39.0936 41 42 38.0937 42 34.5C42.0003 30.9064 39.0841 28 35.5004 28L35.5003 28.0001Z" fill="#2862B6"/>
<path d="M12.0101 26C12.5657 26 13.0202 25.5869 13.0202 25.082V15.8361H22.9899C23.5455 15.8361 24 15.423 24 14.918C24 14.4131 23.5455 14 22.9899 14H12.0101C11.4545 14 11 14.4131 11 14.918V25.0812C11 25.5862 11.4545 25.9993 12.0101 25.9993L12.0101 26Z" fill="white"/>
<path d="M23.016 52.1352H12.9892V42.9324C12.9892 42.4195 12.5417 42 11.9946 42C11.4475 42 11 42.4195 11 42.9324V53.0676C11 53.5805 11.4475 54 11.9946 54H23.0054C23.5525 54 24 53.5805 24 53.0676C24 52.5548 23.5625 52.1353 23.0154 52.1353L23.016 52.1352Z" fill="white"/>
<path d="M46.9329 15.8354H56.1351V25.0819C56.1351 25.5869 56.5546 26 57.0674 26C57.5802 26 57.9997 25.5869 57.9997 25.0819L58 14.9181C58 14.4131 57.5805 14 57.0677 14H46.9323C46.4195 14 46 14.4131 46 14.9181C46 15.4231 46.4195 15.8362 46.9323 15.8362L46.9329 15.8354Z" fill="white"/>
<path d="M57.0822 42.0001C56.5771 42.0001 56.1641 42.4196 56.1641 42.9324L56.1637 52.1353H46.9181C46.4131 52.1353 46 52.5548 46 53.0676C46 53.5805 46.4131 54 46.9181 54H57.0819C57.5869 54 58 53.5805 58 53.0676V42.9324C58 42.4195 57.5869 42 57.0819 42L57.0822 42.0001Z" fill="white"/>
</svg>
