<svg width="27" height="30" viewBox="0 0 27 30" fill="none" xmlns="http://www.w3.org/2000/svg">
<path d="M16.4142 13.5858C17.1953 14.3668 17.1953 15.6332 16.4142 16.4142L3.68629 29.1421C2.90524 29.9232 1.63891 29.9232 0.857866 29.1421C0.0768168 28.3611 0.0768167 27.0948 0.857865 26.3137L12.1716 15L0.857863 3.68629C0.0768145 2.90524 0.0768144 1.63891 0.857863 0.857866C1.63891 0.0768168 2.90524 0.0768167 3.68629 0.857865L16.4142 13.5858ZM15 17L14 17L14 13L15 13L15 17Z" fill="#2862B6"/>
<path d="M26.4142 13.5858C27.1953 14.3668 27.1953 15.6332 26.4142 16.4142L13.6863 29.1421C12.9052 29.9232 11.6389 29.9232 10.8579 29.1421C10.0768 28.3611 10.0768 27.0948 10.8579 26.3137L22.1716 15L10.8579 3.68629C10.0768 2.90524 10.0768 1.63891 10.8579 0.857866C11.6389 0.0768168 12.9052 0.0768167 13.6863 0.857865L26.4142 13.5858ZM25 17L24 17L24 13L25 13L25 17Z" fill="#2862B6"/>
</svg>
