<svg width="37" height="35" viewBox="0 0 37 35" fill="none" xmlns="http://www.w3.org/2000/svg">
<path d="M18.9977 35C23.7716 35 28.3499 33.1563 31.7255 29.8743C35.1013 26.5926 36.9977 22.1412 36.9977 17.5C36.9977 12.8588 35.1013 8.40756 31.7255 5.12571C28.35 1.84374 23.7715 0 18.9977 0C14.2239 0 9.64546 1.84374 6.26984 5.12571C2.89409 8.40744 0.997681 12.8588 0.997681 17.5C1.00295 22.1396 2.9011 26.5881 6.27563 29.8687C9.65009 33.1494 14.2251 34.9949 18.9977 35ZM18.9977 3.00773C22.951 3.00773 26.7428 4.53459 29.5379 7.25232C32.3333 9.97005 33.9038 13.656 33.9038 17.4997C33.9038 21.3435 32.3333 25.0297 29.5379 27.7472C26.7425 30.4649 22.9512 31.9918 18.9977 31.9918C15.0441 31.9918 11.2526 30.4649 8.45747 27.7472C5.66209 25.0294 4.0916 21.3435 4.0916 17.4997C4.09637 13.6577 5.66858 9.97418 8.463 7.25732C11.2574 4.54047 15.0458 3.01198 18.9981 3.00735L18.9977 3.00773Z" fill="white"/>
<path d="M11.241 25.5882C11.469 25.588 11.6744 25.4547 11.7618 25.2501C11.8492 25.0455 11.8012 24.8099 11.6405 24.6529C9.69141 22.7547 8.59676 20.182 8.59676 17.4998C8.59676 14.8177 9.69134 12.245 11.6405 10.3467C11.8603 10.1331 11.8603 9.78645 11.6405 9.57282C11.4208 9.35918 11.0642 9.35919 10.8445 9.57282C8.68464 11.6766 7.47177 14.5273 7.47177 17.4996C7.47177 20.4719 8.68464 23.3228 10.8445 25.4265C10.9495 25.5292 11.0921 25.5873 11.241 25.5878L11.241 25.5882Z" fill="white"/>
<path d="M26.3551 25.4269C26.4611 25.53 26.6047 25.5878 26.7546 25.5883C26.9036 25.5878 27.0462 25.5297 27.1512 25.4269C29.311 23.3232 30.5239 20.4724 30.5239 17.5001C30.5239 14.5278 29.311 11.6769 27.1512 9.5733C26.9314 9.35968 26.5748 9.35968 26.3551 9.5733C26.1354 9.78693 26.1354 10.1336 26.3551 10.3472C28.3042 12.2454 29.3989 14.8181 29.3989 17.5003C29.3989 20.1825 28.3043 22.7551 26.3551 24.6534C26.1359 24.8672 26.1359 25.2134 26.3551 25.4273L26.3551 25.4269Z" fill="white"/>
<path d="M18.9784 26.5238H18.998C19.8018 26.5238 20.5446 26.1068 20.9466 25.4301C21.3484 24.7533 21.3484 23.9193 20.9466 23.2426C20.5445 22.5658 19.8017 22.1488 18.998 22.1488C18.1964 22.1488 17.4554 22.5634 17.0526 23.237C16.6498 23.9108 16.646 24.7421 17.0428 25.4191C17.4395 26.0963 18.1769 26.5169 18.9784 26.5238Z" fill="white"/>
<path d="M18.2018 21.0551H19.7939C20.0865 21.0556 20.368 20.945 20.5781 20.7468C20.7881 20.5488 20.9104 20.2787 20.9189 19.9941L21.2479 9.60352C21.2559 9.30811 21.1411 9.02198 20.9295 8.81009C20.7178 8.59793 20.427 8.47781 20.1229 8.47708H17.8729C17.5688 8.47781 17.278 8.59793 17.0663 8.81009C16.8546 9.022 16.7398 9.30813 16.7479 9.60352L17.0768 19.9941C17.0859 20.2785 17.2082 20.5483 17.4181 20.7462C17.6283 20.9445 17.9093 21.0551 18.2018 21.0551Z" fill="white"/>
</svg>
