<svg width="35" height="19" viewBox="0 0 35 19" fill="none" xmlns="http://www.w3.org/2000/svg">
<path d="M0 1.5C0 0.671573 0.671573 0 1.5 0H33.5C34.3284 0 35 0.671573 35 1.5C35 2.32843 34.3284 3 33.5 3H1.5C0.671574 3 0 2.32843 0 1.5Z" fill="#5DBFF7"/>
<path d="M0 9.5C0 8.67157 0.671573 8 1.5 8H33.5C34.3284 8 35 8.67157 35 9.5C35 10.3284 34.3284 11 33.5 11H1.5C0.671574 11 0 10.3284 0 9.5Z" fill="#5DBFF7"/>
<path d="M0 17.5C0 16.6716 0.671573 16 1.5 16H24.5C25.3284 16 26 16.6716 26 17.5C26 18.3284 25.3284 19 24.5 19H1.5C0.671572 19 0 18.3284 0 17.5Z" fill="#5DBFF7"/>
</svg>
