<svg width="69" height="69" viewBox="0 0 69 69" fill="none" xmlns="http://www.w3.org/2000/svg">
<circle cx="34.0589" cy="34.0589" r="34.0589" fill="#5DBFF7"/>
<path fill-rule="evenodd" clip-rule="evenodd" d="M47.0253 17.6841H50.7416C53.0935 17.6841 55 19.5727 55 21.8944V49.7897C55 52.1151 53.1001 54 50.7416 54H17.2581C14.9065 54 13 52.1114 13 49.7897V21.8944C13 19.569 14.8999 17.6841 17.2581 17.6841H20.9747V19.7892C20.9747 20.9501 21.9267 21.8943 23.1011 21.8943C24.2734 21.8943 25.2276 20.9519 25.2276 19.7892V17.6841H42.772V19.7892C42.772 20.9501 43.7243 21.8943 44.8988 21.8943C46.0707 21.8943 47.0252 20.9519 47.0252 19.7892L47.0253 17.6841ZM15.1263 27.7961V50.2044C15.1263 51.1362 16.0816 51.8954 17.2579 51.8954H50.7414C51.9233 51.8954 52.8734 51.1399 52.8734 50.2044V27.7961H15.1263ZM43.3036 15.5809C43.3036 14.7078 44.0194 14 44.8987 14C45.7794 14 46.4933 14.7067 46.4933 15.5809V19.7879C46.4933 20.6609 45.7776 21.3687 44.8987 21.3687C44.0175 21.3687 43.3036 20.662 43.3036 19.7879V15.5809ZM21.506 15.5809C21.506 14.7078 22.2221 14 23.1011 14C23.9818 14 24.6961 14.7067 24.6961 15.5809V19.7879C24.6961 20.6609 23.98 21.3687 23.1011 21.3687C22.2203 21.3687 21.506 20.662 21.506 19.7879V15.5809Z" fill="#2862B6"/>
<path fill-rule="evenodd" clip-rule="evenodd" d="M31.6318 32.0894C31.6318 31.4878 32.1032 31 32.6829 31H35.3174C35.8979 31 36.3686 31.4885 36.3686 32.0894V34.8197C36.3686 35.4213 35.8972 35.9091 35.3174 35.9091H32.6829C32.1025 35.9091 31.6318 35.4205 31.6318 34.8197V32.0894ZM37.9475 32.0894C37.9475 31.4878 38.4189 31 38.9987 31H41.6332C42.2136 31 42.6843 31.4885 42.6843 32.0894V34.8197C42.6843 35.4213 42.2129 35.9091 41.6332 35.9091H38.9987C38.4182 35.9091 37.9475 35.4205 37.9475 34.8197V32.0894ZM19 38.6348C19 38.0333 19.4718 37.5455 20.0515 37.5455H22.6856C23.2664 37.5455 23.7371 38.034 23.7371 38.6348V41.3652C23.7371 41.9667 23.2654 42.4545 22.6856 42.4545H20.0515C19.4707 42.4545 19 41.966 19 41.3652V38.6348ZM25.3157 38.6348C25.3157 38.0333 25.7875 37.5455 26.3672 37.5455H29.0013C29.5821 37.5455 30.0529 38.034 30.0529 38.6348V41.3652C30.0529 41.9667 29.5811 42.4545 29.0013 42.4545H26.3672C25.7864 42.4545 25.3157 41.966 25.3157 41.3652V38.6348ZM31.6318 38.6348C31.6318 38.0333 32.1032 37.5455 32.6829 37.5455H35.3174C35.8979 37.5455 36.3686 38.034 36.3686 38.6348V41.3652C36.3686 41.9667 35.8972 42.4545 35.3174 42.4545H32.6829C32.1025 42.4545 31.6318 41.966 31.6318 41.3652V38.6348ZM37.9475 38.6348C37.9475 38.0333 38.4189 37.5455 38.9987 37.5455H41.6332C42.2136 37.5455 42.6843 38.034 42.6843 38.6348V41.3652C42.6843 41.9667 42.2129 42.4545 41.6332 42.4545H38.9987C38.4182 42.4545 37.9475 41.966 37.9475 41.3652V38.6348ZM19 45.1803C19 44.5787 19.4718 44.0909 20.0515 44.0909H22.6856C23.2664 44.0909 23.7371 44.5795 23.7371 45.1803V47.9106C23.7371 48.5122 23.2654 49 22.6856 49H20.0515C19.4707 49 19 48.5115 19 47.9106V45.1803ZM25.3157 45.1803C25.3157 44.5787 25.7875 44.0909 26.3672 44.0909H29.0013C29.5821 44.0909 30.0529 44.5795 30.0529 45.1803V47.9106C30.0529 48.5122 29.5811 49 29.0013 49H26.3672C25.7864 49 25.3157 48.5115 25.3157 47.9106V45.1803ZM31.6318 45.1803C31.6318 44.5787 32.1032 44.0909 32.6829 44.0909H35.3174C35.8979 44.0909 36.3686 44.5795 36.3686 45.1803V47.9106C36.3686 48.5122 35.8972 49 35.3174 49H32.6829C32.1025 49 31.6318 48.5115 31.6318 47.9106V45.1803ZM37.9475 45.1803C37.9475 44.5787 38.4189 44.0909 38.9987 44.0909H41.6332C42.2136 44.0909 42.6843 44.5795 42.6843 45.1803V47.9106C42.6843 48.5122 42.2129 49 41.6332 49H38.9987C38.4182 49 37.9475 48.5115 37.9475 47.9106V45.1803Z" fill="white"/>
<path fill-rule="evenodd" clip-rule="evenodd" d="M44 32.0461C44 31.4685 44.4976 31 45.1095 31H47.8905C48.5031 31 49 31.4692 49 32.0461V34.6681C49 35.2458 48.5024 35.7143 47.8905 35.7143H45.1095C44.4969 35.7143 44 35.2451 44 34.6681V32.0461ZM44 38.3319C44 37.7542 44.4976 37.2857 45.1095 37.2857H47.8905C48.5031 37.2857 49 37.7549 49 38.3319V40.9539C49 41.5315 48.5024 42 47.8905 42H45.1095C44.4969 42 44 41.5308 44 40.9539V38.3319Z" fill="#2862B6"/>
</svg>
