<svg width="41" height="41" viewBox="0 0 41 41" fill="none"
  xmlns="http://www.w3.org/2000/svg">
  <path d="M17.9935 0.658686L20.5 0.500989L23.0065 0.658686L25.4736 1.12929L27.8621 1.90539L30.1346 2.97473L32.2551 4.32047L34.1903 5.92134L35.9095 7.75215L37.3857 9.78399L38.5956 11.9848L39.5202 14.32L40.1448 16.7526L40.4595 19.2442V21.7558L40.1448 24.2474L39.5202 26.68L38.5956 29.0152L37.3857 31.216L35.9095 33.2478L34.1903 35.0786L32.2551 36.6795L30.1346 38.0253L27.8621 39.0946L25.4735 39.8707L23.0065 40.3413L20.5 40.499L17.9935 40.3413L15.5265 39.8707L13.1379 39.0946L10.8654 38.0253L8.74488 36.6795L6.80973 35.0786L5.09049 33.2478L3.61428 31.216L2.40436 29.0152L1.47981 26.68L0.855226 24.2474L0.540453 21.7557V19.2443L0.855226 16.7526L1.47981 14.32L2.40435 11.9848L3.61428 9.78399L5.0905 7.75215L6.80974 5.92135L8.74488 4.32046L10.8654 2.97473L13.1379 1.90539L15.5264 1.12929L17.9935 0.658686Z" fill="#2862B6" stroke="url(#paint0_linear_604_3)"/>
  <path fill-rule="evenodd" clip-rule="evenodd" d="M27.5061 13.2929C27.8966 13.6834 27.8966 14.3166 27.5061 14.7071L21.7782 20.435L27.435 26.0919C27.8256 26.4824 27.8256 27.1155 27.435 27.5061C27.0445 27.8966 26.4113 27.8966 26.0208 27.5061L20.364 21.8492L14.7781 27.435C14.3876 27.8256 13.7545 27.8256 13.3639 27.435C12.9734 27.0445 12.9734 26.4113 13.3639 26.0208L18.9497 20.435L13.2929 14.7781C12.9024 14.3876 12.9024 13.7545 13.2929 13.3639C13.6834 12.9734 14.3166 12.9734 14.7071 13.3639L20.364 19.0208L26.0919 13.2929C26.4824 12.9024 27.1155 12.9024 27.5061 13.2929Z" fill="white"/>
  <defs>
    <linearGradient id="paint0_linear_604_3" x1="3.84375" y1="-1.38577e-06" x2="45.2708" y2="47.8333" gradientUnits="userSpaceOnUse">
      <stop stop-color="#2862B6"/>
      <stop offset="1" stop-color="#7BAAEF"/>
    </linearGradient>
  </defs>
</svg>
