<svg width="19" height="15" viewBox="0 0 19 15" fill="none" xmlns="http://www.w3.org/2000/svg">
<path d="M16.4513 1.0671L3.38839 14.8166C3.15686 15.0611 2.78037 15.0611 2.54884 14.8166C2.31649 14.572 2.31649 14.177 2.54884 13.9329L15.6118 0.183425C15.8442 -0.0611417 16.2194 -0.0611417 16.4513 0.183425C16.6837 0.427556 16.6837 0.82253 16.4513 1.0671ZM5.93736 7.5C5.93736 7.83481 5.98292 8.15828 6.06204 8.46737L7.14143 7.33126C7.22178 6.08923 8.16032 5.10177 9.34029 5.01684L10.4197 3.88072C10.1256 3.79832 9.81828 3.74993 9.50019 3.74993C7.53534 3.74993 5.93735 5.43179 5.93735 7.50001L5.93736 7.5ZM9.66041 9.98317L8.58102 11.1193C8.87467 11.2017 9.182 11.2501 9.5001 11.2501C11.4649 11.2501 13.0629 9.56821 13.0629 7.49999C13.0629 7.16518 13.0174 6.84171 12.9383 6.53261L11.8593 7.66873C11.7785 8.91076 10.8404 9.89822 9.66044 9.98315L9.66041 9.98317ZM4.12817 10.5028C3.01612 9.73423 2.04774 8.72241 1.29355 7.50002C3.10762 4.55995 6.149 2.81705 9.5001 2.81705C10.1023 2.81705 10.6946 2.87591 11.2707 2.98533L12.2689 1.93469C11.3792 1.69405 10.4507 1.56718 9.5001 1.56718C5.60677 1.56718 2.08751 3.66453 0.084493 7.17868C-0.0281643 7.37616 -0.0281643 7.62422 0.084493 7.82258C0.91327 9.27643 2.0046 10.4836 3.27241 11.4039L4.12817 10.5028ZM18.9152 7.17827C18.0864 5.72397 16.9951 4.51721 15.7273 3.59649L14.8716 4.49716C15.9836 5.2666 16.952 6.27756 17.7058 7.49994C15.8917 10.44 12.8512 12.1829 9.49996 12.1829C8.89773 12.1829 8.30584 12.1236 7.72935 12.0146L6.73117 13.0644C7.62083 13.3055 8.54864 13.4323 9.49995 13.4323C13.3933 13.4323 16.9125 11.335 18.9156 7.82084C19.0282 7.62379 19.0282 7.37617 18.9151 7.17825L18.9152 7.17827Z" fill="white"/>
</svg>
