<svg width="41" height="41" viewBox="0 0 41 41" fill="none" xmlns="http://www.w3.org/2000/svg">
<path d="M17.9935 0.658686L20.5 0.500989L23.0065 0.658686L25.4736 1.12929L27.8621 1.90539L30.1346 2.97473L32.2551 4.32047L34.1903 5.92134L35.9095 7.75215L37.3857 9.78399L38.5956 11.9848L39.5202 14.32L40.1448 16.7526L40.4595 19.2442V21.7558L40.1448 24.2474L39.5202 26.68L38.5956 29.0152L37.3857 31.216L35.9095 33.2478L34.1903 35.0786L32.2551 36.6795L30.1346 38.0253L27.8621 39.0946L25.4735 39.8707L23.0065 40.3413L20.5 40.499L17.9935 40.3413L15.5265 39.8707L13.1379 39.0946L10.8654 38.0253L8.74488 36.6795L6.80973 35.0786L5.09049 33.2478L3.61428 31.216L2.40436 29.0152L1.47981 26.68L0.855226 24.2474L0.540453 21.7557V19.2443L0.855226 16.7526L1.47981 14.32L2.40435 11.9848L3.61428 9.78399L5.0905 7.75215L6.80974 5.92135L8.74488 4.32046L10.8654 2.97473L13.1379 1.90539L15.5264 1.12929L17.9935 0.658686Z" fill="#E69D4A" stroke="url(#paint0_linear_603_2)"/>
<path d="M13.769 14C13.3452 14.0017 13.002 14.329 13.0002 14.7331V18.5464C13.0011 18.9511 13.3446 19.2792 13.769 19.2809C13.974 19.2817 14.1708 19.2047 14.3162 19.0669C14.4615 18.9291 14.5436 18.7419 14.544 18.5464V16.5154L18.0185 19.8285H18.0183C18.1632 19.9673 18.3603 20.0453 18.5655 20.0453C18.7709 20.0453 18.968 19.9673 19.1127 19.8285C19.412 19.5414 19.412 19.0778 19.1127 18.7907L15.6351 15.4718H17.7683C17.9728 15.471 18.1688 15.3928 18.3131 15.2542C18.4571 15.1158 18.5377 14.9283 18.537 14.733C18.5353 14.3289 18.1921 14.0016 17.7683 14L13.769 14ZM23.2321 14C22.8083 14.0017 22.4651 14.329 22.4636 14.7331C22.4627 14.9283 22.5433 15.1158 22.6873 15.2542C22.8316 15.3928 23.0276 15.471 23.2322 15.4719H25.3651L21.8875 18.7907H21.8878C21.5884 19.0778 21.5884 19.5414 21.8878 19.8285C22.0325 19.9669 22.2291 20.0447 22.4341 20.0447C22.6391 20.0447 22.8357 19.9669 22.9804 19.8285L26.4565 16.5154V18.5464H26.4567C26.4569 18.7419 26.5389 18.9291 26.6843 19.0669C26.8296 19.2047 27.0265 19.2817 27.2313 19.2809C27.6559 19.2792 27.9994 18.9511 28 18.5464V14.7331C27.9985 14.329 27.6552 14.0017 27.2313 14L23.2321 14ZM18.511 21.9501H18.5112C18.3251 21.9624 18.1499 22.0384 18.0181 22.1643L14.5436 25.4832V23.4522H14.5438C14.5444 23.2561 14.463 23.0676 14.3177 22.929C14.1721 22.7902 13.9746 22.7125 13.7688 22.7134C13.5642 22.7142 13.3682 22.7924 13.224 22.931C13.0799 23.0694 12.9994 23.2569 13 23.4522V27.2612C12.9985 27.6675 13.3426 27.9983 13.7688 28H17.7681C17.9726 27.9992 18.1686 27.9209 18.3129 27.7823C18.4569 27.6439 18.5375 27.4565 18.5368 27.2612C18.536 26.8565 18.1925 26.5284 17.7681 26.5267H15.6321L19.1127 23.2078H19.1125C19.2583 23.0696 19.3401 22.8819 19.3401 22.686C19.3401 22.4901 19.2583 22.3025 19.1125 22.1643C18.9542 22.0129 18.7348 21.9349 18.5113 21.9501L18.511 21.9501ZM22.3789 21.9501C22.1935 21.9627 22.0191 22.0388 21.8877 22.1643C21.742 22.3025 21.6601 22.4902 21.6601 22.6861C21.6601 22.8819 21.742 23.0696 21.8877 23.2078L25.3683 26.5267H23.2321C22.8077 26.5283 22.4642 26.8565 22.4636 27.2612C22.4627 27.4565 22.5433 27.6439 22.6873 27.7823C22.8316 27.9209 23.0276 27.9992 23.2321 28H27.2312C27.6576 27.9984 28.0018 27.6676 28 27.2612V23.4522C28.0008 23.2569 27.9203 23.0694 27.7762 22.931C27.632 22.7924 27.436 22.7142 27.2312 22.7134C27.0256 22.7126 26.8281 22.7902 26.6825 22.929C26.5372 23.0676 26.4558 23.2561 26.4566 23.4522V25.4832L22.9806 22.1643H22.9804C22.8221 22.013 22.6027 21.9349 22.3789 21.9501L22.3789 21.9501Z" fill="white"/>
<defs>
<linearGradient id="paint0_linear_603_2" x1="3.84375" y1="-1.38577e-06" x2="45.2708" y2="47.8333" gradientUnits="userSpaceOnUse">
<stop stop-color="#E69D4A"/>
<stop offset="1" stop-color="#FFD4A4"/>
</linearGradient>
</defs>
</svg>
