<svg width="39" height="39" viewBox="0 0 39 39" fill="none" xmlns="http://www.w3.org/2000/svg">
<rect width="39" height="39" rx="10" fill="#2862B6"/>
<path fill-rule="evenodd" clip-rule="evenodd" d="M10.2644 15.8075C10.2644 10.3924 14.5904 6 19.9206 6H20.3438C25.6777 6 30 10.3894 30 15.8086C30 17.9554 29.5122 19.5596 28.4417 21.7343C28.371 21.8781 28.0017 22.6165 27.9035 22.8176C27.7141 23.2059 27.5745 23.5138 27.459 23.8047C27.1903 24.4799 27.0608 25.0495 27.0608 25.6176C27.0608 26.7969 27.35 28.0088 27.8348 29.178C28.0059 29.5908 28.1891 29.9677 28.3714 30.2994C28.4783 30.4938 28.5586 30.6265 28.5992 30.6884C28.9036 31.1521 28.6958 31.7826 28.178 31.9667L19.7797 34.9518C19.3373 35.1092 18.8537 34.8681 18.7055 34.4166L17.2173 29.8822H14.4635C12.1429 29.8822 10.2644 27.9748 10.2644 25.6154V23.4853H9.42366C8.36626 23.4853 7.7235 22.5228 8.11647 21.5248L10.2644 16.0713L10.2644 15.8075ZM20.3422 22.6323C24.0527 22.6323 27.061 19.5774 27.061 15.8086C27.061 12.0402 24.0529 8.9854 20.3422 8.9854C16.6317 8.9854 13.6235 12.0403 13.6235 15.8086C13.6235 19.5771 16.6314 22.6323 20.3422 22.6323ZM20.3422 20.9264C17.5594 20.9264 15.3034 18.6354 15.3034 15.8088C15.3034 12.9825 17.5594 10.6915 20.3422 10.6915C23.1251 10.6915 25.3811 12.9825 25.3811 15.8088C25.3811 18.6354 23.1251 20.9264 20.3422 20.9264ZM20.3422 19.6472C22.4294 19.6472 24.1214 17.9288 24.1214 15.8088C24.1214 13.6891 22.4294 11.9707 20.3422 11.9707C18.2551 11.9707 16.5631 13.6891 16.5631 15.8088C16.5631 17.9288 18.2551 19.6472 20.3422 19.6472ZM20.3422 17.9413C19.1827 17.9413 18.2427 16.9865 18.2427 15.8088C18.2427 14.6313 19.1827 13.6765 20.3422 13.6765C21.5018 13.6765 22.4417 14.6313 22.4417 15.8088C22.4417 16.9865 21.5018 17.9413 20.3422 17.9413ZM20.3422 16.6619C20.8061 16.6619 21.182 16.28 21.182 15.8088C21.182 15.3379 20.8061 14.956 20.3422 14.956C19.8784 14.956 19.5023 15.3379 19.5023 15.8088C19.5023 16.28 19.8784 16.6619 20.3422 16.6619Z" fill="white"/>
</svg>
