<svg width="69" height="69" viewBox="0 0 69 69" fill="none" xmlns="http://www.w3.org/2000/svg">
<circle cx="34.0589" cy="34.0589" r="34.0589" fill="#5DBFF7"/>
<path d="M25.3258 26.1182C25.2652 26.2926 23.8554 30.4725 27.4138 34.6938C27.4459 34.7278 30.3512 37.9102 30.6116 40.8722C30.615 40.9063 30.9148 43.8761 29.2516 46.6562C31.2609 47.1569 33.6773 47.9722 34.9978 49C36.3292 47.9644 38.7737 47.1454 40.7938 46.6447C40.2407 45.7117 39.8301 44.6268 39.5663 43.4057C39.0344 40.9367 39.4805 38.3728 40.7868 36.3776C41.4543 35.3534 42.0893 34.7085 42.1074 34.6934C45.9618 30.4947 44.8699 26.3189 44.82 26.1482C43.3862 20.7983 37.205 17.13 35.4391 16.1779C36.4526 15.0786 36.9681 13.9552 36.9681 12.8314C36.9681 11.5762 36.3292 10.3206 35.0659 9.09945C34.9303 8.96685 34.7233 8.96685 34.5877 9.09945C33.3243 10.3206 32.6854 11.5762 32.6854 12.8314C32.6854 13.9619 33.2079 15.0919 34.2333 16.1971C32.6402 17.1657 27.1484 20.8188 25.3256 26.1181L25.3258 26.1182ZM34.8191 16.7729C38.5201 20.0953 40.8291 23.0424 41.5001 25.3103C42.2996 28.0034 41.2073 31.064 39.0126 32.2777C38.3522 32.6417 37.7136 32.7858 37.1459 32.8047C36.4785 33.4229 35.6825 33.7833 34.8261 33.7833C33.9694 33.7833 33.1737 33.4229 32.5063 32.801C31.9316 32.7895 31.2892 32.6532 30.6469 32.2814C28.5593 31.0754 27.7064 28.0223 28.7056 25.3333C29.5943 22.9476 30.8755 20.1219 34.8191 16.7729V16.7729Z" fill="white"/>
<path d="M21.0001 50.8448C21.0001 51.6495 21.3114 52.3906 21.8025 53H33.4651C33.8962 52.78 34.2525 52.5385 34.5 52.2673C34.7476 52.5381 35.1039 52.7796 35.535 53H47.1976C47.6891 52.3901 48 51.649 48 50.8448C48 48.6809 45.7536 47 43.8225 47C42.5514 47 36.1236 48.5118 34.4998 50.5016C32.876 48.5114 26.4522 47 25.1807 47C23.25 47 21 48.6809 21 50.8448H21.0001Z" fill="#2862B6"/>
<path d="M34.5 33C36.4284 33 38 30.7556 38 28.0019C38 25.2449 36.4284 23 34.5 23C32.5716 23 31 25.2444 31 28.0019C31 30.7555 32.5712 33 34.5 33Z" fill="#2862B6"/>
<path d="M49.1692 53H18.8308C17.8212 53 17 54.1213 17 55.5C17 56.8787 17.8212 58 18.8308 58H49.1692C50.1788 58 51 56.8787 51 55.5C51 54.1216 50.1788 53 49.1692 53Z" fill="white"/>
</svg>
