<svg width="69" height="69" viewBox="0 0 69 69" fill="none" xmlns="http://www.w3.org/2000/svg">
<circle cx="34.0589" cy="34.0589" r="34.0589" fill="#5DBFF7"/>
<path fill-rule="evenodd" clip-rule="evenodd" d="M34.5006 14.0004C30.4455 14.0004 26.7738 14.3035 24.054 14.7959C22.6943 15.042 21.577 15.3349 20.7117 15.7049C20.2792 15.8901 19.8979 16.0924 19.5815 16.3726C19.3317 16.5936 19.1324 16.886 19.0488 17.2392C19.0467 17.2487 19.0348 17.2582 19.0326 17.2677V17.2674C19.011 17.3416 19.0002 17.418 19.0005 17.4948C19.0002 17.5087 19.0005 17.5233 19.0005 17.5372C18.9998 17.5563 18.9998 17.5753 19.0005 17.594C18.9998 17.613 18.9998 17.632 19.0005 17.6511L24.0219 51.0313C24.0255 51.0599 24.0309 51.0884 24.0378 51.1163C24.1351 51.772 24.6843 52.2279 25.2487 52.5367C25.87 52.877 26.6401 53.1201 27.5573 53.3323C29.3917 53.7568 31.8179 54 34.4999 54C37.1798 54 39.6088 53.7568 41.4425 53.3323C42.3593 53.1201 43.114 52.877 43.7353 52.5367C44.3238 52.2146 44.9033 51.734 44.9625 51.031L44.9787 50.9457V50.9175L49.9513 17.8919V17.8777C49.9719 17.8041 49.9762 17.7283 49.9838 17.6503V17.6506C49.9917 17.6132 49.9971 17.5752 50 17.5371C49.9996 17.4848 49.9942 17.4325 49.9838 17.3808C49.9798 17.3523 49.9744 17.3237 49.9676 17.2955C49.8948 16.9189 49.6652 16.6047 49.4025 16.3722C49.086 16.0923 48.7048 15.8897 48.2723 15.7045C47.4073 15.3342 46.2898 15.0415 44.93 14.7955C42.2111 14.3031 38.5528 14 34.4999 14L34.5006 14.0004ZM34.5006 15.8184C38.4383 15.8184 41.9953 16.1158 44.5109 16.5711C45.7687 16.7988 46.7701 17.0819 47.3688 17.3381C47.5371 17.41 47.6744 17.4776 47.7725 17.5369C47.6744 17.5965 47.5375 17.6634 47.3688 17.7357C46.7706 17.9922 45.7687 18.2747 44.5109 18.5026C41.9957 18.9586 38.4383 19.2414 34.5006 19.2414C30.5601 19.2414 26.9901 18.9589 24.4738 18.5026C23.2156 18.2747 22.2145 17.9922 21.6158 17.7357C21.4472 17.6634 21.3106 17.5965 21.2122 17.5369C21.3106 17.4773 21.4475 17.41 21.6158 17.3381C22.2144 17.0819 23.2153 16.7988 24.4738 16.5711C26.9897 16.1155 30.5597 15.8184 34.5006 15.8184ZM44.2691 22.9492C44.3066 22.9473 44.3445 22.9473 44.382 22.9492C44.6775 22.9546 44.9564 23.0712 45.1478 23.2697C45.3392 23.4679 45.4246 23.7285 45.3831 23.986L44.6404 28.9289V28.9292C44.604 29.1683 44.4612 29.3852 44.2432 29.5316C44.0252 29.6781 43.7498 29.7425 43.4777 29.7105C43.206 29.6784 42.9595 29.5526 42.793 29.3607C42.6265 29.1689 42.5533 28.927 42.5897 28.6876L43.3325 23.7447C43.392 23.3182 43.7823 22.9862 44.2691 22.9492L44.2691 22.9492ZM43.0582 30.9746C43.0957 30.9727 43.1335 30.9727 43.171 30.9746C43.4666 30.98 43.7455 31.0967 43.9369 31.2949C44.1282 31.4933 44.214 31.754 44.1722 32.0114L42.6546 42.0819V42.0822C42.6492 42.3416 42.518 42.5867 42.2942 42.7557C42.0708 42.9247 41.7753 43.0014 41.4833 42.9665C41.1911 42.932 40.9294 42.789 40.7647 42.574C40.5997 42.3587 40.547 42.0921 40.6202 41.8406L42.1216 31.7701C42.181 31.3437 42.5713 31.0117 43.0582 30.9746H43.0582Z" fill="#2862B6"/>
<path d="M23.25 30L21 18H48L45.75 30H23.25Z" fill="#5DBFF7"/>
<ellipse cx="34.5" cy="30" rx="11.5" ry="3" fill="white"/>
<path d="M21 18C25.75 18.7546 37.8 19.8111 48 18" stroke="#2862B6"/>
</svg>
