<svg width="69" height="69" viewBox="0 0 69 69" fill="none" xmlns="http://www.w3.org/2000/svg">
<circle cx="34.0589" cy="34.0589" r="34.0589" fill="#5DBFF7"/>
<path d="M21 45L34.3 17L49 45H21Z" fill="white"/>
<path d="M54.2695 41.428L38.8944 16.4278C37.9692 14.9218 36.3 14 34.5001 14C32.7001 14 31.031 14.9222 30.1057 16.4278L14.7306 41.428C13.78 42.9728 13.7561 44.8963 14.6644 46.463C15.5757 48.0314 17.2795 49 19.1249 49H49.8751C51.7212 49 53.4247 48.0314 54.3355 46.463C55.2439 44.8963 55.22 42.9724 54.2694 41.428H54.2695ZM34.4997 21.4993C35.9147 21.4993 37.0622 22.6188 37.0622 23.9993V33.9994C37.0622 35.3799 35.9147 36.4994 34.4997 36.4994C33.0847 36.4994 31.9372 35.3799 31.9372 33.9994V23.9993C31.9372 22.6188 33.0847 21.4993 34.4997 21.4993ZM31.9372 41.4995C31.9372 40.119 33.0847 38.9995 34.4997 38.9995C35.9147 38.9995 37.0622 40.119 37.0622 41.4995C37.0622 42.8799 35.9147 43.9995 34.4997 43.9995C33.0847 43.9995 31.9372 42.8807 31.9372 41.4995Z" fill="#2862B6"/>
</svg>
