<svg width="69" height="69" viewBox="0 0 69 69" fill="none" xmlns="http://www.w3.org/2000/svg">
<rect width="69" height="69" fill="#E5E5E5"/>
<g clip-path="url(#clip0_304_1616)">
<rect width="1400" height="3699" transform="translate(-938 -1272)" fill="white"/>
<circle cx="34.0589" cy="34.0589" r="34.0589" fill="#5DBFF7"/>
<path d="M23.6667 52C24.1432 52 24.5833 51.7549 24.8214 51.3571C25.0595 50.9594 25.0595 50.4692 24.8214 50.0714C24.5833 49.6737 24.1432 49.4286 23.6667 49.4286C22.6057 49.4286 21.5884 49.0222 20.8381 48.299C20.0881 47.5755 19.6667 46.5946 19.6667 45.5714V44.2857C19.6667 43.8262 19.4125 43.4018 19 43.1722C18.5875 42.9426 18.0792 42.9426 17.6667 43.1722C17.2542 43.4018 17 43.8262 17 44.2857V45.5714C17 47.2764 17.7024 48.9114 18.9527 50.117C20.203 51.3227 21.8985 52 23.6667 52Z" fill="white"/>
<path d="M50.8571 43C50.5541 43 50.2633 43.1355 50.049 43.3765C49.8347 43.6176 49.7143 43.9448 49.7143 44.2857V45.5714C49.7143 46.5946 49.3531 47.5755 48.7102 48.299C48.0671 49.0222 47.1952 49.4286 46.2857 49.4286H45.1428C44.7344 49.4286 44.3571 49.6737 44.1531 50.0714C43.949 50.4692 43.949 50.9594 44.1531 51.3571C44.3571 51.7549 44.7344 52 45.1428 52H46.2857C47.8013 52 49.2546 51.3227 50.3263 50.1171C51.3979 48.9114 52 47.2764 52 45.5714V44.2857C52 43.9448 51.8796 43.6176 51.6653 43.3765C51.451 43.1355 51.1602 43 50.8571 43Z" fill="white"/>
<path d="M46.2857 17H45.1428C44.7344 17 44.3571 17.2451 44.1531 17.6429C43.949 18.0406 43.949 18.5308 44.1531 18.9286C44.3571 19.3263 44.7344 19.5714 45.1428 19.5714H46.2857C47.1952 19.5714 48.0671 19.9778 48.7102 20.701C49.3531 21.4245 49.7143 22.4054 49.7143 23.4286V24.7143C49.7143 25.1738 49.9321 25.5982 50.2857 25.8278C50.6393 26.0574 51.075 26.0574 51.4286 25.8278C51.7821 25.5982 52 25.1738 52 24.7143V23.4286C52 21.7236 51.398 20.0886 50.3263 18.883C49.2546 17.6773 47.8013 17 46.2857 17Z" fill="white"/>
<path d="M18.2857 26C18.6267 26 18.9538 25.8645 19.1949 25.6235C19.436 25.3824 19.5714 25.0552 19.5714 24.7143V23.4286C19.5714 22.4054 19.9778 21.4245 20.701 20.701C21.4245 19.9778 22.4054 19.5714 23.4286 19.5714H24.7143C25.1738 19.5714 25.5982 19.3263 25.8278 18.9286C26.0574 18.5308 26.0574 18.0406 25.8278 17.6429C25.5982 17.2451 25.1738 17 24.7143 17H23.4286C21.7236 17 20.0886 17.6773 18.883 18.8829C17.6773 20.0886 17 21.7236 17 23.4286V24.7143C17 25.0552 17.1355 25.3824 17.3765 25.6235C17.6176 25.8645 17.9448 26 18.2857 26Z" fill="white"/>
<path d="M39.8 19C40.2289 19 40.625 18.8094 40.8393 18.5C41.0536 18.1906 41.0536 17.8094 40.8393 17.5C40.625 17.1906 40.2288 17 39.8 17H30.2C29.7711 17 29.375 17.1906 29.1607 17.5C28.9464 17.8094 28.9464 18.1906 29.1607 18.5C29.375 18.8094 29.7712 19 30.2 19H39.8Z" fill="white"/>
<path d="M30.2 49C29.7711 49 29.375 49.2859 29.1607 49.75C28.9464 50.2141 28.9464 50.7859 29.1607 51.25C29.375 51.7141 29.7712 52 30.2 52H39.8C40.2289 52 40.625 51.7141 40.8393 51.25C41.0536 50.7859 41.0536 50.2141 40.8393 49.75C40.625 49.2859 40.2288 49 39.8 49H30.2Z" fill="white"/>
<path d="M18.5 41C18.8978 41 19.2795 40.863 19.5607 40.6193C19.842 40.3755 20 40.0447 20 39.7V29.3C20 28.8354 19.7141 28.4063 19.25 28.1741C18.7859 27.942 18.2141 27.942 17.75 28.1741C17.2859 28.4063 17 28.8354 17 29.3V39.7C17 40.0447 17.158 40.3755 17.4393 40.6193C17.7205 40.863 18.1022 41 18.5 41Z" fill="white"/>
<path d="M51 28C50.7348 28 50.4804 28.137 50.2929 28.3807C50.1054 28.6245 50 28.9553 50 29.3V39.7C50 40.1646 50.1906 40.5938 50.5 40.8259C50.8094 41.058 51.1906 41.058 51.5 40.8259C51.8094 40.5938 52 40.1646 52 39.7V29.3C52 28.9553 51.8946 28.6245 51.7071 28.3807C51.5196 28.137 51.2652 28 51 28Z" fill="white"/>
<path d="M25.75 22H43.25C45.3211 22 47 24.0711 47 25.75V43.25C47 45.3211 45.3211 47 43.25 47H25.75C23.6789 47 22 44.9289 22 43.25V25.75C22 23.6789 23.6789 22 25.75 22Z" fill="#2862B6"/>
</g>
<defs>
<clipPath id="clip0_304_1616">
<rect width="1400" height="3699" fill="white" transform="translate(-938 -1272)"/>
</clipPath>
</defs>
</svg>
