<svg width="69" height="69" viewBox="0 0 69 69" fill="none" xmlns="http://www.w3.org/2000/svg">
<circle cx="34.0589" cy="34.0589" r="34.0589" fill="#5DBFF7"/>
<path d="M22.5 33C24.4577 33 26 31.4577 26 29.5C26 27.5423 24.4577 26 22.5 26C20.5423 26 19 27.6018 19 29.5C19 31.4577 20.5423 33 22.5 33Z" fill="white"/>
<path d="M29 29.5C29 31.4577 30.5423 33 32.5 33C34.4577 33 36 31.4577 36 29.5C36 27.5423 34.4577 26 32.5 26C30.5423 26 29 27.6018 29 29.5Z" fill="white"/>
<path d="M27.5 24C29.4577 24 31 22.4577 31 20.5C31 18.5423 29.4577 17 27.5 17C25.5423 17 24 18.5423 24 20.5C24 22.4577 25.5423 24 27.5 24Z" fill="white"/>
<path d="M55.8737 30C36.2054 30 40.1571 34.8975 37.6764 36.3138H18.1853C17.0041 36.3138 16 37.258 16 38.497C16 40.9752 16.8858 49 28.2263 49C36.4362 49 39.8619 44.4564 40.3344 39.854C43.1693 38.4377 38.509 34.4254 55.8147 34.4254C56.9959 34.4254 58 33.4813 58 32.2423C58 31.003 57.1138 30 55.8737 30Z" fill="#2862B6"/>
</svg>
