<svg width="64" height="64" viewBox="0 0 64 64" fill="none" xmlns="http://www.w3.org/2000/svg">
<g clip-path="url(#clip0_1_3)">
<rect width="64" height="64" fill="white"/>
<rect width="64" height="64" rx="6" fill="#142768"/>
<path d="M18.6189 44L13.1406 25.9624L13.0132 25.9624C13.0344 26.3919 13.0663 27.0361 13.1088 27.895C13.1512 28.7539 13.1937 29.6773 13.2362 30.6651C13.2786 31.6314 13.2999 32.5118 13.2999 33.3063L13.2999 44L9 44L9 21.0021L15.5613 21.0021L20.9441 38.5887L21.0396 38.5887L26.7409 21.0021L33.3022 21.0021L33.3022 44L28.8112 44L28.8112 33.113C28.8112 32.3829 28.8218 31.5455 28.8431 30.6006C28.8855 29.6558 28.9174 28.7647 28.9386 27.9272C28.9811 27.0683 29.0129 26.4241 29.0342 25.9946L28.9068 25.9946L23.0462 44L18.6189 44Z" fill="#5DBFF7"/>
<path d="M55 43.9979L50.1905 43.9979L50.1905 34.0773L41.1767 34.0773L41.1767 43.9979L36.3673 43.9979L36.3673 21L41.1767 21L41.1767 30.0188L50.1905 30.0188L50.1905 21L55 21L55 43.9979Z" fill="white"/>
</g>
<defs>
<clipPath id="clip0_1_3">
<rect width="64" height="64" fill="white"/>
</clipPath>
</defs>
</svg>
