<svg width="69" height="69" viewBox="0 0 69 69" fill="none" xmlns="http://www.w3.org/2000/svg">
<circle cx="34.0589" cy="34.0589" r="34.0589" fill="#5DBFF7"/>
<path d="M48 27C48 33.0751 41.2843 37 33 37C24.7157 37 20 32.5751 20 26.5C20 20.4249 26.2157 19 34.5 19C42.7843 19 48 20.9249 48 27Z" fill="white"/>
<path d="M20.7373 18.8796C28.3151 14.4734 39.3169 14.4727 46.8918 18.8796C47.2711 19.1001 47.7572 18.9717 47.9777 18.5924C48.1986 18.2134 48.0699 17.727 47.6909 17.5064C39.6508 12.8312 27.9795 12.8312 19.9382 17.5064H19.9378C19.5588 17.727 19.4301 18.2134 19.651 18.5924C19.8715 18.9717 20.3576 19.1001 20.7369 18.8796H20.7373Z" fill="#2862B6" stroke="#2862B6"/>
<path d="M53.9236 46.135C53.5946 45.8432 53.0915 45.8737 52.7997 46.2024C52.5079 46.5314 52.5381 47.0344 52.8671 47.3262C53.1603 47.5741 53.3726 47.9038 53.4779 48.2729C53.8566 50.5316 51.1025 52.1929 48.93 52.7804C46.7571 53.3682 43.5361 53.2959 42.7356 51.1517H42.7353C42.6392 50.7617 42.6644 50.3515 42.8076 49.9764C42.9537 49.5627 42.7367 49.1086 42.3229 48.9628C41.9088 48.8168 41.455 49.0337 41.309 49.4475C41.114 49.9857 41.0498 50.5625 41.1218 51.1304C34.23 52.9992 26.4885 52.1245 20.7324 48.7799V48.7796C20.5502 48.6707 20.3322 48.6395 20.1266 48.6927C19.9213 48.7459 19.7454 48.8788 19.6387 49.0625C19.5324 49.2458 19.5033 49.4645 19.5589 49.6695C19.6146 49.874 19.7497 50.0481 19.9344 50.1527C26.1575 53.7905 34.5913 54.6293 41.6942 52.6107C43.273 54.8297 46.7941 55.0186 49.3365 54.3149C52.3359 53.559 55.7691 50.9922 55.0069 47.8631H55.0066C54.8258 47.1919 54.4485 46.5903 53.9234 46.1351L53.9236 46.135Z" fill="#2862B6" stroke="#2862B6"/>
<path d="M33.8148 17.825C24.0907 17.825 15.6927 24.9446 11.5522 29.1891V29.1894C10.5577 30.1973 10 31.5563 10 32.9723C10 34.3883 10.5577 35.7472 11.5522 36.7552C17.1105 42.4295 25.1363 48.0984 33.8148 48.1211C42.4948 48.1084 50.492 42.4525 56.0774 36.7552C57.0715 35.7473 57.6289 34.3883 57.6289 32.9723C57.6289 31.5563 57.0715 30.1974 56.0774 29.1894C51.9376 24.9446 43.5398 17.8253 33.8148 17.8253V17.825ZM33.8148 19.4133C38.8885 19.4133 43.6133 21.5153 47.4933 24.0803V24.0807C46.8963 28.5358 44.1667 32.4211 40.1778 34.4936C36.189 36.5662 31.4403 36.5662 27.4514 34.4936C23.4626 32.421 20.733 28.5357 20.1359 24.0807C24.017 21.5171 28.7408 19.4132 33.8144 19.4132L33.8148 19.4133ZM54.9393 35.6467C54.1451 36.4614 53.1812 37.3874 52.0842 38.3468C51.8818 36.9084 52.0874 35.4424 52.6784 34.1154C52.8848 33.7325 52.7444 33.2546 52.3636 33.0437C51.9828 32.8331 51.5035 32.9681 51.2886 33.3468C50.9437 34.0002 50.71 34.7067 50.5969 35.4371C50.3005 35.2545 49.8964 35.024 49.2571 34.7039C48.8647 34.5078 48.3875 34.667 48.1914 35.0599C47.9954 35.4523 48.1546 35.9295 48.547 36.1256C49.2111 36.4415 49.8471 36.8134 50.4484 37.2374C50.4537 38.0145 50.5147 38.7906 50.6302 39.5596C48.2212 41.5329 45.5675 43.1879 42.7355 44.4833C42.6395 44.3046 42.5402 44.1355 42.4409 43.9671C42.771 43.3658 43.2258 42.8425 43.775 42.432C43.9544 42.3186 44.081 42.1381 44.1267 41.9307C44.1721 41.7233 44.1327 41.5063 44.0172 41.3284C43.9019 41.1504 43.7197 41.0259 43.5119 40.9827C43.3042 40.9398 43.0876 40.9816 42.911 41.0993C42.3395 41.4953 41.847 41.9952 41.4592 42.5724C40.9855 41.9902 40.4205 41.4889 39.7861 41.0883C39.606 40.9705 39.3862 40.9308 39.1767 40.978C38.9672 41.0252 38.7856 41.1553 38.6736 41.3389C38.5616 41.5222 38.5286 41.7431 38.5825 41.9512C38.636 42.1593 38.7718 42.3366 38.9583 42.4429C39.9371 43.1144 40.727 44.0256 41.2535 45.0891C38.881 46.0134 36.361 46.5026 33.8147 46.5328C31.5589 46.5154 29.3206 46.1307 27.1881 45.394C27.2151 45.0763 27.2239 44.7484 27.2239 44.4172C27.7834 44.0677 28.3988 43.8174 29.0434 43.677C29.4766 43.6093 29.773 43.203 29.7053 42.7697C29.6376 42.3361 29.2313 42.0401 28.7981 42.1078C28.2025 42.2184 27.6264 42.4163 27.0881 42.6946C26.9814 41.9327 26.7411 41.1959 26.3773 40.5178C26.165 40.1342 25.6817 39.9952 25.2977 40.2079C24.9141 40.4203 24.7751 40.9035 24.9875 41.2875C25.5012 42.388 25.7225 43.6019 25.6303 44.8126C22.5922 43.5182 19.7511 41.8034 17.1899 39.7191C17.5902 38.9948 17.9376 38.2428 18.2294 37.4685C18.8771 37.3288 19.5436 37.3022 20.2006 37.3891C20.631 37.4731 21.0483 37.1923 21.1324 36.7619C21.2167 36.3315 20.9359 35.9142 20.5056 35.8301C19.9071 35.7309 19.2974 35.7202 18.6957 35.799C18.8521 35.0463 18.8786 34.272 18.7751 33.5101C18.707 33.0768 18.3004 32.7808 17.8668 32.8492C17.4335 32.9173 17.1375 33.3239 17.2059 33.7572C17.3166 34.6917 17.2077 35.639 16.8883 36.5239C16.6355 37.2713 16.3203 37.996 15.9463 38.6905C14.6827 37.6095 13.5805 36.5583 12.6902 35.6465C11.9766 34.9395 11.5753 33.9769 11.5753 32.9726C11.5753 31.9682 11.9766 31.0056 12.6902 30.2987C14.5384 28.3991 16.5422 26.6569 18.6804 25.0906C19.3459 28.6178 21.2221 31.8018 23.9853 34.0925C26.7488 36.3835 30.2254 37.6372 33.8146 37.6372C37.4038 37.6372 40.8805 36.3836 43.644 34.0925C46.4072 31.8019 48.2834 28.6179 48.9488 25.0906C51.0871 26.6565 53.0909 28.3987 54.939 30.2987C55.6527 31.0056 56.054 31.9682 56.054 32.9726C56.054 33.9769 55.6527 34.9395 54.939 35.6465L54.9393 35.6467Z" fill="#2862B6" stroke="#2862B6"/>
</svg>
