<svg width="39" height="39" viewBox="0 0 39 39" fill="none" xmlns="http://www.w3.org/2000/svg">
<rect width="39" height="39" rx="10" fill="#2862B6"/>
<path d="M23 21.0003C23 22.6562 21.658 24 20.0009 24C18.3438 24 17 22.6561 17 21.0003C17 19.3421 18.3441 18 20.0009 18C21.6579 17.9998 23 19.3421 23 21.0003Z" fill="white"/>
<path d="M3 21.001C12.12 32.9997 26.88 32.9997 36 21.001C26.88 8.99967 12.1193 8.99967 3 21.001ZM33.6822 21.069L30.7751 20.9118L29.2794 22.015L30.4076 22.9145L32.8079 22.4544C32.9325 22.4322 33.053 22.5125 33.0772 22.6375C33.1008 22.7622 33.0193 22.8828 32.8944 22.9071L30.3898 23.3868C30.3757 23.3894 30.3611 23.391 30.3467 23.391C30.295 23.391 30.2446 23.3734 30.2033 23.3408L28.8555 22.2658L25.3836 22.3678C25.3833 22.3686 25.3833 22.3694 25.3828 22.3702C25.2828 22.8239 25.1292 23.2562 24.9338 23.6656C24.9335 23.6658 24.9335 23.6664 24.933 23.6672L26.8929 23.8523C26.9232 23.8552 26.9525 23.8638 26.9792 23.8782L28.5538 24.7162L30.276 24.5676C30.4084 24.5624 30.5137 24.6508 30.525 24.7776C30.5354 24.9045 30.4419 25.0162 30.3152 25.0269L28.5256 25.1807C28.5188 25.1809 28.5125 25.1815 28.5057 25.1815C28.4678 25.1815 28.4313 25.1726 28.3978 25.1545L26.8036 24.3061L24.6995 24.1073C24.3006 24.7896 23.7722 25.3847 23.1473 25.8625H23.147L24.4194 27.0368L25.9557 27.2701L27.0092 26.6466C27.1181 26.5807 27.2597 26.6181 27.3242 26.7277C27.389 26.8372 27.3527 26.9785 27.2432 27.0431L26.119 27.7082C26.0834 27.7296 26.043 27.7403 26.0022 27.7403C25.991 27.7403 25.979 27.7395 25.9677 27.7377L24.4357 27.5052L24.4937 28.4943C24.5013 28.6214 24.4046 28.7302 24.2776 28.7375C24.2727 28.7378 24.2688 28.7378 24.2638 28.7378C24.1431 28.7378 24.0418 28.6434 24.0347 28.521L23.9595 27.2376L22.7641 26.1344C21.9661 26.6507 21.0404 26.9841 20.0431 27.0733L20.4197 28.2042C20.443 28.2735 20.4312 28.3494 20.3897 28.409L19.8531 29.1771C19.8082 29.2412 19.7372 29.2757 19.6643 29.2757C19.6186 29.2757 19.5729 29.2621 19.5324 29.2342C19.4281 29.1615 19.4028 29.0179 19.4759 28.914L19.9464 28.2406L19.5658 27.0982C19.5436 27.0985 19.5224 27.1016 19.5002 27.1016C18.4316 27.1016 17.4293 26.8205 16.5592 26.3319C16.559 26.3317 16.5584 26.3317 16.5582 26.3311L16.287 27.6349C16.2732 27.7013 16.2316 27.7576 16.1721 27.7903L14.8179 28.532C14.7832 28.5511 14.7453 28.5602 14.708 28.5602C14.6267 28.5602 14.5476 28.5171 14.5058 28.4407C14.4446 28.329 14.4859 28.1891 14.5975 28.1279L15.8583 27.4377L16.141 26.0782C15.2084 25.4505 14.4648 24.5673 14.0008 23.5306L11.8954 25.3378L11.4542 26.958C11.426 27.0602 11.3335 27.1277 11.2324 27.1277C11.2123 27.1277 11.1919 27.1251 11.1718 27.1199C11.0493 27.0861 10.9772 26.9598 11.0104 26.8371L11.369 25.5185L9.29207 25.5412H9.28945C9.16355 25.5412 9.06115 25.4395 9.05958 25.3137C9.05854 25.1866 9.16041 25.0823 9.28684 25.0809L11.5279 25.0566C11.5339 25.0503 11.5354 25.0404 11.542 25.0344L12.5067 24.2066L10.8897 23.7814L7.71929 24.3358C7.70571 24.3382 7.69264 24.3392 7.67958 24.3392C7.56987 24.3392 7.47296 24.2605 7.45337 24.1483C7.43116 24.023 7.51528 23.9038 7.64066 23.8821L10.8604 23.3185C10.8923 23.3124 10.9262 23.314 10.9581 23.3229L12.9316 23.8418L13.8221 23.0773C13.646 22.5794 13.5329 22.0529 13.4919 21.506L11.2 21.3475L8.62725 21.9535C8.61001 21.9577 8.59251 21.9598 8.57449 21.9598C8.5596 21.9598 8.54497 21.9582 8.53034 21.9553L5.13164 21.2905C5.00704 21.2662 4.9258 21.1453 4.95009 21.0206C4.97439 20.8958 5.09507 20.8132 5.21967 20.8388L8.56982 21.4942L10.7011 20.9921L8.40813 19.6308L6.06761 19.6065C5.94066 19.6049 5.83878 19.5008 5.83983 19.3737C5.84139 19.2466 5.93543 19.1574 6.07231 19.1457L8.47476 19.1708C8.51525 19.171 8.55495 19.1823 8.5897 19.2029L11.4537 20.9032L13.4732 21.0431C13.476 20.3106 13.6142 19.612 13.8558 18.9634L12.2961 17.6102H9.92872C9.87883 17.6102 9.8305 17.594 9.79054 17.5642L8.87051 16.8732C8.7689 16.7969 8.74852 16.6528 8.82454 16.5508C8.90081 16.449 9.04475 16.4286 9.14662 16.5047L10.005 17.1497H12.2021L12.5129 15.9042L11.6702 14.9201C11.5874 14.8233 11.5986 14.6779 11.695 14.5955C11.7917 14.5131 11.9369 14.5239 12.0192 14.6204L12.9392 15.695C12.9875 15.7515 13.0058 15.8284 12.9875 15.9009L12.6385 17.299L14.0421 18.5168C14.6165 17.2879 15.5895 16.2869 16.7979 15.6788C16.7979 15.6788 16.7982 15.6786 16.7987 15.6786L15.7734 14.3583L14.5438 14.0204C14.4213 13.9867 14.3492 13.8598 14.3829 13.7374C14.4164 13.6148 14.5425 13.5431 14.6656 13.5763L15.7554 13.8732L15.9962 13.0888C16.0336 12.9675 16.1621 12.8992 16.2838 12.9366C16.405 12.974 16.4732 13.1027 16.4359 13.2246L16.1647 14.1075L17.2295 15.478C17.2302 15.4777 17.2313 15.4772 17.2321 15.4772C17.9332 15.1919 18.6983 15.0313 19.5016 15.0313C20.1423 15.0313 20.7583 15.1333 21.3377 15.319H21.3387L21.711 14.7726C21.7107 14.7724 21.7102 14.7724 21.7102 14.7719L20.9435 13.2879C20.8855 13.1749 20.9296 13.0361 21.0422 12.9775C21.1553 12.9186 21.2938 12.9636 21.3523 13.0761L22.0053 14.3403L22.8485 13.1035C22.9191 12.9981 23.0625 12.9712 23.1683 13.0431C23.2727 13.1148 23.3002 13.2578 23.2281 13.3632L21.7833 15.482H21.7836C22.4849 15.7696 23.1179 16.1868 23.6575 16.7023C23.6575 16.702 23.6573 16.702 23.6567 16.7015C23.6583 16.7031 23.6601 16.7044 23.662 16.706L24.8936 15.7192L25.1112 14.2797C25.1303 14.1537 25.2512 14.0694 25.373 14.0862C25.4989 14.1053 25.5848 14.2227 25.5663 14.3482L25.3643 15.6818L26.5304 16.0503L27.9729 15.1179C28.0797 15.0486 28.2223 15.08 28.2908 15.1865C28.36 15.2934 28.3294 15.4357 28.2223 15.5047L26.6892 16.496C26.6315 16.5326 26.5605 16.5428 26.4952 16.5219L25.1554 16.0984L23.9817 17.0384C24.6251 17.7555 25.0974 18.6259 25.3395 19.591C25.361 19.6734 25.386 19.7547 25.4033 19.8389C26.5401 19.4168 28.0142 18.8809 28.4486 18.7778L29.7502 16.9366C29.8234 16.8336 29.967 16.808 30.0705 16.882C30.1742 16.9555 30.199 17.0993 30.1251 17.2029L29.0272 18.7559C30.0577 18.7496 32.3893 18.7326 32.3893 18.7326V18.7383C32.3937 18.7381 32.3971 18.7357 32.4016 18.7357C32.5275 18.7357 32.6296 18.8375 32.6296 18.9622C32.6296 19.087 32.5275 19.1887 32.4016 19.1887C32.3982 19.1887 32.3953 19.1869 32.3922 19.1869V19.1939C32.3922 19.1939 28.7879 19.2193 28.5575 19.2193C28.3848 19.2436 26.9089 19.7711 25.4751 20.3039C25.5064 20.5536 25.5283 20.8063 25.5283 21.0647C25.5283 21.35 25.5017 21.6285 25.4633 21.9031L28.7858 21.8056L30.5691 20.4905C30.6117 20.4592 30.665 20.4437 30.7178 20.4458L33.7069 20.6074C33.8338 20.6142 33.9313 20.723 33.9239 20.8496C33.9174 20.9773 33.8087 21.0769 33.6823 21.0691L33.6822 21.069Z" fill="white"/>
</svg>
