<svg width="69" height="69" viewBox="0 0 69 69" fill="none" xmlns="http://www.w3.org/2000/svg">
<circle cx="34.0589" cy="34.0589" r="34.0589" fill="#5DBFF7"/>
<path d="M45 27.5C45 31.6421 40.299 36 34.5 36C28.701 36 23.5 32.6421 23.5 28.5C23.5 24.3579 28.201 22 34 22C39.799 22 45 23.3579 45 27.5Z" fill="white"/>
<path d="M12.1416 26.4391C12.1662 26.4154 14.612 24.1337 18.5497 21.8842C22.1612 19.8205 27.8057 17.362 34.194 17.362C40.5823 17.362 46.2273 19.8205 49.8383 21.8842C53.7658 24.1281 56.2101 26.4044 56.2454 26.4381C56.3759 26.5688 56.5532 26.641 56.7377 26.6384C56.9222 26.6358 57.0976 26.5588 57.2242 26.4245C57.3507 26.2902 57.4174 26.1105 57.409 25.9261C57.4006 25.7419 57.318 25.5691 57.1798 25.4467C57.0766 25.3496 54.6152 23.0497 50.548 20.7206C46.7906 18.5673 40.8944 16 34.1937 16C27.493 16 21.6011 18.5672 17.8394 20.7206C13.7722 23.0497 11.3144 25.3496 11.2076 25.4467C10.947 25.7073 10.9405 26.1274 11.193 26.3957C11.4451 26.664 11.8652 26.6831 12.141 26.439L12.1416 26.4391Z" fill="#2862B6" stroke="#2862B6"/>
<path d="M56.7817 32.2282C54.2801 29.7622 51.4885 27.6092 48.4678 25.8164C43.6646 23.0015 38.8613 21.5732 34.1965 21.5732C29.5312 21.5736 24.7251 23.0019 19.9252 25.8164C16.9041 27.6089 14.1122 29.7618 11.6113 32.2282C11.3135 32.5266 11.1125 32.9079 11.0355 33.3221C10.9581 33.7364 11.008 34.1646 11.1782 34.5501C11.4647 35.2317 13.1221 38.9428 16.6157 42.5477C18.7237 44.7227 21.1036 46.4517 23.69 47.6887C26.8971 49.2229 30.4325 50.0006 34.2029 50.0006C37.9733 50.0006 41.5047 49.2232 44.7158 47.6887C47.3022 46.4517 49.6821 44.7217 51.7901 42.5477C55.2846 38.9428 56.9421 35.2317 57.2276 34.5501C57.3965 34.1636 57.4444 33.7348 57.3651 33.3205C57.2858 32.9059 57.0832 32.5252 56.7835 32.2281L56.7817 32.2282ZM29.762 23.3832C32.692 22.7847 35.7128 22.7847 38.6434 23.3832C39.2542 24.4299 39.4759 25.6585 39.2694 26.8525C39.0629 28.0465 38.4414 29.1292 37.5141 29.9095C36.5871 30.6902 35.4145 31.1181 34.2027 31.1181C32.991 31.1181 31.818 30.6902 30.891 29.9095C29.964 29.1292 29.3423 28.0465 29.1358 26.8525C28.9293 25.6585 29.151 24.4299 29.7621 23.3832H29.762ZM24.2882 25.116C25.5178 24.5797 26.7843 24.1325 28.078 23.7774C27.3633 25.7699 27.6627 27.9856 28.881 29.7166C30.0992 31.4479 32.0836 32.4777 34.2003 32.4777C36.3171 32.4777 38.3014 31.4478 39.5193 29.7166C40.7376 27.9856 41.0369 25.7699 40.3223 23.7774C41.6156 24.1338 42.8822 24.5814 44.1124 25.117C44.137 25.4025 44.1496 25.6889 44.1496 25.9725H44.1493C44.1493 29.5272 42.2529 32.8117 39.1746 34.5896C36.096 36.3668 32.3033 36.3668 29.2251 34.5896C26.1465 32.8121 24.2501 29.5275 24.2501 25.9725C24.2501 25.6925 24.2637 25.4051 24.2883 25.116H24.2882ZM12.5706 33.1953C14.0464 31.7404 15.6273 30.3963 17.3002 29.1735L18.6017 30.5157V30.5154C18.8632 30.7856 19.2943 30.7921 19.5646 30.5306C19.8345 30.2687 19.8413 29.8376 19.5794 29.5677L18.4276 28.3785C19.1153 27.9099 19.8448 27.4431 20.6152 26.992C21.3855 26.5408 22.1341 26.1376 22.8924 25.765V25.9779H22.8927C22.8927 30.0191 25.0487 33.7536 28.5484 35.7741C32.0484 37.7948 36.3606 37.7948 39.86 35.7741C43.3598 33.7535 45.516 30.0191 45.516 25.9779V25.7685C46.2718 26.1401 47.0285 26.5479 47.7862 26.992C48.8066 27.5901 49.7582 28.2155 50.6327 28.8362L49.7556 29.8331H48.056C47.8673 29.8192 47.6812 29.8845 47.5424 30.0137C47.4039 30.1425 47.3249 30.3234 47.3249 30.5128C47.3249 30.7021 47.4039 30.883 47.5424 31.0118C47.6812 31.141 47.8673 31.2064 48.056 31.1924H49.3892V32.7159C49.3753 32.9046 49.4407 33.0907 49.5698 33.2296C49.6986 33.3681 49.8795 33.4471 50.0689 33.4471C50.2582 33.4471 50.4392 33.3681 50.568 33.2296C50.6971 33.0907 50.7625 32.9046 50.7486 32.7159V30.751L51.7254 29.6473C53.166 30.7406 54.5341 31.9262 55.8217 33.1963C55.965 33.3406 56.0411 33.5387 56.0314 33.742C56.0214 33.9449 55.9265 34.1349 55.7702 34.2647C54.1626 35.5755 52.4592 36.764 50.6742 37.8207L49.9838 36.8067C49.7666 36.5109 49.3546 36.44 49.0513 36.6462C48.7477 36.8527 48.662 37.2618 48.8571 37.5725L49.4915 38.4995C47.245 39.7434 44.8741 40.7474 42.4176 41.4947L41.4207 39.297C41.2653 38.9546 40.8621 38.8025 40.5193 38.9578C40.1765 39.1129 40.0247 39.5165 40.1798 39.8589L41.0861 41.8617C38.8357 42.4398 36.5221 42.7363 34.1986 42.7447C32.8961 42.7427 31.5954 42.6472 30.3062 42.4582L30.5282 41.2186V41.2183C30.5955 40.8477 30.3492 40.4926 29.9783 40.4253C29.6074 40.3583 29.2524 40.6046 29.1854 40.9755L28.9607 42.2281C24.9787 41.4558 21.4333 39.9171 18.5829 38.3195L19.6232 37.4968L22.2004 37.02V37.0197C22.5584 36.9401 22.7892 36.5912 22.7225 36.2306C22.6558 35.8701 22.316 35.627 21.9531 35.6804L20.0138 36.0384V33.8006C19.9876 33.4445 19.6911 33.1688 19.3341 33.1688C18.9768 33.1688 18.6803 33.4445 18.6544 33.8006V36.5274L17.3203 37.5816C15.6789 36.586 14.1089 35.4772 12.6213 34.2637C12.465 34.134 12.3702 33.9443 12.3602 33.741C12.3504 33.5378 12.4265 33.3397 12.5699 33.1953L12.5706 33.1953ZM50.8017 41.5995H50.8014C48.8801 43.6039 46.6168 45.2498 44.1178 46.4599C41.0954 47.9099 37.7568 48.6349 34.1965 48.6349C30.6361 48.6349 27.2973 47.9018 24.2752 46.4599C21.7762 45.2498 19.5128 43.6039 17.5916 41.5995C16.2529 40.2142 15.0644 38.6914 14.0452 37.0566C18.1994 39.9993 25.5458 44.1037 34.1969 44.1037C42.848 44.1037 50.1941 39.9993 54.3486 37.0566C53.3293 38.6914 52.1408 40.2142 50.8022 41.5995H50.8017Z" fill="#2862B6" stroke="#2862B6"/>
</svg>
