<svg width="69" height="69" viewBox="0 0 69 69" fill="none" xmlns="http://www.w3.org/2000/svg">
<circle cx="34.0589" cy="34.0589" r="34.0589" fill="#5DBFF7"/>
<path d="M54.7551 44.7788C55.4439 44.7197 56.0626 44.3334 56.4167 43.7396C56.7713 43.1462 56.8187 42.4182 56.5443 41.784L54.755 37L52.9657 41.784C52.6913 42.4182 52.7387 43.1462 53.0933 43.7396C53.4475 44.3334 54.0661 44.7197 54.7549 44.7788H54.7551Z" fill="white"/>
<path d="M46.2261 52.9262C45.4287 55.0654 46.8386 57.4185 48.9195 57.4185C51.0005 57.4185 52.4104 55.0654 51.6129 52.9262L48.9195 45.7505L46.2261 52.9262Z" fill="white"/>
<circle cx="34" cy="35" r="9" fill="white"/>
<path d="M34.2526 38.3363C35.284 38.3363 36.2733 37.9265 37.0029 37.1973C37.7322 36.4676 38.142 35.4783 38.142 34.447C38.142 33.4156 37.7322 32.4263 37.0029 31.6966C36.2733 30.9674 35.284 30.5576 34.2526 30.5576C33.2213 30.5576 32.2319 30.9674 31.5023 31.6966C30.7731 32.4263 30.3633 33.4156 30.3633 34.447C30.3633 35.4783 30.7731 36.4676 31.5023 37.1973C32.232 37.9265 33.2213 38.3363 34.2526 38.3363ZM34.2526 32.5023C34.7683 32.5023 35.2632 32.7072 35.6278 33.0718C35.9924 33.4364 36.1973 33.9313 36.1973 34.447C36.1973 34.9626 35.9924 35.4575 35.6278 35.8221C35.2632 36.1867 34.7683 36.3916 34.2526 36.3916C33.7369 36.3916 33.2421 36.1867 32.8775 35.8221C32.5128 35.4575 32.308 34.9626 32.308 34.447C32.308 33.9313 32.5128 33.4364 32.8775 33.0718C33.2421 32.7072 33.7369 32.5023 34.2526 32.5023Z" fill="#2862B6"/>
<path d="M54.1655 33.5907L40.815 26.3854C36.7203 24.1691 31.7832 24.1691 27.689 26.3854L14.3386 33.5907C14.0239 33.7604 13.8281 34.089 13.8281 34.4463C13.8281 34.8035 14.0239 35.1321 14.3386 35.3018L27.689 42.5067V42.5071C31.7837 44.7235 36.7209 44.7235 40.815 42.5071L54.1655 35.3023V35.3018C54.4802 35.1321 54.6759 34.8035 54.6759 34.4463C54.6759 34.089 54.4802 33.7604 54.1655 33.5907ZM18.6947 35.4186H21.6117C21.8699 35.4199 22.1187 35.3187 22.3019 35.1364L23.9548 33.4739H24.5868C24.5868 33.7947 24.5287 34.1155 24.5287 34.4462C24.5274 36.1557 24.984 37.8346 25.8508 39.3079L18.6947 35.4186ZM25.0344 31.5292H23.5563C23.2981 31.5279 23.0493 31.6291 22.8662 31.8114L21.2132 33.4739H18.6947L25.89 29.5846C25.5184 30.1966 25.2184 30.8491 24.9953 31.5293L25.0344 31.5292ZM35.1467 42.1668C34.5511 42.2154 33.953 42.2154 33.3574 42.1668C30.8232 41.8547 28.6038 40.3185 27.4188 38.0574C26.2333 35.7958 26.2333 33.0968 27.4188 30.8353C28.6038 28.5741 30.8233 27.0379 33.3574 26.7259C33.9529 26.6773 34.5511 26.6773 35.1467 26.7259C37.6809 27.038 39.9002 28.5742 41.0853 30.8353C42.2707 33.0969 42.2707 35.796 41.0853 38.0574C39.9002 40.3186 37.6808 41.8548 35.1467 42.1668ZM42.6532 39.3079C43.0135 38.6954 43.3004 38.0426 43.5088 37.3633H44.9477C45.206 37.3646 45.4547 37.2634 45.6379 37.0811L47.2909 35.4186H49.8094L42.6532 39.3079ZM46.8924 33.4739C46.6341 33.4726 46.3854 33.5738 46.2022 33.7561L44.5492 35.4186H43.9172C43.9172 35.0978 43.9754 34.777 43.9754 34.4463C43.9737 32.7373 43.517 31.0592 42.6532 29.5846L49.8094 33.4739L46.8924 33.4739Z" fill="#2862B6"/>
<path d="M12.4923 30.1103L8 32.6675L8.97234 34.4469L26.6488 24.3927C31.3577 21.6901 37.1475 21.6901 41.8562 24.3927L59.5327 34.4469L60.505 32.6675L56.5184 30.402L56.6934 30.0813V30.0808C57.5724 28.4786 57.8189 26.6052 57.384 24.8302L56.9855 23.1381L55.0989 23.6243L55.4974 25.3258V25.3263C55.8095 26.5951 55.6324 27.9351 55.0017 29.0793L54.8072 29.4291L51.1805 27.3677L51.18 27.3681C51.7943 25.9178 51.9241 24.3083 51.5499 22.7786L51.1514 21.0965L49.2649 21.5826L49.6633 23.2747V23.2743C49.9103 24.3061 49.8357 25.3882 49.4493 26.3762L45.56 24.169C45.9576 22.9088 46.0045 21.5644 45.6963 20.2796L45.2978 18.5875L43.4113 19.0737L43.8097 20.7752V20.7757C44.0046 21.5774 44.0046 22.4143 43.8097 23.2161L42.8374 22.6422C41.8915 22.1061 40.8993 21.6568 39.8717 21.3005C40.1634 20.1289 40.1634 18.904 39.8717 17.732L39.4732 16.0499L37.5867 16.536L37.9852 18.2281H37.9856C38.1944 19.0642 38.1944 19.9392 37.9856 20.7758C36.6803 20.4849 35.3455 20.3478 34.0086 20.3673C34.3307 19.1753 34.3476 17.9212 34.0572 16.7211L33.6487 15L31.7622 15.4862L32.1607 17.1783H32.1611C32.4237 18.2899 32.3178 19.4572 31.8598 20.5033C30.6648 20.673 29.4911 20.9695 28.3594 21.3884C28.471 20.4985 28.4219 19.5961 28.2136 18.724L27.8151 17.0319L25.9286 17.518L26.327 19.2196V19.22C26.5827 20.2835 26.4911 21.4013 26.0644 22.4092L25.685 22.6132L22.4372 24.4606H22.4376C22.6521 23.4062 22.6321 22.3176 22.3795 21.2715L21.981 19.5794L20.0944 20.0655L20.4929 21.8062C20.8059 23.075 20.6288 24.4154 19.9972 25.5592L19.7346 26.0454L15.7771 28.2526L15.8648 28.0486C16.7425 26.4386 16.9856 24.5586 16.5454 22.7784L16.147 21.0963L14.2604 21.5825L14.6589 23.2746V23.2742C14.971 24.5434 14.7939 25.883 14.1632 27.0276L12.4923 30.1103Z" fill="#2862B6"/>
</svg>
