<svg width="69" height="69" viewBox="0 0 69 69" fill="none" xmlns="http://www.w3.org/2000/svg">
<circle cx="34.0589" cy="34.0589" r="34.0589" fill="#5DBFF7"/>
<path d="M34.6256 16C31.1142 16 27.7466 17.3947 25.2633 19.8771C22.7799 22.3596 21.384 25.7269 21.3828 29.2387C21.3816 32.7501 22.775 36.118 25.2568 38.6026C27.7384 41.0869 31.105 42.4837 34.6168 42.4861C38.1282 42.4886 41.4967 41.0964 43.9823 38.6155C46.4676 36.1349 47.8656 32.7685 47.8693 29.2571C47.8714 26.9312 47.2611 24.6452 46.0996 22.6301C44.9379 20.6147 43.2656 18.941 41.2518 17.777C39.2376 16.6134 36.9525 16.0007 34.6263 16.0007L34.6256 16ZM41.7129 36.3438C39.5095 38.5496 36.4057 39.6051 33.3151 39.1997C30.2239 38.7942 27.4974 36.9738 25.9376 34.2748C24.3776 31.5754 24.1619 28.3043 25.3541 25.4235C26.5461 22.5431 29.0103 20.3807 32.0215 19.5732C35.0326 18.7654 38.248 19.4043 40.7213 21.3018C43.1952 23.1992 44.6456 26.1392 44.6459 29.2563C44.6536 31.9156 43.5979 34.4677 41.713 36.3436L41.7129 36.3438Z" fill="white"/>
<path d="M34.6244 20.3821C32.2707 20.3821 30.0134 21.3171 28.3492 22.9813C26.685 24.6456 25.75 26.9028 25.75 29.2565C25.75 31.6101 26.685 33.8674 28.3492 35.5319C30.0135 37.1962 32.2707 38.1312 34.6244 38.1312C36.978 38.1312 39.2354 37.1962 40.8995 35.5319C42.5638 33.8674 43.4988 31.6101 43.4988 29.2565C43.4969 26.9034 42.5616 24.6474 40.8977 22.9834C39.2338 21.3195 36.9775 20.3839 34.6244 20.3821Z" fill="white"/>
<path d="M43.4307 53.0789C42.964 52.8639 42.6067 52.4662 42.4421 51.9791C42.2776 51.4924 42.3208 50.9591 42.5614 50.505L48.5374 39.1182C49.196 39.6887 50.0019 40.0618 50.863 40.1945L45.9495 52.1059C45.7533 52.5763 45.3734 52.946 44.8977 53.1296C44.4224 53.3135 43.8925 53.295 43.4306 53.0787L43.4307 53.0789Z" fill="#2862B6"/>
<path d="M50.0787 38.8425C47.8153 37.7867 47.3183 34.702 48.7536 32.3695C49.9958 30.2993 52.7149 28.6363 54.4607 29.4505C56.2066 30.2647 56.6622 33.4324 55.8892 35.7026C54.9989 38.3181 52.342 39.8982 50.0786 38.8424L50.0787 38.8425Z" fill="#2862B6"/>
<path d="M26.2303 53.0857C25.7867 53.2925 25.2784 53.3091 24.8221 53.132C24.3662 52.9545 24.0023 52.599 23.815 52.1471L18.9844 40.4156L21.1859 39.3872L27.0584 50.6494C27.2787 51.0814 27.3147 51.5836 27.1588 52.0426C27.0029 52.5013 26.6678 52.8774 26.2303 53.0857L26.2303 53.0857Z" fill="#2862B6"/>
<path d="M17.9932 29.2979L17.1997 29.6636L19.3112 34.1904L18.4141 34.6322L16.3026 30.0844L14.9982 30.6916L17.1097 35.2185L16.2194 35.6325L14.1081 31.1127L13.3145 31.4784C13.1848 31.5311 13.0825 31.6355 13.0329 31.7664C12.983 31.8974 12.9901 32.0431 13.0523 32.1685L15.0329 36.4193L15.0326 36.4196C15.231 36.8435 15.5576 37.1941 15.9664 37.4221C16.3752 37.65 16.8454 37.7434 17.3099 37.6891L18.5453 39.4627L20.7258 38.4415L20.167 36.3712C20.5083 36.0493 20.7397 35.6278 20.8278 35.1669C20.9156 34.706 20.8558 34.2291 20.6568 33.804L18.6765 29.5322C18.6183 29.4093 18.5129 29.315 18.3845 29.2707C18.2557 29.2266 18.1146 29.2362 17.9932 29.2978L17.9932 29.2979Z" fill="#2862B6"/>
</svg>
