<svg width="69" height="69" viewBox="0 0 69 69" fill="none" xmlns="http://www.w3.org/2000/svg">
<circle cx="34.0589" cy="34.0589" r="34.0589" fill="#5DBFF7"/>
<path d="M19.0726 28.3116C19.1451 28.3116 19.2177 28.2389 19.2899 28.2389C20.8851 27.8756 22.4072 27.6577 23.9298 27.4395C25.0173 25.1141 26.8298 23.2975 29.0774 22.2802C30.1649 23.443 31.7601 24.2424 33.5 24.2424C35.2399 24.2424 36.8351 23.5157 37.9226 22.353C40.75 23.6608 42.925 26.1317 43.7226 29.1834C45.1726 29.6922 46.6226 30.2734 48 31V24.5329C48 16.5398 41.475 10 33.5 10C25.525 10 19 16.5398 19 24.5329V28.3117L19.0726 28.3116ZM33.5726 13.488C36.1101 13.488 38.2125 15.5952 38.2125 18.1385C38.2125 20.6818 36.1101 22.7889 33.5726 22.7889C31.0351 22.7889 28.9326 20.6818 28.9326 18.1385C28.9326 15.5228 31.0351 13.488 33.5726 13.488Z" fill="#2862B6"/>
<path d="M19.0724 42.755C19.0724 50.5898 25.5811 57 33.5362 57C41.4913 57 48 50.5898 48 42.755V34.4215L38.3093 41.6153C37.8753 41.9002 37.4413 42.0428 36.9353 42.0428C36.7185 42.0428 36.5013 42.0428 36.2845 41.9715C35.6337 41.8289 35.1273 41.3305 34.9105 40.6896C33.0301 35.6325 22.8333 32.7122 19.3619 32.0713C19.2172 32.0713 19.1451 32 19.0004 32L19 42.755L19.0724 42.755Z" fill="#2862B6"/>
<path d="M20.5043 30.6704C20.6455 30.6704 34.2522 33.454 36.7197 40.487C36.7903 40.7067 36.9311 40.8533 37.2134 40.9267C37.284 40.9267 37.3545 41 37.4248 41C37.5659 41 37.7067 40.9267 37.8478 40.8533L47.7181 33.1612C47.9294 33.0145 48 32.7949 48 32.5019C48 32.2823 47.8589 32.0623 47.6475 31.916C39.5398 27.8134 30.7271 26.9346 20.5749 29.2786C20.2223 29.3519 20.011 29.6449 20.011 30.0112C19.9404 30.3041 20.2223 30.5971 20.5043 30.6704L20.5043 30.6704Z" fill="white"/>
</svg>
