<svg width="69" height="69" viewBox="0 0 69 69" fill="none" xmlns="http://www.w3.org/2000/svg">
<circle cx="34.0589" cy="34.0589" r="34.0589" fill="#5DBFF7"/>
<path d="M24.936 32.2347L27.977 26.7609L34.059 24.3281L41.3573 27.3691L42.5737 33.4511L39.5327 40.1412L34.6672 42.574L26.7606 37.7084L24.936 32.2347Z" fill="white"/>
<path d="M46.1652 32.1183H45.235C44.6425 32.1183 44.1265 31.6852 43.9923 31.0793C43.7376 29.9135 43.2976 28.8076 42.6798 27.7821C42.3678 27.2556 42.4376 26.5698 42.858 26.1302L43.5207 25.4439C44.0176 24.9244 44.0176 24.0783 43.5207 23.5587C43.0429 23.0523 42.2015 23.0523 41.7175 23.5587L41.0611 24.2515C40.6406 24.6911 39.9841 24.7645 39.481 24.4314C38.4996 23.792 37.4418 23.3324 36.3271 23.0658C35.7475 22.9255 35.3333 22.386 35.3333 21.7666V20.7941C35.3333 20.0613 34.7599 19.4619 34.0591 19.4619C33.3582 19.4619 32.7848 20.0613 32.7848 20.7941V21.7666C32.7848 22.386 32.3706 22.9254 31.791 23.0658C30.6826 23.332 29.618 23.792 28.6434 24.4314C28.1398 24.7645 27.4839 24.6911 27.0633 24.2515L26.4006 23.5587C25.9037 23.0392 25.0944 23.0392 24.5975 23.5587C24.1005 24.0782 24.1005 24.9243 24.5975 25.4439L25.2601 26.1302C25.6806 26.5697 25.757 27.256 25.4384 27.7821C24.8201 28.808 24.3806 29.9139 24.1259 31.0793C23.9979 31.6852 23.4819 32.1183 22.8832 32.1183H21.9529C21.252 32.1183 20.6787 32.7177 20.6787 33.4504C20.6787 34.1832 21.2521 34.7826 21.9529 34.7826H22.8832C23.4823 34.7826 23.9983 35.2091 24.1259 35.8216C24.3806 36.9804 24.8206 38.0933 25.4384 39.1122C25.757 39.6387 25.6806 40.3245 25.2601 40.7641L24.5975 41.4569C24.3552 41.7102 24.2281 42.0433 24.2281 42.396C24.2281 42.7556 24.3557 43.0888 24.5975 43.342C25.0819 43.8415 25.9166 43.8415 26.4006 43.342L27.0633 42.6492C27.3056 42.3895 27.6367 42.2561 27.9616 42.2561C28.1971 42.2561 28.4331 42.3226 28.6434 42.4625C29.6181 43.1088 30.6758 43.5683 31.791 43.8346C32.3772 43.9679 32.7848 44.5074 32.7848 45.1338V46.1068C32.7848 46.8395 33.3582 47.4389 34.059 47.4389C34.7599 47.4389 35.3333 46.8395 35.3333 46.1068V45.1342C35.3333 44.5079 35.7475 43.9684 36.3271 43.835C37.4422 43.5688 38.5 43.1088 39.4747 42.4629C39.9845 42.1298 40.6405 42.2097 41.0614 42.6492L41.7178 43.342C42.2023 43.8415 43.0431 43.8415 43.521 43.342C44.0179 42.8226 44.0179 41.9765 43.521 41.4569L42.8583 40.7641C42.4379 40.3245 42.3677 39.6382 42.6801 39.1122C43.2984 38.0932 43.7379 36.9803 43.9926 35.815C44.1264 35.209 44.6424 34.7825 45.2348 34.7825H46.1651C46.866 34.7825 47.4393 34.1831 47.4393 33.4503C47.4397 32.7176 46.866 32.1182 46.1651 32.1182L46.1652 32.1183ZM30.8731 36.7811C28.4135 36.7811 26.413 34.6892 26.413 32.1183C26.413 31.379 26.9864 30.7861 27.6872 30.7861C28.3944 30.7861 28.9615 31.379 28.9615 32.1183C28.9615 33.2172 29.8215 34.1168 30.8731 34.1168C31.5802 34.1168 32.1473 34.7097 32.1473 35.4489C32.1473 36.1817 31.5802 36.7811 30.8731 36.7811ZM33.4216 27.4555C33.4216 26.7162 33.9949 26.1233 34.6958 26.1233C37.1554 26.1233 39.1559 28.2152 39.1559 30.7861C39.1559 31.5189 38.5888 32.1183 37.8817 32.1183C37.1807 32.1183 36.6074 31.5189 36.6074 30.7861C36.6074 29.6803 35.7536 28.7876 34.6958 28.7876C33.9953 28.7876 33.4216 28.1882 33.4216 27.4555ZM35.3332 40.7781C34.6323 40.7781 34.059 40.1787 34.059 39.446C34.059 38.7067 34.6323 38.1138 35.3332 38.1138C36.391 38.1138 37.2448 37.2147 37.2448 36.1153C37.2448 35.3761 37.8182 34.7832 38.5191 34.7832C39.2262 34.7832 39.7933 35.3761 39.7933 36.1153C39.7933 38.6862 37.7928 40.7781 35.3332 40.7781Z" fill="#2862B6"/>
<path d="M36.4915 9.12341C36.4915 10.1309 35.4022 10.948 34.0588 10.948C32.7154 10.948 31.626 10.131 31.626 9.12341C31.626 8.1159 32.7154 7.29883 34.0588 7.29883C35.4022 7.29883 36.4915 8.11587 36.4915 9.12341Z" fill="#2862B6"/>
<path d="M36.4915 57.7787C36.4915 58.7862 35.4022 59.6033 34.0588 59.6033C32.7154 59.6033 31.626 58.7862 31.626 57.7787C31.626 56.7712 32.7154 55.9541 34.0588 55.9541C35.4022 55.9541 36.4915 56.7711 36.4915 57.7787Z" fill="#2862B6"/>
<path d="M60.8196 34.0592C60.8196 34.7308 60.0025 35.2756 58.995 35.2756C57.9875 35.2756 57.1704 34.7309 57.1704 34.0592C57.1704 33.3875 57.9875 32.8428 58.995 32.8428C60.0025 32.8428 60.8196 33.3875 60.8196 34.0592Z" fill="#2862B6"/>
<path d="M10.9474 34.0592C10.9474 34.7308 10.4027 35.2756 9.73104 35.2756C9.05936 35.2756 8.51465 34.7309 8.51465 34.0592C8.51465 33.3875 9.05934 32.8428 9.73104 32.8428C10.4027 32.8428 10.9474 33.3875 10.9474 34.0592Z" fill="white"/>
<path d="M57.1704 14.5967C57.1704 16.6118 55.5367 18.2456 53.521 18.2456C51.5058 18.2456 49.8721 16.6118 49.8721 14.5967C49.8721 12.581 51.5058 10.9473 53.521 10.9473C55.5367 10.9473 57.1704 12.581 57.1704 14.5967Z" fill="white"/>
<path d="M19.4625 14.5967C19.4625 16.6118 17.5564 18.2456 15.2054 18.2456C12.8538 18.2456 10.9478 16.6118 10.9478 14.5967C10.9478 12.581 12.8538 10.9473 15.2054 10.9473C17.5564 10.9473 19.4625 12.581 19.4625 14.5967Z" fill="white"/>
<path d="M57.1704 52.3042C57.1704 54.3199 55.5367 55.9536 53.521 55.9536C51.5058 55.9536 49.8721 54.3199 49.8721 52.3042C49.8721 50.289 51.5058 48.6553 53.521 48.6553C55.5367 48.6553 57.1704 50.289 57.1704 52.3042Z" fill="white"/>
<path d="M19.4625 52.3042C19.4625 54.3199 17.5564 55.9536 15.2054 55.9536C12.8538 55.9536 10.9478 54.3199 10.9478 52.3042C10.9478 50.289 12.8538 48.6553 15.2054 48.6553C17.5564 48.6553 19.4625 50.289 19.4625 52.3042Z" fill="#2862B6"/>
</svg>
