<svg width="69" height="69" viewBox="0 0 69 69" fill="none" xmlns="http://www.w3.org/2000/svg">
<circle cx="34.0589" cy="34.0589" r="34.0589" fill="#5DBFF7"/>
<path d="M41.0703 40.0165L45.1974 37.5523C45.4177 37.4203 45.5489 37.2053 45.5489 36.9755C45.5489 36.7458 45.4177 36.5308 45.1974 36.3988L41.0703 33.9346L40.1244 35.0878L42.1061 36.2715H22.4375V37.6796H42.1061L40.1251 38.863L41.0703 40.0165Z" fill="white"/>
<path d="M25.4997 50.713C27.5948 53.3401 30.1602 55.817 34.6012 55.817C39.0422 55.817 41.6071 53.3401 43.7027 50.713C45.7978 53.3401 48.3632 55.817 52.8042 55.817C53.264 55.7864 53.676 55.5274 53.8974 55.1297C54.1188 54.7319 54.1188 54.2507 53.8974 53.853C53.676 53.4553 53.264 53.1963 52.8042 53.1657C52.3164 53.1665 51.8299 53.1222 51.3506 53.0336L51.3506 44.0161C51.8299 43.9272 52.3164 43.883 52.8042 43.8838C53.264 43.8532 53.676 43.5942 53.8974 43.1964C54.1188 42.7987 54.1188 42.3175 53.8974 41.9197C53.676 41.522 53.264 41.263 52.8042 41.2324C48.3636 41.2324 45.7983 43.7214 43.7027 46.3365C41.6077 43.7214 39.0422 41.2445 34.6012 41.2445C30.1602 41.2445 27.5953 43.7214 25.4997 46.3486C23.4047 43.7335 20.8392 41.2445 16.3982 41.2445C15.9385 41.2751 15.5265 41.5341 15.305 41.9318C15.0836 42.3296 15.0836 42.8108 15.305 43.2085C15.5265 43.6063 15.9385 43.8652 16.3982 43.8958C16.8861 43.895 17.3725 43.9393 17.8519 44.0279L17.8519 53.0455C17.3725 53.1343 16.886 53.1786 16.3982 53.1778C15.9385 53.2084 15.5265 53.4674 15.305 53.8651C15.0836 54.2629 15.0836 54.744 15.305 55.1418C15.5265 55.5395 15.9385 55.7985 16.3982 55.8291C20.8389 55.817 23.4041 53.3401 25.4997 50.713ZM49.8709 44.4729L49.8709 52.5884C48.0385 51.8009 46.7312 50.2797 45.3754 48.5305C46.7435 46.7812 48.0385 45.26 49.8709 44.4726L49.8709 44.4729ZM42.0162 48.5308C41.17 49.6979 40.1766 50.7545 39.0597 51.6748L39.0597 45.3867C40.1766 46.307 41.17 47.3636 42.0162 48.5308L42.0162 48.5308ZM37.5937 44.5088L37.5937 52.5528C36.8812 52.8794 36.1166 53.0829 35.3337 53.154L35.3337 43.9262C36.1155 43.9914 36.8801 44.1887 37.5937 44.5091L37.5937 44.5088ZM33.8678 43.9076L33.8678 53.1355C33.0851 53.0638 32.3205 52.8606 31.6077 52.5343L31.6077 44.5088C32.3217 44.1889 33.0863 43.9917 33.8678 43.9259L33.8678 43.9076ZM30.1418 45.3685L30.1418 51.6748C29.0249 50.7545 28.0315 49.698 27.1853 48.5308C28.0314 47.3636 29.0249 46.307 30.1418 45.3867L30.1418 45.3685ZM19.33 44.4729C21.1624 45.2603 22.4697 46.7815 23.8255 48.5308C22.4574 50.2742 21.1624 51.7951 19.33 52.5886L19.33 44.4729Z" fill="#2862B6"/>
<circle cx="22.3635" cy="22.2376" r="10.1985" fill="#2862B6"/>
<circle cx="22.3633" cy="22.2373" r="3.05955" fill="white"/>
<circle cx="44.8001" cy="18.1585" r="4.0794" fill="#2862B6"/>
<circle cx="44.8001" cy="18.1585" r="1.01985" fill="white"/>
<circle cx="52.9593" cy="18.1585" r="4.0794" fill="#2862B6"/>
<circle cx="52.9588" cy="18.1585" r="1.01985" fill="white"/>
<circle cx="44.8001" cy="26.3167" r="4.0794" fill="#2862B6"/>
<circle cx="44.8001" cy="26.3167" r="1.01985" fill="white"/>
<circle cx="52.9593" cy="26.3167" r="4.0794" fill="#2862B6"/>
<circle cx="52.9588" cy="26.3167" r="1.01985" fill="white"/>
</svg>
