<svg width="69" height="69" viewBox="0 0 69 69" fill="none" xmlns="http://www.w3.org/2000/svg">
<circle cx="34.0589" cy="34.0589" r="34.0589" fill="#5DBFF7"/>
<path d="M24.937 35.151V42.4494L35.8845 43.0576L40.7501 39.4084L43.1829 33.3265L42.5747 25.4199H34.6681L28.5862 29.0691L24.937 35.151Z" fill="white"/>
<path d="M27.8604 45.4355C32.4664 45.9669 37.3829 45.894 41.7015 41.5754C46.0201 37.2568 46.0925 32.3409 45.5616 27.7344C50.1676 28.2657 55.0841 28.1928 59.4027 23.8742C59.8198 23.3972 59.9673 22.7434 59.7937 22.1391C59.6201 21.5349 59.1496 21.0644 58.5454 20.8909C57.9412 20.7173 57.2873 20.8647 56.8103 21.2819C56.3367 21.7571 55.8204 22.1868 55.2676 22.5664L46.4508 13.7495C46.8301 13.1965 47.2598 12.6801 47.735 12.2065C48.1521 11.7295 48.2996 11.0757 48.126 10.4714C47.9524 9.86722 47.4819 9.39674 46.8777 9.22317C46.2735 9.0496 45.6196 9.19704 45.1426 9.61419C40.8244 13.9324 40.7635 18.8605 41.2825 23.4552C36.6883 22.9357 31.7719 23.0086 27.4533 27.3272C23.1347 31.6458 23.0623 36.5617 23.5932 41.1682C18.999 40.6487 14.0707 40.7098 9.75211 45.0284C9.33495 45.5054 9.18752 46.1592 9.36109 46.7635C9.53466 47.3677 10.0052 47.8382 10.6094 48.0117C11.2136 48.1853 11.8675 48.0379 12.3444 47.6207C12.818 47.1455 13.3344 46.7158 13.8871 46.3362L22.704 55.1531C22.3247 55.7061 21.895 56.2225 21.4198 56.6961C21.0026 57.1731 20.8552 57.8269 21.0288 58.4312C21.2024 59.0354 21.6729 59.5059 22.2771 59.6794C22.8813 59.853 23.5352 59.7055 24.0121 59.2884C28.3186 54.9584 28.3913 50.0421 27.8604 45.4355ZM45.4586 15.635L53.3934 23.5698C50.8416 24.5819 48.083 24.3658 45.0543 23.9738C44.6743 20.9331 44.4462 18.1865 45.4583 15.6347L45.4586 15.635ZM41.7879 27.2407C42.1063 29.2048 42.1734 31.2039 41.9871 33.1899L35.8389 27.0417C37.8248 26.8554 39.8239 26.9224 41.788 27.2408L41.7879 27.2407ZM33.555 27.6088L41.42 35.4738C41.0464 36.4861 40.5018 37.4285 39.81 38.2593L30.7876 29.2369C31.6116 28.5404 32.548 27.9898 33.5553 27.6091L33.555 27.6088ZM29.3439 30.6443L38.3664 39.6668C37.5353 40.3577 36.5931 40.9026 35.5809 41.2767L27.734 33.4298C28.1154 32.4228 28.6661 31.4864 29.3618 30.6621L29.3439 30.6443ZM27.149 35.6959L33.315 41.8619C31.329 42.0482 29.33 41.9812 27.3659 41.6628C27.0475 39.6988 26.9805 37.6996 27.1668 35.7137L27.149 35.6959ZM15.7596 45.3339C18.3114 44.3219 21.07 44.538 24.0987 44.93C24.4729 47.965 24.7008 50.7113 23.6947 53.2691L15.7596 45.3339Z" fill="#2862B6"/>
</svg>
