<svg width="319" height="70" viewBox="0 0 319 70" fill="none" xmlns="http://www.w3.org/2000/svg">
<path d="M19.9222 5.90927C19.9222 9.01371 17.4053 11.5295 14.3009 11.5295C11.1976 11.5295 8.68066 9.01365 8.68066 5.90927C8.68066 2.80483 11.1976 0.289062 14.3009 0.289062C17.4053 0.289062 19.9222 2.80489 19.9222 5.90927Z" fill="#2862B6"/>
<path d="M2.91946 40.4641C4.53044 40.4641 5.83948 39.1584 5.83948 37.544V23.4275H7.59102V36.7381C7.59102 36.7457 7.58882 36.7501 7.58882 36.7578V66.5175C7.58882 68.1284 8.8945 69.4375 10.5088 69.4375C12.122 69.4375 13.4289 68.1318 13.4289 66.5175V42.5759L15.1771 42.5748V66.5164C15.1771 68.1273 16.4828 69.4364 18.0971 69.4364C19.7103 69.4364 21.0172 68.1307 21.0172 66.5164V23.4287H22.7687V37.5453C22.7687 39.1563 24.0744 40.4653 25.6887 40.4653C27.2997 40.4653 28.6087 39.1596 28.6087 37.5453V21.8047C28.6087 17.3792 25.0078 13.7783 20.5824 13.7783L8.02633 13.7794C3.6009 13.7794 0 17.3803 0 21.8058V37.5464C0 39.1574 1.30567 40.463 2.92002 40.463L2.91946 40.4641Z" fill="#2862B6"/>
<path d="M52.1115 5.90927C52.1115 9.01371 49.5957 11.5295 46.4913 11.5295C43.3869 11.5295 40.8711 9.01365 40.8711 5.90927C40.8711 2.80483 43.3869 0.289062 46.4913 0.289062C49.5957 0.289062 52.1115 2.80489 52.1115 5.90927Z" fill="#2862B6"/>
<path d="M35.109 40.4639C36.72 40.4639 38.029 39.1583 38.029 37.5439V23.4273H39.7805V36.7379C39.7805 36.7456 39.7783 36.75 39.7783 36.7577V66.5173C39.7783 68.1283 41.084 69.4374 42.6984 69.4374C44.3093 69.4374 45.6184 68.1317 45.6184 66.5173V42.5758H47.3699V66.5173C47.3699 68.1283 48.6756 69.4374 50.2899 69.4374C51.9031 69.4374 53.21 68.1317 53.21 66.5173V23.4297H54.9615V37.5463C54.9615 39.1572 56.2672 40.4663 57.8815 40.4663C59.4925 40.4663 60.8015 39.1606 60.8015 37.5463V21.8056C60.8015 17.3802 57.2006 13.7793 52.7752 13.7793H40.2256C35.8002 13.7793 32.1993 17.3802 32.1993 21.8056V37.5463C32.1894 39.1572 33.4973 40.4629 35.1095 40.4629L35.109 40.4639Z" fill="#2862B6"/>
<path d="M84.3244 5.90927C84.3244 9.01371 81.8086 11.5295 78.7042 11.5295C75.5997 11.5295 73.084 9.01365 73.084 5.90927C73.084 2.80483 75.5998 0.289062 78.7042 0.289062C81.8086 0.289062 84.3244 2.80489 84.3244 5.90927Z" fill="#2862B6"/>
<path d="M67.3194 40.4639C68.9304 40.4639 70.2395 39.1583 70.2395 37.5439V23.4273H71.991V36.7379C71.991 36.7456 71.9888 36.75 71.9888 36.7577V66.5173C71.9888 68.1283 73.2945 69.4374 74.9088 69.4374C76.522 69.4374 77.8288 68.1317 77.8288 66.5173V42.5758H79.5804V66.5173C79.5804 68.1283 80.886 69.4374 82.5004 69.4374C84.1136 69.4374 85.4204 68.1317 85.4204 66.5173V23.4297H87.1719V37.5463C87.1719 39.1572 88.4776 40.4663 90.092 40.4663C91.7029 40.4663 93.012 39.1606 93.012 37.5463V21.8056C93.012 17.3802 89.4111 13.7793 84.9857 13.7793H72.4361C68.0106 13.7793 64.4097 17.3802 64.4097 21.8056V37.5463C64.3998 39.1572 65.7088 40.4629 67.3199 40.4629L67.3194 40.4639Z" fill="#2862B6"/>
<path d="M116.536 5.90927C116.536 9.01371 114.021 11.5295 110.916 11.5295C107.812 11.5295 105.295 9.01365 105.295 5.90927C105.295 2.80483 107.812 0.289062 110.916 0.289062C114.021 0.289062 116.536 2.80489 116.536 5.90927Z" fill="#2862B6"/>
<path d="M99.5314 40.4639C101.142 40.4639 102.451 39.1583 102.451 37.5439V23.4273H104.203V36.7379C104.203 36.7456 104.201 36.75 104.201 36.7577V66.5173C104.201 68.1283 105.506 69.4374 107.121 69.4374C108.734 69.4374 110.041 68.1317 110.041 66.5173V42.5758H111.792V66.5173C111.792 68.1283 113.098 69.4374 114.712 69.4374C116.323 69.4374 117.632 68.1317 117.632 66.5173V23.4297H119.384V37.5463C119.384 39.1572 120.69 40.4663 122.304 40.4663C123.917 40.4663 125.224 39.1606 125.224 37.5463V21.8056C125.224 17.3802 121.623 13.7793 117.198 13.7793H104.642C100.216 13.7793 96.6152 17.3802 96.6152 21.8056V37.5463C96.6141 39.1572 97.9209 40.4629 99.5319 40.4629L99.5314 40.4639Z" fill="#2862B6"/>
<path d="M148.747 5.90927C148.747 9.01371 146.23 11.5295 143.127 11.5295C140.022 11.5295 137.505 9.01365 137.505 5.90927C137.505 2.80483 140.022 0.289062 143.127 0.289062C146.23 0.289062 148.747 2.80489 148.747 5.90927Z" fill="#2862B6"/>
<path d="M149.402 13.7791H136.853C132.427 13.7791 128.826 17.38 128.826 21.8054V37.546C128.826 39.157 130.132 40.4661 131.746 40.4661C133.357 40.4661 134.666 39.1604 134.666 37.546V23.4295H136.418V36.7401C136.418 36.7477 136.416 36.7521 136.416 36.7598V66.5195C136.416 68.1305 137.721 69.4395 139.336 69.4395C140.949 69.4395 142.256 68.1338 142.256 66.5195V42.5779H144.007V66.5195C144.007 68.1305 145.313 69.4395 146.927 69.4395C148.538 69.4395 149.847 68.1338 149.847 66.5195V23.4318H151.599V37.5484C151.599 39.1593 152.904 40.4684 154.519 40.4684C156.13 40.4673 157.429 39.1561 157.429 37.5453V21.8047C157.429 17.3792 153.828 13.7783 149.403 13.7783L149.402 13.7791Z" fill="#2862B6"/>
<path d="M181.493 5.87621C181.493 8.97953 178.977 11.4964 175.872 11.4964C172.769 11.4964 170.252 8.9795 170.252 5.87621C170.252 2.77178 172.769 0.254883 175.872 0.254883C178.977 0.254883 181.493 2.7718 181.493 5.87621Z" fill="#E69D4A"/>
<path d="M164.491 40.4299C166.102 40.4299 167.411 39.1242 167.411 37.5099V23.3933H169.162V36.7039C169.162 36.7116 169.16 36.716 169.16 36.7236V66.4833C169.16 68.0943 170.466 69.4033 172.08 69.4033C173.693 69.4033 175 68.0976 175 66.4833V42.5418L176.748 42.5407V66.4822C176.748 68.0932 178.054 69.4022 179.668 69.4022C181.282 69.4022 182.588 68.0965 182.588 66.4822V23.3945H184.34V37.5111C184.34 39.1221 185.646 40.4311 187.26 40.4311C188.871 40.4311 190.18 39.1254 190.18 37.5111V21.7705C190.18 17.345 186.579 13.7441 182.154 13.7441H169.598C165.172 13.7419 161.571 17.3439 161.571 21.7682V37.5089C161.571 39.1198 162.877 40.4289 164.491 40.4289L164.491 40.4299Z" fill="#E69D4A"/>
<path d="M213.683 5.87621C213.683 8.97953 211.167 11.4964 208.063 11.4964C204.958 11.4964 202.442 8.9795 202.442 5.87621C202.442 2.77178 204.958 0.254883 208.063 0.254883C211.167 0.254883 213.683 2.7718 213.683 5.87621Z" fill="#E69D4A"/>
<path d="M196.68 40.4298C198.291 40.4298 199.6 39.1241 199.6 37.5097V23.3932H201.352V36.7038C201.352 36.7114 201.35 36.7158 201.35 36.7235V66.4832C201.35 68.0941 202.655 69.4032 204.27 69.4032C205.881 69.4032 207.19 68.0975 207.19 66.4832V42.5416H208.941V66.4832C208.941 68.0941 210.247 69.4032 211.861 69.4032C213.474 69.4032 214.781 68.0975 214.781 66.4832V23.3955H216.533V37.5121C216.533 39.123 217.838 40.4321 219.453 40.4321C221.064 40.4321 222.373 39.1264 222.373 37.5121V21.7715C222.373 17.346 218.772 13.7451 214.346 13.7451H201.797C197.371 13.7451 193.771 17.346 193.771 21.7715V37.5121C193.761 39.1198 195.069 40.4287 196.681 40.4287L196.68 40.4298Z" fill="#E69D4A"/>
<path d="M245.896 5.87621C245.896 8.97953 243.38 11.4964 240.275 11.4964C237.171 11.4964 234.655 8.9795 234.655 5.87621C234.655 2.77178 237.171 0.254883 240.275 0.254883C243.38 0.254883 245.896 2.7718 245.896 5.87621Z" fill="#E69D4A"/>
<path d="M228.891 40.4298C230.502 40.4298 231.811 39.1241 231.811 37.5097V23.3932H233.562V36.7038C233.562 36.7114 233.56 36.7158 233.56 36.7235V66.4832C233.56 68.0941 234.866 69.4032 236.48 69.4032C238.093 69.4032 239.4 68.0975 239.4 66.4832V42.5416H241.152V66.4832C241.152 68.0941 242.457 69.4032 244.072 69.4032C245.685 69.4032 246.992 68.0975 246.992 66.4832V23.3955H248.743V37.5121C248.743 39.123 250.049 40.4321 251.663 40.4321C253.274 40.4321 254.583 39.1264 254.583 37.5121V21.7715C254.583 17.346 250.982 13.7451 246.557 13.7451H234.007C229.582 13.7451 225.981 17.346 225.981 21.7715V37.5121C225.971 39.1198 227.28 40.4287 228.891 40.4287L228.891 40.4298Z" fill="#E69D4A"/>
<path d="M278.108 5.87621C278.108 8.97953 275.592 11.4964 272.488 11.4964C269.383 11.4964 266.866 8.9795 266.866 5.87621C266.866 2.77178 269.383 0.254883 272.488 0.254883C275.592 0.254883 278.108 2.7718 278.108 5.87621Z" fill="#E69D4A"/>
<path d="M261.103 40.4299C262.714 40.4299 264.023 39.1242 264.023 37.5099V23.3933H265.774V36.7039C265.774 36.7116 265.772 36.716 265.772 36.7236V66.4833C265.772 68.0943 267.078 69.4033 268.692 69.4033C270.305 69.4033 271.612 68.0976 271.612 66.4833V42.5418H273.364V66.4833C273.364 68.0943 274.669 69.4033 276.284 69.4033C277.895 69.4033 279.204 68.0976 279.204 66.4833V23.3956H280.955V37.5122C280.955 39.1232 282.261 40.4322 283.875 40.4322C285.488 40.4322 286.795 39.1265 286.795 37.5122V21.7716C286.795 17.3461 283.194 13.7452 278.769 13.7452L266.213 13.7441C261.787 13.7441 258.187 17.345 258.187 21.7705V37.5111C258.185 39.1199 259.492 40.4289 261.103 40.4289L261.103 40.4299Z" fill="#E69D4A"/>
<path d="M310.318 5.87621C310.318 8.97953 307.801 11.4964 304.698 11.4964C301.594 11.4964 299.077 8.9795 299.077 5.87621C299.077 2.77178 301.594 0.254883 304.698 0.254883C307.801 0.254883 310.318 2.7718 310.318 5.87621Z" fill="#E69D4A"/>
<path d="M310.973 13.7429H298.424C293.998 13.7429 290.397 17.3438 290.397 21.7693V37.5099C290.397 39.1209 291.703 40.4299 293.317 40.4299C294.928 40.4299 296.238 39.1243 296.238 37.5099V23.3933H297.989V36.7039C297.989 36.7116 297.987 36.716 297.987 36.7237V66.4833C297.987 68.0943 299.293 69.4034 300.907 69.4034C302.52 69.4034 303.827 68.0977 303.827 66.4833V42.5418H305.578V66.4833C305.578 68.0943 306.884 69.4034 308.498 69.4034C310.109 69.4034 311.418 68.0977 311.418 66.4833V23.3957H313.17V37.5122C313.17 39.1232 314.476 40.4323 316.09 40.4323C317.701 40.4312 319 39.12 319 37.5091V21.7685C319 17.3442 315.399 13.7422 310.974 13.7422L310.973 13.7429Z" fill="#E69D4A"/>
</svg>
